# MagicaVoxel @ Ephtracy

# group
o 

# material
mtllib PinkBook.mtl
usemtl palette

# normals
vn -1 0 0
vn 1 0 0
vn 0 0 1
vn 0 0 -1
vn 0 -1 0
vn 0 1 0

# texcoords
vt 0.837891 0.5
vt 0.873047 0.5
vt 0.888672 0.5
vt 0.896484 0.5
vt 0.912109 0.5
vt 0.958984 0.5

# verts
v -0.8 0 0.2
v -0.8 0 0.1
v -0.8 0 0
v -0.8 0 -0.1
v -0.8 2 0.2
v -0.8 2 0.1
v -0.8 2 0
v -0.8 2 -0.1
v 0.7 0 0.2
v 0.7 0 -0.1
v 0.7 2 0.2
v 0.7 2 -0.1
v -0.8 0 0.2
v -0.8 2 0.2
v 0.5 0 0.2
v 0.5 2 0.2
v 0.7 0 0.2
v 0.7 2 0.2
v -0.8 0 -0.1
v -0.8 2 -0.1
v -0.7 0.8 -0.1
v -0.7 0.9 -0.1
v -0.6 0.2 -0.1
v -0.6 0.3 -0.1
v -0.6 0.4 -0.1
v -0.6 0.5 -0.1
v -0.6 0.6 -0.1
v -0.6 0.7 -0.1
v -0.5 0.8 -0.1
v -0.5 0.9 -0.1
v -0.5 1.6 -0.1
v -0.5 1.7 -0.1
v -0.4 1.6 -0.1
v -0.4 1.7 -0.1
v -0.3 1.2 -0.1
v -0.3 1.3 -0.1
v -0.2 1.2 -0.1
v -0.2 1.3 -0.1
v -0.1 1 -0.1
v -0.1 1.1 -0.1
v 0 1 -0.1
v 0 1.1 -0.1
v 0.1 1.7 -0.1
v 0.1 1.8 -0.1
v 0.2 1.7 -0.1
v 0.2 1.8 -0.1
v 0.3 0.2 -0.1
v 0.3 0.3 -0.1
v 0.3 0.4 -0.1
v 0.3 0.5 -0.1
v 0.3 0.6 -0.1
v 0.3 0.7 -0.1
v 0.3 1.2 -0.1
v 0.3 1.3 -0.1
v 0.4 1.2 -0.1
v 0.4 1.3 -0.1
v 0.5 0 -0.1
v 0.5 2 -0.1
v 0.7 0 -0.1
v 0.7 2 -0.1
v -0.8 0 0.2
v 0.5 0 0.2
v 0.7 0 0.2
v -0.8 0 0.1
v -0.7 0 0.1
v 0.5 0 0.1
v -0.8 0 0
v -0.7 0 0
v 0.5 0 0
v -0.8 0 -0.1
v 0.5 0 -0.1
v 0.7 0 -0.1
v -0.8 2 0.2
v 0.5 2 0.2
v 0.7 2 0.2
v -0.8 2 0.1
v -0.7 2 0.1
v 0.5 2 0.1
v -0.8 2 0
v -0.7 2 0
v 0.5 2 0
v -0.8 2 -0.1
v 0.5 2 -0.1
v 0.7 2 -0.1

# faces
f 5/4/1 2/4/1 1/4/1
f 6/6/1 3/6/1 2/6/1
f 6/4/1 2/4/1 5/4/1
f 7/4/1 4/4/1 3/4/1
f 7/6/1 3/6/1 6/6/1
f 8/4/1 4/4/1 7/4/1
f 9/2/2 10/2/2 11/2/2
f 11/2/2 10/2/2 12/2/2
f 15/4/3 14/4/3 13/4/3
f 16/4/3 14/4/3 15/4/3
f 17/2/3 16/2/3 15/2/3
f 18/2/3 16/2/3 17/2/3
f 19/4/4 20/4/4 21/4/4
f 21/4/4 20/4/4 22/4/4
f 19/4/4 21/4/4 23/4/4
f 23/4/4 21/4/4 24/4/4
f 24/4/4 21/4/4 25/4/4
f 25/4/4 21/4/4 26/4/4
f 26/4/4 21/4/4 27/4/4
f 27/4/4 21/4/4 28/4/4
f 21/1/4 22/1/4 29/1/4
f 28/4/4 21/4/4 29/4/4
f 22/4/4 20/4/4 30/4/4
f 29/1/4 22/1/4 30/1/4
f 30/4/4 20/4/4 31/4/4
f 31/4/4 20/4/4 32/4/4
f 29/4/4 30/4/4 33/4/4
f 30/4/4 31/4/4 33/4/4
f 31/1/4 32/1/4 33/1/4
f 32/4/4 20/4/4 34/4/4
f 33/1/4 32/1/4 34/1/4
f 29/4/4 33/4/4 35/4/4
f 33/4/4 34/4/4 35/4/4
f 35/4/4 34/4/4 36/4/4
f 29/4/4 35/4/4 37/4/4
f 35/1/4 36/1/4 37/1/4
f 36/4/4 34/4/4 38/4/4
f 37/1/4 36/1/4 38/1/4
f 29/4/4 37/4/4 39/4/4
f 37/4/4 38/4/4 39/4/4
f 39/4/4 38/4/4 40/4/4
f 29/4/4 39/4/4 41/4/4
f 39/1/4 40/1/4 41/1/4
f 40/4/4 38/4/4 42/4/4
f 41/1/4 40/1/4 42/1/4
f 34/4/4 20/4/4 43/4/4
f 42/4/4 38/4/4 43/4/4
f 41/4/4 42/4/4 43/4/4
f 38/4/4 34/4/4 43/4/4
f 43/4/4 20/4/4 44/4/4
f 41/4/4 43/4/4 45/4/4
f 43/1/4 44/1/4 45/1/4
f 44/4/4 20/4/4 46/4/4
f 45/1/4 44/1/4 46/1/4
f 19/4/4 23/4/4 47/4/4
f 23/3/4 24/3/4 47/3/4
f 24/4/4 25/4/4 48/4/4
f 47/3/4 24/3/4 48/3/4
f 25/3/4 26/3/4 49/3/4
f 48/4/4 25/4/4 49/4/4
f 26/4/4 27/4/4 50/4/4
f 49/3/4 26/3/4 50/3/4
f 27/3/4 28/3/4 51/3/4
f 50/4/4 27/4/4 51/4/4
f 28/4/4 29/4/4 52/4/4
f 51/3/4 28/3/4 52/3/4
f 45/4/4 46/4/4 52/4/4
f 41/4/4 45/4/4 52/4/4
f 29/4/4 41/4/4 52/4/4
f 52/4/4 46/4/4 53/4/4
f 53/4/4 46/4/4 54/4/4
f 50/4/4 51/4/4 55/4/4
f 49/4/4 50/4/4 55/4/4
f 53/1/4 54/1/4 55/1/4
f 52/4/4 53/4/4 55/4/4
f 51/4/4 52/4/4 55/4/4
f 47/4/4 48/4/4 55/4/4
f 48/4/4 49/4/4 55/4/4
f 54/4/4 46/4/4 56/4/4
f 55/1/4 54/1/4 56/1/4
f 47/4/4 55/4/4 57/4/4
f 19/4/4 47/4/4 57/4/4
f 55/4/4 56/4/4 57/4/4
f 56/4/4 46/4/4 58/4/4
f 57/4/4 56/4/4 58/4/4
f 46/4/4 20/4/4 58/4/4
f 57/2/4 58/2/4 59/2/4
f 59/2/4 58/2/4 60/2/4
f 64/4/5 62/4/5 61/4/5
f 65/4/5 62/4/5 64/4/5
f 66/2/5 63/2/5 62/2/5
f 66/4/5 62/4/5 65/4/5
f 67/6/5 65/6/5 64/6/5
f 68/5/5 66/5/5 65/5/5
f 68/6/5 65/6/5 67/6/5
f 69/2/5 63/2/5 66/2/5
f 69/5/5 66/5/5 68/5/5
f 70/4/5 68/4/5 67/4/5
f 70/4/5 69/4/5 68/4/5
f 71/2/5 63/2/5 69/2/5
f 71/4/5 69/4/5 70/4/5
f 72/2/5 63/2/5 71/2/5
f 73/4/6 74/4/6 76/4/6
f 76/4/6 74/4/6 77/4/6
f 74/2/6 75/2/6 78/2/6
f 77/4/6 74/4/6 78/4/6
f 76/6/6 77/6/6 79/6/6
f 77/5/6 78/5/6 80/5/6
f 79/6/6 77/6/6 80/6/6
f 78/2/6 75/2/6 81/2/6
f 80/5/6 78/5/6 81/5/6
f 79/4/6 80/4/6 82/4/6
f 80/4/6 81/4/6 82/4/6
f 81/2/6 75/2/6 83/2/6
f 82/4/6 81/4/6 83/4/6
f 83/2/6 75/2/6 84/2/6
