# MagicaVoxel @ Ephtracy

# group
o 

# material
mtllib G3.mtl
usemtl palette

# normals
vn -1 0 0
vn 1 0 0
vn 0 0 1
vn 0 0 -1
vn 0 -1 0
vn 0 1 0

# texcoords
vt 0.0605469 0.5
vt 0.259766 0.5
vt 0.478516 0.5
vt 0.482422 0.5
vt 0.603516 0.5
vt 0.666016 0.5
vt 0.705078 0.5
vt 0.783203 0.5
vt 0.916016 0.5

# verts
v -0.8 0 1.4
v -0.8 0 -1.4
v -0.8 0.1 1.4
v -0.8 0.1 -1.4
v -0.7 0.1 -0.7
v -0.7 0.1 -1.3
v -0.7 0.2 -1.2
v -0.7 0.2 -1.3
v -0.7 0.3 -0.9
v -0.7 0.3 -1
v -0.7 0.3 -1.2
v -0.7 0.3 -1.3
v -0.7 0.4 -0.7
v -0.7 0.4 -0.9
v -0.7 0.4 -1
v -0.7 0.4 -1.3
v -0.6 0.4 -0.8
v -0.6 0.4 -0.9
v -0.6 0.4 -1
v -0.6 0.4 -1.2
v -0.6 0.5 -0.8
v -0.6 0.5 -0.9
v -0.6 0.5 -1.2
v -0.6 1.4 -0.8
v -0.6 1.4 -1.2
v -0.6 1.5 -0.8
v -0.6 1.5 -1.2
v -0.5 0.1 -0.6
v -0.5 0.1 -0.7
v -0.5 0.1 -1.3
v -0.5 0.1 -1.4
v -0.5 0.2 -0.6
v -0.5 0.2 -0.7
v -0.5 0.2 -1.3
v -0.5 0.2 -1.4
v -0.5 0.5 -0.9
v -0.5 0.5 -1.1
v -0.5 1.1 -0.9
v -0.5 1.1 -1
v -0.5 1.2 -0.9
v -0.5 1.2 -1
v -0.5 1.3 -0.9
v -0.5 1.3 -1
v -0.5 1.4 -0.9
v -0.5 1.4 -1.1
v -0.5 1.5 -0.9
v -0.5 1.5 -1.1
v -0.5 1.6 -0.9
v -0.5 1.6 -1.1
v -0.4 1.6 -0.9
v -0.4 1.6 -1.1
v -0.4 1.7 -0.9
v -0.4 1.7 -1.1
v -0.3 1.7 -0.9
v -0.3 1.7 -1.1
v -0.3 1.8 -0.9
v -0.3 1.8 -1.1
v -0.2 1.8 -0.9
v -0.2 1.8 -1.1
v -0.2 1.9 -0.9
v -0.2 1.9 -1.1
v -0.2 2.2 -0.9
v -0.2 2.2 -1.1
v -0.2 2.3 -0.9
v -0.2 2.3 -1.1
v -0.1 1.9 -0.9
v -0.1 1.9 -1.1
v -0.1 2.2 -0.9
v -0.1 2.2 -1.1
v -0.1 2.3 -0.9
v -0.1 2.3 -1.1
v -0.1 2.4 -0.9
v -0.1 2.4 -1.1
v 5.96046e-08 1.9 -0.9
v 5.96046e-08 1.9 -1.1
v 5.96046e-08 2.2 -0.9
v 5.96046e-08 2.2 -1.1
v 5.96046e-08 2.3 -0.9
v 5.96046e-08 2.3 -1.1
v 5.96046e-08 2.4 -0.9
v 5.96046e-08 2.4 -1.1
v 0.1 1.8 -0.9
v 0.1 1.8 -1.1
v 0.1 1.9 -0.9
v 0.1 1.9 -1.1
v 0.1 2.2 -0.9
v 0.1 2.2 -1.1
v 0.1 2.3 -0.9
v 0.1 2.3 -1.1
v 0.2 1.7 -0.9
v 0.2 1.7 -1.1
v 0.2 1.8 -0.9
v 0.2 1.8 -1.1
v 0.3 1.6 -0.9
v 0.3 1.6 -1
v 0.3 1.6 -1.1
v 0.3 1.7 -0.9
v 0.3 1.7 -1.1
v 0.4 0.1 -0.6
v 0.4 0.1 -0.7
v 0.4 0.1 -1.3
v 0.4 0.1 -1.4
v 0.4 0.2 -0.6
v 0.4 0.2 -0.7
v 0.4 0.2 -1.3
v 0.4 0.2 -1.4
v 0.4 0.5 -0.9
v 0.4 0.5 -1.1
v 0.4 0.6 -1
v 0.4 0.6 -1.1
v 0.4 0.7 -1
v 0.4 0.7 -1.1
v 0.4 1 -0.9
v 0.4 1 -1
v 0.4 1.1 -0.9
v 0.4 1.1 -1
v 0.4 1.4 -0.9
v 0.4 1.4 -1.1
v 0.4 1.5 -0.9
v 0.4 1.5 -1
v 0.4 1.5 -1.1
v 0.4 1.6 -0.9
v 0.4 1.6 -1
v 0.4 1.6 -1.1
v 0.5 0.4 -0.8
v 0.5 0.4 -0.9
v 0.5 0.4 -1.2
v 0.5 0.5 -0.8
v 0.5 0.5 -0.9
v 0.5 0.5 -1.2
v 0.5 1.4 -0.8
v 0.5 1.4 -1.2
v 0.5 1.5 -0.8
v 0.5 1.5 -1.2
v 0.6 0.1 -0.7
v 0.6 0.1 -1.3
v 0.6 0.2 -1
v 0.6 0.2 -1.1
v 0.6 0.3 -1
v 0.6 0.3 -1.1
v 0.6 0.4 -0.7
v 0.6 0.4 -1.3
v 0.7 0 1.4
v 0.7 0 -1.4
v 0.7 0.1 1.4
v 0.7 0.1 -1.4
v -0.8 0 1.4
v -0.8 0.1 1.4
v 0.7 0 1.4
v 0.7 0.1 1.4
v -0.5 0.1 -0.6
v -0.5 0.2 -0.6
v 0.4 0.1 -0.6
v 0.4 0.2 -0.6
v -0.7 0.1 -0.7
v -0.7 0.4 -0.7
v -0.6 0.2 -0.7
v -0.6 0.3 -0.7
v -0.5 0.1 -0.7
v -0.5 0.2 -0.7
v -0.5 0.3 -0.7
v -0.4 0.3 -0.7
v -0.4 0.4 -0.7
v -0.3 0.3 -0.7
v -0.3 0.4 -0.7
v -0.2 0.3 -0.7
v -0.2 0.4 -0.7
v 0.4 0.1 -0.7
v 0.4 0.2 -0.7
v 0.4 0.3 -0.7
v 0.5 0.2 -0.7
v 0.5 0.3 -0.7
v 0.6 0.1 -0.7
v 0.6 0.4 -0.7
v -0.6 0.4 -0.8
v -0.6 0.5 -0.8
v -0.6 1.4 -0.8
v -0.6 1.5 -0.8
v -0.5 0.4 -0.8
v -0.5 0.5 -0.8
v -0.4 0.4 -0.8
v -0.3 0.4 -0.8
v -0.2 0.4 -0.8
v 0.4 0.4 -0.8
v 0.4 0.5 -0.8
v 0.5 0.4 -0.8
v 0.5 0.5 -0.8
v 0.5 1.4 -0.8
v 0.5 1.5 -0.8
v -0.5 0.5 -0.9
v -0.5 1.1 -0.9
v -0.5 1.2 -0.9
v -0.5 1.3 -0.9
v -0.5 1.4 -0.9
v -0.5 1.5 -0.9
v -0.5 1.6 -0.9
v -0.4 1.1 -0.9
v -0.4 1.2 -0.9
v -0.4 1.3 -0.9
v -0.4 1.6 -0.9
v -0.4 1.7 -0.9
v -0.3 1.1 -0.9
v -0.3 1.2 -0.9
v -0.3 1.3 -0.9
v -0.3 1.6 -0.9
v -0.3 1.7 -0.9
v -0.3 1.8 -0.9
v -0.2 0.9 -0.9
v -0.2 1 -0.9
v -0.2 1.6 -0.9
v -0.2 1.7 -0.9
v -0.2 1.8 -0.9
v -0.2 1.9 -0.9
v -0.2 2.2 -0.9
v -0.2 2.3 -0.9
v -0.1 1.9 -0.9
v -0.1 2.2 -0.9
v -0.1 2.3 -0.9
v -0.1 2.4 -0.9
v 5.96046e-08 1.7 -0.9
v 5.96046e-08 1.8 -0.9
v 5.96046e-08 1.9 -0.9
v 5.96046e-08 2.2 -0.9
v 5.96046e-08 2.3 -0.9
v 5.96046e-08 2.4 -0.9
v 0.1 0.9 -0.9
v 0.1 1 -0.9
v 0.1 1.7 -0.9
v 0.1 1.8 -0.9
v 0.1 1.9 -0.9
v 0.1 2.2 -0.9
v 0.1 2.3 -0.9
v 0.2 1.1 -0.9
v 0.2 1.2 -0.9
v 0.2 1.7 -0.9
v 0.2 1.8 -0.9
v 0.3 1 -0.9
v 0.3 1.1 -0.9
v 0.3 1.5 -0.9
v 0.3 1.6 -0.9
v 0.3 1.7 -0.9
v 0.4 0.5 -0.9
v 0.4 1 -0.9
v 0.4 1.1 -0.9
v 0.4 1.4 -0.9
v 0.4 1.5 -0.9
v 0.4 1.6 -0.9
v -0.5 0.5 -1.1
v -0.5 1.4 -1.1
v -0.5 1.5 -1.1
v -0.5 1.6 -1.1
v -0.4 1.6 -1.1
v -0.4 1.7 -1.1
v -0.3 1 -1.1
v -0.3 1.1 -1.1
v -0.3 1.7 -1.1
v -0.3 1.8 -1.1
v -0.2 1 -1.1
v -0.2 1.1 -1.1
v -0.2 1.8 -1.1
v -0.2 1.9 -1.1
v -0.2 2.2 -1.1
v -0.2 2.3 -1.1
v -0.1 0.5 -1.1
v -0.1 0.6 -1.1
v -0.1 1.9 -1.1
v -0.1 2.2 -1.1
v -0.1 2.3 -1.1
v -0.1 2.4 -1.1
v 5.96046e-08 0.5 -1.1
v 5.96046e-08 0.6 -1.1
v 5.96046e-08 1.9 -1.1
v 5.96046e-08 2.2 -1.1
v 5.96046e-08 2.3 -1.1
v 5.96046e-08 2.4 -1.1
v 0.1 1.8 -1.1
v 0.1 1.9 -1.1
v 0.1 2.2 -1.1
v 0.1 2.3 -1.1
v 0.2 1.7 -1.1
v 0.2 1.8 -1.1
v 0.3 0.6 -1.1
v 0.3 0.7 -1.1
v 0.3 1.6 -1.1
v 0.3 1.7 -1.1
v 0.4 0.5 -1.1
v 0.4 0.6 -1.1
v 0.4 0.7 -1.1
v 0.4 1.4 -1.1
v 0.4 1.5 -1.1
v 0.4 1.6 -1.1
v -0.6 0.4 -1.2
v -0.6 0.5 -1.2
v -0.6 1.4 -1.2
v -0.6 1.5 -1.2
v -0.5 0.4 -1.2
v -0.4 0.4 -1.2
v 0.5 0.4 -1.2
v 0.5 0.5 -1.2
v 0.5 1.4 -1.2
v 0.5 1.5 -1.2
v -0.7 0.1 -1.3
v -0.7 0.2 -1.3
v -0.7 0.3 -1.3
v -0.7 0.4 -1.3
v -0.6 0.2 -1.3
v -0.6 0.3 -1.3
v -0.5 0.1 -1.3
v -0.5 0.2 -1.3
v -0.5 0.3 -1.3
v -0.5 0.4 -1.3
v -0.4 0.3 -1.3
v -0.4 0.4 -1.3
v -0.1 0.2 -1.3
v 5.96046e-08 0.2 -1.3
v 0.2 0.2 -1.3
v 0.2 0.3 -1.3
v 0.3 0.2 -1.3
v 0.3 0.3 -1.3
v 0.4 0.1 -1.3
v 0.4 0.2 -1.3
v 0.6 0.1 -1.3
v 0.6 0.4 -1.3
v -0.8 0 -1.4
v -0.8 0.1 -1.4
v -0.5 0.1 -1.4
v -0.5 0.2 -1.4
v -0.1 0.1 -1.4
v -0.1 0.2 -1.4
v 5.96046e-08 0.1 -1.4
v 5.96046e-08 0.2 -1.4
v 0.4 0.1 -1.4
v 0.4 0.2 -1.4
v 0.7 0 -1.4
v 0.7 0.1 -1.4
v -0.8 0 1.4
v 0.7 0 1.4
v -0.8 0 -1.4
v 0.7 0 -1.4
v -0.6 1.4 -0.8
v 0.5 1.4 -0.8
v -0.5 1.4 -0.9
v 0.4 1.4 -0.9
v -0.5 1.4 -1.1
v 0.4 1.4 -1.1
v -0.6 1.4 -1.2
v 0.5 1.4 -1.2
v -0.2 2.2 -0.9
v -0.1 2.2 -0.9
v 5.96046e-08 2.2 -0.9
v 0.1 2.2 -0.9
v -0.2 2.2 -1.1
v -0.1 2.2 -1.1
v 5.96046e-08 2.2 -1.1
v 0.1 2.2 -1.1
v -0.8 0.1 1.4
v 0.7 0.1 1.4
v -0.5 0.1 -0.6
v 0.4 0.1 -0.6
v -0.7 0.1 -0.7
v -0.5 0.1 -0.7
v 0.4 0.1 -0.7
v 0.6 0.1 -0.7
v -0.7 0.1 -1.3
v -0.5 0.1 -1.3
v 0.4 0.1 -1.3
v 0.6 0.1 -1.3
v -0.8 0.1 -1.4
v -0.5 0.1 -1.4
v 0.4 0.1 -1.4
v 0.7 0.1 -1.4
v -0.5 0.2 -0.6
v 0.4 0.2 -0.6
v -0.5 0.2 -0.7
v 0.4 0.2 -0.7
v -0.5 0.2 -1.3
v -0.1 0.2 -1.3
v 5.96046e-08 0.2 -1.3
v 0.2 0.2 -1.3
v 0.3 0.2 -1.3
v 0.4 0.2 -1.3
v -0.5 0.2 -1.4
v -0.1 0.2 -1.4
v 5.96046e-08 0.2 -1.4
v 0.4 0.2 -1.4
v -0.7 0.4 -0.7
v -0.4 0.4 -0.7
v -0.3 0.4 -0.7
v -0.2 0.4 -0.7
v 0.6 0.4 -0.7
v -0.6 0.4 -0.8
v -0.5 0.4 -0.8
v -0.4 0.4 -0.8
v -0.3 0.4 -0.8
v -0.2 0.4 -0.8
v 0.4 0.4 -0.8
v 0.5 0.4 -0.8
v -0.7 0.4 -0.9
v -0.6 0.4 -0.9
v 0.5 0.4 -0.9
v -0.7 0.4 -1
v -0.6 0.4 -1
v -0.6 0.4 -1.2
v -0.5 0.4 -1.2
v -0.4 0.4 -1.2
v 0.5 0.4 -1.2
v -0.7 0.4 -1.3
v -0.5 0.4 -1.3
v -0.4 0.4 -1.3
v 0.6 0.4 -1.3
v -0.6 0.5 -0.8
v -0.5 0.5 -0.8
v 0.4 0.5 -0.8
v 0.5 0.5 -0.8
v -0.6 0.5 -0.9
v -0.5 0.5 -0.9
v 0.4 0.5 -0.9
v 0.5 0.5 -0.9
v -0.5 0.5 -1.1
v -0.1 0.5 -1.1
v 5.96046e-08 0.5 -1.1
v 0.4 0.5 -1.1
v -0.6 0.5 -1.2
v 0.5 0.5 -1.2
v -0.6 1.5 -0.8
v 0.5 1.5 -0.8
v -0.5 1.5 -0.9
v 0.3 1.5 -0.9
v 0.4 1.5 -0.9
v 0.4 1.5 -1
v -0.5 1.5 -1.1
v 0.4 1.5 -1.1
v -0.6 1.5 -1.2
v 0.5 1.5 -1.2
v -0.5 1.6 -0.9
v -0.4 1.6 -0.9
v 0.3 1.6 -0.9
v 0.4 1.6 -0.9
v 0.3 1.6 -1
v 0.4 1.6 -1
v -0.5 1.6 -1.1
v -0.4 1.6 -1.1
v 0.3 1.6 -1.1
v 0.4 1.6 -1.1
v -0.4 1.7 -0.9
v -0.3 1.7 -0.9
v 0.2 1.7 -0.9
v 0.3 1.7 -0.9
v -0.4 1.7 -1.1
v -0.3 1.7 -1.1
v 0.2 1.7 -1.1
v 0.3 1.7 -1.1
v -0.3 1.8 -0.9
v -0.2 1.8 -0.9
v 0.1 1.8 -0.9
v 0.2 1.8 -0.9
v -0.3 1.8 -1.1
v -0.2 1.8 -1.1
v 0.1 1.8 -1.1
v 0.2 1.8 -1.1
v -0.2 1.9 -0.9
v -0.1 1.9 -0.9
v 5.96046e-08 1.9 -0.9
v 0.1 1.9 -0.9
v -0.2 1.9 -1.1
v -0.1 1.9 -1.1
v 5.96046e-08 1.9 -1.1
v 0.1 1.9 -1.1
v -0.2 2.3 -0.9
v -0.1 2.3 -0.9
v 5.96046e-08 2.3 -0.9
v 0.1 2.3 -0.9
v -0.2 2.3 -1.1
v -0.1 2.3 -1.1
v 5.96046e-08 2.3 -1.1
v 0.1 2.3 -1.1
v -0.1 2.4 -0.9
v 5.96046e-08 2.4 -0.9
v -0.1 2.4 -1.1
v 5.96046e-08 2.4 -1.1

# faces
f 3/6/1 2/6/1 1/6/1
f 4/6/1 2/6/1 3/6/1
f 7/3/1 6/3/1 5/3/1
f 8/3/1 6/3/1 7/3/1
f 9/3/1 7/3/1 5/3/1
f 10/3/1 7/3/1 9/3/1
f 11/7/1 8/7/1 7/7/1
f 11/3/1 7/3/1 10/3/1
f 12/7/1 8/7/1 11/7/1
f 13/3/1 9/3/1 5/3/1
f 14/2/1 10/2/1 9/2/1
f 14/3/1 9/3/1 13/3/1
f 15/3/1 11/3/1 10/3/1
f 15/2/1 10/2/1 14/2/1
f 15/3/1 12/3/1 11/3/1
f 16/3/1 12/3/1 15/3/1
f 21/9/1 18/9/1 17/9/1
f 22/3/1 20/3/1 19/3/1
f 22/9/1 18/9/1 21/9/1
f 22/3/1 19/3/1 18/3/1
f 23/3/1 20/3/1 22/3/1
f 26/5/1 25/5/1 24/5/1
f 27/5/1 25/5/1 26/5/1
f 32/3/1 29/3/1 28/3/1
f 33/3/1 29/3/1 32/3/1
f 34/3/1 31/3/1 30/3/1
f 35/3/1 31/3/1 34/3/1
f 38/3/1 37/3/1 36/3/1
f 39/3/1 37/3/1 38/3/1
f 40/4/1 39/4/1 38/4/1
f 41/3/1 37/3/1 39/3/1
f 41/4/1 39/4/1 40/4/1
f 42/2/1 41/2/1 40/2/1
f 43/3/1 37/3/1 41/3/1
f 43/2/1 41/2/1 42/2/1
f 44/3/1 43/3/1 42/3/1
f 45/3/1 37/3/1 43/3/1
f 45/3/1 43/3/1 44/3/1
f 48/3/1 47/3/1 46/3/1
f 49/3/1 47/3/1 48/3/1
f 52/3/1 51/3/1 50/3/1
f 53/3/1 51/3/1 52/3/1
f 56/3/1 55/3/1 54/3/1
f 57/3/1 55/3/1 56/3/1
f 60/3/1 59/3/1 58/3/1
f 61/3/1 59/3/1 60/3/1
f 64/1/1 63/1/1 62/1/1
f 65/1/1 63/1/1 64/1/1
f 68/1/1 67/1/1 66/1/1
f 69/1/1 67/1/1 68/1/1
f 72/1/1 71/1/1 70/1/1
f 73/1/1 71/1/1 72/1/1
f 74/1/2 75/1/2 76/1/2
f 76/1/2 75/1/2 77/1/2
f 78/1/2 79/1/2 80/1/2
f 80/1/2 79/1/2 81/1/2
f 82/3/2 83/3/2 84/3/2
f 84/3/2 83/3/2 85/3/2
f 86/1/2 87/1/2 88/1/2
f 88/1/2 87/1/2 89/1/2
f 90/3/2 91/3/2 92/3/2
f 92/3/2 91/3/2 93/3/2
f 94/3/2 95/3/2 97/3/2
f 95/3/2 96/3/2 97/3/2
f 97/3/2 96/3/2 98/3/2
f 99/3/2 100/3/2 103/3/2
f 103/3/2 100/3/2 104/3/2
f 101/3/2 102/3/2 105/3/2
f 105/3/2 102/3/2 106/3/2
f 107/3/2 108/3/2 109/3/2
f 109/3/2 108/3/2 110/3/2
f 107/3/2 109/3/2 111/3/2
f 109/2/2 110/2/2 111/2/2
f 111/2/2 110/2/2 112/2/2
f 107/3/2 111/3/2 113/3/2
f 111/3/2 112/3/2 113/3/2
f 113/3/2 112/3/2 114/3/2
f 113/5/2 114/5/2 115/5/2
f 114/3/2 112/3/2 116/3/2
f 115/5/2 114/5/2 116/5/2
f 115/3/2 116/3/2 117/3/2
f 116/3/2 112/3/2 118/3/2
f 117/3/2 116/3/2 118/3/2
f 119/9/2 120/9/2 122/9/2
f 120/3/2 121/3/2 123/3/2
f 122/9/2 120/9/2 123/9/2
f 123/3/2 121/3/2 124/3/2
f 125/7/2 126/7/2 128/7/2
f 126/3/2 127/3/2 129/3/2
f 128/7/2 126/7/2 129/7/2
f 129/3/2 127/3/2 130/3/2
f 131/5/2 132/5/2 133/5/2
f 133/5/2 132/5/2 134/5/2
f 135/3/2 136/3/2 137/3/2
f 137/3/2 136/3/2 138/3/2
f 135/3/2 137/3/2 139/3/2
f 137/7/2 138/7/2 139/7/2
f 138/3/2 136/3/2 140/3/2
f 139/7/2 138/7/2 140/7/2
f 135/3/2 139/3/2 141/3/2
f 139/3/2 140/3/2 141/3/2
f 140/3/2 136/3/2 142/3/2
f 141/3/2 140/3/2 142/3/2
f 143/6/2 144/6/2 145/6/2
f 145/6/2 144/6/2 146/6/2
f 149/6/3 148/6/3 147/6/3
f 150/6/3 148/6/3 149/6/3
f 153/3/3 152/3/3 151/3/3
f 154/3/3 152/3/3 153/3/3
f 157/3/3 156/3/3 155/3/3
f 158/3/3 156/3/3 157/3/3
f 159/3/3 157/3/3 155/3/3
f 160/7/3 158/7/3 157/7/3
f 160/3/3 157/3/3 159/3/3
f 161/3/3 156/3/3 158/3/3
f 161/7/3 158/7/3 160/7/3
f 162/3/3 156/3/3 161/3/3
f 162/3/3 161/3/3 160/3/3
f 163/3/3 156/3/3 162/3/3
f 164/3/3 162/3/3 160/3/3
f 164/5/3 163/5/3 162/5/3
f 165/5/3 163/5/3 164/5/3
f 166/3/3 164/3/3 160/3/3
f 166/2/3 165/2/3 164/2/3
f 167/2/3 165/2/3 166/2/3
f 169/3/3 166/3/3 160/3/3
f 169/3/3 167/3/3 166/3/3
f 170/3/3 167/3/3 169/3/3
f 171/3/3 169/3/3 168/3/3
f 171/7/3 170/7/3 169/7/3
f 172/3/3 167/3/3 170/3/3
f 172/7/3 170/7/3 171/7/3
f 173/3/3 171/3/3 168/3/3
f 173/3/3 172/3/3 171/3/3
f 174/3/3 167/3/3 172/3/3
f 174/3/3 172/3/3 173/3/3
f 179/9/3 176/9/3 175/9/3
f 180/9/3 176/9/3 179/9/3
f 181/3/3 180/3/3 179/3/3
f 182/3/3 180/3/3 181/3/3
f 183/3/3 180/3/3 182/3/3
f 184/3/3 180/3/3 183/3/3
f 185/3/3 180/3/3 184/3/3
f 186/7/3 185/7/3 184/7/3
f 187/7/3 185/7/3 186/7/3
f 188/5/3 178/5/3 177/5/3
f 189/5/3 178/5/3 188/5/3
f 197/3/3 191/3/3 190/3/3
f 197/4/3 192/4/3 191/4/3
f 198/2/3 193/2/3 192/2/3
f 198/4/3 192/4/3 197/4/3
f 199/3/3 194/3/3 193/3/3
f 199/2/3 193/2/3 198/2/3
f 200/3/3 196/3/3 195/3/3
f 202/3/3 198/3/3 197/3/3
f 202/3/3 197/3/3 190/3/3
f 203/4/3 199/4/3 198/4/3
f 203/3/3 198/3/3 202/3/3
f 204/3/3 194/3/3 199/3/3
f 204/4/3 199/4/3 203/4/3
f 205/3/3 201/3/3 200/3/3
f 205/3/3 200/3/3 195/3/3
f 206/3/3 201/3/3 205/3/3
f 208/3/3 202/3/3 190/3/3
f 209/3/3 202/3/3 208/3/3
f 210/3/3 205/3/3 195/3/3
f 210/5/3 206/5/3 205/5/3
f 211/3/3 207/3/3 206/3/3
f 211/5/3 206/5/3 210/5/3
f 212/3/3 207/3/3 211/3/3
f 216/3/3 211/3/3 210/3/3
f 216/3/3 212/3/3 211/3/3
f 216/3/3 213/3/3 212/3/3
f 217/1/3 215/1/3 214/1/3
f 218/1/3 215/1/3 217/1/3
f 220/3/3 216/3/3 210/3/3
f 221/3/3 216/3/3 220/3/3
f 222/1/3 219/1/3 218/1/3
f 222/3/3 216/3/3 221/3/3
f 222/1/3 217/1/3 216/1/3
f 222/1/3 218/1/3 217/1/3
f 223/1/3 219/1/3 222/1/3
f 224/1/3 219/1/3 223/1/3
f 225/1/3 219/1/3 224/1/3
f 226/8/3 209/8/3 208/8/3
f 226/3/3 208/3/3 190/3/3
f 227/3/3 202/3/3 209/3/3
f 227/8/3 209/8/3 226/8/3
f 228/2/3 221/2/3 220/2/3
f 228/3/3 220/3/3 210/3/3
f 229/3/3 222/3/3 221/3/3
f 229/2/3 221/2/3 228/2/3
f 230/3/3 222/3/3 229/3/3
f 231/1/3 224/1/3 223/1/3
f 232/1/3 224/1/3 231/1/3
f 233/8/3 203/8/3 202/8/3
f 233/3/3 202/3/3 227/3/3
f 233/3/3 227/3/3 226/3/3
f 234/3/3 204/3/3 203/3/3
f 234/8/3 203/8/3 233/8/3
f 235/3/3 229/3/3 228/3/3
f 235/3/3 228/3/3 210/3/3
f 236/3/3 229/3/3 235/3/3
f 237/3/3 233/3/3 226/3/3
f 237/3/3 234/3/3 233/3/3
f 238/3/3 234/3/3 237/3/3
f 239/3/3 210/3/3 195/3/3
f 239/3/3 235/3/3 210/3/3
f 240/3/3 235/3/3 239/3/3
f 241/3/3 235/3/3 240/3/3
f 242/3/3 226/3/3 190/3/3
f 242/3/3 237/3/3 226/3/3
f 243/5/3 238/5/3 237/5/3
f 243/3/3 237/3/3 242/3/3
f 244/3/3 234/3/3 238/3/3
f 244/5/3 238/5/3 243/5/3
f 245/3/3 194/3/3 204/3/3
f 245/3/3 234/3/3 244/3/3
f 245/3/3 204/3/3 234/3/3
f 246/9/3 240/9/3 239/9/3
f 247/9/3 240/9/3 246/9/3
f 250/3/4 251/3/4 252/3/4
f 248/3/4 249/3/4 254/3/4
f 254/3/4 249/3/4 255/3/4
f 252/3/4 253/3/4 256/3/4
f 248/3/4 254/3/4 258/3/4
f 254/2/4 255/2/4 258/2/4
f 255/3/4 249/3/4 259/3/4
f 258/2/4 255/2/4 259/2/4
f 256/3/4 257/3/4 260/3/4
f 248/3/4 258/3/4 264/3/4
f 258/3/4 259/3/4 264/3/4
f 264/3/4 259/3/4 265/3/4
f 260/3/4 261/3/4 266/3/4
f 262/1/4 263/1/4 267/1/4
f 267/1/4 263/1/4 268/1/4
f 264/7/4 265/7/4 270/7/4
f 265/3/4 259/3/4 271/3/4
f 270/7/4 265/7/4 271/7/4
f 260/3/4 266/3/4 272/3/4
f 268/1/4 269/1/4 272/1/4
f 266/1/4 267/1/4 272/1/4
f 267/1/4 268/1/4 272/1/4
f 272/1/4 269/1/4 273/1/4
f 273/1/4 269/1/4 274/1/4
f 274/1/4 269/1/4 275/1/4
f 256/3/4 260/3/4 276/3/4
f 260/3/4 272/3/4 276/3/4
f 276/3/4 272/3/4 277/3/4
f 273/1/4 274/1/4 278/1/4
f 278/1/4 274/1/4 279/1/4
f 252/3/4 256/3/4 280/3/4
f 256/3/4 276/3/4 280/3/4
f 280/3/4 276/3/4 281/3/4
f 271/3/4 259/3/4 282/3/4
f 270/3/4 271/3/4 282/3/4
f 282/3/4 259/3/4 283/3/4
f 250/3/4 252/3/4 284/3/4
f 252/3/4 280/3/4 284/3/4
f 284/3/4 280/3/4 285/3/4
f 270/3/4 282/3/4 286/3/4
f 282/2/4 283/2/4 287/2/4
f 286/3/4 282/3/4 287/3/4
f 283/3/4 259/3/4 288/3/4
f 287/2/4 283/2/4 288/2/4
f 259/3/4 249/3/4 289/3/4
f 288/3/4 259/3/4 289/3/4
f 250/3/4 284/3/4 290/3/4
f 290/3/4 284/3/4 291/3/4
f 292/3/4 293/3/4 296/3/4
f 296/3/4 293/3/4 297/3/4
f 297/3/4 293/3/4 298/3/4
f 298/3/4 293/3/4 299/3/4
f 294/5/4 295/5/4 300/5/4
f 300/5/4 295/5/4 301/5/4
f 302/3/4 303/3/4 306/3/4
f 303/7/4 304/7/4 306/7/4
f 304/3/4 305/3/4 307/3/4
f 306/7/4 304/7/4 307/7/4
f 302/3/4 306/3/4 308/3/4
f 306/3/4 307/3/4 308/3/4
f 308/3/4 307/3/4 309/3/4
f 307/3/4 305/3/4 310/3/4
f 309/3/4 307/3/4 310/3/4
f 310/3/4 305/3/4 311/3/4
f 309/3/4 310/3/4 312/3/4
f 310/2/4 311/2/4 312/2/4
f 312/2/4 311/2/4 313/2/4
f 309/3/4 312/3/4 314/3/4
f 312/3/4 313/3/4 314/3/4
f 314/3/4 313/3/4 315/3/4
f 315/3/4 313/3/4 316/3/4
f 316/3/4 313/3/4 317/3/4
f 316/7/4 317/7/4 318/7/4
f 317/3/4 313/3/4 319/3/4
f 318/7/4 317/7/4 319/7/4
f 318/3/4 319/3/4 321/3/4
f 320/3/4 321/3/4 322/3/4
f 319/3/4 313/3/4 323/3/4
f 322/3/4 321/3/4 323/3/4
f 321/3/4 319/3/4 323/3/4
f 324/6/4 325/6/4 326/6/4
f 324/6/4 326/6/4 328/6/4
f 326/3/4 327/3/4 328/3/4
f 328/3/4 327/3/4 329/3/4
f 324/6/4 328/6/4 330/6/4
f 328/2/4 329/2/4 330/2/4
f 330/2/4 329/2/4 331/2/4
f 324/6/4 330/6/4 332/6/4
f 330/3/4 331/3/4 332/3/4
f 332/3/4 331/3/4 333/3/4
f 324/6/4 332/6/4 334/6/4
f 334/6/4 332/6/4 335/6/4
f 338/6/5 337/6/5 336/6/5
f 339/6/5 337/6/5 338/6/5
f 342/5/5 341/5/5 340/5/5
f 343/5/5 341/5/5 342/5/5
f 344/5/5 342/5/5 340/5/5
f 345/5/5 341/5/5 343/5/5
f 346/5/5 344/5/5 340/5/5
f 346/5/5 345/5/5 344/5/5
f 347/5/5 341/5/5 345/5/5
f 347/5/5 345/5/5 346/5/5
f 352/1/5 349/1/5 348/1/5
f 353/1/5 349/1/5 352/1/5
f 354/1/5 351/1/5 350/1/5
f 355/1/5 351/1/5 354/1/5
f 356/6/6 357/6/6 358/6/6
f 358/6/6 357/6/6 359/6/6
f 356/6/6 358/6/6 360/6/6
f 360/6/6 358/6/6 361/6/6
f 359/6/6 357/6/6 362/6/6
f 362/6/6 357/6/6 363/6/6
f 356/6/6 360/6/6 364/6/6
f 363/6/6 357/6/6 367/6/6
f 364/6/6 365/6/6 368/6/6
f 356/6/6 364/6/6 368/6/6
f 368/6/6 365/6/6 369/6/6
f 366/6/6 367/6/6 370/6/6
f 367/6/6 357/6/6 371/6/6
f 370/6/6 367/6/6 371/6/6
f 372/3/6 373/3/6 374/3/6
f 374/3/6 373/3/6 375/3/6
f 376/3/6 377/3/6 382/3/6
f 377/2/6 378/2/6 383/2/6
f 382/3/6 377/3/6 383/3/6
f 380/3/6 381/3/6 384/3/6
f 383/2/6 378/2/6 384/2/6
f 378/3/6 379/3/6 384/3/6
f 379/3/6 380/3/6 384/3/6
f 384/3/6 381/3/6 385/3/6
f 386/3/6 387/3/6 391/3/6
f 391/3/6 387/3/6 392/3/6
f 387/5/6 388/5/6 393/5/6
f 392/3/6 387/3/6 393/3/6
f 388/2/6 389/2/6 394/2/6
f 393/5/6 388/5/6 394/5/6
f 389/3/6 390/3/6 395/3/6
f 394/2/6 389/2/6 395/2/6
f 395/3/6 390/3/6 396/3/6
f 396/3/6 390/3/6 397/3/6
f 386/3/6 391/3/6 398/3/6
f 398/3/6 391/3/6 399/3/6
f 397/3/6 390/3/6 400/3/6
f 398/2/6 399/2/6 401/2/6
f 401/2/6 399/2/6 402/2/6
f 401/3/6 402/3/6 403/3/6
f 400/3/6 390/3/6 406/3/6
f 401/3/6 403/3/6 407/3/6
f 403/3/6 404/3/6 407/3/6
f 404/2/6 405/2/6 408/2/6
f 407/3/6 404/3/6 408/3/6
f 405/3/6 406/3/6 409/3/6
f 408/2/6 405/2/6 409/2/6
f 406/3/6 390/3/6 410/3/6
f 409/3/6 406/3/6 410/3/6
f 411/9/6 412/9/6 415/9/6
f 412/3/6 413/3/6 416/3/6
f 415/9/6 412/9/6 416/9/6
f 413/7/6 414/7/6 417/7/6
f 416/3/6 413/3/6 417/3/6
f 417/7/6 414/7/6 418/7/6
f 415/3/6 416/3/6 419/3/6
f 417/3/6 418/3/6 422/3/6
f 420/3/6 421/3/6 423/3/6
f 421/3/6 422/3/6 423/3/6
f 415/3/6 419/3/6 423/3/6
f 419/3/6 420/3/6 423/3/6
f 422/3/6 418/3/6 424/3/6
f 423/3/6 422/3/6 424/3/6
f 425/5/6 426/5/6 427/5/6
f 427/5/6 426/5/6 428/5/6
f 428/5/6 426/5/6 429/5/6
f 429/5/6 426/5/6 430/5/6
f 425/5/6 427/5/6 431/5/6
f 430/5/6 426/5/6 432/5/6
f 425/5/6 431/5/6 433/5/6
f 431/5/6 432/5/6 433/5/6
f 432/5/6 426/5/6 434/5/6
f 433/5/6 432/5/6 434/5/6
f 437/9/6 438/9/6 439/9/6
f 439/9/6 438/9/6 440/9/6
f 435/3/6 436/3/6 441/3/6
f 441/3/6 436/3/6 442/3/6
f 439/3/6 440/3/6 443/3/6
f 443/3/6 440/3/6 444/3/6
f 445/3/6 446/3/6 449/3/6
f 449/3/6 446/3/6 450/3/6
f 447/3/6 448/3/6 451/3/6
f 451/3/6 448/3/6 452/3/6
f 453/3/6 454/3/6 457/3/6
f 457/3/6 454/3/6 458/3/6
f 455/3/6 456/3/6 459/3/6
f 459/3/6 456/3/6 460/3/6
f 461/3/6 462/3/6 465/3/6
f 465/3/6 462/3/6 466/3/6
f 463/3/6 464/3/6 467/3/6
f 467/3/6 464/3/6 468/3/6
f 469/1/6 470/1/6 473/1/6
f 473/1/6 470/1/6 474/1/6
f 471/1/6 472/1/6 475/1/6
f 475/1/6 472/1/6 476/1/6
f 477/1/6 478/1/6 479/1/6
f 479/1/6 478/1/6 480/1/6
