# MagicaVoxel @ Ephtracy

# group
o 

# material
mtllib Library_Window.mtl
usemtl palette

# normals
vn -1 0 0
vn 1 0 0
vn 0 0 1
vn 0 0 -1
vn 0 -1 0
vn 0 1 0

# texcoords
vt 0.306641 0.5
vt 0.958984 0.5
vt 0.962891 0.5

# verts
v -0.2 0.9 0.7
v -0.2 0.9 0.4
v -0.2 3.4 0.7
v -0.2 3.4 0.4
v 1.2 1 0.7
v 1.2 1 0.6
v 1.2 1 0.5
v 1.2 1 0.4
v 1.2 3.3 0.7
v 1.2 3.3 0.6
v 1.2 3.3 0.5
v 1.2 3.3 0.4
v -0.0999999 1 0.7
v -0.0999999 1 0.6
v -0.0999999 1 0.5
v -0.0999999 1 0.4
v -0.0999999 3.3 0.7
v -0.0999999 3.3 0.6
v -0.0999999 3.3 0.5
v -0.0999999 3.3 0.4
v 1.3 0.9 0.7
v 1.3 0.9 0.4
v 1.3 3.4 0.7
v 1.3 3.4 0.4
v -0.2 0.9 0.7
v -0.2 3.4 0.7
v -0.0999999 1 0.7
v -0.0999999 3.3 0.7
v 1.2 1 0.7
v 1.2 3.3 0.7
v 1.3 0.9 0.7
v 1.3 3.4 0.7
v -0.0999999 1 0.6
v -0.0999999 3.3 0.6
v 5.96046e-08 1.1 0.6
v 5.96046e-08 2.1 0.6
v 5.96046e-08 2.2 0.6
v 5.96046e-08 3.2 0.6
v 0.1 1.9 0.6
v 0.1 2 0.6
v 0.1 3 0.6
v 0.1 3.1 0.6
v 0.2 1.4 0.6
v 0.2 1.5 0.6
v 0.2 1.8 0.6
v 0.2 1.9 0.6
v 0.2 2 0.6
v 0.2 2.5 0.6
v 0.2 2.6 0.6
v 0.2 2.9 0.6
v 0.2 3 0.6
v 0.2 3.1 0.6
v 0.3 1.3 0.6
v 0.3 1.4 0.6
v 0.3 1.5 0.6
v 0.3 1.8 0.6
v 0.3 1.9 0.6
v 0.3 2.4 0.6
v 0.3 2.5 0.6
v 0.3 2.6 0.6
v 0.3 2.9 0.6
v 0.3 3 0.6
v 0.4 1.3 0.6
v 0.4 1.4 0.6
v 0.4 2.4 0.6
v 0.4 2.5 0.6
v 0.5 1.1 0.6
v 0.5 2.1 0.6
v 0.5 2.2 0.6
v 0.5 3.2 0.6
v 0.6 1.1 0.6
v 0.6 2.1 0.6
v 0.6 2.2 0.6
v 0.6 3.2 0.6
v 0.7 1.9 0.6
v 0.7 2 0.6
v 0.7 3 0.6
v 0.7 3.1 0.6
v 0.8 1.4 0.6
v 0.8 1.5 0.6
v 0.8 1.8 0.6
v 0.8 1.9 0.6
v 0.8 2 0.6
v 0.8 2.5 0.6
v 0.8 2.6 0.6
v 0.8 2.9 0.6
v 0.8 3 0.6
v 0.8 3.1 0.6
v 0.9 1.3 0.6
v 0.9 1.4 0.6
v 0.9 1.5 0.6
v 0.9 1.8 0.6
v 0.9 1.9 0.6
v 0.9 2.4 0.6
v 0.9 2.5 0.6
v 0.9 2.6 0.6
v 0.9 2.9 0.6
v 0.9 3 0.6
v 1 1.3 0.6
v 1 1.4 0.6
v 1 2.4 0.6
v 1 2.5 0.6
v 1.1 1.1 0.6
v 1.1 2.1 0.6
v 1.1 2.2 0.6
v 1.1 3.2 0.6
v 1.2 1 0.6
v 1.2 3.3 0.6
v -0.0999999 1 0.5
v -0.0999999 3.3 0.5
v 5.96046e-08 1.1 0.5
v 5.96046e-08 2.1 0.5
v 5.96046e-08 2.2 0.5
v 5.96046e-08 3.2 0.5
v 0.1 1.9 0.5
v 0.1 2 0.5
v 0.1 3 0.5
v 0.1 3.1 0.5
v 0.2 1.4 0.5
v 0.2 1.5 0.5
v 0.2 1.8 0.5
v 0.2 1.9 0.5
v 0.2 2 0.5
v 0.2 2.5 0.5
v 0.2 2.6 0.5
v 0.2 2.9 0.5
v 0.2 3 0.5
v 0.2 3.1 0.5
v 0.3 1.3 0.5
v 0.3 1.4 0.5
v 0.3 1.5 0.5
v 0.3 1.8 0.5
v 0.3 1.9 0.5
v 0.3 2.4 0.5
v 0.3 2.5 0.5
v 0.3 2.6 0.5
v 0.3 2.9 0.5
v 0.3 3 0.5
v 0.4 1.3 0.5
v 0.4 1.4 0.5
v 0.4 2.4 0.5
v 0.4 2.5 0.5
v 0.5 1.1 0.5
v 0.5 2.1 0.5
v 0.5 2.2 0.5
v 0.5 3.2 0.5
v 0.6 1.1 0.5
v 0.6 2.1 0.5
v 0.6 2.2 0.5
v 0.6 3.2 0.5
v 0.7 1.9 0.5
v 0.7 2 0.5
v 0.7 3 0.5
v 0.7 3.1 0.5
v 0.8 1.4 0.5
v 0.8 1.5 0.5
v 0.8 1.8 0.5
v 0.8 1.9 0.5
v 0.8 2 0.5
v 0.8 2.5 0.5
v 0.8 2.6 0.5
v 0.8 2.9 0.5
v 0.8 3 0.5
v 0.8 3.1 0.5
v 0.9 1.3 0.5
v 0.9 1.4 0.5
v 0.9 1.5 0.5
v 0.9 1.8 0.5
v 0.9 1.9 0.5
v 0.9 2.4 0.5
v 0.9 2.5 0.5
v 0.9 2.6 0.5
v 0.9 2.9 0.5
v 0.9 3 0.5
v 1 1.3 0.5
v 1 1.4 0.5
v 1 2.4 0.5
v 1 2.5 0.5
v 1.1 1.1 0.5
v 1.1 2.1 0.5
v 1.1 2.2 0.5
v 1.1 3.2 0.5
v 1.2 1 0.5
v 1.2 3.3 0.5
v -0.2 0.9 0.4
v -0.2 3.4 0.4
v -0.0999999 1 0.4
v -0.0999999 3.3 0.4
v 1.2 1 0.4
v 1.2 3.3 0.4
v 1.3 0.9 0.4
v 1.3 3.4 0.4
v -0.2 0.9 0.7
v 1.3 0.9 0.7
v -0.2 0.9 0.4
v 1.3 0.9 0.4
v -0.0999999 3.3 0.7
v 1.2 3.3 0.7
v -0.0999999 3.3 0.6
v 1.2 3.3 0.6
v -0.0999999 3.3 0.5
v 1.2 3.3 0.5
v -0.0999999 3.3 0.4
v 1.2 3.3 0.4
v -0.0999999 1 0.7
v 1.2 1 0.7
v -0.0999999 1 0.6
v 1.2 1 0.6
v -0.0999999 1 0.5
v 1.2 1 0.5
v -0.0999999 1 0.4
v 1.2 1 0.4
v -0.2 3.4 0.7
v 1.3 3.4 0.7
v -0.2 3.4 0.4
v 1.3 3.4 0.4

# faces
f 3/2/1 2/2/1 1/2/1
f 4/2/1 2/2/1 3/2/1
f 9/2/1 6/2/1 5/2/1
f 10/2/1 6/2/1 9/2/1
f 11/2/1 8/2/1 7/2/1
f 12/2/1 8/2/1 11/2/1
f 13/2/2 14/2/2 17/2/2
f 17/2/2 14/2/2 18/2/2
f 15/2/2 16/2/2 19/2/2
f 19/2/2 16/2/2 20/2/2
f 21/2/2 22/2/2 23/2/2
f 23/2/2 22/2/2 24/2/2
f 27/2/3 26/2/3 25/2/3
f 28/2/3 26/2/3 27/2/3
f 29/2/3 27/2/3 25/2/3
f 30/2/3 26/2/3 28/2/3
f 31/2/3 29/2/3 25/2/3
f 31/2/3 30/2/3 29/2/3
f 32/2/3 26/2/3 30/2/3
f 32/2/3 30/2/3 31/2/3
f 35/2/3 34/2/3 33/2/3
f 36/2/3 34/2/3 35/2/3
f 37/2/3 34/2/3 36/2/3
f 38/2/3 34/2/3 37/2/3
f 39/1/3 36/1/3 35/1/3
f 40/1/3 36/1/3 39/1/3
f 41/1/3 38/1/3 37/1/3
f 42/1/3 38/1/3 41/1/3
f 43/1/3 39/1/3 35/1/3
f 44/1/3 39/1/3 43/1/3
f 45/1/3 39/1/3 44/1/3
f 46/3/3 40/3/3 39/3/3
f 46/1/3 39/1/3 45/1/3
f 47/1/3 36/1/3 40/1/3
f 47/3/3 40/3/3 46/3/3
f 48/1/3 41/1/3 37/1/3
f 49/1/3 41/1/3 48/1/3
f 50/1/3 41/1/3 49/1/3
f 51/3/3 42/3/3 41/3/3
f 51/1/3 41/1/3 50/1/3
f 52/1/3 38/1/3 42/1/3
f 52/3/3 42/3/3 51/3/3
f 53/1/3 43/1/3 35/1/3
f 54/3/3 44/3/3 43/3/3
f 54/1/3 43/1/3 53/1/3
f 55/1/3 45/1/3 44/1/3
f 55/3/3 44/3/3 54/3/3
f 56/3/3 46/3/3 45/3/3
f 56/1/3 45/1/3 55/1/3
f 57/1/3 47/1/3 46/1/3
f 57/3/3 46/3/3 56/3/3
f 58/1/3 48/1/3 37/1/3
f 59/3/3 49/3/3 48/3/3
f 59/1/3 48/1/3 58/1/3
f 60/1/3 50/1/3 49/1/3
f 60/3/3 49/3/3 59/3/3
f 61/3/3 51/3/3 50/3/3
f 61/1/3 50/1/3 60/1/3
f 62/1/3 52/1/3 51/1/3
f 62/3/3 51/3/3 61/3/3
f 63/3/3 54/3/3 53/3/3
f 63/1/3 53/1/3 35/1/3
f 64/1/3 55/1/3 54/1/3
f 64/3/3 54/3/3 63/3/3
f 64/1/3 56/1/3 55/1/3
f 64/1/3 57/1/3 56/1/3
f 65/3/3 59/3/3 58/3/3
f 65/1/3 58/1/3 37/1/3
f 66/1/3 60/1/3 59/1/3
f 66/3/3 59/3/3 65/3/3
f 66/1/3 62/1/3 61/1/3
f 66/1/3 61/1/3 60/1/3
f 67/2/3 35/2/3 33/2/3
f 67/1/3 63/1/3 35/1/3
f 67/1/3 64/1/3 63/1/3
f 68/2/3 37/2/3 36/2/3
f 68/1/3 64/1/3 67/1/3
f 68/1/3 36/1/3 47/1/3
f 68/1/3 47/1/3 57/1/3
f 68/1/3 57/1/3 64/1/3
f 69/1/3 66/1/3 65/1/3
f 69/2/3 37/2/3 68/2/3
f 69/1/3 65/1/3 37/1/3
f 70/1/3 62/1/3 66/1/3
f 70/1/3 66/1/3 69/1/3
f 70/2/3 34/2/3 38/2/3
f 70/1/3 52/1/3 62/1/3
f 70/1/3 38/1/3 52/1/3
f 71/2/3 69/2/3 68/2/3
f 71/2/3 68/2/3 67/2/3
f 71/2/3 70/2/3 69/2/3
f 71/2/3 67/2/3 33/2/3
f 72/2/3 70/2/3 71/2/3
f 73/2/3 70/2/3 72/2/3
f 74/2/3 34/2/3 70/2/3
f 74/2/3 70/2/3 73/2/3
f 75/1/3 72/1/3 71/1/3
f 76/1/3 72/1/3 75/1/3
f 77/1/3 74/1/3 73/1/3
f 78/1/3 74/1/3 77/1/3
f 79/1/3 75/1/3 71/1/3
f 80/1/3 75/1/3 79/1/3
f 81/1/3 75/1/3 80/1/3
f 82/3/3 76/3/3 75/3/3
f 82/1/3 75/1/3 81/1/3
f 83/1/3 72/1/3 76/1/3
f 83/3/3 76/3/3 82/3/3
f 84/1/3 77/1/3 73/1/3
f 85/1/3 77/1/3 84/1/3
f 86/1/3 77/1/3 85/1/3
f 87/3/3 78/3/3 77/3/3
f 87/1/3 77/1/3 86/1/3
f 88/1/3 74/1/3 78/1/3
f 88/3/3 78/3/3 87/3/3
f 89/1/3 79/1/3 71/1/3
f 90/3/3 80/3/3 79/3/3
f 90/1/3 79/1/3 89/1/3
f 91/1/3 81/1/3 80/1/3
f 91/3/3 80/3/3 90/3/3
f 92/3/3 82/3/3 81/3/3
f 92/1/3 81/1/3 91/1/3
f 93/1/3 83/1/3 82/1/3
f 93/3/3 82/3/3 92/3/3
f 94/1/3 84/1/3 73/1/3
f 95/3/3 85/3/3 84/3/3
f 95/1/3 84/1/3 94/1/3
f 96/1/3 86/1/3 85/1/3
f 96/3/3 85/3/3 95/3/3
f 97/3/3 87/3/3 86/3/3
f 97/1/3 86/1/3 96/1/3
f 98/1/3 88/1/3 87/1/3
f 98/3/3 87/3/3 97/3/3
f 99/3/3 90/3/3 89/3/3
f 99/1/3 89/1/3 71/1/3
f 100/1/3 91/1/3 90/1/3
f 100/3/3 90/3/3 99/3/3
f 100/1/3 92/1/3 91/1/3
f 100/1/3 93/1/3 92/1/3
f 101/3/3 95/3/3 94/3/3
f 101/1/3 94/1/3 73/1/3
f 102/1/3 96/1/3 95/1/3
f 102/3/3 95/3/3 101/3/3
f 102/1/3 98/1/3 97/1/3
f 102/1/3 97/1/3 96/1/3
f 103/2/3 71/2/3 33/2/3
f 103/1/3 99/1/3 71/1/3
f 103/1/3 100/1/3 99/1/3
f 104/2/3 73/2/3 72/2/3
f 104/1/3 100/1/3 103/1/3
f 104/1/3 72/1/3 83/1/3
f 104/1/3 83/1/3 93/1/3
f 104/1/3 93/1/3 100/1/3
f 105/1/3 102/1/3 101/1/3
f 105/2/3 73/2/3 104/2/3
f 105/1/3 101/1/3 73/1/3
f 106/1/3 98/1/3 102/1/3
f 106/1/3 102/1/3 105/1/3
f 106/2/3 34/2/3 74/2/3
f 106/1/3 88/1/3 98/1/3
f 106/1/3 74/1/3 88/1/3
f 107/2/3 103/2/3 33/2/3
f 107/2/3 105/2/3 104/2/3
f 107/2/3 106/2/3 105/2/3
f 107/2/3 104/2/3 103/2/3
f 108/2/3 34/2/3 106/2/3
f 108/2/3 106/2/3 107/2/3
f 109/2/4 110/2/4 111/2/4
f 111/2/4 110/2/4 112/2/4
f 112/2/4 110/2/4 113/2/4
f 113/2/4 110/2/4 114/2/4
f 111/1/4 112/1/4 115/1/4
f 115/1/4 112/1/4 116/1/4
f 113/1/4 114/1/4 117/1/4
f 117/1/4 114/1/4 118/1/4
f 111/1/4 115/1/4 119/1/4
f 119/1/4 115/1/4 120/1/4
f 120/1/4 115/1/4 121/1/4
f 115/3/4 116/3/4 122/3/4
f 121/1/4 115/1/4 122/1/4
f 116/1/4 112/1/4 123/1/4
f 122/3/4 116/3/4 123/3/4
f 113/1/4 117/1/4 124/1/4
f 124/1/4 117/1/4 125/1/4
f 125/1/4 117/1/4 126/1/4
f 117/3/4 118/3/4 127/3/4
f 126/1/4 117/1/4 127/1/4
f 118/1/4 114/1/4 128/1/4
f 127/3/4 118/3/4 128/3/4
f 111/1/4 119/1/4 129/1/4
f 119/3/4 120/3/4 130/3/4
f 129/1/4 119/1/4 130/1/4
f 120/1/4 121/1/4 131/1/4
f 130/3/4 120/3/4 131/3/4
f 121/3/4 122/3/4 132/3/4
f 131/1/4 121/1/4 132/1/4
f 122/1/4 123/1/4 133/1/4
f 132/3/4 122/3/4 133/3/4
f 113/1/4 124/1/4 134/1/4
f 124/3/4 125/3/4 135/3/4
f 134/1/4 124/1/4 135/1/4
f 125/1/4 126/1/4 136/1/4
f 135/3/4 125/3/4 136/3/4
f 126/3/4 127/3/4 137/3/4
f 136/1/4 126/1/4 137/1/4
f 127/1/4 128/1/4 138/1/4
f 137/3/4 127/3/4 138/3/4
f 129/3/4 130/3/4 139/3/4
f 111/1/4 129/1/4 139/1/4
f 130/1/4 131/1/4 140/1/4
f 139/3/4 130/3/4 140/3/4
f 131/1/4 132/1/4 140/1/4
f 132/1/4 133/1/4 140/1/4
f 134/3/4 135/3/4 141/3/4
f 113/1/4 134/1/4 141/1/4
f 135/1/4 136/1/4 142/1/4
f 141/3/4 135/3/4 142/3/4
f 137/1/4 138/1/4 142/1/4
f 136/1/4 137/1/4 142/1/4
f 109/2/4 111/2/4 143/2/4
f 111/1/4 139/1/4 143/1/4
f 139/1/4 140/1/4 143/1/4
f 112/2/4 113/2/4 144/2/4
f 143/1/4 140/1/4 144/1/4
f 123/1/4 112/1/4 144/1/4
f 133/1/4 123/1/4 144/1/4
f 140/1/4 133/1/4 144/1/4
f 141/1/4 142/1/4 145/1/4
f 144/2/4 113/2/4 145/2/4
f 113/1/4 141/1/4 145/1/4
f 142/1/4 138/1/4 146/1/4
f 145/1/4 142/1/4 146/1/4
f 114/2/4 110/2/4 146/2/4
f 138/1/4 128/1/4 146/1/4
f 128/1/4 114/1/4 146/1/4
f 144/2/4 145/2/4 147/2/4
f 143/2/4 144/2/4 147/2/4
f 145/2/4 146/2/4 147/2/4
f 109/2/4 143/2/4 147/2/4
f 147/2/4 146/2/4 148/2/4
f 148/2/4 146/2/4 149/2/4
f 146/2/4 110/2/4 150/2/4
f 149/2/4 146/2/4 150/2/4
f 147/1/4 148/1/4 151/1/4
f 151/1/4 148/1/4 152/1/4
f 149/1/4 150/1/4 153/1/4
f 153/1/4 150/1/4 154/1/4
f 147/1/4 151/1/4 155/1/4
f 155/1/4 151/1/4 156/1/4
f 156/1/4 151/1/4 157/1/4
f 151/3/4 152/3/4 158/3/4
f 157/1/4 151/1/4 158/1/4
f 152/1/4 148/1/4 159/1/4
f 158/3/4 152/3/4 159/3/4
f 149/1/4 153/1/4 160/1/4
f 160/1/4 153/1/4 161/1/4
f 161/1/4 153/1/4 162/1/4
f 153/3/4 154/3/4 163/3/4
f 162/1/4 153/1/4 163/1/4
f 154/1/4 150/1/4 164/1/4
f 163/3/4 154/3/4 164/3/4
f 147/1/4 155/1/4 165/1/4
f 155/3/4 156/3/4 166/3/4
f 165/1/4 155/1/4 166/1/4
f 156/1/4 157/1/4 167/1/4
f 166/3/4 156/3/4 167/3/4
f 157/3/4 158/3/4 168/3/4
f 167/1/4 157/1/4 168/1/4
f 158/1/4 159/1/4 169/1/4
f 168/3/4 158/3/4 169/3/4
f 149/1/4 160/1/4 170/1/4
f 160/3/4 161/3/4 171/3/4
f 170/1/4 160/1/4 171/1/4
f 161/1/4 162/1/4 172/1/4
f 171/3/4 161/3/4 172/3/4
f 162/3/4 163/3/4 173/3/4
f 172/1/4 162/1/4 173/1/4
f 163/1/4 164/1/4 174/1/4
f 173/3/4 163/3/4 174/3/4
f 165/3/4 166/3/4 175/3/4
f 147/1/4 165/1/4 175/1/4
f 166/1/4 167/1/4 176/1/4
f 175/3/4 166/3/4 176/3/4
f 167/1/4 168/1/4 176/1/4
f 168/1/4 169/1/4 176/1/4
f 170/3/4 171/3/4 177/3/4
f 149/1/4 170/1/4 177/1/4
f 171/1/4 172/1/4 178/1/4
f 177/3/4 171/3/4 178/3/4
f 173/1/4 174/1/4 178/1/4
f 172/1/4 173/1/4 178/1/4
f 109/2/4 147/2/4 179/2/4
f 147/1/4 175/1/4 179/1/4
f 175/1/4 176/1/4 179/1/4
f 148/2/4 149/2/4 180/2/4
f 179/1/4 176/1/4 180/1/4
f 159/1/4 148/1/4 180/1/4
f 169/1/4 159/1/4 180/1/4
f 176/1/4 169/1/4 180/1/4
f 177/1/4 178/1/4 181/1/4
f 180/2/4 149/2/4 181/2/4
f 149/1/4 177/1/4 181/1/4
f 178/1/4 174/1/4 182/1/4
f 181/1/4 178/1/4 182/1/4
f 150/2/4 110/2/4 182/2/4
f 174/1/4 164/1/4 182/1/4
f 164/1/4 150/1/4 182/1/4
f 109/2/4 179/2/4 183/2/4
f 180/2/4 181/2/4 183/2/4
f 181/2/4 182/2/4 183/2/4
f 179/2/4 180/2/4 183/2/4
f 182/2/4 110/2/4 184/2/4
f 183/2/4 182/2/4 184/2/4
f 185/2/4 186/2/4 187/2/4
f 187/2/4 186/2/4 188/2/4
f 185/2/4 187/2/4 189/2/4
f 188/2/4 186/2/4 190/2/4
f 185/2/4 189/2/4 191/2/4
f 189/2/4 190/2/4 191/2/4
f 190/2/4 186/2/4 192/2/4
f 191/2/4 190/2/4 192/2/4
f 195/2/5 194/2/5 193/2/5
f 196/2/5 194/2/5 195/2/5
f 199/2/5 198/2/5 197/2/5
f 200/2/5 198/2/5 199/2/5
f 203/2/5 202/2/5 201/2/5
f 204/2/5 202/2/5 203/2/5
f 205/2/6 206/2/6 207/2/6
f 207/2/6 206/2/6 208/2/6
f 209/2/6 210/2/6 211/2/6
f 211/2/6 210/2/6 212/2/6
f 213/2/6 214/2/6 215/2/6
f 215/2/6 214/2/6 216/2/6
