# MagicaVoxel @ Ephtracy

# group
o 

# material
mtllib Pc_but_vox.mtl
usemtl palette

# normals
vn -1 0 0
vn 1 0 0
vn 0 0 1
vn 0 0 -1
vn 0 -1 0
vn 0 1 0

# texcoords
vt 0.00195313 0.5
vt 0.0449219 0.5
vt 0.0644531 0.5
vt 0.126953 0.5
vt 0.189453 0.5
vt 0.208984 0.5

# verts
v -0.7 0 0.3
v -0.7 0 -0.3
v -0.7 1.6 0.3
v -0.7 1.6 -0.3
v 0.7 0 0.3
v 0.7 0 -0.3
v 0.7 0.1 0.2
v 0.7 0.1 0.1
v 0.7 0.1 0
v 0.7 0.1 -0.1
v 0.7 0.2 0.2
v 0.7 0.2 0.1
v 0.7 0.2 0
v 0.7 0.2 -0.1
v 0.7 0.2 -0.2
v 0.7 0.3 0.2
v 0.7 0.3 0.1
v 0.7 0.3 0
v 0.7 0.3 -0.1
v 0.7 0.3 -0.2
v 0.7 0.4 0.2
v 0.7 0.4 0.1
v 0.7 0.4 0
v 0.7 0.4 -0.1
v 0.7 0.4 -0.2
v 0.7 0.5 0.2
v 0.7 0.5 0.1
v 0.7 0.5 0
v 0.7 0.5 -0.1
v 0.7 0.5 -0.2
v 0.7 0.6 0.2
v 0.7 0.6 0.1
v 0.7 0.6 0
v 0.7 0.6 -0.1
v 0.7 1 -0.1
v 0.7 1 -0.2
v 0.7 1.1 -0.1
v 0.7 1.1 -0.2
v 0.7 1.2 0.1
v 0.7 1.2 -0.2
v 0.7 1.3 0.1
v 0.7 1.3 -0.2
v 0.7 1.4 0.2
v 0.7 1.4 -0.2
v 0.7 1.5 0.2
v 0.7 1.5 -0.2
v 0.7 1.6 0.3
v 0.7 1.6 -0.3
v -0.7 0 0.3
v -0.7 1.6 0.3
v -0.6 0.1 0.3
v -0.6 0.2 0.3
v -0.6 0.3 0.3
v -0.6 0.4 0.3
v -0.5 0.1 0.3
v -0.5 0.2 0.3
v -0.5 0.3 0.3
v -0.5 0.4 0.3
v -0.5 0.5 0.3
v -0.4 0.1 0.3
v -0.4 0.2 0.3
v -0.4 0.3 0.3
v -0.4 0.4 0.3
v -0.4 0.5 0.3
v -0.3 0.1 0.3
v -0.3 0.2 0.3
v -0.3 0.3 0.3
v -0.3 0.4 0.3
v -0.3 0.5 0.3
v -0.2 0.1 0.3
v -0.2 0.2 0.3
v -0.2 0.3 0.3
v -0.2 0.4 0.3
v -0.2 0.5 0.3
v -0.1 0.1 0.3
v -0.1 0.2 0.3
v -0.1 0.3 0.3
v -0.1 0.4 0.3
v -0.1 0.5 0.3
v 0 0.2 0.3
v 0 0.3 0.3
v 0 0.4 0.3
v 0 0.5 0.3
v 0.7 0 0.3
v 0.7 1.6 0.3
v -0.7 0 -0.3
v -0.7 1.6 -0.3
v -0.6 1.1 -0.3
v -0.6 1.5 -0.3
v -0.5 1.2 -0.3
v -0.5 1.4 -0.3
v -0.3 1.2 -0.3
v -0.3 1.4 -0.3
v -0.2 1.1 -0.3
v -0.2 1.5 -0.3
v 0.7 0 -0.3
v 0.7 1.6 -0.3
v -0.7 0 0.3
v 0.7 0 0.3
v -0.7 0 -0.3
v 0.7 0 -0.3
v -0.7 1.6 0.3
v 0.7 1.6 0.3
v -0.7 1.6 -0.3
v 0.7 1.6 -0.3

# faces
f 3/3/1 2/3/1 1/3/1
f 4/3/1 2/3/1 3/3/1
f 5/3/2 6/3/2 7/3/2
f 7/3/2 6/3/2 8/3/2
f 8/3/2 6/3/2 9/3/2
f 9/3/2 6/3/2 10/3/2
f 5/3/2 7/3/2 11/3/2
f 7/4/2 8/4/2 11/4/2
f 8/3/2 9/3/2 12/3/2
f 11/4/2 8/4/2 12/4/2
f 9/4/2 10/4/2 13/4/2
f 12/3/2 9/3/2 13/3/2
f 10/3/2 6/3/2 14/3/2
f 13/4/2 10/4/2 14/4/2
f 14/3/2 6/3/2 15/3/2
f 11/3/2 12/3/2 16/3/2
f 5/3/2 11/3/2 16/3/2
f 12/4/2 13/4/2 17/4/2
f 16/3/2 12/3/2 17/3/2
f 13/3/2 14/3/2 18/3/2
f 17/4/2 13/4/2 18/4/2
f 14/4/2 15/4/2 19/4/2
f 18/3/2 14/3/2 19/3/2
f 15/3/2 6/3/2 20/3/2
f 19/4/2 15/4/2 20/4/2
f 5/3/2 16/3/2 21/3/2
f 16/4/2 17/4/2 21/4/2
f 17/3/2 18/3/2 22/3/2
f 21/4/2 17/4/2 22/4/2
f 18/4/2 19/4/2 23/4/2
f 22/3/2 18/3/2 23/3/2
f 19/3/2 20/3/2 24/3/2
f 23/4/2 19/4/2 24/4/2
f 20/3/2 6/3/2 25/3/2
f 24/3/2 20/3/2 25/3/2
f 21/3/2 22/3/2 26/3/2
f 5/3/2 21/3/2 26/3/2
f 22/4/2 23/4/2 27/4/2
f 26/3/2 22/3/2 27/3/2
f 23/3/2 24/3/2 28/3/2
f 27/4/2 23/4/2 28/4/2
f 24/4/2 25/4/2 29/4/2
f 28/3/2 24/3/2 29/3/2
f 25/3/2 6/3/2 30/3/2
f 29/4/2 25/4/2 30/4/2
f 26/4/2 27/4/2 31/4/2
f 5/3/2 26/3/2 31/3/2
f 27/3/2 28/3/2 32/3/2
f 31/4/2 27/4/2 32/4/2
f 28/4/2 29/4/2 33/4/2
f 32/3/2 28/3/2 33/3/2
f 29/3/2 30/3/2 34/3/2
f 33/4/2 29/4/2 34/4/2
f 31/3/2 32/3/2 35/3/2
f 34/3/2 30/3/2 35/3/2
f 33/3/2 34/3/2 35/3/2
f 32/3/2 33/3/2 35/3/2
f 30/3/2 6/3/2 36/3/2
f 35/3/2 30/3/2 36/3/2
f 31/3/2 35/3/2 37/3/2
f 35/2/2 36/2/2 37/2/2
f 36/3/2 6/3/2 38/3/2
f 37/2/2 36/2/2 38/2/2
f 31/3/2 37/3/2 39/3/2
f 37/3/2 38/3/2 39/3/2
f 38/3/2 6/3/2 40/3/2
f 39/3/2 38/3/2 40/3/2
f 31/3/2 39/3/2 41/3/2
f 39/1/2 40/1/2 41/1/2
f 40/3/2 6/3/2 42/3/2
f 41/1/2 40/1/2 42/1/2
f 31/3/2 41/3/2 43/3/2
f 5/3/2 31/3/2 43/3/2
f 41/3/2 42/3/2 43/3/2
f 42/3/2 6/3/2 44/3/2
f 43/3/2 42/3/2 44/3/2
f 5/3/2 43/3/2 45/3/2
f 43/1/2 44/1/2 45/1/2
f 44/3/2 6/3/2 46/3/2
f 45/1/2 44/1/2 46/1/2
f 5/3/2 45/3/2 47/3/2
f 45/3/2 46/3/2 47/3/2
f 46/3/2 6/3/2 48/3/2
f 47/3/2 46/3/2 48/3/2
f 51/3/3 50/3/3 49/3/3
f 52/3/3 50/3/3 51/3/3
f 53/3/3 50/3/3 52/3/3
f 54/3/3 50/3/3 53/3/3
f 55/3/3 51/3/3 49/3/3
f 55/4/3 52/4/3 51/4/3
f 56/3/3 53/3/3 52/3/3
f 56/4/3 52/4/3 55/4/3
f 57/4/3 54/4/3 53/4/3
f 57/3/3 53/3/3 56/3/3
f 58/3/3 50/3/3 54/3/3
f 58/4/3 54/4/3 57/4/3
f 59/3/3 50/3/3 58/3/3
f 60/3/3 56/3/3 55/3/3
f 60/3/3 55/3/3 49/3/3
f 61/4/3 57/4/3 56/4/3
f 61/3/3 56/3/3 60/3/3
f 62/3/3 58/3/3 57/3/3
f 62/4/3 57/4/3 61/4/3
f 63/4/3 59/4/3 58/4/3
f 63/3/3 58/3/3 62/3/3
f 64/3/3 50/3/3 59/3/3
f 64/4/3 59/4/3 63/4/3
f 65/3/3 60/3/3 49/3/3
f 65/4/3 61/4/3 60/4/3
f 66/3/3 62/3/3 61/3/3
f 66/4/3 61/4/3 65/4/3
f 67/4/3 63/4/3 62/4/3
f 67/3/3 62/3/3 66/3/3
f 68/3/3 64/3/3 63/3/3
f 68/4/3 63/4/3 67/4/3
f 69/3/3 50/3/3 64/3/3
f 69/3/3 64/3/3 68/3/3
f 70/3/3 66/3/3 65/3/3
f 70/3/3 65/3/3 49/3/3
f 71/4/3 67/4/3 66/4/3
f 71/3/3 66/3/3 70/3/3
f 72/3/3 68/3/3 67/3/3
f 72/4/3 67/4/3 71/4/3
f 73/4/3 69/4/3 68/4/3
f 73/3/3 68/3/3 72/3/3
f 74/3/3 50/3/3 69/3/3
f 74/4/3 69/4/3 73/4/3
f 75/4/3 71/4/3 70/4/3
f 75/3/3 70/3/3 49/3/3
f 76/3/3 72/3/3 71/3/3
f 76/4/3 71/4/3 75/4/3
f 77/4/3 73/4/3 72/4/3
f 77/3/3 72/3/3 76/3/3
f 78/3/3 74/3/3 73/3/3
f 78/4/3 73/4/3 77/4/3
f 79/3/3 50/3/3 74/3/3
f 79/3/3 74/3/3 78/3/3
f 80/3/3 76/3/3 75/3/3
f 80/4/3 77/4/3 76/4/3
f 81/3/3 78/3/3 77/3/3
f 81/4/3 77/4/3 80/4/3
f 82/4/3 79/4/3 78/4/3
f 82/3/3 78/3/3 81/3/3
f 83/3/3 50/3/3 79/3/3
f 83/4/3 79/4/3 82/4/3
f 84/3/3 80/3/3 75/3/3
f 84/3/3 82/3/3 81/3/3
f 84/3/3 83/3/3 82/3/3
f 84/3/3 81/3/3 80/3/3
f 84/3/3 75/3/3 49/3/3
f 85/3/3 50/3/3 83/3/3
f 85/3/3 83/3/3 84/3/3
f 86/3/4 87/3/4 88/3/4
f 88/3/4 87/3/4 89/3/4
f 88/4/4 89/4/4 90/4/4
f 90/4/4 89/4/4 91/4/4
f 88/4/4 90/4/4 92/4/4
f 90/5/4 91/5/4 92/5/4
f 91/4/4 89/4/4 93/4/4
f 92/5/4 91/5/4 93/5/4
f 86/3/4 88/3/4 94/3/4
f 88/4/4 92/4/4 94/4/4
f 92/4/4 93/4/4 94/4/4
f 93/4/4 89/4/4 95/4/4
f 94/4/4 93/4/4 95/4/4
f 89/3/4 87/3/4 95/3/4
f 86/3/4 94/3/4 96/3/4
f 94/3/4 95/3/4 96/3/4
f 95/3/4 87/3/4 97/3/4
f 96/3/4 95/3/4 97/3/4
f 100/3/5 99/3/5 98/3/5
f 101/3/5 99/3/5 100/3/5
f 102/3/6 103/3/6 104/3/6
f 104/3/6 103/3/6 105/3/6
