# MagicaVoxel @ Ephtracy

# group
o 

# material
mtllib Present2.mtl
usemtl palette

# normals
vn -1 0 0
vn 1 0 0
vn 0 0 1
vn 0 0 -1
vn 0 -1 0
vn 0 1 0

# texcoords
vt 0.0644531 0.5
vt 0.173828 0.5
vt 0.208984 0.5
vt 0.591797 0.5
vt 0.748047 0.5

# verts
v -1 0.7 0.4
v -1 0.7 -0.4
v -1 2.2 0.4
v -1 2.2 -0.4
v -0.9 0.6 0.4
v -0.9 0.6 -0.4
v -0.9 0.7 0.9
v -0.9 0.7 0.4
v -0.9 0.7 -0.4
v -0.9 0.7 -0.9
v -0.9 2.2 0.9
v -0.9 2.2 0.4
v -0.9 2.2 -0.4
v -0.9 2.2 -0.9
v -0.9 2.3 0.4
v -0.9 2.3 -0.4
v -0.5 2.6 0.2
v -0.5 2.6 -0.4
v -0.5 2.8 0.2
v -0.5 2.8 -0.4
v -0.4 2.5 0.2
v -0.4 2.5 -0.4
v -0.4 2.6 0.2
v -0.4 2.6 -0.4
v -0.3 0.6 0.9
v -0.3 0.6 0.4
v -0.3 0.6 -0.4
v -0.3 0.6 -0.9
v -0.3 0.7 1
v -0.3 0.7 0.9
v -0.3 0.7 0.4
v -0.3 0.7 -0.4
v -0.3 0.7 -0.9
v -0.3 2.2 1
v -0.3 2.2 0.9
v -0.3 2.2 0.4
v -0.3 2.2 -0.4
v -0.3 2.2 -0.9
v -0.3 2.3 0.9
v -0.3 2.3 0.4
v -0.3 2.3 -0.4
v -0.3 2.3 -0.9
v -0.3 2.4 0.2
v -0.3 2.4 -0.3
v -0.3 2.5 0.2
v -0.3 2.5 -0.3
v -0.2 0.7 -0.9
v -0.2 0.7 -1
v -0.2 2.2 -0.9
v -0.2 2.2 -1
v -0.2 2.3 0.2
v -0.2 2.3 -0.3
v -0.2 2.4 0.2
v -0.2 2.4 -0.3
v -0.2 2.6 0.2
v -0.2 2.6 -0.4
v -0.2 2.7 0.2
v -0.2 2.7 -0.4
v -0.1 2.5 0.2
v -0.1 2.5 -0.3
v -0.1 2.6 0.2
v -0.1 2.6 -0.3
v 0 2.3 0.2
v 0 2.3 -0.3
v 0 2.5 0.2
v 0 2.5 -0.3
v 0.2 2.3 0.2
v 0.2 2.3 -0.3
v 0.2 2.4 0.2
v 0.2 2.4 -0.3
v 0.3 2.4 0.2
v 0.3 2.4 -0.3
v 0.3 2.5 0.2
v 0.3 2.5 -0.3
v 0.4 2.3 0.2
v 0.4 2.3 -0.3
v 0.4 2.4 0.2
v 0.4 2.4 -0.3
v 0.4 2.5 0.2
v 0.4 2.5 -0.3
v 0.4 2.6 0.2
v 0.4 2.6 -0.3
v 0.5 2.4 0.2
v 0.5 2.4 -0.3
v 0.5 2.5 0.2
v 0.5 2.5 -0.3
v 0.5 2.6 0.2
v 0.5 2.6 -0.3
v 0.5 2.7 0.2
v 0.5 2.7 -0.3
v 0.6 2.5 0.2
v 0.6 2.5 -0.3
v 0.6 2.6 0.2
v 0.6 2.6 -0.3
v 0.6 2.7 0.2
v 0.6 2.7 -0.3
v 0.6 2.8 0.2
v 0.6 2.8 -0.3
v 0.7 2.6 0.2
v 0.7 2.6 -0.3
v 0.7 2.7 0.2
v 0.7 2.7 -0.3
v -0.4 2.6 0.2
v -0.4 2.6 -0.4
v -0.4 2.7 0.2
v -0.4 2.7 -0.4
v -0.3 2.5 0.2
v -0.3 2.5 -0.3
v -0.3 2.5 -0.4
v -0.3 2.6 0.2
v -0.3 2.6 -0.4
v -0.2 2.4 0.2
v -0.2 2.4 -0.3
v -0.2 2.5 0.2
v -0.2 2.5 -0.3
v -0.2 2.7 0.2
v -0.2 2.7 -0.4
v -0.2 2.8 0.2
v -0.2 2.8 -0.4
v -0.1 2.3 0.2
v -0.1 2.3 -0.3
v -0.1 2.4 0.2
v -0.1 2.4 -0.3
v -0.1 2.6 0.2
v -0.1 2.6 -0.3
v -0.1 2.6 -0.4
v -0.1 2.7 0.2
v -0.1 2.7 -0.4
v 0 2.5 0.2
v 0 2.5 -0.3
v 0 2.6 0.2
v 0 2.6 -0.3
v 0.1 2.3 0.2
v 0.1 2.3 -0.3
v 0.1 2.5 0.2
v 0.1 2.5 -0.3
v 0.3 2.3 0.2
v 0.3 2.3 -0.3
v 0.3 2.4 0.2
v 0.3 2.4 -0.3
v 0.4 0.6 0.9
v 0.4 0.6 0.4
v 0.4 0.6 -0.4
v 0.4 0.6 -0.9
v 0.4 0.7 1
v 0.4 0.7 0.9
v 0.4 0.7 0.4
v 0.4 0.7 -0.4
v 0.4 0.7 -0.9
v 0.4 0.7 -1
v 0.4 2.2 1
v 0.4 2.2 0.9
v 0.4 2.2 0.4
v 0.4 2.2 -0.4
v 0.4 2.2 -0.9
v 0.4 2.2 -1
v 0.4 2.3 0.9
v 0.4 2.3 0.4
v 0.4 2.3 -0.4
v 0.4 2.3 -0.9
v 0.4 2.4 0.2
v 0.4 2.4 -0.3
v 0.4 2.5 0.2
v 0.4 2.5 -0.3
v 0.5 2.3 0.2
v 0.5 2.3 -0.3
v 0.5 2.4 0.2
v 0.5 2.4 -0.3
v 0.5 2.5 0.2
v 0.5 2.5 -0.3
v 0.5 2.6 0.2
v 0.5 2.6 -0.3
v 0.6 2.4 0.2
v 0.6 2.4 -0.3
v 0.6 2.5 0.2
v 0.6 2.5 -0.3
v 0.6 2.6 0.2
v 0.6 2.6 -0.3
v 0.6 2.7 0.2
v 0.6 2.7 -0.3
v 0.7 2.5 0.2
v 0.7 2.5 -0.3
v 0.7 2.6 0.2
v 0.7 2.6 -0.3
v 0.8 2.6 0.2
v 0.8 2.6 -0.3
v 0.8 2.8 0.2
v 0.8 2.8 -0.3
v 1 0.6 0.4
v 1 0.6 -0.4
v 1 0.7 0.9
v 1 0.7 0.4
v 1 0.7 -0.4
v 1 0.7 -0.9
v 1 2.2 0.9
v 1 2.2 0.4
v 1 2.2 -0.4
v 1 2.2 -0.9
v 1 2.3 0.4
v 1 2.3 -0.4
v 1.1 0.7 0.4
v 1.1 0.7 -0.4
v 1.1 2.2 0.4
v 1.1 2.2 -0.4
v -0.3 0.7 1
v -0.3 2.2 1
v 0.4 0.7 1
v 0.4 2.2 1
v -0.9 0.7 0.9
v -0.9 2.2 0.9
v -0.3 0.6 0.9
v -0.3 0.7 0.9
v -0.3 2.2 0.9
v -0.3 2.3 0.9
v 0.4 0.6 0.9
v 0.4 0.7 0.9
v 0.4 2.2 0.9
v 0.4 2.3 0.9
v 1 0.7 0.9
v 1 2.2 0.9
v -1 0.7 0.4
v -1 2.2 0.4
v -0.9 0.6 0.4
v -0.9 0.7 0.4
v -0.9 2.2 0.4
v -0.9 2.3 0.4
v -0.3 0.6 0.4
v -0.3 0.7 0.4
v -0.3 2.2 0.4
v -0.3 2.3 0.4
v 0.4 0.6 0.4
v 0.4 0.7 0.4
v 0.4 2.2 0.4
v 0.4 2.3 0.4
v 1 0.6 0.4
v 1 0.7 0.4
v 1 2.2 0.4
v 1 2.3 0.4
v 1.1 0.7 0.4
v 1.1 2.2 0.4
v -0.5 2.6 0.2
v -0.5 2.8 0.2
v -0.4 2.5 0.2
v -0.4 2.6 0.2
v -0.4 2.7 0.2
v -0.3 2.4 0.2
v -0.3 2.5 0.2
v -0.3 2.6 0.2
v -0.2 2.3 0.2
v -0.2 2.4 0.2
v -0.2 2.5 0.2
v -0.2 2.6 0.2
v -0.2 2.7 0.2
v -0.2 2.8 0.2
v -0.1 2.3 0.2
v -0.1 2.4 0.2
v -0.1 2.5 0.2
v -0.1 2.6 0.2
v -0.1 2.7 0.2
v 0 2.3 0.2
v 0 2.5 0.2
v 0 2.6 0.2
v 0.1 2.3 0.2
v 0.1 2.5 0.2
v 0.2 2.3 0.2
v 0.2 2.4 0.2
v 0.3 2.3 0.2
v 0.3 2.4 0.2
v 0.3 2.5 0.2
v 0.4 2.3 0.2
v 0.4 2.4 0.2
v 0.4 2.5 0.2
v 0.4 2.6 0.2
v 0.5 2.3 0.2
v 0.5 2.4 0.2
v 0.5 2.5 0.2
v 0.5 2.6 0.2
v 0.5 2.7 0.2
v 0.6 2.4 0.2
v 0.6 2.5 0.2
v 0.6 2.6 0.2
v 0.6 2.7 0.2
v 0.6 2.8 0.2
v 0.7 2.5 0.2
v 0.7 2.6 0.2
v 0.7 2.7 0.2
v 0.8 2.6 0.2
v 0.8 2.8 0.2
v -0.3 2.4 -0.3
v -0.3 2.5 -0.3
v -0.2 2.3 -0.3
v -0.2 2.4 -0.3
v -0.2 2.5 -0.3
v -0.1 2.3 -0.3
v -0.1 2.4 -0.3
v -0.1 2.5 -0.3
v -0.1 2.6 -0.3
v 0 2.3 -0.3
v 0 2.5 -0.3
v 0 2.6 -0.3
v 0.1 2.3 -0.3
v 0.1 2.5 -0.3
v 0.2 2.3 -0.3
v 0.2 2.4 -0.3
v 0.3 2.3 -0.3
v 0.3 2.4 -0.3
v 0.3 2.5 -0.3
v 0.4 2.3 -0.3
v 0.4 2.4 -0.3
v 0.4 2.5 -0.3
v 0.4 2.6 -0.3
v 0.5 2.3 -0.3
v 0.5 2.4 -0.3
v 0.5 2.5 -0.3
v 0.5 2.6 -0.3
v 0.5 2.7 -0.3
v 0.6 2.4 -0.3
v 0.6 2.5 -0.3
v 0.6 2.6 -0.3
v 0.6 2.7 -0.3
v 0.6 2.8 -0.3
v 0.7 2.5 -0.3
v 0.7 2.6 -0.3
v 0.7 2.7 -0.3
v 0.8 2.6 -0.3
v 0.8 2.8 -0.3
v -1 0.7 -0.4
v -1 2.2 -0.4
v -0.9 0.6 -0.4
v -0.9 0.7 -0.4
v -0.9 2.2 -0.4
v -0.9 2.3 -0.4
v -0.5 2.6 -0.4
v -0.5 2.8 -0.4
v -0.4 2.5 -0.4
v -0.4 2.6 -0.4
v -0.4 2.7 -0.4
v -0.3 0.6 -0.4
v -0.3 0.7 -0.4
v -0.3 2.2 -0.4
v -0.3 2.3 -0.4
v -0.3 2.5 -0.4
v -0.3 2.6 -0.4
v -0.2 2.6 -0.4
v -0.2 2.7 -0.4
v -0.2 2.8 -0.4
v -0.1 2.6 -0.4
v -0.1 2.7 -0.4
v 0.4 0.6 -0.4
v 0.4 0.7 -0.4
v 0.4 2.2 -0.4
v 0.4 2.3 -0.4
v 1 0.6 -0.4
v 1 0.7 -0.4
v 1 2.2 -0.4
v 1 2.3 -0.4
v 1.1 0.7 -0.4
v 1.1 2.2 -0.4
v -0.9 0.7 -0.9
v -0.9 2.2 -0.9
v -0.3 0.6 -0.9
v -0.3 0.7 -0.9
v -0.3 2.2 -0.9
v -0.3 2.3 -0.9
v -0.2 0.7 -0.9
v -0.2 2.2 -0.9
v 0.4 0.6 -0.9
v 0.4 0.7 -0.9
v 0.4 2.2 -0.9
v 0.4 2.3 -0.9
v 1 0.7 -0.9
v 1 2.2 -0.9
v -0.2 0.7 -1
v -0.2 2.2 -1
v 0.4 0.7 -1
v 0.4 2.2 -1
v -0.3 0.6 0.9
v 0.4 0.6 0.9
v -0.9 0.6 0.4
v -0.3 0.6 0.4
v 0.4 0.6 0.4
v 1 0.6 0.4
v -0.9 0.6 -0.4
v -0.3 0.6 -0.4
v 0.4 0.6 -0.4
v 1 0.6 -0.4
v -0.3 0.6 -0.9
v 0.4 0.6 -0.9
v -0.3 0.7 1
v 0.4 0.7 1
v -0.9 0.7 0.9
v -0.3 0.7 0.9
v 0.4 0.7 0.9
v 1 0.7 0.9
v -1 0.7 0.4
v -0.9 0.7 0.4
v -0.3 0.7 0.4
v 0.4 0.7 0.4
v 1 0.7 0.4
v 1.1 0.7 0.4
v -1 0.7 -0.4
v -0.9 0.7 -0.4
v -0.3 0.7 -0.4
v 0.4 0.7 -0.4
v 1 0.7 -0.4
v 1.1 0.7 -0.4
v -0.9 0.7 -0.9
v -0.3 0.7 -0.9
v -0.2 0.7 -0.9
v 0.4 0.7 -0.9
v 1 0.7 -0.9
v -0.2 0.7 -1
v 0.4 0.7 -1
v -0.3 2.4 0.2
v -0.2 2.4 0.2
v 0.3 2.4 0.2
v 0.4 2.4 0.2
v 0.5 2.4 0.2
v 0.6 2.4 0.2
v -0.3 2.4 -0.3
v -0.2 2.4 -0.3
v 0.3 2.4 -0.3
v 0.4 2.4 -0.3
v 0.5 2.4 -0.3
v 0.6 2.4 -0.3
v -0.4 2.5 0.2
v -0.3 2.5 0.2
v -0.1 2.5 0.2
v 0 2.5 0.2
v 0.4 2.5 0.2
v 0.5 2.5 0.2
v 0.6 2.5 0.2
v 0.7 2.5 0.2
v -0.3 2.5 -0.3
v -0.1 2.5 -0.3
v 0 2.5 -0.3
v 0.4 2.5 -0.3
v 0.5 2.5 -0.3
v 0.6 2.5 -0.3
v 0.7 2.5 -0.3
v -0.4 2.5 -0.4
v -0.3 2.5 -0.4
v -0.5 2.6 0.2
v -0.4 2.6 0.2
v -0.2 2.6 0.2
v -0.1 2.6 0.2
v 0.5 2.6 0.2
v 0.6 2.6 0.2
v 0.7 2.6 0.2
v 0.8 2.6 0.2
v -0.1 2.6 -0.3
v 0.5 2.6 -0.3
v 0.6 2.6 -0.3
v 0.7 2.6 -0.3
v 0.8 2.6 -0.3
v -0.5 2.6 -0.4
v -0.4 2.6 -0.4
v -0.2 2.6 -0.4
v -0.1 2.6 -0.4
v -0.4 2.7 0.2
v -0.2 2.7 0.2
v 0.6 2.7 0.2
v 0.7 2.7 0.2
v 0.6 2.7 -0.3
v 0.7 2.7 -0.3
v -0.4 2.7 -0.4
v -0.2 2.7 -0.4
v -0.3 2.2 1
v 0.4 2.2 1
v -0.9 2.2 0.9
v -0.3 2.2 0.9
v 0.4 2.2 0.9
v 1 2.2 0.9
v -1 2.2 0.4
v -0.9 2.2 0.4
v -0.3 2.2 0.4
v 0.4 2.2 0.4
v 1 2.2 0.4
v 1.1 2.2 0.4
v -1 2.2 -0.4
v -0.9 2.2 -0.4
v -0.3 2.2 -0.4
v 0.4 2.2 -0.4
v 1 2.2 -0.4
v 1.1 2.2 -0.4
v -0.9 2.2 -0.9
v -0.3 2.2 -0.9
v -0.2 2.2 -0.9
v 0.4 2.2 -0.9
v 1 2.2 -0.9
v -0.2 2.2 -1
v 0.4 2.2 -1
v -0.3 2.3 0.9
v 0.4 2.3 0.9
v -0.9 2.3 0.4
v -0.3 2.3 0.4
v 0.4 2.3 0.4
v 1 2.3 0.4
v -0.2 2.3 0.2
v -0.1 2.3 0.2
v 0 2.3 0.2
v 0.1 2.3 0.2
v 0.2 2.3 0.2
v 0.3 2.3 0.2
v 0.4 2.3 0.2
v 0.5 2.3 0.2
v -0.2 2.3 -0.3
v -0.1 2.3 -0.3
v 0 2.3 -0.3
v 0.1 2.3 -0.3
v 0.2 2.3 -0.3
v 0.3 2.3 -0.3
v 0.4 2.3 -0.3
v 0.5 2.3 -0.3
v -0.9 2.3 -0.4
v -0.3 2.3 -0.4
v 0.4 2.3 -0.4
v 1 2.3 -0.4
v -0.3 2.3 -0.9
v 0.4 2.3 -0.9
v -0.2 2.4 0.2
v -0.1 2.4 0.2
v 0.2 2.4 0.2
v 0.3 2.4 0.2
v 0.4 2.4 0.2
v 0.5 2.4 0.2
v -0.2 2.4 -0.3
v -0.1 2.4 -0.3
v 0.2 2.4 -0.3
v 0.3 2.4 -0.3
v 0.4 2.4 -0.3
v 0.5 2.4 -0.3
v -0.3 2.5 0.2
v -0.2 2.5 0.2
v 0 2.5 0.2
v 0.1 2.5 0.2
v 0.3 2.5 0.2
v 0.4 2.5 0.2
v 0.5 2.5 0.2
v 0.6 2.5 0.2
v -0.3 2.5 -0.3
v -0.2 2.5 -0.3
v 0 2.5 -0.3
v 0.1 2.5 -0.3
v 0.3 2.5 -0.3
v 0.4 2.5 -0.3
v 0.5 2.5 -0.3
v 0.6 2.5 -0.3
v -0.4 2.6 0.2
v -0.3 2.6 0.2
v -0.1 2.6 0.2
v 0 2.6 0.2
v 0.4 2.6 0.2
v 0.5 2.6 0.2
v 0.6 2.6 0.2
v 0.7 2.6 0.2
v -0.1 2.6 -0.3
v 0 2.6 -0.3
v 0.4 2.6 -0.3
v 0.5 2.6 -0.3
v 0.6 2.6 -0.3
v 0.7 2.6 -0.3
v -0.4 2.6 -0.4
v -0.3 2.6 -0.4
v -0.2 2.7 0.2
v -0.1 2.7 0.2
v 0.5 2.7 0.2
v 0.6 2.7 0.2
v 0.5 2.7 -0.3
v 0.6 2.7 -0.3
v -0.2 2.7 -0.4
v -0.1 2.7 -0.4
v -0.5 2.8 0.2
v -0.2 2.8 0.2
v 0.6 2.8 0.2
v 0.8 2.8 0.2
v 0.6 2.8 -0.3
v 0.8 2.8 -0.3
v -0.5 2.8 -0.4
v -0.2 2.8 -0.4

# faces
f 3/2/1 2/2/1 1/2/1
f 4/2/1 2/2/1 3/2/1
f 8/2/1 6/2/1 5/2/1
f 9/2/1 6/2/1 8/2/1
f 11/4/1 8/4/1 7/4/1
f 12/4/1 8/4/1 11/4/1
f 13/4/1 10/4/1 9/4/1
f 14/4/1 10/4/1 13/4/1
f 15/3/1 13/3/1 12/3/1
f 16/3/1 13/3/1 15/3/1
f 19/3/1 18/3/1 17/3/1
f 20/3/1 18/3/1 19/3/1
f 23/3/1 22/3/1 21/3/1
f 24/3/1 22/3/1 23/3/1
f 30/2/1 26/2/1 25/2/1
f 31/2/1 26/2/1 30/2/1
f 32/2/1 28/2/1 27/2/1
f 33/2/1 28/2/1 32/2/1
f 34/2/1 30/2/1 29/2/1
f 35/2/1 30/2/1 34/2/1
f 39/3/1 36/3/1 35/3/1
f 40/3/1 36/3/1 39/3/1
f 41/3/1 38/3/1 37/3/1
f 42/3/1 38/3/1 41/3/1
f 45/3/1 44/3/1 43/3/1
f 46/3/1 44/3/1 45/3/1
f 49/2/1 48/2/1 47/2/1
f 50/2/1 48/2/1 49/2/1
f 53/3/1 52/3/1 51/3/1
f 54/3/1 52/3/1 53/3/1
f 57/3/1 56/3/1 55/3/1
f 58/3/1 56/3/1 57/3/1
f 61/3/1 60/3/1 59/3/1
f 62/3/1 60/3/1 61/3/1
f 65/3/1 64/3/1 63/3/1
f 66/3/1 64/3/1 65/3/1
f 69/3/1 68/3/1 67/3/1
f 70/3/1 68/3/1 69/3/1
f 73/3/1 72/3/1 71/3/1
f 74/3/1 72/3/1 73/3/1
f 77/3/1 76/3/1 75/3/1
f 78/3/1 76/3/1 77/3/1
f 81/3/1 80/3/1 79/3/1
f 82/3/1 80/3/1 81/3/1
f 85/3/1 84/3/1 83/3/1
f 86/3/1 84/3/1 85/3/1
f 89/3/1 88/3/1 87/3/1
f 90/3/1 88/3/1 89/3/1
f 93/3/1 92/3/1 91/3/1
f 94/3/1 92/3/1 93/3/1
f 97/3/1 96/3/1 95/3/1
f 98/3/1 96/3/1 97/3/1
f 101/3/1 100/3/1 99/3/1
f 102/3/1 100/3/1 101/3/1
f 103/3/2 104/3/2 105/3/2
f 105/3/2 104/3/2 106/3/2
f 107/3/2 108/3/2 110/3/2
f 108/3/2 109/3/2 110/3/2
f 110/3/2 109/3/2 111/3/2
f 112/3/2 113/3/2 114/3/2
f 114/3/2 113/3/2 115/3/2
f 116/3/2 117/3/2 118/3/2
f 118/3/2 117/3/2 119/3/2
f 120/3/2 121/3/2 122/3/2
f 122/3/2 121/3/2 123/3/2
f 124/3/2 125/3/2 127/3/2
f 125/3/2 126/3/2 127/3/2
f 127/3/2 126/3/2 128/3/2
f 129/3/2 130/3/2 131/3/2
f 131/3/2 130/3/2 132/3/2
f 133/3/2 134/3/2 135/3/2
f 135/3/2 134/3/2 136/3/2
f 137/3/2 138/3/2 139/3/2
f 139/3/2 138/3/2 140/3/2
f 141/2/2 142/2/2 146/2/2
f 146/2/2 142/2/2 147/2/2
f 143/2/2 144/2/2 148/2/2
f 148/2/2 144/2/2 149/2/2
f 145/2/2 146/2/2 151/2/2
f 151/2/2 146/2/2 152/2/2
f 149/2/2 150/2/2 155/2/2
f 155/2/2 150/2/2 156/2/2
f 152/3/2 153/3/2 157/3/2
f 157/3/2 153/3/2 158/3/2
f 154/3/2 155/3/2 159/3/2
f 159/3/2 155/3/2 160/3/2
f 161/3/2 162/3/2 163/3/2
f 163/3/2 162/3/2 164/3/2
f 165/3/2 166/3/2 167/3/2
f 167/3/2 166/3/2 168/3/2
f 169/3/2 170/3/2 171/3/2
f 171/3/2 170/3/2 172/3/2
f 173/3/2 174/3/2 175/3/2
f 175/3/2 174/3/2 176/3/2
f 177/3/2 178/3/2 179/3/2
f 179/3/2 178/3/2 180/3/2
f 181/3/2 182/3/2 183/3/2
f 183/3/2 182/3/2 184/3/2
f 185/3/2 186/3/2 187/3/2
f 187/3/2 186/3/2 188/3/2
f 189/2/2 190/2/2 192/2/2
f 192/2/2 190/2/2 193/2/2
f 191/4/2 192/4/2 195/4/2
f 195/4/2 192/4/2 196/4/2
f 193/4/2 194/4/2 197/4/2
f 197/4/2 194/4/2 198/4/2
f 196/3/2 197/3/2 199/3/2
f 199/3/2 197/3/2 200/3/2
f 201/2/2 202/2/2 203/2/2
f 203/2/2 202/2/2 204/2/2
f 207/2/3 206/2/3 205/2/3
f 208/2/3 206/2/3 207/2/3
f 212/4/3 210/4/3 209/4/3
f 213/4/3 210/4/3 212/4/3
f 215/2/3 212/2/3 211/2/3
f 216/2/3 212/2/3 215/2/3
f 217/3/3 214/3/3 213/3/3
f 218/3/3 214/3/3 217/3/3
f 219/4/3 217/4/3 216/4/3
f 220/4/3 217/4/3 219/4/3
f 224/2/3 222/2/3 221/2/3
f 225/2/3 222/2/3 224/2/3
f 227/2/3 224/2/3 223/2/3
f 228/2/3 224/2/3 227/2/3
f 229/3/3 226/3/3 225/3/3
f 230/3/3 226/3/3 229/3/3
f 235/2/3 232/2/3 231/2/3
f 236/2/3 232/2/3 235/2/3
f 237/3/3 234/3/3 233/3/3
f 238/3/3 234/3/3 237/3/3
f 239/2/3 237/2/3 236/2/3
f 240/2/3 237/2/3 239/2/3
f 244/3/3 242/3/3 241/3/3
f 245/3/3 242/3/3 244/3/3
f 247/3/3 244/3/3 243/3/3
f 248/3/3 244/3/3 247/3/3
f 250/3/3 247/3/3 246/3/3
f 251/3/3 247/3/3 250/3/3
f 253/3/3 242/3/3 245/3/3
f 254/3/3 242/3/3 253/3/3
f 255/3/3 250/3/3 249/3/3
f 256/3/3 250/3/3 255/3/3
f 258/3/3 253/3/3 252/3/3
f 259/3/3 253/3/3 258/3/3
f 261/3/3 258/3/3 257/3/3
f 262/3/3 258/3/3 261/3/3
f 263/3/3 261/3/3 260/3/3
f 264/3/3 261/3/3 263/3/3
f 267/3/3 266/3/3 265/3/3
f 268/3/3 266/3/3 267/3/3
f 271/3/3 269/3/3 268/3/3
f 272/3/3 269/3/3 271/3/3
f 274/3/3 271/3/3 270/3/3
f 275/3/3 271/3/3 274/3/3
f 276/3/3 273/3/3 272/3/3
f 277/3/3 273/3/3 276/3/3
f 279/3/3 276/3/3 275/3/3
f 280/3/3 276/3/3 279/3/3
f 281/3/3 278/3/3 277/3/3
f 282/3/3 278/3/3 281/3/3
f 284/3/3 281/3/3 280/3/3
f 285/3/3 281/3/3 284/3/3
f 286/3/3 283/3/3 282/3/3
f 287/3/3 286/3/3 285/3/3
f 288/3/3 283/3/3 286/3/3
f 288/3/3 286/3/3 287/3/3
f 289/3/4 290/3/4 292/3/4
f 292/3/4 290/3/4 293/3/4
f 291/3/4 292/3/4 294/3/4
f 294/3/4 292/3/4 295/3/4
f 296/3/4 297/3/4 299/3/4
f 299/3/4 297/3/4 300/3/4
f 298/3/4 299/3/4 301/3/4
f 301/3/4 299/3/4 302/3/4
f 303/3/4 304/3/4 305/3/4
f 305/3/4 304/3/4 306/3/4
f 306/3/4 307/3/4 309/3/4
f 309/3/4 307/3/4 310/3/4
f 308/3/4 309/3/4 312/3/4
f 312/3/4 309/3/4 313/3/4
f 310/3/4 311/3/4 314/3/4
f 314/3/4 311/3/4 315/3/4
f 313/3/4 314/3/4 317/3/4
f 317/3/4 314/3/4 318/3/4
f 315/3/4 316/3/4 319/3/4
f 319/3/4 316/3/4 320/3/4
f 318/3/4 319/3/4 322/3/4
f 322/3/4 319/3/4 323/3/4
f 320/3/4 321/3/4 324/3/4
f 323/3/4 324/3/4 325/3/4
f 324/3/4 321/3/4 326/3/4
f 325/3/4 324/3/4 326/3/4
f 327/2/4 328/2/4 330/2/4
f 330/2/4 328/2/4 331/2/4
f 333/3/4 334/3/4 336/3/4
f 336/3/4 334/3/4 337/3/4
f 329/2/4 330/2/4 338/2/4
f 338/2/4 330/2/4 339/2/4
f 331/3/4 332/3/4 340/3/4
f 340/3/4 332/3/4 341/3/4
f 335/3/4 336/3/4 342/3/4
f 342/3/4 336/3/4 343/3/4
f 337/3/4 334/3/4 345/3/4
f 345/3/4 334/3/4 346/3/4
f 344/3/4 345/3/4 347/3/4
f 347/3/4 345/3/4 348/3/4
f 349/2/4 350/2/4 353/2/4
f 353/2/4 350/2/4 354/2/4
f 351/3/4 352/3/4 355/3/4
f 355/3/4 352/3/4 356/3/4
f 354/2/4 355/2/4 357/2/4
f 357/2/4 355/2/4 358/2/4
f 359/4/4 360/4/4 362/4/4
f 362/4/4 360/4/4 363/4/4
f 361/2/4 362/2/4 365/2/4
f 362/4/4 363/4/4 365/4/4
f 363/3/4 364/3/4 366/3/4
f 365/4/4 363/4/4 366/4/4
f 361/2/4 365/2/4 367/2/4
f 367/2/4 365/2/4 368/2/4
f 366/3/4 364/3/4 369/3/4
f 369/3/4 364/3/4 370/3/4
f 368/4/4 369/4/4 371/4/4
f 371/4/4 369/4/4 372/4/4
f 373/2/4 374/2/4 375/2/4
f 375/2/4 374/2/4 376/2/4
f 380/2/5 378/2/5 377/2/5
f 381/2/5 378/2/5 380/2/5
f 383/2/5 380/2/5 379/2/5
f 383/2/5 382/2/5 381/2/5
f 383/2/5 381/2/5 380/2/5
f 384/2/5 382/2/5 383/2/5
f 385/2/5 382/2/5 384/2/5
f 386/2/5 382/2/5 385/2/5
f 387/2/5 385/2/5 384/2/5
f 388/2/5 385/2/5 387/2/5
f 392/2/5 390/2/5 389/2/5
f 393/2/5 390/2/5 392/2/5
f 396/4/5 392/4/5 391/4/5
f 397/4/5 392/4/5 396/4/5
f 398/4/5 394/4/5 393/4/5
f 399/4/5 394/4/5 398/4/5
f 401/2/5 396/2/5 395/2/5
f 402/2/5 396/2/5 401/2/5
f 405/2/5 400/2/5 399/2/5
f 406/2/5 400/2/5 405/2/5
f 407/4/5 403/4/5 402/4/5
f 408/4/5 403/4/5 407/4/5
f 410/4/5 405/4/5 404/4/5
f 411/4/5 405/4/5 410/4/5
f 412/2/5 410/2/5 409/2/5
f 413/2/5 410/2/5 412/2/5
f 420/3/5 415/3/5 414/3/5
f 421/3/5 415/3/5 420/3/5
f 422/3/5 417/3/5 416/3/5
f 423/3/5 417/3/5 422/3/5
f 424/3/5 419/3/5 418/3/5
f 425/3/5 419/3/5 424/3/5
f 434/3/5 427/3/5 426/3/5
f 435/3/5 429/3/5 428/3/5
f 436/3/5 429/3/5 435/3/5
f 437/3/5 431/3/5 430/3/5
f 438/3/5 431/3/5 437/3/5
f 439/3/5 433/3/5 432/3/5
f 440/3/5 433/3/5 439/3/5
f 441/3/5 434/3/5 426/3/5
f 442/3/5 434/3/5 441/3/5
f 451/3/5 446/3/5 445/3/5
f 452/3/5 448/3/5 447/3/5
f 453/3/5 448/3/5 452/3/5
f 454/3/5 450/3/5 449/3/5
f 455/3/5 450/3/5 454/3/5
f 456/3/5 444/3/5 443/3/5
f 457/3/5 444/3/5 456/3/5
f 458/3/5 451/3/5 445/3/5
f 459/3/5 451/3/5 458/3/5
f 464/3/5 463/3/5 462/3/5
f 465/3/5 463/3/5 464/3/5
f 466/3/5 461/3/5 460/3/5
f 467/3/5 461/3/5 466/3/5
f 468/2/6 469/2/6 471/2/6
f 471/2/6 469/2/6 472/2/6
f 470/4/6 471/4/6 475/4/6
f 475/4/6 471/4/6 476/4/6
f 472/4/6 473/4/6 477/4/6
f 477/4/6 473/4/6 478/4/6
f 474/2/6 475/2/6 480/2/6
f 480/2/6 475/2/6 481/2/6
f 478/2/6 479/2/6 484/2/6
f 484/2/6 479/2/6 485/2/6
f 481/4/6 482/4/6 486/4/6
f 486/4/6 482/4/6 487/4/6
f 483/4/6 484/4/6 489/4/6
f 489/4/6 484/4/6 490/4/6
f 488/2/6 489/2/6 491/2/6
f 491/2/6 489/2/6 492/2/6
f 493/3/6 494/3/6 496/3/6
f 496/3/6 494/3/6 497/3/6
f 495/3/6 496/3/6 499/3/6
f 497/3/6 498/3/6 499/3/6
f 496/3/6 497/3/6 499/3/6
f 499/3/6 498/3/6 500/3/6
f 500/3/6 498/3/6 501/3/6
f 501/3/6 498/3/6 502/3/6
f 502/3/6 498/3/6 503/3/6
f 503/3/6 498/3/6 504/3/6
f 504/3/6 498/3/6 505/3/6
f 505/3/6 498/3/6 506/3/6
f 495/3/6 499/3/6 507/3/6
f 500/3/6 501/3/6 508/3/6
f 508/3/6 501/3/6 509/3/6
f 502/3/6 503/3/6 510/3/6
f 510/3/6 503/3/6 511/3/6
f 504/3/6 505/3/6 512/3/6
f 512/3/6 505/3/6 513/3/6
f 506/3/6 498/3/6 514/3/6
f 512/3/6 513/3/6 515/3/6
f 513/3/6 514/3/6 515/3/6
f 510/3/6 511/3/6 515/3/6
f 495/3/6 507/3/6 515/3/6
f 511/3/6 512/3/6 515/3/6
f 508/3/6 509/3/6 515/3/6
f 509/3/6 510/3/6 515/3/6
f 507/3/6 508/3/6 515/3/6
f 515/3/6 514/3/6 516/3/6
f 516/3/6 514/3/6 517/3/6
f 514/3/6 498/3/6 518/3/6
f 517/3/6 514/3/6 518/3/6
f 516/3/6 517/3/6 519/3/6
f 519/3/6 517/3/6 520/3/6
f 521/3/6 522/3/6 527/3/6
f 527/3/6 522/3/6 528/3/6
f 523/3/6 524/3/6 529/3/6
f 529/3/6 524/3/6 530/3/6
f 525/3/6 526/3/6 531/3/6
f 531/3/6 526/3/6 532/3/6
f 533/3/6 534/3/6 541/3/6
f 541/3/6 534/3/6 542/3/6
f 535/3/6 536/3/6 543/3/6
f 543/3/6 536/3/6 544/3/6
f 537/3/6 538/3/6 545/3/6
f 545/3/6 538/3/6 546/3/6
f 539/3/6 540/3/6 547/3/6
f 547/3/6 540/3/6 548/3/6
f 551/3/6 552/3/6 557/3/6
f 557/3/6 552/3/6 558/3/6
f 553/3/6 554/3/6 559/3/6
f 559/3/6 554/3/6 560/3/6
f 555/3/6 556/3/6 561/3/6
f 561/3/6 556/3/6 562/3/6
f 549/3/6 550/3/6 563/3/6
f 563/3/6 550/3/6 564/3/6
f 567/3/6 568/3/6 569/3/6
f 569/3/6 568/3/6 570/3/6
f 565/3/6 566/3/6 571/3/6
f 571/3/6 566/3/6 572/3/6
f 575/3/6 576/3/6 577/3/6
f 577/3/6 576/3/6 578/3/6
f 573/3/6 574/3/6 579/3/6
f 579/3/6 574/3/6 580/3/6
