# MagicaVoxel @ Ephtracy

# group
o 

# material
mtllib Sofa2.mtl
usemtl palette

# normals
vn -1 0 0
vn 1 0 0
vn 0 0 1
vn 0 0 -1
vn 0 -1 0
vn 0 1 0

# texcoords
vt 0.771484 0.5
vt 0.775391 0.5

# verts
v -1.3 0 0.6
v -1.3 0 -0.1
v -1.3 1 0.6
v -1.3 1 -0.1
v -1.3 1.1 0.6
v -1.3 1.1 -0.1
v -1.2 0 0.9
v -1.2 0 0.6
v -1.2 0 -0.1
v -1.2 0 -0.4
v -1.2 1 0.9
v -1.2 1 0.6
v -1.2 1 -0.1
v -1.2 1 -0.4
v -1.2 1.1 0.9
v -1.2 1.1 0.6
v -1.2 1.1 -0.1
v -1.2 1.1 -0.4
v -1.1 0 1
v -1.1 0 0.9
v -1.1 0 -0.4
v -1.1 0 -0.6
v -1.1 1 1
v -1.1 1 0.9
v -1.1 1 -0.4
v -1.1 1 -0.6
v -1.1 1.1 1
v -1.1 1.1 0.9
v -1.1 1.1 -0.4
v -1.1 1.1 -0.6
v -1 0 1.1
v -1 0 1
v -1 0 -0.6
v -1 0 -0.8
v -1 1 1.1
v -1 1 1
v -1 1 -0.6
v -1 1 -0.8
v -1 1.1 1.1
v -1 1.1 1
v -1 1.1 -0.6
v -1 1.1 -0.8
v -0.9 0 1.3
v -0.9 0 1.1
v -0.9 0 -0.8
v -0.9 0 -0.9
v -0.9 1 1.3
v -0.9 1 1.1
v -0.9 1 -0.8
v -0.9 1 -0.9
v -0.9 1.1 1.3
v -0.9 1.1 1.1
v -0.9 1.1 -0.8
v -0.9 1.1 -0.9
v -0.8 0 -0.9
v -0.8 0 -1
v -0.8 1 -0.9
v -0.8 1 -1
v -0.8 1.1 -0.9
v -0.8 1.1 -1
v -0.7 0 1.4
v -0.7 0 1.3
v -0.7 1 1.4
v -0.7 1 1.3
v -0.7 1.1 1.4
v -0.7 1.1 1.3
v -0.6 0 -1
v -0.6 0 -1.1
v -0.6 1 -1
v -0.6 1 -1.1
v -0.6 1.1 -1
v -0.6 1.1 -1.1
v -0.3 0 -1.1
v -0.3 0 -1.2
v -0.3 1 -1.1
v -0.3 1 -1.2
v -0.3 1.1 -1.1
v -0.3 1.1 -1.2
v 0.6 0 -1.1
v 0.6 0 -1.2
v 0.6 1 -1.1
v 0.6 1 -1.2
v 0.6 1.1 -1.1
v 0.6 1.1 -1.2
v 0.2 0 -1.1
v 0.2 0 -1.2
v 0.2 1 -1.1
v 0.2 1 -1.2
v 0.2 1.1 -1.1
v 0.2 1.1 -1.2
v 0.3 0 1.4
v 0.3 0 1.3
v 0.3 1 1.4
v 0.3 1 1.3
v 0.3 1.1 1.4
v 0.3 1.1 1.3
v 0.5 0 1.3
v 0.5 0 1.2
v 0.5 1 1.3
v 0.5 1 1.2
v 0.5 1.1 1.3
v 0.5 1.1 1.2
v 0.6 0 1.2
v 0.6 0 1.1
v 0.6 1 1.2
v 0.6 1 1.1
v 0.6 1.1 1.2
v 0.6 1.1 1.1
v 0.7 0 1.1
v 0.7 0 1
v 0.7 0 -1.1
v 0.7 0 -1.2
v 0.7 1 1.1
v 0.7 1 1
v 0.7 1 -1.1
v 0.7 1 -1.2
v 0.7 1.1 1.1
v 0.7 1.1 1
v 0.7 1.1 -1.1
v 0.7 1.1 -1.2
v 0.8 0 1
v 0.8 0 0.9
v 0.8 0 -1
v 0.8 0 -1.1
v 0.8 1 1
v 0.8 1 0.9
v 0.8 1 -1
v 0.8 1 -1.1
v 0.8 1.1 1
v 0.8 1.1 0.9
v 0.8 1.1 -1
v 0.8 1.1 -1.1
v 0.9 0 0.9
v 0.9 0 0.7
v 0.9 0 -0.6
v 0.9 0 -1
v 0.9 1 0.9
v 0.9 1 0.7
v 0.9 1 -0.6
v 0.9 1 -1
v 0.9 1.1 0.9
v 0.9 1.1 0.7
v 0.9 1.1 -0.6
v 0.9 1.1 -1
v 1 0 0.7
v 1 0 -0.6
v 1 1 0.7
v 1 1 -0.6
v 1 1.1 0.7
v 1 1.1 -0.6
v -0.7 0 1.4
v -0.7 1 1.4
v -0.7 1.1 1.4
v 0.3 0 1.4
v 0.3 1 1.4
v 0.3 1.1 1.4
v -0.9 0 1.3
v -0.9 1 1.3
v -0.9 1.1 1.3
v -0.7 0 1.3
v -0.7 1 1.3
v -0.7 1.1 1.3
v 0.3 0 1.3
v 0.3 1 1.3
v 0.3 1.1 1.3
v 0.5 0 1.3
v 0.5 1 1.3
v 0.5 1.1 1.3
v 0.5 0 1.2
v 0.5 1 1.2
v 0.5 1.1 1.2
v 0.6 0 1.2
v 0.6 1 1.2
v 0.6 1.1 1.2
v -1 0 1.1
v -1 1 1.1
v -1 1.1 1.1
v -0.9 0 1.1
v -0.9 1 1.1
v -0.9 1.1 1.1
v 0.6 0 1.1
v 0.6 1 1.1
v 0.6 1.1 1.1
v 0.7 0 1.1
v 0.7 1 1.1
v 0.7 1.1 1.1
v -1.1 0 1
v -1.1 1 1
v -1.1 1.1 1
v -1 0 1
v -1 1 1
v -1 1.1 1
v 0.7 0 1
v 0.7 1 1
v 0.7 1.1 1
v 0.8 0 1
v 0.8 1 1
v 0.8 1.1 1
v -1.2 0 0.9
v -1.2 1 0.9
v -1.2 1.1 0.9
v -1.1 0 0.9
v -1.1 1 0.9
v -1.1 1.1 0.9
v 0.8 0 0.9
v 0.8 1 0.9
v 0.8 1.1 0.9
v 0.9 0 0.9
v 0.9 1 0.9
v 0.9 1.1 0.9
v 0.9 0 0.7
v 0.9 1 0.7
v 0.9 1.1 0.7
v 1 0 0.7
v 1 1 0.7
v 1 1.1 0.7
v -1.3 0 0.6
v -1.3 1 0.6
v -1.3 1.1 0.6
v -1.2 0 0.6
v -1.2 1 0.6
v -1.2 1.1 0.6
v -1.3 0 -0.1
v -1.3 1 -0.1
v -1.3 1.1 -0.1
v -1.2 0 -0.1
v -1.2 1 -0.1
v -1.2 1.1 -0.1
v -1.2 0 -0.4
v -1.2 1 -0.4
v -1.2 1.1 -0.4
v -1.1 0 -0.4
v -1.1 1 -0.4
v -1.1 1.1 -0.4
v -1.1 0 -0.6
v -1.1 1 -0.6
v -1.1 1.1 -0.6
v -1 0 -0.6
v -1 1 -0.6
v -1 1.1 -0.6
v 0.9 0 -0.6
v 0.9 1 -0.6
v 0.9 1.1 -0.6
v 1 0 -0.6
v 1 1 -0.6
v 1 1.1 -0.6
v -1 0 -0.8
v -1 1 -0.8
v -1 1.1 -0.8
v -0.9 0 -0.8
v -0.9 1 -0.8
v -0.9 1.1 -0.8
v -0.9 0 -0.9
v -0.9 1 -0.9
v -0.9 1.1 -0.9
v -0.8 0 -0.9
v -0.8 1 -0.9
v -0.8 1.1 -0.9
v -0.8 0 -1
v -0.8 1 -1
v -0.8 1.1 -1
v -0.6 0 -1
v -0.6 1 -1
v -0.6 1.1 -1
v 0.8 0 -1
v 0.8 1 -1
v 0.8 1.1 -1
v 0.9 0 -1
v 0.9 1 -1
v 0.9 1.1 -1
v -0.6 0 -1.1
v -0.6 1 -1.1
v -0.6 1.1 -1.1
v -0.3 0 -1.1
v -0.3 1 -1.1
v -0.3 1.1 -1.1
v 0.2 0 -1.1
v 0.2 1 -1.1
v 0.2 1.1 -1.1
v 0.6 0 -1.1
v 0.6 1 -1.1
v 0.6 1.1 -1.1
v 0.7 0 -1.1
v 0.7 1 -1.1
v 0.7 1.1 -1.1
v 0.8 0 -1.1
v 0.8 1 -1.1
v 0.8 1.1 -1.1
v -0.3 0 -1.2
v -0.3 1 -1.2
v -0.3 1.1 -1.2
v 0.2 0 -1.2
v 0.2 1 -1.2
v 0.2 1.1 -1.2
v 0.6 0 -1.2
v 0.6 1 -1.2
v 0.6 1.1 -1.2
v 0.7 0 -1.2
v 0.7 1 -1.2
v 0.7 1.1 -1.2
v -0.7 0 1.4
v 0.3 0 1.4
v -0.9 0 1.3
v -0.7 0 1.3
v 0.3 0 1.3
v 0.5 0 1.3
v 0.5 0 1.2
v 0.6 0 1.2
v -1 0 1.1
v -0.9 0 1.1
v 0.6 0 1.1
v 0.7 0 1.1
v -1.1 0 1
v -1 0 1
v 0.7 0 1
v 0.8 0 1
v -1.2 0 0.9
v -1.1 0 0.9
v 0.8 0 0.9
v 0.9 0 0.9
v 0.9 0 0.7
v 1 0 0.7
v -1.3 0 0.6
v -1.2 0 0.6
v -1.3 0 -0.1
v -1.2 0 -0.1
v -1.2 0 -0.4
v -1.1 0 -0.4
v -1.1 0 -0.6
v -1 0 -0.6
v 0.9 0 -0.6
v 1 0 -0.6
v -1 0 -0.8
v -0.9 0 -0.8
v -0.9 0 -0.9
v -0.8 0 -0.9
v -0.8 0 -1
v -0.6 0 -1
v 0.8 0 -1
v 0.9 0 -1
v -0.6 0 -1.1
v -0.3 0 -1.1
v 0.2 0 -1.1
v 0.6 0 -1.1
v 0.7 0 -1.1
v 0.8 0 -1.1
v -0.3 0 -1.2
v 0.2 0 -1.2
v 0.6 0 -1.2
v 0.7 0 -1.2
v -0.7 1.1 1.4
v 0.3 1.1 1.4
v -0.9 1.1 1.3
v -0.7 1.1 1.3
v 0.3 1.1 1.3
v 0.5 1.1 1.3
v 0.5 1.1 1.2
v 0.6 1.1 1.2
v -1 1.1 1.1
v -0.9 1.1 1.1
v 0.6 1.1 1.1
v 0.7 1.1 1.1
v -1.1 1.1 1
v -1 1.1 1
v 0.7 1.1 1
v 0.8 1.1 1
v -1.2 1.1 0.9
v -1.1 1.1 0.9
v 0.8 1.1 0.9
v 0.9 1.1 0.9
v 0.9 1.1 0.7
v 1 1.1 0.7
v -1.3 1.1 0.6
v -1.2 1.1 0.6
v -1.3 1.1 -0.1
v -1.2 1.1 -0.1
v -1.2 1.1 -0.4
v -1.1 1.1 -0.4
v -1.1 1.1 -0.6
v -1 1.1 -0.6
v 0.9 1.1 -0.6
v 1 1.1 -0.6
v -1 1.1 -0.8
v -0.9 1.1 -0.8
v -0.9 1.1 -0.9
v -0.8 1.1 -0.9
v -0.8 1.1 -1
v -0.6 1.1 -1
v 0.8 1.1 -1
v 0.9 1.1 -1
v -0.6 1.1 -1.1
v -0.3 1.1 -1.1
v 0.2 1.1 -1.1
v 0.6 1.1 -1.1
v 0.7 1.1 -1.1
v 0.8 1.1 -1.1
v -0.3 1.1 -1.2
v 0.2 1.1 -1.2
v 0.6 1.1 -1.2
v 0.7 1.1 -1.2

# faces
f 3/2/1 2/2/1 1/2/1
f 4/2/1 2/2/1 3/2/1
f 5/1/1 4/1/1 3/1/1
f 6/1/1 4/1/1 5/1/1
f 11/2/1 8/2/1 7/2/1
f 12/2/1 8/2/1 11/2/1
f 13/2/1 10/2/1 9/2/1
f 14/2/1 10/2/1 13/2/1
f 15/1/1 12/1/1 11/1/1
f 16/1/1 12/1/1 15/1/1
f 17/1/1 14/1/1 13/1/1
f 18/1/1 14/1/1 17/1/1
f 23/2/1 20/2/1 19/2/1
f 24/2/1 20/2/1 23/2/1
f 25/2/1 22/2/1 21/2/1
f 26/2/1 22/2/1 25/2/1
f 27/1/1 24/1/1 23/1/1
f 28/1/1 24/1/1 27/1/1
f 29/1/1 26/1/1 25/1/1
f 30/1/1 26/1/1 29/1/1
f 35/2/1 32/2/1 31/2/1
f 36/2/1 32/2/1 35/2/1
f 37/2/1 34/2/1 33/2/1
f 38/2/1 34/2/1 37/2/1
f 39/1/1 36/1/1 35/1/1
f 40/1/1 36/1/1 39/1/1
f 41/1/1 38/1/1 37/1/1
f 42/1/1 38/1/1 41/1/1
f 47/2/1 44/2/1 43/2/1
f 48/2/1 44/2/1 47/2/1
f 49/2/1 46/2/1 45/2/1
f 50/2/1 46/2/1 49/2/1
f 51/1/1 48/1/1 47/1/1
f 52/1/1 48/1/1 51/1/1
f 53/1/1 50/1/1 49/1/1
f 54/1/1 50/1/1 53/1/1
f 57/2/1 56/2/1 55/2/1
f 58/2/1 56/2/1 57/2/1
f 59/1/1 58/1/1 57/1/1
f 60/1/1 58/1/1 59/1/1
f 63/2/1 62/2/1 61/2/1
f 64/2/1 62/2/1 63/2/1
f 65/1/1 64/1/1 63/1/1
f 66/1/1 64/1/1 65/1/1
f 69/2/1 68/2/1 67/2/1
f 70/2/1 68/2/1 69/2/1
f 71/1/1 70/1/1 69/1/1
f 72/1/1 70/1/1 71/1/1
f 75/2/1 74/2/1 73/2/1
f 76/2/1 74/2/1 75/2/1
f 77/1/1 76/1/1 75/1/1
f 78/1/1 76/1/1 77/1/1
f 81/2/1 80/2/1 79/2/1
f 82/2/1 80/2/1 81/2/1
f 83/1/1 82/1/1 81/1/1
f 84/1/1 82/1/1 83/1/1
f 85/2/2 86/2/2 87/2/2
f 87/2/2 86/2/2 88/2/2
f 87/1/2 88/1/2 89/1/2
f 89/1/2 88/1/2 90/1/2
f 91/2/2 92/2/2 93/2/2
f 93/2/2 92/2/2 94/2/2
f 93/1/2 94/1/2 95/1/2
f 95/1/2 94/1/2 96/1/2
f 97/2/2 98/2/2 99/2/2
f 99/2/2 98/2/2 100/2/2
f 99/1/2 100/1/2 101/1/2
f 101/1/2 100/1/2 102/1/2
f 103/2/2 104/2/2 105/2/2
f 105/2/2 104/2/2 106/2/2
f 105/1/2 106/1/2 107/1/2
f 107/1/2 106/1/2 108/1/2
f 109/2/2 110/2/2 113/2/2
f 113/2/2 110/2/2 114/2/2
f 111/2/2 112/2/2 115/2/2
f 115/2/2 112/2/2 116/2/2
f 113/1/2 114/1/2 117/1/2
f 117/1/2 114/1/2 118/1/2
f 115/1/2 116/1/2 119/1/2
f 119/1/2 116/1/2 120/1/2
f 121/2/2 122/2/2 125/2/2
f 125/2/2 122/2/2 126/2/2
f 123/2/2 124/2/2 127/2/2
f 127/2/2 124/2/2 128/2/2
f 125/1/2 126/1/2 129/1/2
f 129/1/2 126/1/2 130/1/2
f 127/1/2 128/1/2 131/1/2
f 131/1/2 128/1/2 132/1/2
f 133/2/2 134/2/2 137/2/2
f 137/2/2 134/2/2 138/2/2
f 135/2/2 136/2/2 139/2/2
f 139/2/2 136/2/2 140/2/2
f 137/1/2 138/1/2 141/1/2
f 141/1/2 138/1/2 142/1/2
f 139/1/2 140/1/2 143/1/2
f 143/1/2 140/1/2 144/1/2
f 145/2/2 146/2/2 147/2/2
f 147/2/2 146/2/2 148/2/2
f 147/1/2 148/1/2 149/1/2
f 149/1/2 148/1/2 150/1/2
f 154/2/3 152/2/3 151/2/3
f 155/1/3 153/1/3 152/1/3
f 155/2/3 152/2/3 154/2/3
f 156/1/3 153/1/3 155/1/3
f 160/2/3 158/2/3 157/2/3
f 161/1/3 159/1/3 158/1/3
f 161/2/3 158/2/3 160/2/3
f 162/1/3 159/1/3 161/1/3
f 166/2/3 164/2/3 163/2/3
f 167/1/3 165/1/3 164/1/3
f 167/2/3 164/2/3 166/2/3
f 168/1/3 165/1/3 167/1/3
f 172/2/3 170/2/3 169/2/3
f 173/1/3 171/1/3 170/1/3
f 173/2/3 170/2/3 172/2/3
f 174/1/3 171/1/3 173/1/3
f 178/2/3 176/2/3 175/2/3
f 179/1/3 177/1/3 176/1/3
f 179/2/3 176/2/3 178/2/3
f 180/1/3 177/1/3 179/1/3
f 184/2/3 182/2/3 181/2/3
f 185/1/3 183/1/3 182/1/3
f 185/2/3 182/2/3 184/2/3
f 186/1/3 183/1/3 185/1/3
f 190/2/3 188/2/3 187/2/3
f 191/1/3 189/1/3 188/1/3
f 191/2/3 188/2/3 190/2/3
f 192/1/3 189/1/3 191/1/3
f 196/2/3 194/2/3 193/2/3
f 197/1/3 195/1/3 194/1/3
f 197/2/3 194/2/3 196/2/3
f 198/1/3 195/1/3 197/1/3
f 202/2/3 200/2/3 199/2/3
f 203/1/3 201/1/3 200/1/3
f 203/2/3 200/2/3 202/2/3
f 204/1/3 201/1/3 203/1/3
f 208/2/3 206/2/3 205/2/3
f 209/1/3 207/1/3 206/1/3
f 209/2/3 206/2/3 208/2/3
f 210/1/3 207/1/3 209/1/3
f 214/2/3 212/2/3 211/2/3
f 215/1/3 213/1/3 212/1/3
f 215/2/3 212/2/3 214/2/3
f 216/1/3 213/1/3 215/1/3
f 220/2/3 218/2/3 217/2/3
f 221/1/3 219/1/3 218/1/3
f 221/2/3 218/2/3 220/2/3
f 222/1/3 219/1/3 221/1/3
f 223/2/4 224/2/4 226/2/4
f 224/1/4 225/1/4 227/1/4
f 226/2/4 224/2/4 227/2/4
f 227/1/4 225/1/4 228/1/4
f 229/2/4 230/2/4 232/2/4
f 230/1/4 231/1/4 233/1/4
f 232/2/4 230/2/4 233/2/4
f 233/1/4 231/1/4 234/1/4
f 235/2/4 236/2/4 238/2/4
f 236/1/4 237/1/4 239/1/4
f 238/2/4 236/2/4 239/2/4
f 239/1/4 237/1/4 240/1/4
f 241/2/4 242/2/4 244/2/4
f 242/1/4 243/1/4 245/1/4
f 244/2/4 242/2/4 245/2/4
f 245/1/4 243/1/4 246/1/4
f 247/2/4 248/2/4 250/2/4
f 248/1/4 249/1/4 251/1/4
f 250/2/4 248/2/4 251/2/4
f 251/1/4 249/1/4 252/1/4
f 253/2/4 254/2/4 256/2/4
f 254/1/4 255/1/4 257/1/4
f 256/2/4 254/2/4 257/2/4
f 257/1/4 255/1/4 258/1/4
f 259/2/4 260/2/4 262/2/4
f 260/1/4 261/1/4 263/1/4
f 262/2/4 260/2/4 263/2/4
f 263/1/4 261/1/4 264/1/4
f 265/2/4 266/2/4 268/2/4
f 266/1/4 267/1/4 269/1/4
f 268/2/4 266/2/4 269/2/4
f 269/1/4 267/1/4 270/1/4
f 271/2/4 272/2/4 274/2/4
f 272/1/4 273/1/4 275/1/4
f 274/2/4 272/2/4 275/2/4
f 275/1/4 273/1/4 276/1/4
f 277/2/4 278/2/4 280/2/4
f 278/1/4 279/1/4 281/1/4
f 280/2/4 278/2/4 281/2/4
f 281/1/4 279/1/4 282/1/4
f 283/2/4 284/2/4 286/2/4
f 284/1/4 285/1/4 287/1/4
f 286/2/4 284/2/4 287/2/4
f 287/1/4 285/1/4 288/1/4
f 289/2/4 290/2/4 292/2/4
f 290/1/4 291/1/4 293/1/4
f 292/2/4 290/2/4 293/2/4
f 293/1/4 291/1/4 294/1/4
f 295/2/4 296/2/4 298/2/4
f 296/1/4 297/1/4 299/1/4
f 298/2/4 296/2/4 299/2/4
f 299/1/4 297/1/4 300/1/4
f 304/2/5 302/2/5 301/2/5
f 305/2/5 302/2/5 304/2/5
f 307/2/5 304/2/5 303/2/5
f 307/2/5 306/2/5 305/2/5
f 307/2/5 305/2/5 304/2/5
f 310/2/5 307/2/5 303/2/5
f 310/2/5 308/2/5 307/2/5
f 311/2/5 308/2/5 310/2/5
f 314/2/5 310/2/5 309/2/5
f 314/2/5 312/2/5 311/2/5
f 314/2/5 311/2/5 310/2/5
f 315/2/5 312/2/5 314/2/5
f 318/2/5 314/2/5 313/2/5
f 318/2/5 316/2/5 315/2/5
f 318/2/5 315/2/5 314/2/5
f 319/2/5 316/2/5 318/2/5
f 321/2/5 318/2/5 317/2/5
f 321/2/5 320/2/5 319/2/5
f 321/2/5 319/2/5 318/2/5
f 324/2/5 321/2/5 317/2/5
f 324/2/5 322/2/5 321/2/5
f 325/2/5 324/2/5 323/2/5
f 326/2/5 322/2/5 324/2/5
f 326/2/5 324/2/5 325/2/5
f 327/2/5 322/2/5 326/2/5
f 328/2/5 322/2/5 327/2/5
f 329/2/5 322/2/5 328/2/5
f 330/2/5 322/2/5 329/2/5
f 331/2/5 322/2/5 330/2/5
f 332/2/5 322/2/5 331/2/5
f 333/2/5 331/2/5 330/2/5
f 334/2/5 331/2/5 333/2/5
f 335/2/5 331/2/5 334/2/5
f 336/2/5 331/2/5 335/2/5
f 337/2/5 331/2/5 336/2/5
f 338/2/5 331/2/5 337/2/5
f 339/2/5 331/2/5 338/2/5
f 340/2/5 331/2/5 339/2/5
f 341/2/5 339/2/5 338/2/5
f 342/2/5 339/2/5 341/2/5
f 343/2/5 339/2/5 342/2/5
f 344/2/5 339/2/5 343/2/5
f 345/2/5 339/2/5 344/2/5
f 346/2/5 339/2/5 345/2/5
f 347/2/5 343/2/5 342/2/5
f 348/2/5 343/2/5 347/2/5
f 349/2/5 345/2/5 344/2/5
f 350/2/5 345/2/5 349/2/5
f 351/1/6 352/1/6 354/1/6
f 354/1/6 352/1/6 355/1/6
f 353/1/6 354/1/6 357/1/6
f 355/1/6 356/1/6 357/1/6
f 354/1/6 355/1/6 357/1/6
f 353/1/6 357/1/6 360/1/6
f 357/1/6 358/1/6 360/1/6
f 360/1/6 358/1/6 361/1/6
f 359/1/6 360/1/6 364/1/6
f 361/1/6 362/1/6 364/1/6
f 360/1/6 361/1/6 364/1/6
f 364/1/6 362/1/6 365/1/6
f 363/1/6 364/1/6 368/1/6
f 365/1/6 366/1/6 368/1/6
f 364/1/6 365/1/6 368/1/6
f 368/1/6 366/1/6 369/1/6
f 367/1/6 368/1/6 371/1/6
f 369/1/6 370/1/6 371/1/6
f 368/1/6 369/1/6 371/1/6
f 367/1/6 371/1/6 374/1/6
f 371/1/6 372/1/6 374/1/6
f 373/1/6 374/1/6 375/1/6
f 374/1/6 372/1/6 376/1/6
f 375/1/6 374/1/6 376/1/6
f 376/1/6 372/1/6 377/1/6
f 377/1/6 372/1/6 378/1/6
f 378/1/6 372/1/6 379/1/6
f 379/1/6 372/1/6 380/1/6
f 380/1/6 372/1/6 381/1/6
f 381/1/6 372/1/6 382/1/6
f 380/1/6 381/1/6 383/1/6
f 383/1/6 381/1/6 384/1/6
f 384/1/6 381/1/6 385/1/6
f 385/1/6 381/1/6 386/1/6
f 386/1/6 381/1/6 387/1/6
f 387/1/6 381/1/6 388/1/6
f 388/1/6 381/1/6 389/1/6
f 389/1/6 381/1/6 390/1/6
f 388/1/6 389/1/6 391/1/6
f 391/1/6 389/1/6 392/1/6
f 392/1/6 389/1/6 393/1/6
f 393/1/6 389/1/6 394/1/6
f 394/1/6 389/1/6 395/1/6
f 395/1/6 389/1/6 396/1/6
f 392/1/6 393/1/6 397/1/6
f 397/1/6 393/1/6 398/1/6
f 394/1/6 395/1/6 399/1/6
f 399/1/6 395/1/6 400/1/6
