# MagicaVoxel @ Ephtracy

# group
o 

# material
mtllib PG2.mtl
usemtl palette

# normals
vn -1 0 0
vn 1 0 0
vn 0 0 1
vn 0 0 -1
vn 0 -1 0
vn 0 1 0

# texcoords
vt 0.587891 0.5
vt 0.634766 0.5
vt 0.740234 0.5
vt 0.818359 0.5
vt 0.826172 0.5
vt 0.958984 0.5
vt 0.994141 0.5

# verts
v -3.1 0.7 0.6
v -3.1 0.7 -0.5
v -3.1 0.8 0.6
v -3.1 0.8 -0.5
v -3.1 0.9 0.6
v -3.1 0.9 -0.5
v -2 0.8 0.5
v -2 0.8 0.4
v -2 0.8 -0.3
v -2 0.8 -0.4
v -2 1.5 0.4
v -2 1.5 -0.3
v -2 1.6 0.5
v -2 1.6 -0.4
v -0.6 0 1.1
v -0.6 0 0.8
v -0.6 0 -0.7
v -0.6 0 -1
v -0.6 0.5 1.1
v -0.6 0.5 0.8
v -0.6 0.5 -0.7
v -0.6 0.5 -1
v -0.5 0 1.2
v -0.5 0 1.1
v -0.5 0 -1
v -0.5 0 -1.1
v -0.5 0.4 1.2
v -0.5 0.4 1.1
v -0.5 0.4 -1
v -0.5 0.4 -1.1
v -0.5 0.5 1.1
v -0.5 0.5 0.8
v -0.5 0.5 -0.7
v -0.5 0.5 -1
v -0.5 0.6 -0.7
v -0.5 0.6 -1
v -0.5 0.7 1.1
v -0.5 0.7 0.8
v -0.4 0.4 1.2
v -0.4 0.4 1.1
v -0.4 0.4 -1
v -0.4 0.4 -1.1
v -0.4 0.5 0.8
v -0.4 0.5 -0.7
v -0.4 0.6 1.2
v -0.4 0.6 1.1
v -0.4 0.6 0.8
v -0.4 0.6 -0.7
v -0.4 0.6 -1
v -0.4 0.6 -1.1
v -0.4 0.7 1.1
v -0.4 0.7 0.8
v -0.4 0.8 1.1
v -0.4 0.8 0.8
v -0.4 0.8 -0.7
v -0.4 0.8 -1
v -0.3 0.6 1.2
v -0.3 0.6 1.1
v -0.3 0.6 0.7
v -0.3 0.6 -0.6
v -0.3 0.6 -1
v -0.3 0.6 -1.1
v -0.3 0.7 1.2
v -0.3 0.7 1.1
v -0.3 0.7 0.7
v -0.3 0.7 0.6
v -0.3 0.7 -0.5
v -0.3 0.7 -0.6
v -0.3 0.7 -1
v -0.3 0.7 -1.1
v -0.3 0.8 1.1
v -0.3 0.8 0.8
v -0.3 0.8 -0.7
v -0.3 0.8 -1
v -0.3 0.9 1.1
v -0.3 0.9 0.8
v -0.3 0.9 -0.7
v -0.3 0.9 -1
v -0.2 0.7 1.2
v -0.2 0.7 1.1
v -0.2 0.7 -1
v -0.2 0.7 -1.1
v -0.2 0.8 1.2
v -0.2 0.8 1.1
v -0.2 0.8 -1
v -0.2 0.8 -1.1
v 1.7 0.8 0.5
v 1.7 0.8 0.4
v 1.7 0.8 -0.3
v 1.7 0.8 -0.4
v 1.7 1.5 0.4
v 1.7 1.5 -0.3
v 1.7 1.6 0.5
v 1.7 1.6 -0.4
v 1.9 0.8 0.6
v 1.9 0.8 -0.5
v 1.9 0.9 0.6
v 1.9 0.9 -0.5
v -2.1 0.8 0.6
v -2.1 0.8 -0.5
v -2.1 0.9 0.6
v -2.1 0.9 -0.5
v -1.9 0.8 0.5
v -1.9 0.8 0.4
v -1.9 0.8 -0.3
v -1.9 0.8 -0.4
v -1.9 1.5 0.4
v -1.9 1.5 -0.3
v -1.9 1.6 0.5
v -1.9 1.6 -0.4
v 0 0.7 1.2
v 0 0.7 1.1
v 0 0.7 -1
v 0 0.7 -1.1
v 0 0.8 1.2
v 0 0.8 1.1
v 0 0.8 -1
v 0 0.8 -1.1
v 0.0999999 0.6 1.2
v 0.0999999 0.6 1.1
v 0.0999999 0.6 0.7
v 0.0999999 0.6 -0.6
v 0.0999999 0.6 -1
v 0.0999999 0.6 -1.1
v 0.0999999 0.7 1.2
v 0.0999999 0.7 1.1
v 0.0999999 0.7 0.7
v 0.0999999 0.7 0.6
v 0.0999999 0.7 -0.5
v 0.0999999 0.7 -0.6
v 0.0999999 0.7 -1
v 0.0999999 0.7 -1.1
v 0.0999999 0.8 1.1
v 0.0999999 0.8 0.8
v 0.0999999 0.8 -0.7
v 0.0999999 0.8 -1
v 0.0999999 0.9 1.1
v 0.0999999 0.9 0.8
v 0.0999999 0.9 -0.7
v 0.0999999 0.9 -1
v 0.2 0.4 1.2
v 0.2 0.4 1.1
v 0.2 0.4 -1
v 0.2 0.4 -1.1
v 0.2 0.5 0.8
v 0.2 0.5 -0.7
v 0.2 0.6 1.2
v 0.2 0.6 1.1
v 0.2 0.6 0.8
v 0.2 0.6 -0.7
v 0.2 0.6 -1
v 0.2 0.6 -1.1
v 0.2 0.7 1.1
v 0.2 0.7 0.8
v 0.2 0.8 1.1
v 0.2 0.8 0.8
v 0.2 0.8 -0.7
v 0.2 0.8 -1
v 0.3 0 1.2
v 0.3 0 1.1
v 0.3 0 -1
v 0.3 0 -1.1
v 0.3 0.4 1.2
v 0.3 0.4 1.1
v 0.3 0.4 -1
v 0.3 0.4 -1.1
v 0.3 0.5 1.1
v 0.3 0.5 0.8
v 0.3 0.5 -0.7
v 0.3 0.5 -1
v 0.3 0.6 -0.7
v 0.3 0.6 -1
v 0.3 0.7 1.1
v 0.3 0.7 0.8
v 0.4 0 1.1
v 0.4 0 0.8
v 0.4 0 -0.7
v 0.4 0 -1
v 0.4 0.5 1.1
v 0.4 0.5 0.8
v 0.4 0.5 -0.7
v 0.4 0.5 -1
v 1.8 0.8 0.5
v 1.8 0.8 0.4
v 1.8 0.8 -0.3
v 1.8 0.8 -0.4
v 1.8 1.5 0.4
v 1.8 1.5 -0.3
v 1.8 1.6 0.5
v 1.8 1.6 -0.4
v 2.9 0.7 0.6
v 2.9 0.7 -0.5
v 2.9 0.8 0.6
v 2.9 0.8 -0.5
v 2.9 0.9 0.6
v 2.9 0.9 -0.5
v -0.5 0 1.2
v -0.5 0.4 1.2
v -0.4 0.4 1.2
v -0.4 0.6 1.2
v -0.3 0.6 1.2
v -0.3 0.7 1.2
v -0.2 0.7 1.2
v -0.2 0.8 1.2
v 0 0.7 1.2
v 0 0.8 1.2
v 0.0999999 0.6 1.2
v 0.0999999 0.7 1.2
v 0.2 0.4 1.2
v 0.2 0.6 1.2
v 0.3 0 1.2
v 0.3 0.4 1.2
v -0.6 0 1.1
v -0.6 0.5 1.1
v -0.5 0 1.1
v -0.5 0.4 1.1
v -0.5 0.5 1.1
v -0.5 0.7 1.1
v -0.4 0.4 1.1
v -0.4 0.6 1.1
v -0.4 0.7 1.1
v -0.4 0.8 1.1
v -0.3 0.6 1.1
v -0.3 0.7 1.1
v -0.3 0.8 1.1
v -0.3 0.9 1.1
v -0.2 0.7 1.1
v -0.2 0.8 1.1
v 0 0.7 1.1
v 0 0.8 1.1
v 0.0999999 0.6 1.1
v 0.0999999 0.7 1.1
v 0.0999999 0.8 1.1
v 0.0999999 0.9 1.1
v 0.2 0.4 1.1
v 0.2 0.6 1.1
v 0.2 0.7 1.1
v 0.2 0.8 1.1
v 0.3 0 1.1
v 0.3 0.4 1.1
v 0.3 0.5 1.1
v 0.3 0.7 1.1
v 0.4 0 1.1
v 0.4 0.5 1.1
v -0.3 0.6 0.7
v -0.3 0.7 0.7
v 0.0999999 0.6 0.7
v 0.0999999 0.7 0.7
v -3.1 0.7 0.6
v -3.1 0.8 0.6
v -3.1 0.9 0.6
v -2.1 0.8 0.6
v -2.1 0.9 0.6
v -0.3 0.7 0.6
v 0.0999999 0.7 0.6
v 1.9 0.8 0.6
v 1.9 0.9 0.6
v 2.9 0.7 0.6
v 2.9 0.8 0.6
v 2.9 0.9 0.6
v -2 0.8 0.5
v -2 1.6 0.5
v -1.9 0.8 0.5
v -1.9 1.6 0.5
v 1.7 0.8 0.5
v 1.7 1.6 0.5
v 1.8 0.8 0.5
v 1.8 1.6 0.5
v -2 0.8 -0.3
v -2 1.5 -0.3
v -1.9 0.8 -0.3
v -1.9 1.5 -0.3
v 1.7 0.8 -0.3
v 1.7 1.5 -0.3
v 1.8 0.8 -0.3
v 1.8 1.5 -0.3
v -0.6 0 -0.7
v -0.6 0.5 -0.7
v -0.5 0.5 -0.7
v -0.5 0.6 -0.7
v -0.4 0.5 -0.7
v -0.4 0.6 -0.7
v -0.4 0.8 -0.7
v -0.3 0.8 -0.7
v -0.3 0.9 -0.7
v 0.0999999 0.8 -0.7
v 0.0999999 0.9 -0.7
v 0.2 0.5 -0.7
v 0.2 0.6 -0.7
v 0.2 0.8 -0.7
v 0.3 0.5 -0.7
v 0.3 0.6 -0.7
v 0.4 0 -0.7
v 0.4 0.5 -0.7
v -0.6 0 0.8
v -0.6 0.5 0.8
v -0.5 0.5 0.8
v -0.5 0.7 0.8
v -0.4 0.5 0.8
v -0.4 0.6 0.8
v -0.4 0.7 0.8
v -0.4 0.8 0.8
v -0.3 0.8 0.8
v -0.3 0.9 0.8
v 0.0999999 0.8 0.8
v 0.0999999 0.9 0.8
v 0.2 0.5 0.8
v 0.2 0.6 0.8
v 0.2 0.7 0.8
v 0.2 0.8 0.8
v 0.3 0.5 0.8
v 0.3 0.7 0.8
v 0.4 0 0.8
v 0.4 0.5 0.8
v -2 0.8 0.4
v -2 1.5 0.4
v -1.9 0.8 0.4
v -1.9 1.5 0.4
v 1.7 0.8 0.4
v 1.7 1.5 0.4
v 1.8 0.8 0.4
v 1.8 1.5 0.4
v -2 0.8 -0.4
v -2 1.6 -0.4
v -1.9 0.8 -0.4
v -1.9 1.6 -0.4
v 1.7 0.8 -0.4
v 1.7 1.6 -0.4
v 1.8 0.8 -0.4
v 1.8 1.6 -0.4
v -3.1 0.7 -0.5
v -3.1 0.8 -0.5
v -3.1 0.9 -0.5
v -2.1 0.8 -0.5
v -2.1 0.9 -0.5
v -0.3 0.7 -0.5
v 0.0999999 0.7 -0.5
v 1.9 0.8 -0.5
v 1.9 0.9 -0.5
v 2.9 0.7 -0.5
v 2.9 0.8 -0.5
v 2.9 0.9 -0.5
v -0.3 0.6 -0.6
v -0.3 0.7 -0.6
v 0.0999999 0.6 -0.6
v 0.0999999 0.7 -0.6
v -0.6 0 -1
v -0.6 0.5 -1
v -0.5 0 -1
v -0.5 0.4 -1
v -0.5 0.5 -1
v -0.5 0.6 -1
v -0.4 0.4 -1
v -0.4 0.6 -1
v -0.4 0.8 -1
v -0.3 0.6 -1
v -0.3 0.7 -1
v -0.3 0.8 -1
v -0.3 0.9 -1
v -0.2 0.7 -1
v -0.2 0.8 -1
v 0 0.7 -1
v 0 0.8 -1
v 0.0999999 0.6 -1
v 0.0999999 0.7 -1
v 0.0999999 0.8 -1
v 0.0999999 0.9 -1
v 0.2 0.4 -1
v 0.2 0.6 -1
v 0.2 0.8 -1
v 0.3 0 -1
v 0.3 0.4 -1
v 0.3 0.5 -1
v 0.3 0.6 -1
v 0.4 0 -1
v 0.4 0.5 -1
v -0.5 0 -1.1
v -0.5 0.4 -1.1
v -0.4 0.4 -1.1
v -0.4 0.6 -1.1
v -0.3 0.6 -1.1
v -0.3 0.7 -1.1
v -0.2 0.7 -1.1
v -0.2 0.8 -1.1
v 0 0.7 -1.1
v 0 0.8 -1.1
v 0.0999999 0.6 -1.1
v 0.0999999 0.7 -1.1
v 0.2 0.4 -1.1
v 0.2 0.6 -1.1
v 0.3 0 -1.1
v 0.3 0.4 -1.1
v -0.5 0 1.2
v 0.3 0 1.2
v -0.6 0 1.1
v -0.5 0 1.1
v 0.3 0 1.1
v 0.4 0 1.1
v -0.6 0 0.8
v 0.4 0 0.8
v -0.6 0 -0.7
v 0.4 0 -0.7
v -0.6 0 -1
v -0.5 0 -1
v 0.3 0 -1
v 0.4 0 -1
v -0.5 0 -1.1
v 0.3 0 -1.1
v -0.4 0.5 0.8
v 0.2 0.5 0.8
v -0.3 0.5 0.7
v 0.0999999 0.5 0.7
v -0.3 0.5 -0.6
v 0.0999999 0.5 -0.6
v -0.4 0.5 -0.7
v 0.2 0.5 -0.7
v -3.1 0.7 0.6
v -0.3 0.7 0.6
v 0.0999999 0.7 0.6
v 2.9 0.7 0.6
v -3.1 0.7 -0.5
v -0.3 0.7 -0.5
v 0.0999999 0.7 -0.5
v 2.9 0.7 -0.5
v -2 1.5 0.4
v -1.9 1.5 0.4
v 1.7 1.5 0.4
v 1.8 1.5 0.4
v -2 1.5 -0.3
v -1.9 1.5 -0.3
v 1.7 1.5 -0.3
v 1.8 1.5 -0.3
v -0.5 0.4 1.2
v -0.4 0.4 1.2
v 0.2 0.4 1.2
v 0.3 0.4 1.2
v -0.5 0.4 1.1
v -0.4 0.4 1.1
v 0.2 0.4 1.1
v 0.3 0.4 1.1
v -0.5 0.4 -1
v -0.4 0.4 -1
v 0.2 0.4 -1
v 0.3 0.4 -1
v -0.5 0.4 -1.1
v -0.4 0.4 -1.1
v 0.2 0.4 -1.1
v 0.3 0.4 -1.1
v -0.6 0.5 1.1
v -0.5 0.5 1.1
v 0.3 0.5 1.1
v 0.4 0.5 1.1
v -0.6 0.5 0.8
v -0.5 0.5 0.8
v 0.3 0.5 0.8
v 0.4 0.5 0.8
v -0.6 0.5 -0.7
v -0.5 0.5 -0.7
v 0.3 0.5 -0.7
v 0.4 0.5 -0.7
v -0.6 0.5 -1
v -0.5 0.5 -1
v 0.3 0.5 -1
v 0.4 0.5 -1
v -0.4 0.6 1.2
v -0.3 0.6 1.2
v 0.0999999 0.6 1.2
v 0.2 0.6 1.2
v -0.4 0.6 1.1
v -0.3 0.6 1.1
v 0.0999999 0.6 1.1
v 0.2 0.6 1.1
v -0.4 0.6 0.8
v 0.2 0.6 0.8
v -0.3 0.6 0.7
v 0.0999999 0.6 0.7
v -0.3 0.6 -0.6
v 0.0999999 0.6 -0.6
v -0.5 0.6 -0.7
v -0.4 0.6 -0.7
v 0.2 0.6 -0.7
v 0.3 0.6 -0.7
v -0.5 0.6 -1
v -0.4 0.6 -1
v -0.3 0.6 -1
v 0.0999999 0.6 -1
v 0.2 0.6 -1
v 0.3 0.6 -1
v -0.4 0.6 -1.1
v -0.3 0.6 -1.1
v 0.0999999 0.6 -1.1
v 0.2 0.6 -1.1
v -0.3 0.7 1.2
v -0.2 0.7 1.2
v 0 0.7 1.2
v 0.0999999 0.7 1.2
v -0.5 0.7 1.1
v -0.4 0.7 1.1
v -0.3 0.7 1.1
v -0.2 0.7 1.1
v 0 0.7 1.1
v 0.0999999 0.7 1.1
v 0.2 0.7 1.1
v 0.3 0.7 1.1
v -0.5 0.7 0.8
v -0.4 0.7 0.8
v 0.2 0.7 0.8
v 0.3 0.7 0.8
v -0.3 0.7 0.7
v 0.0999999 0.7 0.7
v -0.3 0.7 0.6
v 0.0999999 0.7 0.6
v -0.3 0.7 -0.5
v 0.0999999 0.7 -0.5
v -0.3 0.7 -0.6
v 0.0999999 0.7 -0.6
v -0.3 0.7 -1
v -0.2 0.7 -1
v 0 0.7 -1
v 0.0999999 0.7 -1
v -0.3 0.7 -1.1
v -0.2 0.7 -1.1
v 0 0.7 -1.1
v 0.0999999 0.7 -1.1
v -0.2 0.8 1.2
v 0 0.8 1.2
v -0.4 0.8 1.1
v -0.3 0.8 1.1
v -0.2 0.8 1.1
v 0 0.8 1.1
v 0.0999999 0.8 1.1
v 0.2 0.8 1.1
v -0.4 0.8 0.8
v -0.3 0.8 0.8
v 0.0999999 0.8 0.8
v 0.2 0.8 0.8
v -2.1 0.8 0.6
v 1.9 0.8 0.6
v -2 0.8 0.5
v -1.9 0.8 0.5
v 1.7 0.8 0.5
v 1.8 0.8 0.5
v -2 0.8 0.4
v -1.9 0.8 0.4
v 1.7 0.8 0.4
v 1.8 0.8 0.4
v -2 0.8 -0.3
v -1.9 0.8 -0.3
v 1.7 0.8 -0.3
v 1.8 0.8 -0.3
v -2 0.8 -0.4
v -1.9 0.8 -0.4
v 1.7 0.8 -0.4
v 1.8 0.8 -0.4
v -2.1 0.8 -0.5
v 1.9 0.8 -0.5
v -0.4 0.8 -0.7
v -0.3 0.8 -0.7
v 0.0999999 0.8 -0.7
v 0.2 0.8 -0.7
v -0.4 0.8 -1
v -0.3 0.8 -1
v -0.2 0.8 -1
v 0 0.8 -1
v 0.0999999 0.8 -1
v 0.2 0.8 -1
v -0.2 0.8 -1.1
v 0 0.8 -1.1
v -0.3 0.9 1.1
v 0.0999999 0.9 1.1
v -0.3 0.9 0.8
v 0.0999999 0.9 0.8
v -3.1 0.9 0.6
v -2.1 0.9 0.6
v 1.9 0.9 0.6
v 2.9 0.9 0.6
v -3.1 0.9 -0.5
v -2.1 0.9 -0.5
v 1.9 0.9 -0.5
v 2.9 0.9 -0.5
v -0.3 0.9 -0.7
v 0.0999999 0.9 -0.7
v -0.3 0.9 -1
v 0.0999999 0.9 -1
v -2 1.6 0.5
v -1.9 1.6 0.5
v 1.7 1.6 0.5
v 1.8 1.6 0.5
v -2 1.6 -0.4
v -1.9 1.6 -0.4
v 1.7 1.6 -0.4
v 1.8 1.6 -0.4

# faces
f 3/5/1 2/5/1 1/5/1
f 4/5/1 2/5/1 3/5/1
f 5/6/1 4/6/1 3/6/1
f 6/6/1 4/6/1 5/6/1
f 11/2/1 8/2/1 7/2/1
f 12/2/1 10/2/1 9/2/1
f 13/2/1 11/2/1 7/2/1
f 13/2/1 12/2/1 11/2/1
f 14/2/1 10/2/1 12/2/1
f 14/2/1 12/2/1 13/2/1
f 19/3/1 16/3/1 15/3/1
f 20/3/1 16/3/1 19/3/1
f 21/3/1 18/3/1 17/3/1
f 22/3/1 18/3/1 21/3/1
f 27/3/1 24/3/1 23/3/1
f 28/3/1 24/3/1 27/3/1
f 29/3/1 26/3/1 25/3/1
f 30/3/1 26/3/1 29/3/1
f 35/3/1 34/3/1 33/3/1
f 36/3/1 34/3/1 35/3/1
f 37/3/1 32/3/1 31/3/1
f 38/3/1 32/3/1 37/3/1
f 45/3/1 40/3/1 39/3/1
f 46/3/1 40/3/1 45/3/1
f 47/4/1 44/4/1 43/4/1
f 48/4/1 44/4/1 47/4/1
f 49/3/1 42/3/1 41/3/1
f 50/3/1 42/3/1 49/3/1
f 53/3/1 52/3/1 51/3/1
f 54/3/1 52/3/1 53/3/1
f 55/3/1 49/3/1 48/3/1
f 56/3/1 49/3/1 55/3/1
f 63/3/1 58/3/1 57/3/1
f 64/3/1 58/3/1 63/3/1
f 65/7/1 60/7/1 59/7/1
f 66/7/1 60/7/1 65/7/1
f 67/7/1 60/7/1 66/7/1
f 68/7/1 60/7/1 67/7/1
f 69/3/1 62/3/1 61/3/1
f 70/3/1 62/3/1 69/3/1
f 75/3/1 72/3/1 71/3/1
f 76/3/1 72/3/1 75/3/1
f 77/3/1 74/3/1 73/3/1
f 78/3/1 74/3/1 77/3/1
f 83/3/1 80/3/1 79/3/1
f 84/3/1 80/3/1 83/3/1
f 85/3/1 82/3/1 81/3/1
f 86/3/1 82/3/1 85/3/1
f 91/2/1 88/2/1 87/2/1
f 92/2/1 90/2/1 89/2/1
f 93/2/1 91/2/1 87/2/1
f 93/2/1 92/2/1 91/2/1
f 94/2/1 90/2/1 92/2/1
f 94/2/1 92/2/1 93/2/1
f 97/6/1 96/6/1 95/6/1
f 98/6/1 96/6/1 97/6/1
f 99/6/2 100/6/2 101/6/2
f 101/6/2 100/6/2 102/6/2
f 103/2/2 104/2/2 107/2/2
f 105/2/2 106/2/2 108/2/2
f 103/2/2 107/2/2 109/2/2
f 107/2/2 108/2/2 109/2/2
f 108/2/2 106/2/2 110/2/2
f 109/2/2 108/2/2 110/2/2
f 111/3/2 112/3/2 115/3/2
f 115/3/2 112/3/2 116/3/2
f 113/3/2 114/3/2 117/3/2
f 117/3/2 114/3/2 118/3/2
f 119/3/2 120/3/2 125/3/2
f 125/3/2 120/3/2 126/3/2
f 121/7/2 122/7/2 127/7/2
f 127/7/2 122/7/2 128/7/2
f 128/7/2 122/7/2 129/7/2
f 129/7/2 122/7/2 130/7/2
f 123/3/2 124/3/2 131/3/2
f 131/3/2 124/3/2 132/3/2
f 133/3/2 134/3/2 137/3/2
f 137/3/2 134/3/2 138/3/2
f 135/3/2 136/3/2 139/3/2
f 139/3/2 136/3/2 140/3/2
f 141/3/2 142/3/2 147/3/2
f 147/3/2 142/3/2 148/3/2
f 145/4/2 146/4/2 149/4/2
f 149/4/2 146/4/2 150/4/2
f 143/3/2 144/3/2 151/3/2
f 151/3/2 144/3/2 152/3/2
f 153/3/2 154/3/2 155/3/2
f 155/3/2 154/3/2 156/3/2
f 150/3/2 151/3/2 157/3/2
f 157/3/2 151/3/2 158/3/2
f 159/3/2 160/3/2 163/3/2
f 163/3/2 160/3/2 164/3/2
f 161/3/2 162/3/2 165/3/2
f 165/3/2 162/3/2 166/3/2
f 169/3/2 170/3/2 171/3/2
f 171/3/2 170/3/2 172/3/2
f 167/3/2 168/3/2 173/3/2
f 173/3/2 168/3/2 174/3/2
f 175/3/2 176/3/2 179/3/2
f 179/3/2 176/3/2 180/3/2
f 177/3/2 178/3/2 181/3/2
f 181/3/2 178/3/2 182/3/2
f 183/2/2 184/2/2 187/2/2
f 185/2/2 186/2/2 188/2/2
f 183/2/2 187/2/2 189/2/2
f 187/2/2 188/2/2 189/2/2
f 188/2/2 186/2/2 190/2/2
f 189/2/2 188/2/2 190/2/2
f 191/5/2 192/5/2 193/5/2
f 193/5/2 192/5/2 194/5/2
f 193/6/2 194/6/2 195/6/2
f 195/6/2 194/6/2 196/6/2
f 199/3/3 198/3/3 197/3/3
f 201/3/3 200/3/3 199/3/3
f 203/3/3 202/3/3 201/3/3
f 205/3/3 203/3/3 201/3/3
f 205/3/3 204/3/3 203/3/3
f 206/3/3 204/3/3 205/3/3
f 207/3/3 201/3/3 199/3/3
f 207/3/3 205/3/3 201/3/3
f 208/3/3 205/3/3 207/3/3
f 209/3/3 199/3/3 197/3/3
f 209/3/3 207/3/3 199/3/3
f 210/3/3 207/3/3 209/3/3
f 211/3/3 209/3/3 197/3/3
f 212/3/3 209/3/3 211/3/3
f 215/3/3 214/3/3 213/3/3
f 216/3/3 214/3/3 215/3/3
f 217/3/3 214/3/3 216/3/3
f 219/3/3 218/3/3 217/3/3
f 219/3/3 217/3/3 216/3/3
f 220/3/3 218/3/3 219/3/3
f 221/3/3 218/3/3 220/3/3
f 223/3/3 222/3/3 221/3/3
f 223/3/3 221/3/3 220/3/3
f 224/3/3 222/3/3 223/3/3
f 225/3/3 222/3/3 224/3/3
f 227/3/3 226/3/3 225/3/3
f 227/3/3 225/3/3 224/3/3
f 228/3/3 226/3/3 227/3/3
f 230/3/3 226/3/3 228/3/3
f 232/3/3 230/3/3 229/3/3
f 233/3/3 226/3/3 230/3/3
f 233/3/3 230/3/3 232/3/3
f 234/3/3 226/3/3 233/3/3
f 236/3/3 232/3/3 231/3/3
f 236/3/3 233/3/3 232/3/3
f 237/3/3 233/3/3 236/3/3
f 238/3/3 233/3/3 237/3/3
f 240/3/3 236/3/3 235/3/3
f 240/3/3 237/3/3 236/3/3
f 241/3/3 237/3/3 240/3/3
f 242/3/3 237/3/3 241/3/3
f 243/3/3 240/3/3 239/3/3
f 243/3/3 241/3/3 240/3/3
f 244/3/3 241/3/3 243/3/3
f 247/7/3 246/7/3 245/7/3
f 248/7/3 246/7/3 247/7/3
f 252/5/3 250/5/3 249/5/3
f 252/6/3 251/6/3 250/6/3
f 253/6/3 251/6/3 252/6/3
f 254/5/3 252/5/3 249/5/3
f 255/5/3 252/5/3 254/5/3
f 256/5/3 252/5/3 255/5/3
f 258/5/3 256/5/3 255/5/3
f 259/6/3 257/6/3 256/6/3
f 259/5/3 256/5/3 258/5/3
f 260/6/3 257/6/3 259/6/3
f 263/2/3 262/2/3 261/2/3
f 264/2/3 262/2/3 263/2/3
f 267/2/3 266/2/3 265/2/3
f 268/2/3 266/2/3 267/2/3
f 271/2/3 270/2/3 269/2/3
f 272/2/3 270/2/3 271/2/3
f 275/2/3 274/2/3 273/2/3
f 276/2/3 274/2/3 275/2/3
f 279/3/3 278/3/3 277/3/3
f 281/3/3 279/3/3 277/3/3
f 281/3/3 280/3/3 279/3/3
f 282/3/3 280/3/3 281/3/3
f 284/3/3 283/3/3 282/3/3
f 286/3/3 284/3/3 282/3/3
f 286/3/3 285/3/3 284/3/3
f 287/3/3 285/3/3 286/3/3
f 288/3/3 281/3/3 277/3/3
f 289/3/3 286/3/3 282/3/3
f 290/3/3 286/3/3 289/3/3
f 291/3/3 288/3/3 277/3/3
f 291/3/3 289/3/3 288/3/3
f 292/3/3 289/3/3 291/3/3
f 293/3/3 291/3/3 277/3/3
f 294/3/3 291/3/3 293/3/3
f 295/3/4 296/3/4 297/3/4
f 295/3/4 297/3/4 299/3/4
f 297/3/4 298/3/4 299/3/4
f 299/3/4 298/3/4 300/3/4
f 300/3/4 298/3/4 301/3/4
f 301/3/4 302/3/4 303/3/4
f 300/3/4 301/3/4 303/3/4
f 300/3/4 303/3/4 305/3/4
f 303/3/4 304/3/4 305/3/4
f 305/3/4 304/3/4 306/3/4
f 295/3/4 299/3/4 307/3/4
f 300/3/4 305/3/4 308/3/4
f 308/3/4 305/3/4 309/3/4
f 309/3/4 305/3/4 310/3/4
f 295/3/4 307/3/4 311/3/4
f 307/3/4 308/3/4 311/3/4
f 308/3/4 309/3/4 311/3/4
f 311/3/4 309/3/4 312/3/4
f 295/3/4 311/3/4 313/3/4
f 313/3/4 311/3/4 314/3/4
f 315/2/4 316/2/4 317/2/4
f 317/2/4 316/2/4 318/2/4
f 319/2/4 320/2/4 321/2/4
f 321/2/4 320/2/4 322/2/4
f 323/2/4 324/2/4 325/2/4
f 325/2/4 324/2/4 326/2/4
f 327/2/4 328/2/4 329/2/4
f 329/2/4 328/2/4 330/2/4
f 331/5/4 332/5/4 334/5/4
f 332/6/4 333/6/4 334/6/4
f 334/6/4 333/6/4 335/6/4
f 331/5/4 334/5/4 336/5/4
f 336/5/4 334/5/4 337/5/4
f 337/5/4 334/5/4 338/5/4
f 337/5/4 338/5/4 340/5/4
f 338/6/4 339/6/4 341/6/4
f 340/5/4 338/5/4 341/5/4
f 341/6/4 339/6/4 342/6/4
f 343/7/4 344/7/4 345/7/4
f 345/7/4 344/7/4 346/7/4
f 347/3/4 348/3/4 349/3/4
f 349/3/4 348/3/4 350/3/4
f 350/3/4 348/3/4 351/3/4
f 351/3/4 352/3/4 353/3/4
f 350/3/4 351/3/4 353/3/4
f 353/3/4 352/3/4 354/3/4
f 354/3/4 355/3/4 356/3/4
f 356/3/4 355/3/4 357/3/4
f 357/3/4 355/3/4 358/3/4
f 358/3/4 359/3/4 360/3/4
f 357/3/4 358/3/4 360/3/4
f 360/3/4 359/3/4 361/3/4
f 361/3/4 359/3/4 363/3/4
f 362/3/4 363/3/4 365/3/4
f 363/3/4 359/3/4 366/3/4
f 365/3/4 363/3/4 366/3/4
f 366/3/4 359/3/4 367/3/4
f 364/3/4 365/3/4 369/3/4
f 365/3/4 366/3/4 369/3/4
f 369/3/4 366/3/4 370/3/4
f 368/3/4 369/3/4 372/3/4
f 372/3/4 369/3/4 373/3/4
f 373/3/4 369/3/4 374/3/4
f 371/3/4 372/3/4 375/3/4
f 372/3/4 373/3/4 375/3/4
f 375/3/4 373/3/4 376/3/4
f 377/3/4 378/3/4 379/3/4
f 379/3/4 380/3/4 381/3/4
f 381/3/4 382/3/4 383/3/4
f 381/3/4 383/3/4 385/3/4
f 383/3/4 384/3/4 385/3/4
f 385/3/4 384/3/4 386/3/4
f 379/3/4 381/3/4 387/3/4
f 381/3/4 385/3/4 387/3/4
f 387/3/4 385/3/4 388/3/4
f 377/3/4 379/3/4 389/3/4
f 379/3/4 387/3/4 389/3/4
f 389/3/4 387/3/4 390/3/4
f 377/3/4 389/3/4 391/3/4
f 391/3/4 389/3/4 392/3/4
f 396/3/5 394/3/5 393/3/5
f 397/3/5 394/3/5 396/3/5
f 399/3/5 396/3/5 395/3/5
f 399/3/5 398/3/5 397/3/5
f 399/3/5 397/3/5 396/3/5
f 400/3/5 398/3/5 399/3/5
f 403/3/5 402/3/5 401/3/5
f 404/3/5 402/3/5 403/3/5
f 405/3/5 402/3/5 404/3/5
f 406/3/5 402/3/5 405/3/5
f 407/3/5 405/3/5 404/3/5
f 408/3/5 405/3/5 407/3/5
f 411/4/5 410/4/5 409/4/5
f 412/4/5 410/4/5 411/4/5
f 413/4/5 411/4/5 409/4/5
f 413/1/5 412/1/5 411/1/5
f 414/4/5 410/4/5 412/4/5
f 414/1/5 412/1/5 413/1/5
f 415/4/5 413/4/5 409/4/5
f 415/4/5 414/4/5 413/4/5
f 416/4/5 410/4/5 414/4/5
f 416/4/5 414/4/5 415/4/5
f 421/5/5 418/5/5 417/5/5
f 422/5/5 418/5/5 421/5/5
f 423/5/5 420/5/5 419/5/5
f 424/5/5 420/5/5 423/5/5
f 429/2/5 426/2/5 425/2/5
f 430/2/5 426/2/5 429/2/5
f 431/2/5 428/2/5 427/2/5
f 432/2/5 428/2/5 431/2/5
f 433/3/6 434/3/6 437/3/6
f 437/3/6 434/3/6 438/3/6
f 435/3/6 436/3/6 439/3/6
f 439/3/6 436/3/6 440/3/6
f 441/3/6 442/3/6 445/3/6
f 445/3/6 442/3/6 446/3/6
f 443/3/6 444/3/6 447/3/6
f 447/3/6 444/3/6 448/3/6
f 449/3/6 450/3/6 453/3/6
f 453/3/6 450/3/6 454/3/6
f 451/3/6 452/3/6 455/3/6
f 455/3/6 452/3/6 456/3/6
f 457/3/6 458/3/6 461/3/6
f 461/3/6 458/3/6 462/3/6
f 459/3/6 460/3/6 463/3/6
f 463/3/6 460/3/6 464/3/6
f 465/3/6 466/3/6 469/3/6
f 469/3/6 466/3/6 470/3/6
f 467/3/6 468/3/6 471/3/6
f 471/3/6 468/3/6 472/3/6
f 473/4/6 474/4/6 475/4/6
f 475/4/6 474/4/6 476/4/6
f 473/4/6 475/4/6 477/4/6
f 476/4/6 474/4/6 478/4/6
f 473/4/6 477/4/6 480/4/6
f 477/4/6 478/4/6 480/4/6
f 478/4/6 474/4/6 481/4/6
f 480/4/6 478/4/6 481/4/6
f 479/3/6 480/3/6 483/3/6
f 483/3/6 480/3/6 484/3/6
f 481/3/6 482/3/6 487/3/6
f 487/3/6 482/3/6 488/3/6
f 484/3/6 485/3/6 489/3/6
f 489/3/6 485/3/6 490/3/6
f 486/3/6 487/3/6 491/3/6
f 491/3/6 487/3/6 492/3/6
f 493/3/6 494/3/6 499/3/6
f 499/3/6 494/3/6 500/3/6
f 495/3/6 496/3/6 501/3/6
f 501/3/6 496/3/6 502/3/6
f 497/3/6 498/3/6 505/3/6
f 505/3/6 498/3/6 506/3/6
f 503/3/6 504/3/6 507/3/6
f 507/3/6 504/3/6 508/3/6
f 509/7/6 510/7/6 511/7/6
f 511/7/6 510/7/6 512/7/6
f 513/7/6 514/7/6 515/7/6
f 515/7/6 514/7/6 516/7/6
f 517/3/6 518/3/6 521/3/6
f 521/3/6 518/3/6 522/3/6
f 519/3/6 520/3/6 523/3/6
f 523/3/6 520/3/6 524/3/6
f 525/3/6 526/3/6 529/3/6
f 529/3/6 526/3/6 530/3/6
f 527/3/6 528/3/6 533/3/6
f 533/3/6 528/3/6 534/3/6
f 531/3/6 532/3/6 535/3/6
f 535/3/6 532/3/6 536/3/6
f 537/5/6 538/5/6 539/5/6
f 539/5/6 538/5/6 540/5/6
f 540/5/6 538/5/6 541/5/6
f 541/5/6 538/5/6 542/5/6
f 537/5/6 539/5/6 543/5/6
f 540/5/6 541/5/6 544/5/6
f 544/5/6 541/5/6 545/5/6
f 542/5/6 538/5/6 546/5/6
f 544/5/6 545/5/6 547/5/6
f 545/5/6 546/5/6 547/5/6
f 537/5/6 543/5/6 547/5/6
f 543/5/6 544/5/6 547/5/6
f 547/5/6 546/5/6 548/5/6
f 548/5/6 546/5/6 549/5/6
f 546/5/6 538/5/6 550/5/6
f 549/5/6 546/5/6 550/5/6
f 537/5/6 547/5/6 551/5/6
f 548/5/6 549/5/6 552/5/6
f 552/5/6 549/5/6 553/5/6
f 550/5/6 538/5/6 554/5/6
f 537/5/6 551/5/6 555/5/6
f 553/5/6 554/5/6 555/5/6
f 552/5/6 553/5/6 555/5/6
f 551/5/6 552/5/6 555/5/6
f 554/5/6 538/5/6 556/5/6
f 555/5/6 554/5/6 556/5/6
f 557/3/6 558/3/6 561/3/6
f 561/3/6 558/3/6 562/3/6
f 559/3/6 560/3/6 565/3/6
f 565/3/6 560/3/6 566/3/6
f 563/3/6 564/3/6 567/3/6
f 567/3/6 564/3/6 568/3/6
f 569/3/6 570/3/6 571/3/6
f 571/3/6 570/3/6 572/3/6
f 573/6/6 574/6/6 577/6/6
f 577/6/6 574/6/6 578/6/6
f 575/6/6 576/6/6 579/6/6
f 579/6/6 576/6/6 580/6/6
f 581/3/6 582/3/6 583/3/6
f 583/3/6 582/3/6 584/3/6
f 585/2/6 586/2/6 589/2/6
f 589/2/6 586/2/6 590/2/6
f 587/2/6 588/2/6 591/2/6
f 591/2/6 588/2/6 592/2/6
