# MagicaVoxel @ Ephtracy

# group
o 

# material
mtllib G1.mtl
usemtl palette

# normals
vn -1 0 0
vn 1 0 0
vn 0 0 1
vn 0 0 -1
vn 0 -1 0
vn 0 1 0

# texcoords
vt 0.169922 0.5
vt 0.240234 0.5
vt 0.302734 0.5
vt 0.548828 0.5
vt 0.583984 0.5
vt 0.607422 0.5
vt 0.701172 0.5
vt 0.755859 0.5
vt 0.830078 0.5

# verts
v -0.8 0 1.4
v -0.8 0 -1.4
v -0.8 0.1 1.4
v -0.8 0.1 -1.4
v -0.6 0.1 -1
v -0.6 0.1 -1.4
v -0.6 0.3 -1
v -0.6 0.3 -1.4
v -0.6 1.3 -1.1
v -0.6 1.3 -1.2
v -0.6 1.3 -1.3
v -0.6 1.4 -1.1
v -0.6 1.4 -1.2
v -0.6 1.6 -1.1
v -0.6 1.6 -1.3
v -0.5 0.3 -1.1
v -0.5 0.3 -1.3
v -0.5 0.4 -1.1
v -0.5 0.4 -1.3
v -0.5 0.8 -1.1
v -0.5 0.8 -1.3
v -0.5 1.3 -1.1
v -0.5 1.3 -1.2
v -0.5 1.3 -1.3
v -0.5 1.6 -1.1
v -0.5 1.6 -1.3
v -0.5 1.7 -1.1
v -0.5 1.7 -1.3
v -0.4 0.3 -1
v -0.4 0.3 -1.1
v -0.4 0.3 -1.3
v -0.4 0.3 -1.4
v -0.4 0.4 -1
v -0.4 0.4 -1.1
v -0.4 0.4 -1.3
v -0.4 0.4 -1.4
v -0.4 0.8 -1.1
v -0.4 0.8 -1.3
v -0.4 1.7 -1.1
v -0.4 1.7 -1.2
v -0.4 1.7 -1.3
v -0.4 1.8 -1.1
v -0.4 1.8 -1.2
v -0.4 1.8 -1.3
v -0.3 1.8 -1.1
v -0.3 1.8 -1.2
v -0.3 1.8 -1.3
v -0.3 1.9 -1.1
v -0.3 1.9 -1.2
v -0.3 1.9 -1.3
v 0.2 1.8 -1.1
v 0.2 1.8 -1.3
v 0.2 1.9 -1.1
v 0.2 1.9 -1.3
v 0.3 0.3 -1
v 0.3 0.3 -1.1
v 0.3 0.3 -1.3
v 0.3 0.3 -1.4
v 0.3 0.4 -1
v 0.3 0.4 -1.1
v 0.3 0.4 -1.2
v 0.3 0.4 -1.3
v 0.3 0.4 -1.4
v 0.3 0.5 -1.1
v 0.3 0.5 -1.2
v 0.3 0.6 -1.1
v 0.3 0.6 -1.2
v 0.3 0.7 -1.1
v 0.3 0.7 -1.2
v 0.3 0.8 -1.1
v 0.3 0.8 -1.3
v 0.3 1.7 -1.1
v 0.3 1.7 -1.2
v 0.3 1.7 -1.3
v 0.3 1.8 -1.1
v 0.3 1.8 -1.3
v 0.4 0.3 -1.1
v 0.4 0.3 -1.2
v 0.4 0.3 -1.3
v 0.4 0.4 -1.1
v 0.4 0.4 -1.2
v 0.4 0.4 -1.3
v 0.4 0.8 -1.1
v 0.4 0.8 -1.3
v 0.4 1.3 -1.1
v 0.4 1.3 -1.3
v 0.4 1.6 -1.1
v 0.4 1.6 -1.2
v 0.4 1.6 -1.3
v 0.4 1.7 -1.1
v 0.4 1.7 -1.2
v 0.4 1.7 -1.3
v 0.5 0.1 -1
v 0.5 0.1 -1.4
v 0.5 0.3 -1
v 0.5 0.3 -1.4
v 0.5 1.3 -1.1
v 0.5 1.3 -1.3
v 0.5 1.6 -1.1
v 0.5 1.6 -1.3
v 0.7 0 1.4
v 0.7 0 -1.4
v 0.7 0.1 1.4
v 0.7 0.1 -1.4
v -0.8 0 1.4
v -0.8 0.1 1.4
v 0.7 0 1.4
v 0.7 0.1 1.4
v -0.6 0.1 -1
v -0.6 0.3 -1
v -0.4 0.1 -1
v -0.4 0.2 -1
v -0.4 0.3 -1
v -0.4 0.4 -1
v -0.3 0.1 -1
v -0.3 0.2 -1
v -0.2 0.2 -1
v -0.2 0.3 -1
v 5.96046e-08 0.2 -1
v 5.96046e-08 0.3 -1
v 0.3 0.3 -1
v 0.3 0.4 -1
v 0.5 0.1 -1
v 0.5 0.3 -1
v -0.6 1.3 -1.1
v -0.6 1.4 -1.1
v -0.6 1.6 -1.1
v -0.5 0.3 -1.1
v -0.5 0.4 -1.1
v -0.5 0.8 -1.1
v -0.5 1.3 -1.1
v -0.5 1.4 -1.1
v -0.5 1.6 -1.1
v -0.5 1.7 -1.1
v -0.4 0.3 -1.1
v -0.4 0.4 -1.1
v -0.4 0.8 -1.1
v -0.4 1 -1.1
v -0.4 1.1 -1.1
v -0.4 1.7 -1.1
v -0.4 1.8 -1.1
v -0.3 0.6 -1.1
v -0.3 0.7 -1.1
v -0.3 1.4 -1.1
v -0.3 1.5 -1.1
v -0.3 1.7 -1.1
v -0.3 1.8 -1.1
v -0.3 1.9 -1.1
v -0.2 0.6 -1.1
v -0.2 0.7 -1.1
v -0.2 0.8 -1.1
v -0.2 0.9 -1.1
v -0.2 1.2 -1.1
v -0.2 1.3 -1.1
v -0.1 1.8 -1.1
v -0.1 1.9 -1.1
v 0.1 0.8 -1.1
v 0.1 0.9 -1.1
v 0.1 1.2 -1.1
v 0.1 1.3 -1.1
v 0.2 0.5 -1.1
v 0.2 0.6 -1.1
v 0.2 0.7 -1.1
v 0.2 1.4 -1.1
v 0.2 1.5 -1.1
v 0.2 1.8 -1.1
v 0.2 1.9 -1.1
v 0.3 0.3 -1.1
v 0.3 0.4 -1.1
v 0.3 0.5 -1.1
v 0.3 0.6 -1.1
v 0.3 0.7 -1.1
v 0.3 0.8 -1.1
v 0.3 1 -1.1
v 0.3 1.1 -1.1
v 0.3 1.6 -1.1
v 0.3 1.7 -1.1
v 0.3 1.8 -1.1
v 0.4 0.3 -1.1
v 0.4 0.4 -1.1
v 0.4 0.8 -1.1
v 0.4 1.3 -1.1
v 0.4 1.6 -1.1
v 0.4 1.7 -1.1
v 0.5 1.3 -1.1
v 0.5 1.6 -1.1
v -0.6 1.3 -1.3
v -0.6 1.6 -1.3
v -0.5 0.3 -1.3
v -0.5 0.4 -1.3
v -0.5 0.8 -1.3
v -0.5 1.3 -1.3
v -0.5 1.6 -1.3
v -0.5 1.7 -1.3
v -0.4 0.3 -1.3
v -0.4 0.4 -1.3
v -0.4 0.8 -1.3
v -0.4 1.7 -1.3
v -0.4 1.8 -1.3
v -0.3 1.8 -1.3
v -0.3 1.9 -1.3
v 0.2 1.8 -1.3
v 0.2 1.9 -1.3
v 0.3 0.3 -1.3
v 0.3 0.4 -1.3
v 0.3 0.8 -1.3
v 0.3 1.7 -1.3
v 0.3 1.8 -1.3
v 0.4 0.3 -1.3
v 0.4 0.4 -1.3
v 0.4 0.8 -1.3
v 0.4 1.3 -1.3
v 0.4 1.6 -1.3
v 0.4 1.7 -1.3
v 0.5 1.3 -1.3
v 0.5 1.6 -1.3
v -0.8 0 -1.4
v -0.8 0.1 -1.4
v -0.6 0.1 -1.4
v -0.6 0.3 -1.4
v -0.4 0.2 -1.4
v -0.4 0.3 -1.4
v -0.4 0.4 -1.4
v -0.2 0.2 -1.4
v -0.2 0.3 -1.4
v 0.3 0.3 -1.4
v 0.3 0.4 -1.4
v 0.5 0.1 -1.4
v 0.5 0.3 -1.4
v 0.7 0 -1.4
v 0.7 0.1 -1.4
v -0.8 0 1.4
v 0.7 0 1.4
v -0.2 0 0.6
v 0.1 0 0.6
v -0.4 0 0.1
v -0.2 0 0.1
v 0.1 0 0.1
v 0.3 0 0.1
v -0.4 0 -0.2
v -0.2 0 -0.2
v 0.1 0 -0.2
v 0.3 0 -0.2
v -0.2 0 -0.4
v 0.1 0 -0.4
v -0.6 0 -1
v 0.5 0 -1
v -0.6 0 -1.3
v 0.5 0 -1.3
v -0.8 0 -1.4
v 0.7 0 -1.4
v -0.5 0.8 -1.1
v -0.4 0.8 -1.1
v 0.3 0.8 -1.1
v 0.4 0.8 -1.1
v -0.5 0.8 -1.3
v -0.4 0.8 -1.3
v 0.3 0.8 -1.3
v 0.4 0.8 -1.3
v -0.6 1.3 -1.1
v -0.5 1.3 -1.1
v 0.4 1.3 -1.1
v 0.5 1.3 -1.1
v -0.6 1.3 -1.2
v -0.5 1.3 -1.2
v -0.6 1.3 -1.3
v -0.5 1.3 -1.3
v 0.4 1.3 -1.3
v 0.5 1.3 -1.3
v -0.8 0.1 1.4
v 0.7 0.1 1.4
v -0.2 0.1 0.6
v 0.1 0.1 0.6
v -0.4 0.1 0.1
v -0.2 0.1 0.1
v 0.1 0.1 0.1
v 0.3 0.1 0.1
v -0.4 0.1 -0.2
v -0.2 0.1 -0.2
v 0.1 0.1 -0.2
v 0.3 0.1 -0.2
v -0.2 0.1 -0.4
v 0.1 0.1 -0.4
v -0.6 0.1 -1
v -0.4 0.1 -1
v -0.3 0.1 -1
v 0.5 0.1 -1
v -0.8 0.1 -1.4
v -0.6 0.1 -1.4
v 0.5 0.1 -1.4
v 0.7 0.1 -1.4
v -0.6 0.3 -1
v -0.4 0.3 -1
v 0.3 0.3 -1
v 0.5 0.3 -1
v -0.5 0.3 -1.1
v -0.4 0.3 -1.1
v 0.3 0.3 -1.1
v 0.4 0.3 -1.1
v 0.4 0.3 -1.2
v -0.5 0.3 -1.3
v -0.4 0.3 -1.3
v 0.3 0.3 -1.3
v 0.4 0.3 -1.3
v -0.6 0.3 -1.4
v -0.4 0.3 -1.4
v 0.3 0.3 -1.4
v 0.5 0.3 -1.4
v -0.4 0.4 -1
v 0.3 0.4 -1
v -0.5 0.4 -1.1
v -0.4 0.4 -1.1
v 0.3 0.4 -1.1
v 0.4 0.4 -1.1
v 0.3 0.4 -1.2
v 0.4 0.4 -1.2
v -0.5 0.4 -1.3
v -0.4 0.4 -1.3
v 0.3 0.4 -1.3
v 0.4 0.4 -1.3
v -0.4 0.4 -1.4
v 0.3 0.4 -1.4
v -0.6 1.6 -1.1
v -0.5 1.6 -1.1
v 0.4 1.6 -1.1
v 0.5 1.6 -1.1
v 0.4 1.6 -1.2
v -0.6 1.6 -1.3
v -0.5 1.6 -1.3
v 0.4 1.6 -1.3
v 0.5 1.6 -1.3
v -0.5 1.7 -1.1
v -0.4 1.7 -1.1
v 0.3 1.7 -1.1
v 0.4 1.7 -1.1
v -0.4 1.7 -1.2
v 0.3 1.7 -1.2
v 0.4 1.7 -1.2
v -0.5 1.7 -1.3
v -0.4 1.7 -1.3
v 0.3 1.7 -1.3
v 0.4 1.7 -1.3
v -0.4 1.8 -1.1
v -0.3 1.8 -1.1
v 0.2 1.8 -1.1
v 0.3 1.8 -1.1
v -0.4 1.8 -1.2
v -0.3 1.8 -1.2
v -0.4 1.8 -1.3
v -0.3 1.8 -1.3
v 0.2 1.8 -1.3
v 0.3 1.8 -1.3
v -0.3 1.9 -1.1
v -0.1 1.9 -1.1
v 0.2 1.9 -1.1
v -0.3 1.9 -1.2
v -0.1 1.9 -1.2
v -0.3 1.9 -1.3
v 0.2 1.9 -1.3

# faces
f 3/7/1 2/7/1 1/7/1
f 4/7/1 2/7/1 3/7/1
f 7/7/1 6/7/1 5/7/1
f 8/7/1 6/7/1 7/7/1
f 12/2/1 10/2/1 9/2/1
f 13/6/1 11/6/1 10/6/1
f 13/2/1 10/2/1 12/2/1
f 14/6/1 13/6/1 12/6/1
f 15/6/1 11/6/1 13/6/1
f 15/6/1 13/6/1 14/6/1
f 18/7/1 17/7/1 16/7/1
f 19/7/1 17/7/1 18/7/1
f 22/6/1 21/6/1 20/6/1
f 23/6/1 21/6/1 22/6/1
f 24/6/1 21/6/1 23/6/1
f 27/6/1 26/6/1 25/6/1
f 28/6/1 26/6/1 27/6/1
f 33/7/1 30/7/1 29/7/1
f 34/7/1 30/7/1 33/7/1
f 35/7/1 32/7/1 31/7/1
f 36/7/1 32/7/1 35/7/1
f 37/6/1 35/6/1 34/6/1
f 38/6/1 35/6/1 37/6/1
f 42/8/1 40/8/1 39/8/1
f 43/6/1 41/6/1 40/6/1
f 43/8/1 40/8/1 42/8/1
f 44/6/1 41/6/1 43/6/1
f 48/3/1 46/3/1 45/3/1
f 49/6/1 47/6/1 46/6/1
f 49/3/1 46/3/1 48/3/1
f 50/6/1 47/6/1 49/6/1
f 51/6/2 52/6/2 53/6/2
f 53/6/2 52/6/2 54/6/2
f 55/7/2 56/7/2 59/7/2
f 59/7/2 56/7/2 60/7/2
f 57/7/2 58/7/2 62/7/2
f 62/7/2 58/7/2 63/7/2
f 60/6/2 61/6/2 64/6/2
f 61/6/2 62/6/2 64/6/2
f 64/6/2 62/6/2 65/6/2
f 64/8/2 65/8/2 66/8/2
f 65/6/2 62/6/2 67/6/2
f 66/8/2 65/8/2 67/8/2
f 66/2/2 67/2/2 68/2/2
f 67/6/2 62/6/2 69/6/2
f 68/2/2 67/2/2 69/2/2
f 68/6/2 69/6/2 70/6/2
f 69/6/2 62/6/2 71/6/2
f 70/6/2 69/6/2 71/6/2
f 72/6/2 73/6/2 75/6/2
f 73/6/2 74/6/2 75/6/2
f 75/6/2 74/6/2 76/6/2
f 77/5/2 78/5/2 80/5/2
f 78/7/2 79/7/2 81/7/2
f 80/5/2 78/5/2 81/5/2
f 81/7/2 79/7/2 82/7/2
f 83/6/2 84/6/2 85/6/2
f 85/6/2 84/6/2 86/6/2
f 87/2/2 88/2/2 90/2/2
f 88/6/2 89/6/2 91/6/2
f 90/2/2 88/2/2 91/2/2
f 91/6/2 89/6/2 92/6/2
f 93/7/2 94/7/2 95/7/2
f 95/7/2 94/7/2 96/7/2
f 97/6/2 98/6/2 99/6/2
f 99/6/2 98/6/2 100/6/2
f 101/7/2 102/7/2 103/7/2
f 103/7/2 102/7/2 104/7/2
f 107/7/3 106/7/3 105/7/3
f 108/7/3 106/7/3 107/7/3
f 111/7/3 110/7/3 109/7/3
f 112/7/3 110/7/3 111/7/3
f 113/7/3 110/7/3 112/7/3
f 115/5/3 112/5/3 111/5/3
f 116/7/3 114/7/3 113/7/3
f 116/5/3 112/5/3 115/5/3
f 116/7/3 113/7/3 112/7/3
f 117/7/3 116/7/3 115/7/3
f 117/7/3 114/7/3 116/7/3
f 118/7/3 114/7/3 117/7/3
f 119/7/3 117/7/3 115/7/3
f 119/5/3 118/5/3 117/5/3
f 120/7/3 114/7/3 118/7/3
f 120/5/3 118/5/3 119/5/3
f 121/7/3 120/7/3 119/7/3
f 121/7/3 114/7/3 120/7/3
f 122/7/3 114/7/3 121/7/3
f 123/7/3 119/7/3 115/7/3
f 123/7/3 121/7/3 119/7/3
f 124/7/3 121/7/3 123/7/3
f 131/2/3 126/2/3 125/2/3
f 132/6/3 127/6/3 126/6/3
f 132/2/3 126/2/3 131/2/3
f 133/6/3 127/6/3 132/6/3
f 135/7/3 129/7/3 128/7/3
f 136/7/3 129/7/3 135/7/3
f 137/6/3 134/6/3 133/6/3
f 137/6/3 131/6/3 130/6/3
f 137/6/3 132/6/3 131/6/3
f 137/6/3 133/6/3 132/6/3
f 138/6/3 134/6/3 137/6/3
f 139/6/3 134/6/3 138/6/3
f 140/6/3 134/6/3 139/6/3
f 142/6/3 137/6/3 136/6/3
f 142/6/3 138/6/3 137/6/3
f 143/6/3 138/6/3 142/6/3
f 144/6/3 140/6/3 139/6/3
f 145/6/3 140/6/3 144/6/3
f 146/8/3 141/8/3 140/8/3
f 146/6/3 140/6/3 145/6/3
f 147/8/3 141/8/3 146/8/3
f 149/6/3 142/6/3 136/6/3
f 149/2/3 143/2/3 142/2/3
f 150/6/3 138/6/3 143/6/3
f 150/2/3 143/2/3 149/2/3
f 151/6/3 138/6/3 150/6/3
f 152/6/3 138/6/3 151/6/3
f 153/6/3 144/6/3 139/6/3
f 154/6/3 144/6/3 153/6/3
f 155/3/3 148/3/3 147/3/3
f 155/6/3 147/6/3 146/6/3
f 155/6/3 146/6/3 145/6/3
f 156/3/3 148/3/3 155/3/3
f 157/6/3 150/6/3 149/6/3
f 157/6/3 151/6/3 150/6/3
f 157/4/3 152/4/3 151/4/3
f 158/6/3 138/6/3 152/6/3
f 158/4/3 152/4/3 157/4/3
f 159/4/3 154/4/3 153/4/3
f 159/6/3 153/6/3 139/6/3
f 160/6/3 144/6/3 154/6/3
f 160/4/3 154/4/3 159/4/3
f 161/6/3 149/6/3 136/6/3
f 161/6/3 157/6/3 149/6/3
f 161/6/3 158/6/3 157/6/3
f 162/6/3 158/6/3 161/6/3
f 163/6/3 158/6/3 162/6/3
f 164/4/3 145/4/3 144/4/3
f 164/6/3 144/6/3 160/6/3
f 164/6/3 160/6/3 159/6/3
f 165/6/3 155/6/3 145/6/3
f 165/4/3 145/4/3 164/4/3
f 165/6/3 156/6/3 155/6/3
f 166/6/3 156/6/3 165/6/3
f 167/6/3 156/6/3 166/6/3
f 169/6/3 161/6/3 136/6/3
f 170/8/3 162/8/3 161/8/3
f 170/6/3 161/6/3 169/6/3
f 171/2/3 163/2/3 162/2/3
f 171/8/3 162/8/3 170/8/3
f 172/6/3 158/6/3 163/6/3
f 172/2/3 163/2/3 171/2/3
f 173/6/3 158/6/3 172/6/3
f 174/4/3 139/4/3 138/4/3
f 174/6/3 158/6/3 173/6/3
f 174/6/3 138/6/3 158/6/3
f 175/6/3 159/6/3 139/6/3
f 175/4/3 139/4/3 174/4/3
f 175/6/3 164/6/3 159/6/3
f 175/6/3 165/6/3 164/6/3
f 175/6/3 166/6/3 165/6/3
f 176/6/3 166/6/3 175/6/3
f 177/6/3 166/6/3 176/6/3
f 178/6/3 166/6/3 177/6/3
f 179/5/3 169/5/3 168/5/3
f 180/5/3 169/5/3 179/5/3
f 181/6/3 176/6/3 175/6/3
f 181/6/3 174/6/3 173/6/3
f 181/6/3 175/6/3 174/6/3
f 182/6/3 176/6/3 181/6/3
f 183/2/3 177/2/3 176/2/3
f 183/6/3 176/6/3 182/6/3
f 184/2/3 177/2/3 183/2/3
f 185/6/3 183/6/3 182/6/3
f 186/6/3 183/6/3 185/6/3
f 187/6/4 188/6/4 192/6/4
f 192/6/4 188/6/4 193/6/4
f 189/7/4 190/7/4 195/7/4
f 195/7/4 190/7/4 196/7/4
f 193/6/4 194/6/4 197/6/4
f 191/6/4 192/6/4 197/6/4
f 192/6/4 193/6/4 197/6/4
f 197/6/4 194/6/4 198/6/4
f 198/6/4 199/6/4 200/6/4
f 197/6/4 198/6/4 200/6/4
f 196/6/4 197/6/4 200/6/4
f 196/6/4 200/6/4 202/6/4
f 200/6/4 201/6/4 202/6/4
f 202/6/4 201/6/4 203/6/4
f 196/6/4 202/6/4 205/6/4
f 205/6/4 202/6/4 206/6/4
f 206/6/4 202/6/4 207/6/4
f 207/6/4 202/6/4 208/6/4
f 204/7/4 205/7/4 209/7/4
f 209/7/4 205/7/4 210/7/4
f 206/6/4 207/6/4 211/6/4
f 211/6/4 207/6/4 212/6/4
f 212/6/4 207/6/4 213/6/4
f 213/6/4 207/6/4 214/6/4
f 212/6/4 213/6/4 215/6/4
f 215/6/4 213/6/4 216/6/4
f 217/7/4 218/7/4 219/7/4
f 219/7/4 220/7/4 221/7/4
f 221/7/4 220/7/4 222/7/4
f 219/7/4 221/7/4 224/7/4
f 221/5/4 222/5/4 224/5/4
f 222/7/4 223/7/4 225/7/4
f 224/5/4 222/5/4 225/5/4
f 224/7/4 225/7/4 226/7/4
f 225/7/4 223/7/4 226/7/4
f 226/7/4 223/7/4 227/7/4
f 217/7/4 219/7/4 228/7/4
f 219/7/4 224/7/4 228/7/4
f 224/7/4 226/7/4 228/7/4
f 228/7/4 226/7/4 229/7/4
f 217/7/4 228/7/4 230/7/4
f 230/7/4 228/7/4 231/7/4
f 234/7/5 233/7/5 232/7/5
f 235/7/5 233/7/5 234/7/5
f 236/7/5 234/7/5 232/7/5
f 237/9/5 235/9/5 234/9/5
f 237/7/5 234/7/5 236/7/5
f 238/7/5 233/7/5 235/7/5
f 238/9/5 235/9/5 237/9/5
f 239/7/5 233/7/5 238/7/5
f 240/9/5 237/9/5 236/9/5
f 240/7/5 236/7/5 232/7/5
f 240/9/5 239/9/5 238/9/5
f 240/9/5 238/9/5 237/9/5
f 241/9/5 239/9/5 240/9/5
f 242/9/5 239/9/5 241/9/5
f 243/7/5 233/7/5 239/7/5
f 243/9/5 239/9/5 242/9/5
f 244/9/5 242/9/5 241/9/5
f 244/7/5 241/7/5 240/7/5
f 245/7/5 243/7/5 242/7/5
f 245/9/5 242/9/5 244/9/5
f 246/7/5 240/7/5 232/7/5
f 246/7/5 244/7/5 240/7/5
f 246/7/5 245/7/5 244/7/5
f 247/7/5 233/7/5 243/7/5
f 247/7/5 245/7/5 246/7/5
f 247/7/5 243/7/5 245/7/5
f 248/7/5 246/7/5 232/7/5
f 248/1/5 247/1/5 246/1/5
f 249/7/5 233/7/5 247/7/5
f 249/1/5 247/1/5 248/1/5
f 250/7/5 248/7/5 232/7/5
f 250/7/5 249/7/5 248/7/5
f 251/7/5 233/7/5 249/7/5
f 251/7/5 249/7/5 250/7/5
f 256/6/5 253/6/5 252/6/5
f 257/6/5 253/6/5 256/6/5
f 258/6/5 255/6/5 254/6/5
f 259/6/5 255/6/5 258/6/5
f 264/2/5 261/2/5 260/2/5
f 265/2/5 261/2/5 264/2/5
f 266/6/5 265/6/5 264/6/5
f 267/6/5 265/6/5 266/6/5
f 268/6/5 263/6/5 262/6/5
f 269/6/5 263/6/5 268/6/5
f 270/7/6 271/7/6 272/7/6
f 272/7/6 271/7/6 273/7/6
f 270/7/6 272/7/6 274/7/6
f 272/9/6 273/9/6 275/9/6
f 274/7/6 272/7/6 275/7/6
f 273/7/6 271/7/6 276/7/6
f 275/9/6 273/9/6 276/9/6
f 276/7/6 271/7/6 277/7/6
f 274/9/6 275/9/6 278/9/6
f 270/7/6 274/7/6 278/7/6
f 276/9/6 277/9/6 278/9/6
f 275/9/6 276/9/6 278/9/6
f 278/9/6 277/9/6 279/9/6
f 279/9/6 277/9/6 280/9/6
f 277/7/6 271/7/6 281/7/6
f 280/9/6 277/9/6 281/9/6
f 279/9/6 280/9/6 282/9/6
f 278/7/6 279/7/6 282/7/6
f 280/7/6 281/7/6 283/7/6
f 282/9/6 280/9/6 283/9/6
f 270/7/6 278/7/6 284/7/6
f 278/7/6 282/7/6 284/7/6
f 282/7/6 283/7/6 284/7/6
f 284/7/6 283/7/6 285/7/6
f 285/7/6 283/7/6 286/7/6
f 281/7/6 271/7/6 287/7/6
f 286/7/6 283/7/6 287/7/6
f 283/7/6 281/7/6 287/7/6
f 270/7/6 284/7/6 288/7/6
f 288/7/6 284/7/6 289/7/6
f 287/7/6 271/7/6 290/7/6
f 290/7/6 271/7/6 291/7/6
f 292/7/6 293/7/6 296/7/6
f 296/7/6 293/7/6 297/7/6
f 294/7/6 295/7/6 298/7/6
f 298/7/6 295/7/6 299/7/6
f 299/7/6 295/7/6 300/7/6
f 292/7/6 296/7/6 301/7/6
f 300/7/6 295/7/6 304/7/6
f 301/7/6 302/7/6 305/7/6
f 292/7/6 301/7/6 305/7/6
f 305/7/6 302/7/6 306/7/6
f 303/7/6 304/7/6 307/7/6
f 304/7/6 295/7/6 308/7/6
f 307/7/6 304/7/6 308/7/6
f 309/7/6 310/7/6 312/7/6
f 312/7/6 310/7/6 313/7/6
f 313/5/6 314/5/6 315/5/6
f 315/5/6 314/5/6 316/5/6
f 311/7/6 312/7/6 317/7/6
f 317/7/6 312/7/6 318/7/6
f 315/7/6 316/7/6 319/7/6
f 319/7/6 316/7/6 320/7/6
f 318/7/6 319/7/6 321/7/6
f 321/7/6 319/7/6 322/7/6
f 325/6/6 326/6/6 327/6/6
f 323/6/6 324/6/6 328/6/6
f 328/6/6 324/6/6 329/6/6
f 327/6/6 326/6/6 330/6/6
f 330/6/6 326/6/6 331/6/6
f 332/6/6 333/6/6 336/6/6
f 334/2/6 335/2/6 337/2/6
f 337/2/6 335/2/6 338/2/6
f 332/6/6 336/6/6 339/6/6
f 339/6/6 336/6/6 340/6/6
f 337/6/6 338/6/6 341/6/6
f 341/6/6 338/6/6 342/6/6
f 343/8/6 344/8/6 347/8/6
f 347/8/6 344/8/6 348/8/6
f 347/6/6 348/6/6 349/6/6
f 349/6/6 348/6/6 350/6/6
f 345/6/6 346/6/6 351/6/6
f 351/6/6 346/6/6 352/6/6
f 353/3/6 354/3/6 356/3/6
f 354/6/6 355/6/6 357/6/6
f 356/3/6 354/3/6 357/3/6
f 356/6/6 357/6/6 358/6/6
f 357/6/6 355/6/6 359/6/6
f 358/6/6 357/6/6 359/6/6
