# MagicaVoxel @ Ephtracy

# group
o 

# material
mtllib Dog.mtl
usemtl palette

# normals
vn -1 0 0
vn 1 0 0
vn 0 0 1
vn 0 0 -1
vn 0 -1 0
vn 0 1 0

# texcoords
vt 0.0644531 0.5
vt 0.119141 0.5
vt 0.349609 0.5
vt 0.958984 0.5
vt 0.994141 0.5

# verts
v -0.5 0 0.9
v -0.5 0 0.4
v -0.5 0 -0.6
v -0.5 0 -1.1
v -0.5 0.4 0.4
v -0.5 0.4 -0.6
v -0.5 1 0.9
v -0.5 1 -1.1
v -0.5 1.5 1.2
v -0.5 1.5 0.5
v -0.5 1.6 1.2
v -0.5 1.6 0.5
v -0.4 1 1.2
v -0.4 1 0.9
v -0.4 1 0.5
v -0.4 1.5 1.2
v -0.4 1.5 0.5
v -0.4 1.5 0.4
v -0.4 1.6 1.2
v -0.4 1.6 0.6
v -0.4 1.6 0.5
v -0.4 1.6 0.4
v -0.4 1.7 1.2
v -0.4 1.7 0.6
v -0.4 1.8 1.2
v -0.4 1.8 0.5
v -0.3 1.8 1.1
v -0.3 1.8 0.6
v -0.3 1.9 1.1
v -0.3 1.9 0.6
v -0.2 1 1.4
v -0.2 1 1.2
v -0.2 1.3 1.4
v -0.2 1.3 1.2
v -0.2 1.9 1
v -0.2 1.9 0.7
v -0.2 2 1
v -0.2 2 0.7
v -0.1 0.8 -1.1
v -0.1 0.8 -1.2
v -0.1 1 -1.1
v -0.1 1.1 -1.1
v -0.1 1.1 -1.2
v -0.1 1.3 1.4
v -0.1 1.3 1.3
v -0.1 1.4 1.4
v -0.1 1.4 1.3
v 0.1 0 0.9
v 0.1 0 0.4
v 0.1 0 -0.6
v 0.1 0 -1.1
v 0.1 0.4 0.9
v 0.1 0.4 0.4
v 0.1 0.4 -0.6
v 0.1 0.4 -1.1
v 0.7 1.2 0.7
v 0.7 1.2 0.6
v 0.7 1.3 0.7
v 0.7 1.3 0.6
v 5.96046e-08 0 0.9
v 5.96046e-08 0 0.4
v 5.96046e-08 0 -0.6
v 5.96046e-08 0 -1.1
v 5.96046e-08 0.4 0.9
v 5.96046e-08 0.4 0.4
v 5.96046e-08 0.4 -0.6
v 5.96046e-08 0.4 -1.1
v 0.2 0.8 -1.1
v 0.2 0.8 -1.2
v 0.2 1 -1.1
v 0.2 1.1 -1.1
v 0.2 1.1 -1.2
v 0.2 1.3 1.4
v 0.2 1.3 1.3
v 0.2 1.4 1.4
v 0.2 1.4 1.3
v 0.3 1 1.4
v 0.3 1 1.2
v 0.3 1.3 1.4
v 0.3 1.3 1.2
v 0.3 1.9 1
v 0.3 1.9 0.7
v 0.3 2 1
v 0.3 2 0.7
v 0.4 1.7 1.2
v 0.4 1.7 1.1
v 0.4 1.7 0.6
v 0.4 1.7 0.5
v 0.4 1.8 1.2
v 0.4 1.8 1.1
v 0.4 1.8 1
v 0.4 1.8 0.6
v 0.4 1.8 0.5
v 0.4 1.9 1.1
v 0.4 1.9 1
v 0.5 1 1.2
v 0.5 1 0.9
v 0.5 1 0.5
v 0.5 1.3 0.8
v 0.5 1.3 0.6
v 0.5 1.4 1
v 0.5 1.4 0.8
v 0.5 1.4 0.6
v 0.5 1.5 1.2
v 0.5 1.5 1
v 0.5 1.5 0.6
v 0.5 1.5 0.5
v 0.5 1.5 0.4
v 0.5 1.6 1.2
v 0.5 1.6 1.1
v 0.5 1.6 0.5
v 0.5 1.6 0.4
v 0.5 1.7 1.2
v 0.5 1.7 1.1
v 0.5 1.7 1
v 0.5 1.8 1.1
v 0.5 1.8 1
v 0.5 1.8 0.6
v 0.5 1.9 1
v 0.5 1.9 0.6
v 0.6 0 0.9
v 0.6 0 0.4
v 0.6 0 -0.6
v 0.6 0 -1.1
v 0.6 0.4 0.4
v 0.6 0.4 -0.6
v 0.6 1 0.9
v 0.6 1 -1.1
v 0.6 1.5 1.2
v 0.6 1.5 1.1
v 0.6 1.5 0.6
v 0.6 1.5 0.5
v 0.6 1.6 1.2
v 0.6 1.6 1.1
v 0.6 1.6 0.6
v 0.6 1.7 1.1
v 0.6 1.7 1
v 0.6 1.7 0.6
v 0.6 1.7 0.5
v 0.6 1.8 1
v 0.6 1.8 0.6
v 0.7 1.5 1.1
v 0.7 1.5 1
v 0.7 1.6 1.1
v 0.7 1.6 1
v 0.8 1.2 0.7
v 0.8 1.2 0.6
v 0.8 1.3 0.8
v 0.8 1.3 0.7
v 0.8 1.3 0.6
v 0.8 1.4 1
v 0.8 1.4 0.8
v 0.8 1.6 1
v 0.8 1.6 0.6
v -0.2 1 1.4
v -0.2 1.3 1.4
v -0.1 1.1 1.4
v -0.1 1.2 1.4
v -0.1 1.3 1.4
v -0.1 1.4 1.4
v 5.96046e-08 1.1 1.4
v 5.96046e-08 1.2 1.4
v 5.96046e-08 1.3 1.4
v 0.1 1.1 1.4
v 0.1 1.2 1.4
v 0.1 1.3 1.4
v 0.2 1.1 1.4
v 0.2 1.2 1.4
v 0.2 1.3 1.4
v 0.2 1.4 1.4
v 0.3 1 1.4
v 0.3 1.3 1.4
v -0.5 1.5 1.2
v -0.5 1.6 1.2
v -0.4 1 1.2
v -0.4 1.5 1.2
v -0.4 1.6 1.2
v -0.4 1.7 1.2
v -0.4 1.8 1.2
v -0.3 1.3 1.2
v -0.3 1.4 1.2
v -0.3 1.5 1.2
v -0.2 1 1.2
v -0.2 1.3 1.2
v -0.2 1.4 1.2
v -0.2 1.5 1.2
v -0.1 1.3 1.2
v -0.1 1.5 1.2
v 0.2 1.3 1.2
v 0.2 1.4 1.2
v 0.2 1.5 1.2
v 0.3 1 1.2
v 0.3 1.3 1.2
v 0.3 1.4 1.2
v 0.3 1.5 1.2
v 0.4 1.3 1.2
v 0.4 1.5 1.2
v 0.4 1.7 1.2
v 0.4 1.8 1.2
v 0.5 1 1.2
v 0.5 1.5 1.2
v 0.5 1.6 1.2
v 0.5 1.7 1.2
v 0.6 1.5 1.2
v 0.6 1.6 1.2
v -0.3 1.8 1.1
v -0.3 1.9 1.1
v 0.4 1.7 1.1
v 0.4 1.8 1.1
v 0.4 1.9 1.1
v 0.5 1.6 1.1
v 0.5 1.7 1.1
v 0.5 1.8 1.1
v 0.6 1.5 1.1
v 0.6 1.6 1.1
v 0.6 1.7 1.1
v 0.7 1.5 1.1
v 0.7 1.6 1.1
v -0.2 1.9 1
v -0.2 2 1
v 0.3 1.9 1
v 0.3 2 1
v 0.4 1.8 1
v 0.4 1.9 1
v 0.5 1.4 1
v 0.5 1.5 1
v 0.5 1.7 1
v 0.5 1.8 1
v 0.5 1.9 1
v 0.6 1.4 1
v 0.6 1.5 1
v 0.6 1.7 1
v 0.6 1.8 1
v 0.7 1.5 1
v 0.7 1.6 1
v 0.8 1.4 1
v 0.8 1.6 1
v -0.5 0 0.9
v -0.5 1 0.9
v -0.4 1 0.9
v 5.96046e-08 0 0.9
v 5.96046e-08 0.4 0.9
v 0.1 0 0.9
v 0.1 0.4 0.9
v 0.5 1 0.9
v 0.6 0 0.9
v 0.6 1 0.9
v 0.5 1.3 0.8
v 0.5 1.4 0.8
v 0.6 1.3 0.8
v 0.6 1.4 0.8
v 0.8 1.3 0.8
v 0.8 1.4 0.8
v 0.7 1.2 0.7
v 0.7 1.3 0.7
v 0.8 1.2 0.7
v 0.8 1.3 0.7
v -0.5 0 -0.6
v -0.5 0.4 -0.6
v 5.96046e-08 0 -0.6
v 5.96046e-08 0.4 -0.6
v 0.1 0 -0.6
v 0.1 0.4 -0.6
v 0.6 0 -0.6
v 0.6 0.4 -0.6
v -0.1 1 -1.1
v -0.1 1.1 -1.1
v 0.2 1 -1.1
v 0.2 1.1 -1.1
v -0.1 1.3 1.3
v -0.1 1.4 1.3
v 0.2 1.3 1.3
v 0.2 1.4 1.3
v -0.2 1.9 0.7
v -0.2 2 0.7
v 0.3 1.9 0.7
v 0.3 2 0.7
v -0.3 1.8 0.6
v -0.3 1.9 0.6
v 0.4 1.7 0.6
v 0.4 1.8 0.6
v 0.5 1.3 0.6
v 0.5 1.4 0.6
v 0.5 1.5 0.6
v 0.5 1.8 0.6
v 0.5 1.9 0.6
v 0.6 1.3 0.6
v 0.6 1.4 0.6
v 0.6 1.5 0.6
v 0.6 1.6 0.6
v 0.6 1.7 0.6
v 0.6 1.8 0.6
v 0.7 1.2 0.6
v 0.7 1.3 0.6
v 0.8 1.2 0.6
v 0.8 1.3 0.6
v 0.8 1.6 0.6
v -0.5 1.5 0.5
v -0.5 1.6 0.5
v -0.4 1 0.5
v -0.4 1.5 0.5
v -0.4 1.6 0.5
v -0.4 1.8 0.5
v 0.4 1.7 0.5
v 0.4 1.8 0.5
v 0.5 1 0.5
v 0.5 1.5 0.5
v 0.5 1.6 0.5
v 0.6 1.5 0.5
v 0.6 1.7 0.5
v -0.5 0 0.4
v -0.5 0.4 0.4
v -0.4 1.5 0.4
v -0.4 1.6 0.4
v 5.96046e-08 0 0.4
v 5.96046e-08 0.4 0.4
v 0.1 0 0.4
v 0.1 0.4 0.4
v 0.5 1.5 0.4
v 0.5 1.6 0.4
v 0.6 0 0.4
v 0.6 0.4 0.4
v -0.5 0 -1.1
v -0.5 1 -1.1
v -0.1 0.8 -1.1
v -0.1 1 -1.1
v 5.96046e-08 0 -1.1
v 5.96046e-08 0.4 -1.1
v 0.1 0 -1.1
v 0.1 0.4 -1.1
v 0.2 0.8 -1.1
v 0.2 1 -1.1
v 0.6 0 -1.1
v 0.6 1 -1.1
v -0.1 0.8 -1.2
v -0.1 1.1 -1.2
v 0.2 0.8 -1.2
v 0.2 1.1 -1.2
v -0.5 0 0.9
v 5.96046e-08 0 0.9
v 0.1 0 0.9
v 0.6 0 0.9
v -0.5 0 0.4
v 5.96046e-08 0 0.4
v 0.1 0 0.4
v 0.6 0 0.4
v -0.5 0 -0.6
v 5.96046e-08 0 -0.6
v 0.1 0 -0.6
v 0.6 0 -0.6
v -0.5 0 -1.1
v 5.96046e-08 0 -1.1
v 0.1 0 -1.1
v 0.6 0 -1.1
v 5.96046e-08 0.4 0.9
v 0.1 0.4 0.9
v -0.5 0.4 0.4
v 5.96046e-08 0.4 0.4
v 0.1 0.4 0.4
v 0.6 0.4 0.4
v -0.5 0.4 -0.6
v 5.96046e-08 0.4 -0.6
v 0.1 0.4 -0.6
v 0.6 0.4 -0.6
v 5.96046e-08 0.4 -1.1
v 0.1 0.4 -1.1
v -0.1 0.8 -1.1
v 0.2 0.8 -1.1
v -0.1 0.8 -1.2
v 0.2 0.8 -1.2
v -0.2 1 1.4
v 0.3 1 1.4
v -0.4 1 1.2
v -0.2 1 1.2
v 0.3 1 1.2
v 0.5 1 1.2
v -0.4 1 0.9
v 0.5 1 0.9
v 0.7 1.2 0.7
v 0.8 1.2 0.7
v 0.7 1.2 0.6
v 0.8 1.2 0.6
v 0.5 1.3 0.8
v 0.6 1.3 0.8
v 0.8 1.3 0.8
v 0.7 1.3 0.7
v 0.8 1.3 0.7
v 0.5 1.3 0.6
v 0.6 1.3 0.6
v 0.7 1.3 0.6
v 0.5 1.4 1
v 0.6 1.4 1
v 0.8 1.4 1
v 0.5 1.4 0.8
v 0.6 1.4 0.8
v 0.8 1.4 0.8
v -0.5 1.5 1.2
v -0.4 1.5 1.2
v 0.5 1.5 1.2
v 0.6 1.5 1.2
v 0.6 1.5 1.1
v 0.7 1.5 1.1
v 0.5 1.5 1
v 0.6 1.5 1
v 0.7 1.5 1
v 0.5 1.5 0.6
v 0.6 1.5 0.6
v -0.5 1.5 0.5
v -0.4 1.5 0.5
v 0.5 1.5 0.5
v 0.6 1.5 0.5
v -0.4 1.5 0.4
v 0.5 1.5 0.4
v -0.5 1 0.9
v -0.4 1 0.9
v 0.5 1 0.9
v 0.6 1 0.9
v -0.4 1 0.5
v 0.5 1 0.5
v -0.5 1 -1.1
v -0.1 1 -1.1
v 0.2 1 -1.1
v 0.6 1 -1.1
v -0.1 1.1 -1.1
v 0.2 1.1 -1.1
v -0.1 1.1 -1.2
v 0.2 1.1 -1.2
v -0.2 1.3 1.4
v -0.1 1.3 1.4
v 0.2 1.3 1.4
v 0.3 1.3 1.4
v -0.1 1.3 1.3
v 0.2 1.3 1.3
v -0.2 1.3 1.2
v -0.1 1.3 1.2
v 0.2 1.3 1.2
v 0.3 1.3 1.2
v -0.1 1.4 1.4
v 0.2 1.4 1.4
v -0.1 1.4 1.3
v 0.2 1.4 1.3
v -0.5 1.6 1.2
v -0.4 1.6 1.2
v 0.5 1.6 1.2
v 0.6 1.6 1.2
v 0.5 1.6 1.1
v 0.6 1.6 1.1
v 0.7 1.6 1.1
v 0.7 1.6 1
v 0.8 1.6 1
v -0.4 1.6 0.6
v 0.6 1.6 0.6
v 0.8 1.6 0.6
v -0.5 1.6 0.5
v -0.4 1.6 0.5
v 0.5 1.6 0.5
v -0.4 1.6 0.4
v 0.5 1.6 0.4
v 0.4 1.7 1.2
v 0.5 1.7 1.2
v 0.4 1.7 1.1
v 0.5 1.7 1.1
v 0.6 1.7 1.1
v 0.5 1.7 1
v 0.6 1.7 1
v 0.4 1.7 0.6
v 0.6 1.7 0.6
v 0.4 1.7 0.5
v 0.6 1.7 0.5
v -0.4 1.8 1.2
v 0.4 1.8 1.2
v -0.3 1.8 1.1
v 0.4 1.8 1.1
v 0.5 1.8 1.1
v 0.4 1.8 1
v 0.5 1.8 1
v 0.6 1.8 1
v -0.3 1.8 0.6
v 0.4 1.8 0.6
v 0.5 1.8 0.6
v 0.6 1.8 0.6
v -0.4 1.8 0.5
v 0.4 1.8 0.5
v -0.3 1.9 1.1
v 0.4 1.9 1.1
v -0.2 1.9 1
v 0.3 1.9 1
v 0.4 1.9 1
v 0.5 1.9 1
v -0.2 1.9 0.7
v 0.3 1.9 0.7
v -0.3 1.9 0.6
v 0.5 1.9 0.6
v -0.2 2 1
v 0.3 2 1
v -0.2 2 0.7
v 0.3 2 0.7

# faces
f 5/3/1 2/3/1 1/3/1
f 6/3/1 4/3/1 3/3/1
f 7/3/1 5/3/1 1/3/1
f 7/3/1 6/3/1 5/3/1
f 8/3/1 4/3/1 6/3/1
f 8/3/1 6/3/1 7/3/1
f 11/4/1 10/4/1 9/4/1
f 12/4/1 10/4/1 11/4/1
f 16/3/1 14/3/1 13/3/1
f 16/3/1 15/3/1 14/3/1
f 17/3/1 15/3/1 16/3/1
f 21/4/1 18/4/1 17/4/1
f 22/4/1 18/4/1 21/4/1
f 23/4/1 20/4/1 19/4/1
f 24/1/1 21/1/1 20/1/1
f 24/4/1 20/4/1 23/4/1
f 25/1/1 24/1/1 23/1/1
f 26/1/1 21/1/1 24/1/1
f 26/1/1 24/1/1 25/1/1
f 29/1/1 28/1/1 27/1/1
f 30/1/1 28/1/1 29/1/1
f 33/2/1 32/2/1 31/2/1
f 34/2/1 32/2/1 33/2/1
f 37/1/1 36/1/1 35/1/1
f 38/1/1 36/1/1 37/1/1
f 41/3/1 40/3/1 39/3/1
f 42/3/1 40/3/1 41/3/1
f 43/3/1 40/3/1 42/3/1
f 46/2/1 45/2/1 44/2/1
f 47/2/1 45/2/1 46/2/1
f 52/3/1 49/3/1 48/3/1
f 53/3/1 49/3/1 52/3/1
f 54/3/1 51/3/1 50/3/1
f 55/3/1 51/3/1 54/3/1
f 58/4/1 57/4/1 56/4/1
f 59/4/1 57/4/1 58/4/1
f 60/3/2 61/3/2 64/3/2
f 64/3/2 61/3/2 65/3/2
f 62/3/2 63/3/2 66/3/2
f 66/3/2 63/3/2 67/3/2
f 68/3/2 69/3/2 70/3/2
f 70/3/2 69/3/2 71/3/2
f 71/3/2 69/3/2 72/3/2
f 73/2/2 74/2/2 75/2/2
f 75/2/2 74/2/2 76/2/2
f 77/2/2 78/2/2 79/2/2
f 79/2/2 78/2/2 80/2/2
f 81/1/2 82/1/2 83/1/2
f 83/1/2 82/1/2 84/1/2
f 85/1/2 86/1/2 89/1/2
f 89/1/2 86/1/2 90/1/2
f 87/1/2 88/1/2 92/1/2
f 92/1/2 88/1/2 93/1/2
f 90/1/2 91/1/2 94/1/2
f 94/1/2 91/1/2 95/1/2
f 96/3/2 97/3/2 99/3/2
f 97/3/2 98/3/2 99/3/2
f 99/3/2 98/3/2 100/3/2
f 96/3/2 99/3/2 101/3/2
f 101/3/2 99/3/2 102/3/2
f 100/3/2 98/3/2 103/3/2
f 96/3/2 101/3/2 104/3/2
f 104/3/2 101/3/2 105/3/2
f 103/3/2 98/3/2 106/3/2
f 106/3/2 98/3/2 107/3/2
f 107/4/2 108/4/2 111/4/2
f 111/4/2 108/4/2 112/4/2
f 109/4/2 110/4/2 113/4/2
f 113/4/2 110/4/2 114/4/2
f 114/1/2 115/1/2 116/1/2
f 116/1/2 115/1/2 117/1/2
f 117/1/2 118/1/2 119/1/2
f 119/1/2 118/1/2 120/1/2
f 121/3/2 122/3/2 125/3/2
f 123/3/2 124/3/2 126/3/2
f 121/3/2 125/3/2 127/3/2
f 125/3/2 126/3/2 127/3/2
f 126/3/2 124/3/2 128/3/2
f 127/3/2 126/3/2 128/3/2
f 129/4/2 130/4/2 133/4/2
f 133/4/2 130/4/2 134/4/2
f 131/1/2 132/1/2 135/1/2
f 134/1/2 135/1/2 136/1/2
f 136/1/2 135/1/2 137/1/2
f 135/1/2 132/1/2 138/1/2
f 137/1/2 135/1/2 138/1/2
f 138/1/2 132/1/2 139/1/2
f 137/1/2 138/1/2 140/1/2
f 140/1/2 138/1/2 141/1/2
f 142/1/2 143/1/2 144/1/2
f 144/1/2 143/1/2 145/1/2
f 146/4/2 147/4/2 149/4/2
f 149/4/2 147/4/2 150/4/2
f 148/1/2 149/1/2 152/1/2
f 149/1/2 150/1/2 152/1/2
f 151/1/2 152/1/2 153/1/2
f 152/1/2 150/1/2 154/1/2
f 153/1/2 152/1/2 154/1/2
f 157/2/3 156/2/3 155/2/3
f 158/2/3 156/2/3 157/2/3
f 159/2/3 156/2/3 158/2/3
f 161/2/3 157/2/3 155/2/3
f 161/5/3 158/5/3 157/5/3
f 162/2/3 160/2/3 159/2/3
f 162/5/3 158/5/3 161/5/3
f 162/2/3 159/2/3 158/2/3
f 163/2/3 160/2/3 162/2/3
f 164/2/3 161/2/3 155/2/3
f 164/2/3 162/2/3 161/2/3
f 165/5/3 163/5/3 162/5/3
f 165/2/3 162/2/3 164/2/3
f 166/2/3 160/2/3 163/2/3
f 166/5/3 163/5/3 165/5/3
f 167/5/3 165/5/3 164/5/3
f 167/2/3 164/2/3 155/2/3
f 168/2/3 166/2/3 165/2/3
f 168/5/3 165/5/3 167/5/3
f 169/2/3 160/2/3 166/2/3
f 169/2/3 166/2/3 168/2/3
f 170/2/3 160/2/3 169/2/3
f 171/2/3 168/2/3 167/2/3
f 171/2/3 167/2/3 155/2/3
f 171/2/3 169/2/3 168/2/3
f 172/2/3 169/2/3 171/2/3
f 176/4/3 174/4/3 173/4/3
f 177/4/3 174/4/3 176/4/3
f 180/3/3 176/3/3 175/3/3
f 180/3/3 177/3/3 176/3/3
f 181/3/3 177/3/3 180/3/3
f 182/3/3 177/3/3 181/3/3
f 183/3/3 180/3/3 175/3/3
f 184/2/3 181/2/3 180/2/3
f 184/3/3 180/3/3 183/3/3
f 185/4/3 182/4/3 181/4/3
f 185/2/3 181/2/3 184/2/3
f 186/3/3 177/3/3 182/3/3
f 186/4/3 182/4/3 185/4/3
f 187/2/3 185/2/3 184/2/3
f 187/2/3 186/2/3 185/2/3
f 188/3/3 177/3/3 186/3/3
f 188/2/3 186/2/3 187/2/3
f 189/3/3 188/3/3 187/3/3
f 190/3/3 188/3/3 189/3/3
f 191/3/3 177/3/3 188/3/3
f 191/3/3 188/3/3 190/3/3
f 193/2/3 190/2/3 189/2/3
f 194/4/3 191/4/3 190/4/3
f 194/2/3 190/2/3 193/2/3
f 195/3/3 177/3/3 191/3/3
f 195/4/3 191/4/3 194/4/3
f 196/2/3 194/2/3 193/2/3
f 196/3/3 193/3/3 192/3/3
f 196/2/3 195/2/3 194/2/3
f 197/3/3 177/3/3 195/3/3
f 197/2/3 195/2/3 196/2/3
f 198/1/3 179/1/3 178/1/3
f 198/4/3 178/4/3 177/4/3
f 199/1/3 179/1/3 198/1/3
f 200/3/3 197/3/3 196/3/3
f 200/3/3 196/3/3 192/3/3
f 201/3/3 177/3/3 197/3/3
f 201/3/3 197/3/3 200/3/3
f 202/4/3 198/4/3 177/4/3
f 202/3/3 177/3/3 201/3/3
f 203/4/3 198/4/3 202/4/3
f 204/4/3 202/4/3 201/4/3
f 205/4/3 202/4/3 204/4/3
f 209/1/3 207/1/3 206/1/3
f 210/1/3 207/1/3 209/1/3
f 212/1/3 209/1/3 208/1/3
f 213/1/3 209/1/3 212/1/3
f 215/1/3 212/1/3 211/1/3
f 216/1/3 212/1/3 215/1/3
f 217/1/3 215/1/3 214/1/3
f 218/1/3 215/1/3 217/1/3
f 221/1/3 220/1/3 219/1/3
f 222/1/3 220/1/3 221/1/3
f 228/1/3 224/1/3 223/1/3
f 229/1/3 224/1/3 228/1/3
f 230/4/3 226/4/3 225/4/3
f 231/4/3 226/4/3 230/4/3
f 232/1/3 228/1/3 227/1/3
f 233/1/3 228/1/3 232/1/3
f 234/1/3 231/1/3 230/1/3
f 236/1/3 234/1/3 230/1/3
f 236/1/3 235/1/3 234/1/3
f 237/1/3 235/1/3 236/1/3
f 240/3/3 239/3/3 238/3/3
f 241/3/3 240/3/3 238/3/3
f 242/3/3 240/3/3 241/3/3
f 244/3/3 240/3/3 242/3/3
f 245/3/3 240/3/3 244/3/3
f 245/3/3 244/3/3 243/3/3
f 246/3/3 245/3/3 243/3/3
f 247/3/3 245/3/3 246/3/3
f 250/4/3 249/4/3 248/4/3
f 251/4/3 249/4/3 250/4/3
f 252/1/3 251/1/3 250/1/3
f 253/1/3 251/1/3 252/1/3
f 256/4/3 255/4/3 254/4/3
f 257/4/3 255/4/3 256/4/3
f 260/3/3 259/3/3 258/3/3
f 261/3/3 259/3/3 260/3/3
f 264/3/3 263/3/3 262/3/3
f 265/3/3 263/3/3 264/3/3
f 268/3/3 267/3/3 266/3/3
f 269/3/3 267/3/3 268/3/3
f 270/2/4 271/2/4 272/2/4
f 272/2/4 271/2/4 273/2/4
f 274/1/4 275/1/4 276/1/4
f 276/1/4 275/1/4 277/1/4
f 278/1/4 279/1/4 281/1/4
f 281/1/4 279/1/4 285/1/4
f 280/1/4 281/1/4 285/1/4
f 285/1/4 279/1/4 286/1/4
f 282/4/4 283/4/4 287/4/4
f 283/1/4 284/1/4 288/1/4
f 287/4/4 283/4/4 288/4/4
f 288/1/4 284/1/4 289/1/4
f 280/1/4 285/1/4 291/1/4
f 291/1/4 285/1/4 292/1/4
f 289/1/4 290/1/4 294/1/4
f 287/1/4 288/1/4 294/1/4
f 288/1/4 289/1/4 294/1/4
f 293/4/4 294/4/4 295/4/4
f 294/1/4 290/1/4 296/1/4
f 295/4/4 294/4/4 296/4/4
f 296/1/4 290/1/4 297/1/4
f 298/4/4 299/4/4 301/4/4
f 301/4/4 299/4/4 302/4/4
f 302/1/4 303/1/4 304/1/4
f 304/1/4 303/1/4 305/1/4
f 300/3/4 301/3/4 306/3/4
f 306/3/4 301/3/4 307/3/4
f 302/1/4 304/1/4 308/1/4
f 307/1/4 308/1/4 309/1/4
f 308/1/4 304/1/4 310/1/4
f 309/1/4 308/1/4 310/1/4
f 311/3/4 312/3/4 315/3/4
f 315/3/4 312/3/4 316/3/4
f 313/4/4 314/4/4 319/4/4
f 319/4/4 314/4/4 320/4/4
f 317/3/4 318/3/4 321/3/4
f 321/3/4 318/3/4 322/3/4
f 323/3/4 324/3/4 325/3/4
f 325/3/4 324/3/4 326/3/4
f 323/3/4 325/3/4 327/3/4
f 327/3/4 325/3/4 328/3/4
f 328/3/4 325/3/4 330/3/4
f 330/3/4 325/3/4 331/3/4
f 329/3/4 330/3/4 331/3/4
f 329/3/4 331/3/4 333/3/4
f 331/3/4 332/3/4 333/3/4
f 333/3/4 332/3/4 334/3/4
f 335/3/4 336/3/4 337/3/4
f 337/3/4 336/3/4 338/3/4
f 343/3/5 340/3/5 339/3/5
f 344/3/5 340/3/5 343/3/5
f 345/3/5 342/3/5 341/3/5
f 346/3/5 342/3/5 345/3/5
f 351/3/5 348/3/5 347/3/5
f 352/3/5 348/3/5 351/3/5
f 353/3/5 350/3/5 349/3/5
f 354/3/5 350/3/5 353/3/5
f 358/3/5 356/3/5 355/3/5
f 359/3/5 356/3/5 358/3/5
f 361/3/5 358/3/5 357/3/5
f 361/3/5 360/3/5 359/3/5
f 361/3/5 359/3/5 358/3/5
f 362/3/5 360/3/5 361/3/5
f 363/3/5 360/3/5 362/3/5
f 364/3/5 360/3/5 363/3/5
f 365/3/5 363/3/5 362/3/5
f 366/3/5 363/3/5 365/3/5
f 369/3/5 368/3/5 367/3/5
f 370/3/5 368/3/5 369/3/5
f 374/2/5 372/2/5 371/2/5
f 375/2/5 372/2/5 374/2/5
f 377/3/5 374/3/5 373/3/5
f 377/3/5 376/3/5 375/3/5
f 377/3/5 375/3/5 374/3/5
f 378/3/5 376/3/5 377/3/5
f 381/4/5 380/4/5 379/4/5
f 382/4/5 380/4/5 381/4/5
f 386/1/5 385/1/5 384/1/5
f 387/1/5 385/1/5 386/1/5
f 388/4/5 384/4/5 383/4/5
f 389/1/5 386/1/5 384/1/5
f 389/4/5 384/4/5 388/4/5
f 390/1/5 386/1/5 389/1/5
f 394/4/5 392/4/5 391/4/5
f 395/1/5 393/1/5 392/1/5
f 395/4/5 392/4/5 394/4/5
f 396/1/5 393/1/5 395/1/5
f 401/4/5 400/4/5 399/4/5
f 403/4/5 401/4/5 399/4/5
f 404/1/5 402/1/5 401/1/5
f 404/4/5 401/4/5 403/4/5
f 405/1/5 402/1/5 404/1/5
f 408/4/5 398/4/5 397/4/5
f 409/4/5 398/4/5 408/4/5
f 410/1/5 407/1/5 406/1/5
f 411/1/5 407/1/5 410/1/5
f 412/4/5 410/4/5 409/4/5
f 413/4/5 410/4/5 412/4/5
f 414/3/6 415/3/6 418/3/6
f 416/3/6 417/3/6 419/3/6
f 414/3/6 418/3/6 420/3/6
f 418/3/6 419/3/6 420/3/6
f 420/3/6 419/3/6 421/3/6
f 421/3/6 419/3/6 422/3/6
f 419/3/6 417/3/6 423/3/6
f 422/3/6 419/3/6 423/3/6
f 424/3/6 425/3/6 426/3/6
f 426/3/6 425/3/6 427/3/6
f 428/2/6 429/2/6 432/2/6
f 430/2/6 431/2/6 433/2/6
f 428/2/6 432/2/6 434/2/6
f 432/2/6 433/2/6 434/2/6
f 434/2/6 433/2/6 435/2/6
f 433/2/6 431/2/6 436/2/6
f 435/2/6 433/2/6 436/2/6
f 436/2/6 431/2/6 437/2/6
f 438/2/6 439/2/6 440/2/6
f 440/2/6 439/2/6 441/2/6
f 444/4/6 445/4/6 446/4/6
f 446/4/6 445/4/6 447/4/6
f 447/1/6 448/1/6 449/1/6
f 442/4/6 443/4/6 451/4/6
f 449/1/6 450/1/6 452/1/6
f 447/1/6 449/1/6 452/1/6
f 452/1/6 450/1/6 453/1/6
f 442/4/6 451/4/6 454/4/6
f 454/4/6 451/4/6 455/4/6
f 455/4/6 456/4/6 457/4/6
f 457/4/6 456/4/6 458/4/6
f 459/4/6 460/4/6 461/4/6
f 461/4/6 460/4/6 462/4/6
f 462/1/6 463/1/6 464/1/6
f 464/1/6 463/1/6 465/1/6
f 466/1/6 467/1/6 468/1/6
f 468/1/6 467/1/6 469/1/6
f 470/1/6 471/1/6 472/1/6
f 472/1/6 471/1/6 473/1/6
f 473/1/6 474/1/6 475/1/6
f 475/1/6 474/1/6 476/1/6
f 470/1/6 472/1/6 478/1/6
f 476/1/6 477/1/6 480/1/6
f 480/1/6 477/1/6 481/1/6
f 478/1/6 479/1/6 482/1/6
f 470/1/6 478/1/6 482/1/6
f 482/1/6 479/1/6 483/1/6
f 484/1/6 485/1/6 486/1/6
f 486/1/6 485/1/6 487/1/6
f 487/1/6 485/1/6 488/1/6
f 484/1/6 486/1/6 490/1/6
f 488/1/6 489/1/6 491/1/6
f 487/1/6 488/1/6 491/1/6
f 484/1/6 490/1/6 492/1/6
f 490/1/6 491/1/6 492/1/6
f 491/1/6 489/1/6 493/1/6
f 492/1/6 491/1/6 493/1/6
f 494/1/6 495/1/6 496/1/6
f 496/1/6 495/1/6 497/1/6
