# MagicaVoxel @ Ephtracy

# group
o 

# material
mtllib NT4S.mtl
usemtl palette

# normals
vn -1 0 0
vn 1 0 0
vn 0 0 1
vn 0 0 -1
vn 0 -1 0
vn 0 1 0

# texcoords
vt 0.0800781 0.5
vt 0.0878906 0.5

# verts
v -1.5 3.7 1.5
v -1.5 3.7 -1.3
v -1.5 3.8 1.6
v -1.5 3.8 1.5
v -1.5 3.8 -1.3
v -1.5 3.8 -1.4
v -1.5 7.2 1.6
v -1.5 7.2 1.4
v -1.5 7.2 -1.2
v -1.5 7.2 -1.4
v -1.5 7.4 1.4
v -1.5 7.4 -1.2
v -1.4 3.7 1.6
v -1.4 3.7 1.5
v -1.4 3.7 -1.3
v -1.4 3.7 -1.4
v -1.4 3.8 1.6
v -1.4 3.8 1.5
v -1.4 3.8 -1.3
v -1.4 3.8 -1.4
v -1.4 7.4 1.4
v -1.4 7.4 -1.2
v -1.4 7.5 1.4
v -1.4 7.5 -1.2
v -1.3 7.2 1.6
v -1.3 7.2 1.4
v -1.3 7.2 -1.2
v -1.3 7.2 -1.4
v -1.3 7.4 1.6
v -1.3 7.4 1.5
v -1.3 7.4 -1.3
v -1.3 7.4 -1.4
v -1.3 7.5 1.5
v -1.3 7.5 1.4
v -1.3 7.5 -1.2
v -1.3 7.5 -1.3
v -0.6 0 0.5
v -0.6 0 -0.3
v -0.6 3.7 0.5
v -0.6 3.7 -0.3
v -0.5 0 0.6
v -0.5 0 0.5
v -0.5 0 -0.3
v -0.5 0 -0.4
v -0.5 3.7 0.6
v -0.5 3.7 0.5
v -0.5 3.7 -0.3
v -0.5 3.7 -0.4
v -0.4 0 0.7
v -0.4 0 0.6
v -0.4 0 -0.4
v -0.4 0 -0.5
v -0.4 3.7 0.7
v -0.4 3.7 0.6
v -0.4 3.7 -0.4
v -0.4 3.7 -0.5
v 0.4 0 0.7
v 0.4 0 0.6
v 0.4 0 -0.4
v 0.4 0 -0.5
v 0.4 3.7 0.7
v 0.4 3.7 0.6
v 0.4 3.7 -0.4
v 0.4 3.7 -0.5
v 0.5 0 0.6
v 0.5 0 0.5
v 0.5 0 -0.3
v 0.5 0 -0.4
v 0.5 3.7 0.6
v 0.5 3.7 0.5
v 0.5 3.7 -0.3
v 0.5 3.7 -0.4
v 0.6 0 0.5
v 0.6 0 -0.3
v 0.6 3.7 0.5
v 0.6 3.7 -0.3
v 1.3 7.2 1.6
v 1.3 7.2 1.4
v 1.3 7.2 -1.2
v 1.3 7.2 -1.4
v 1.3 7.4 1.6
v 1.3 7.4 1.5
v 1.3 7.4 -1.3
v 1.3 7.4 -1.4
v 1.3 7.5 1.5
v 1.3 7.5 1.4
v 1.3 7.5 -1.2
v 1.3 7.5 -1.3
v 1.4 3.7 1.6
v 1.4 3.7 1.5
v 1.4 3.7 -1.3
v 1.4 3.7 -1.4
v 1.4 3.8 1.6
v 1.4 3.8 1.5
v 1.4 3.8 -1.3
v 1.4 3.8 -1.4
v 1.4 7.4 1.4
v 1.4 7.4 -1.2
v 1.4 7.5 1.4
v 1.4 7.5 -1.2
v 1.5 3.7 1.5
v 1.5 3.7 -1.3
v 1.5 3.8 1.6
v 1.5 3.8 1.5
v 1.5 3.8 -1.3
v 1.5 3.8 -1.4
v 1.5 7.2 1.6
v 1.5 7.2 1.4
v 1.5 7.2 -1.2
v 1.5 7.2 -1.4
v 1.5 7.4 1.4
v 1.5 7.4 -1.2
v -1.5 3.8 1.6
v -1.5 7.2 1.6
v -1.4 3.7 1.6
v -1.4 3.8 1.6
v -1.3 7.2 1.6
v -1.3 7.4 1.6
v 1.3 7.2 1.6
v 1.3 7.4 1.6
v 1.4 3.7 1.6
v 1.4 3.8 1.6
v 1.5 3.8 1.6
v 1.5 7.2 1.6
v -1.5 3.7 1.5
v -1.5 3.8 1.5
v -1.4 3.7 1.5
v -1.4 3.8 1.5
v -1.3 7.4 1.5
v -1.3 7.5 1.5
v 1.3 7.4 1.5
v 1.3 7.5 1.5
v 1.4 3.7 1.5
v 1.4 3.8 1.5
v 1.5 3.7 1.5
v 1.5 3.8 1.5
v -1.5 7.2 1.4
v -1.5 7.4 1.4
v -1.4 7.4 1.4
v -1.4 7.5 1.4
v -1.3 7.2 1.4
v -1.3 7.5 1.4
v 1.3 7.2 1.4
v 1.3 7.5 1.4
v 1.4 7.4 1.4
v 1.4 7.5 1.4
v 1.5 7.2 1.4
v 1.5 7.4 1.4
v -0.4 0 0.7
v -0.4 3.7 0.7
v 0.4 0 0.7
v 0.4 3.7 0.7
v -0.5 0 0.6
v -0.5 3.7 0.6
v -0.4 0 0.6
v -0.4 3.7 0.6
v 0.4 0 0.6
v 0.4 3.7 0.6
v 0.5 0 0.6
v 0.5 3.7 0.6
v -0.6 0 0.5
v -0.6 3.7 0.5
v -0.5 0 0.5
v -0.5 3.7 0.5
v 0.5 0 0.5
v 0.5 3.7 0.5
v 0.6 0 0.5
v 0.6 3.7 0.5
v -0.6 0 -0.3
v -0.6 3.7 -0.3
v -0.5 0 -0.3
v -0.5 3.7 -0.3
v 0.5 0 -0.3
v 0.5 3.7 -0.3
v 0.6 0 -0.3
v 0.6 3.7 -0.3
v -0.5 0 -0.4
v -0.5 3.7 -0.4
v -0.4 0 -0.4
v -0.4 3.7 -0.4
v 0.4 0 -0.4
v 0.4 3.7 -0.4
v 0.5 0 -0.4
v 0.5 3.7 -0.4
v -0.4 0 -0.5
v -0.4 3.7 -0.5
v 0.4 0 -0.5
v 0.4 3.7 -0.5
v -1.5 7.2 -1.2
v -1.5 7.4 -1.2
v -1.4 7.4 -1.2
v -1.4 7.5 -1.2
v -1.3 7.2 -1.2
v -1.3 7.5 -1.2
v 1.3 7.2 -1.2
v 1.3 7.5 -1.2
v 1.4 7.4 -1.2
v 1.4 7.5 -1.2
v 1.5 7.2 -1.2
v 1.5 7.4 -1.2
v -1.5 3.7 -1.3
v -1.5 3.8 -1.3
v -1.4 3.7 -1.3
v -1.4 3.8 -1.3
v -1.3 7.4 -1.3
v -1.3 7.5 -1.3
v 1.3 7.4 -1.3
v 1.3 7.5 -1.3
v 1.4 3.7 -1.3
v 1.4 3.8 -1.3
v 1.5 3.7 -1.3
v 1.5 3.8 -1.3
v -1.5 3.8 -1.4
v -1.5 7.2 -1.4
v -1.4 3.7 -1.4
v -1.4 3.8 -1.4
v -1.3 7.2 -1.4
v -1.3 7.4 -1.4
v 1.3 7.2 -1.4
v 1.3 7.4 -1.4
v 1.4 3.7 -1.4
v 1.4 3.8 -1.4
v 1.5 3.8 -1.4
v 1.5 7.2 -1.4
v -0.4 0 0.7
v 0.4 0 0.7
v -0.5 0 0.6
v -0.4 0 0.6
v 0.4 0 0.6
v 0.5 0 0.6
v -0.6 0 0.5
v -0.5 0 0.5
v 0.5 0 0.5
v 0.6 0 0.5
v -0.6 0 -0.3
v -0.5 0 -0.3
v 0.5 0 -0.3
v 0.6 0 -0.3
v -0.5 0 -0.4
v -0.4 0 -0.4
v 0.4 0 -0.4
v 0.5 0 -0.4
v -0.4 0 -0.5
v 0.4 0 -0.5
v -1.4 3.7 1.6
v 1.4 3.7 1.6
v -1.5 3.7 1.5
v -1.4 3.7 1.5
v 1.4 3.7 1.5
v 1.5 3.7 1.5
v -0.4 3.7 0.7
v 0.4 3.7 0.7
v -0.5 3.7 0.6
v -0.4 3.7 0.6
v 0.4 3.7 0.6
v 0.5 3.7 0.6
v -0.6 3.7 0.5
v -0.5 3.7 0.5
v 0.5 3.7 0.5
v 0.6 3.7 0.5
v -0.6 3.7 -0.3
v -0.5 3.7 -0.3
v 0.5 3.7 -0.3
v 0.6 3.7 -0.3
v -0.5 3.7 -0.4
v -0.4 3.7 -0.4
v 0.4 3.7 -0.4
v 0.5 3.7 -0.4
v -0.4 3.7 -0.5
v 0.4 3.7 -0.5
v -1.5 3.7 -1.3
v -1.4 3.7 -1.3
v 1.4 3.7 -1.3
v 1.5 3.7 -1.3
v -1.4 3.7 -1.4
v 1.4 3.7 -1.4
v -1.5 3.8 1.6
v -1.4 3.8 1.6
v 1.4 3.8 1.6
v 1.5 3.8 1.6
v -1.5 3.8 1.5
v -1.4 3.8 1.5
v 1.4 3.8 1.5
v 1.5 3.8 1.5
v -1.5 3.8 -1.3
v -1.4 3.8 -1.3
v 1.4 3.8 -1.3
v 1.5 3.8 -1.3
v -1.5 3.8 -1.4
v -1.4 3.8 -1.4
v 1.4 3.8 -1.4
v 1.5 3.8 -1.4
v -1.5 7.2 1.6
v -1.3 7.2 1.6
v 1.3 7.2 1.6
v 1.5 7.2 1.6
v -1.5 7.2 1.4
v -1.3 7.2 1.4
v 1.3 7.2 1.4
v 1.5 7.2 1.4
v -1.5 7.2 -1.2
v -1.3 7.2 -1.2
v 1.3 7.2 -1.2
v 1.5 7.2 -1.2
v -1.5 7.2 -1.4
v -1.3 7.2 -1.4
v 1.3 7.2 -1.4
v 1.5 7.2 -1.4
v -1.3 7.4 1.6
v 1.3 7.4 1.6
v -1.3 7.4 1.5
v 1.3 7.4 1.5
v -1.5 7.4 1.4
v -1.4 7.4 1.4
v 1.4 7.4 1.4
v 1.5 7.4 1.4
v -1.5 7.4 -1.2
v -1.4 7.4 -1.2
v 1.4 7.4 -1.2
v 1.5 7.4 -1.2
v -1.3 7.4 -1.3
v 1.3 7.4 -1.3
v -1.3 7.4 -1.4
v 1.3 7.4 -1.4
v -1.3 7.5 1.5
v 1.3 7.5 1.5
v -1.4 7.5 1.4
v -1.3 7.5 1.4
v 1.3 7.5 1.4
v 1.4 7.5 1.4
v -1.4 7.5 -1.2
v -1.3 7.5 -1.2
v 1.3 7.5 -1.2
v 1.4 7.5 -1.2
v -1.3 7.5 -1.3
v 1.3 7.5 -1.3

# faces
f 4/2/1 2/2/1 1/2/1
f 5/2/1 2/2/1 4/2/1
f 7/2/1 4/2/1 3/2/1
f 7/2/1 6/2/1 5/2/1
f 7/2/1 5/2/1 4/2/1
f 8/2/1 6/2/1 7/2/1
f 9/2/1 6/2/1 8/2/1
f 10/2/1 6/2/1 9/2/1
f 11/2/1 9/2/1 8/2/1
f 12/2/1 9/2/1 11/2/1
f 17/2/1 14/2/1 13/2/1
f 18/2/1 14/2/1 17/2/1
f 19/2/1 16/2/1 15/2/1
f 20/2/1 16/2/1 19/2/1
f 23/2/1 22/2/1 21/2/1
f 24/2/1 22/2/1 23/2/1
f 29/2/1 26/2/1 25/2/1
f 30/2/1 26/2/1 29/2/1
f 31/2/1 28/2/1 27/2/1
f 32/2/1 28/2/1 31/2/1
f 33/2/1 26/2/1 30/2/1
f 34/2/1 26/2/1 33/2/1
f 35/2/1 31/2/1 27/2/1
f 36/2/1 31/2/1 35/2/1
f 39/1/1 38/1/1 37/1/1
f 40/1/1 38/1/1 39/1/1
f 45/1/1 42/1/1 41/1/1
f 46/1/1 42/1/1 45/1/1
f 47/1/1 44/1/1 43/1/1
f 48/1/1 44/1/1 47/1/1
f 53/1/1 50/1/1 49/1/1
f 54/1/1 50/1/1 53/1/1
f 55/1/1 52/1/1 51/1/1
f 56/1/1 52/1/1 55/1/1
f 57/1/2 58/1/2 61/1/2
f 61/1/2 58/1/2 62/1/2
f 59/1/2 60/1/2 63/1/2
f 63/1/2 60/1/2 64/1/2
f 65/1/2 66/1/2 69/1/2
f 69/1/2 66/1/2 70/1/2
f 67/1/2 68/1/2 71/1/2
f 71/1/2 68/1/2 72/1/2
f 73/1/2 74/1/2 75/1/2
f 75/1/2 74/1/2 76/1/2
f 77/2/2 78/2/2 81/2/2
f 81/2/2 78/2/2 82/2/2
f 79/2/2 80/2/2 83/2/2
f 83/2/2 80/2/2 84/2/2
f 82/2/2 78/2/2 85/2/2
f 85/2/2 78/2/2 86/2/2
f 79/2/2 83/2/2 87/2/2
f 87/2/2 83/2/2 88/2/2
f 89/2/2 90/2/2 93/2/2
f 93/2/2 90/2/2 94/2/2
f 91/2/2 92/2/2 95/2/2
f 95/2/2 92/2/2 96/2/2
f 97/2/2 98/2/2 99/2/2
f 99/2/2 98/2/2 100/2/2
f 101/2/2 102/2/2 104/2/2
f 104/2/2 102/2/2 105/2/2
f 103/2/2 104/2/2 107/2/2
f 105/2/2 106/2/2 107/2/2
f 104/2/2 105/2/2 107/2/2
f 107/2/2 106/2/2 108/2/2
f 108/2/2 106/2/2 109/2/2
f 109/2/2 106/2/2 110/2/2
f 108/2/2 109/2/2 111/2/2
f 111/2/2 109/2/2 112/2/2
f 116/2/3 114/2/3 113/2/3
f 117/2/3 114/2/3 116/2/3
f 117/2/3 116/2/3 115/2/3
f 119/2/3 117/2/3 115/2/3
f 119/2/3 118/2/3 117/2/3
f 120/2/3 118/2/3 119/2/3
f 121/2/3 119/2/3 115/2/3
f 122/2/3 119/2/3 121/2/3
f 123/2/3 119/2/3 122/2/3
f 124/2/3 119/2/3 123/2/3
f 127/2/3 126/2/3 125/2/3
f 128/2/3 126/2/3 127/2/3
f 131/2/3 130/2/3 129/2/3
f 132/2/3 130/2/3 131/2/3
f 135/2/3 134/2/3 133/2/3
f 136/2/3 134/2/3 135/2/3
f 139/2/3 138/2/3 137/2/3
f 141/2/3 139/2/3 137/2/3
f 141/2/3 140/2/3 139/2/3
f 142/2/3 140/2/3 141/2/3
f 145/2/3 144/2/3 143/2/3
f 146/2/3 144/2/3 145/2/3
f 147/2/3 145/2/3 143/2/3
f 148/2/3 145/2/3 147/2/3
f 151/1/3 150/1/3 149/1/3
f 152/1/3 150/1/3 151/1/3
f 155/1/3 154/1/3 153/1/3
f 156/1/3 154/1/3 155/1/3
f 159/1/3 158/1/3 157/1/3
f 160/1/3 158/1/3 159/1/3
f 163/1/3 162/1/3 161/1/3
f 164/1/3 162/1/3 163/1/3
f 167/1/3 166/1/3 165/1/3
f 168/1/3 166/1/3 167/1/3
f 169/1/4 170/1/4 171/1/4
f 171/1/4 170/1/4 172/1/4
f 173/1/4 174/1/4 175/1/4
f 175/1/4 174/1/4 176/1/4
f 177/1/4 178/1/4 179/1/4
f 179/1/4 178/1/4 180/1/4
f 181/1/4 182/1/4 183/1/4
f 183/1/4 182/1/4 184/1/4
f 185/1/4 186/1/4 187/1/4
f 187/1/4 186/1/4 188/1/4
f 189/2/4 190/2/4 191/2/4
f 189/2/4 191/2/4 193/2/4
f 191/2/4 192/2/4 193/2/4
f 193/2/4 192/2/4 194/2/4
f 195/2/4 196/2/4 197/2/4
f 197/2/4 196/2/4 198/2/4
f 195/2/4 197/2/4 199/2/4
f 199/2/4 197/2/4 200/2/4
f 201/2/4 202/2/4 203/2/4
f 203/2/4 202/2/4 204/2/4
f 205/2/4 206/2/4 207/2/4
f 207/2/4 206/2/4 208/2/4
f 209/2/4 210/2/4 211/2/4
f 211/2/4 210/2/4 212/2/4
f 213/2/4 214/2/4 216/2/4
f 216/2/4 214/2/4 217/2/4
f 215/2/4 216/2/4 217/2/4
f 215/2/4 217/2/4 219/2/4
f 217/2/4 218/2/4 219/2/4
f 219/2/4 218/2/4 220/2/4
f 215/2/4 219/2/4 221/2/4
f 221/2/4 219/2/4 222/2/4
f 222/2/4 219/2/4 223/2/4
f 223/2/4 219/2/4 224/2/4
f 228/1/5 226/1/5 225/1/5
f 229/1/5 226/1/5 228/1/5
f 232/1/5 228/1/5 227/1/5
f 232/1/5 230/1/5 229/1/5
f 232/1/5 229/1/5 228/1/5
f 233/1/5 230/1/5 232/1/5
f 235/1/5 232/1/5 231/1/5
f 235/1/5 234/1/5 233/1/5
f 235/1/5 233/1/5 232/1/5
f 236/1/5 234/1/5 235/1/5
f 237/1/5 234/1/5 236/1/5
f 238/1/5 234/1/5 237/1/5
f 239/1/5 237/1/5 236/1/5
f 240/1/5 237/1/5 239/1/5
f 241/1/5 237/1/5 240/1/5
f 242/1/5 237/1/5 241/1/5
f 243/1/5 241/1/5 240/1/5
f 244/1/5 241/1/5 243/1/5
f 248/2/5 246/2/5 245/2/5
f 249/2/5 246/2/5 248/2/5
f 251/2/5 248/2/5 247/2/5
f 251/2/5 250/2/5 249/2/5
f 251/2/5 249/2/5 248/2/5
f 252/2/5 250/2/5 251/2/5
f 253/2/5 251/2/5 247/2/5
f 254/2/5 251/2/5 253/2/5
f 255/2/5 250/2/5 252/2/5
f 256/2/5 250/2/5 255/2/5
f 257/2/5 253/2/5 247/2/5
f 258/2/5 253/2/5 257/2/5
f 259/2/5 250/2/5 256/2/5
f 260/2/5 250/2/5 259/2/5
f 261/2/5 257/2/5 247/2/5
f 264/2/5 250/2/5 260/2/5
f 265/2/5 262/2/5 261/2/5
f 268/2/5 264/2/5 263/2/5
f 269/2/5 266/2/5 265/2/5
f 270/2/5 268/2/5 267/2/5
f 271/2/5 269/2/5 265/2/5
f 271/2/5 270/2/5 269/2/5
f 271/2/5 261/2/5 247/2/5
f 271/2/5 265/2/5 261/2/5
f 272/2/5 270/2/5 271/2/5
f 273/2/5 268/2/5 270/2/5
f 273/2/5 270/2/5 272/2/5
f 273/2/5 250/2/5 264/2/5
f 273/2/5 264/2/5 268/2/5
f 274/2/5 250/2/5 273/2/5
f 275/2/5 273/2/5 272/2/5
f 276/2/5 273/2/5 275/2/5
f 281/2/5 278/2/5 277/2/5
f 282/2/5 278/2/5 281/2/5
f 283/2/5 280/2/5 279/2/5
f 284/2/5 280/2/5 283/2/5
f 289/2/5 286/2/5 285/2/5
f 290/2/5 286/2/5 289/2/5
f 291/2/5 288/2/5 287/2/5
f 292/2/5 288/2/5 291/2/5
f 293/2/6 294/2/6 297/2/6
f 297/2/6 294/2/6 298/2/6
f 295/2/6 296/2/6 299/2/6
f 299/2/6 296/2/6 300/2/6
f 301/2/6 302/2/6 305/2/6
f 305/2/6 302/2/6 306/2/6
f 303/2/6 304/2/6 307/2/6
f 307/2/6 304/2/6 308/2/6
f 309/2/6 310/2/6 311/2/6
f 311/2/6 310/2/6 312/2/6
f 313/2/6 314/2/6 317/2/6
f 317/2/6 314/2/6 318/2/6
f 315/2/6 316/2/6 319/2/6
f 319/2/6 316/2/6 320/2/6
f 321/2/6 322/2/6 323/2/6
f 323/2/6 322/2/6 324/2/6
f 325/2/6 326/2/6 328/2/6
f 328/2/6 326/2/6 329/2/6
f 327/2/6 328/2/6 331/2/6
f 329/2/6 330/2/6 331/2/6
f 328/2/6 329/2/6 331/2/6
f 331/2/6 330/2/6 332/2/6
f 332/2/6 330/2/6 333/2/6
f 333/2/6 330/2/6 334/2/6
f 332/2/6 333/2/6 335/2/6
f 335/2/6 333/2/6 336/2/6
