# MagicaVoxel @ Ephtracy

# group
o 

# material
mtllib BrownBook.mtl
usemtl palette

# normals
vn -1 0 0
vn 1 0 0
vn 0 0 1
vn 0 0 -1
vn 0 -1 0
vn 0 1 0

# texcoords
vt 0.197266 0.5
vt 0.279297 0.5
vt 0.423828 0.5
vt 0.958984 0.5

# verts
v -0.8 0.6 0.3
v -0.8 0.6 0.2
v -0.8 0.6 -0.3
v -0.8 0.6 -0.4
v -0.8 2.4 0.3
v -0.8 2.4 0.2
v -0.8 2.4 -0.3
v -0.8 2.4 -0.4
v -0.7 0.6 0.2
v -0.7 0.6 0
v -0.7 0.6 -0.1
v -0.7 0.6 -0.3
v -0.7 2.4 0.2
v -0.7 2.4 0
v -0.7 2.4 -0.1
v -0.7 2.4 -0.3
v 0.5 0.2 0.3
v 0.5 0.2 0.2
v 0.5 0.3 0.2
v 0.5 0.3 0
v 0.5 0.4 0.3
v 0.5 0.4 0.1
v 0.5 0.6 0.1
v 0.5 0.6 0
v 0.6 0.2 0.3
v 0.6 0.2 0.2
v 0.6 0.3 0.2
v 0.6 0.3 0
v 0.6 0.4 0.3
v 0.6 0.4 0.1
v 0.6 0.6 0.3
v 0.6 0.6 0.2
v 0.6 0.6 0.1
v 0.6 0.6 0
v 0.6 0.6 -0.3
v 0.6 0.6 -0.4
v 0.6 2.4 0.3
v 0.6 2.4 0.2
v 0.6 2.4 -0.3
v 0.6 2.4 -0.4
v 0.7 0.6 0.2
v 0.7 0.6 -0.3
v 0.7 2.4 0.2
v 0.7 2.4 -0.3
v -0.8 0.6 0.3
v -0.8 2.4 0.3
v 0.5 0.2 0.3
v 0.5 0.4 0.3
v 0.6 0.2 0.3
v 0.6 0.4 0.3
v 0.6 0.6 0.3
v 0.6 2.4 0.3
v 0.6 0.6 0.2
v 0.6 2.4 0.2
v 0.7 0.6 0.2
v 0.7 2.4 0.2
v 0.5 0.4 0.1
v 0.5 0.6 0.1
v 0.6 0.4 0.1
v 0.6 0.6 0.1
v -0.8 0.6 -0.3
v -0.8 2.4 -0.3
v -0.7 0.6 -0.3
v -0.7 2.4 -0.3
v -0.8 0.6 0.2
v -0.8 2.4 0.2
v -0.7 0.6 0.2
v -0.7 2.4 0.2
v 0.5 0.2 0.2
v 0.5 0.3 0.2
v 0.6 0.2 0.2
v 0.6 0.3 0.2
v 0.5 0.3 0
v 0.5 0.6 0
v 0.6 0.3 0
v 0.6 0.6 0
v 0.6 0.6 -0.3
v 0.6 2.4 -0.3
v 0.7 0.6 -0.3
v 0.7 2.4 -0.3
v -0.8 0.6 -0.4
v -0.8 2.4 -0.4
v -0.5 1.9 -0.4
v -0.5 2 -0.4
v -0.1 1.1 -0.4
v -0.1 1.9 -0.4
v 0 1.1 -0.4
v 0 1.9 -0.4
v 0.4 1.9 -0.4
v 0.4 2 -0.4
v 0.6 0.6 -0.4
v 0.6 2.4 -0.4
v 0.5 0.2 0.3
v 0.6 0.2 0.3
v 0.5 0.2 0.2
v 0.6 0.2 0.2
v 0.5 0.3 0.2
v 0.6 0.3 0.2
v 0.5 0.3 0
v 0.6 0.3 0
v -0.8 0.6 0.3
v 0.6 0.6 0.3
v -0.8 0.6 0.2
v -0.7 0.6 0.2
v 0.6 0.6 0.2
v 0.7 0.6 0.2
v 0.5 0.6 0.1
v 0.6 0.6 0.1
v -0.7 0.6 0
v 0.5 0.6 0
v 0.6 0.6 0
v -0.7 0.6 -0.1
v 0.6 0.6 -0.1
v -0.8 0.6 -0.3
v -0.7 0.6 -0.3
v 0.6 0.6 -0.3
v 0.7 0.6 -0.3
v -0.8 0.6 -0.4
v 0.6 0.6 -0.4
v 0.5 0.4 0.3
v 0.6 0.4 0.3
v 0.5 0.4 0.1
v 0.6 0.4 0.1
v -0.8 2.4 0.3
v 0.6 2.4 0.3
v -0.8 2.4 0.2
v -0.7 2.4 0.2
v 0.6 2.4 0.2
v 0.7 2.4 0.2
v -0.7 2.4 0
v 0.6 2.4 0
v -0.7 2.4 -0.1
v 0.6 2.4 -0.1
v -0.8 2.4 -0.3
v -0.7 2.4 -0.3
v 0.6 2.4 -0.3
v 0.7 2.4 -0.3
v -0.8 2.4 -0.4
v 0.6 2.4 -0.4

# faces
f 5/2/1 2/2/1 1/2/1
f 6/2/1 2/2/1 5/2/1
f 7/2/1 4/2/1 3/2/1
f 8/2/1 4/2/1 7/2/1
f 13/3/1 10/3/1 9/3/1
f 14/4/1 11/4/1 10/4/1
f 14/3/1 10/3/1 13/3/1
f 15/3/1 12/3/1 11/3/1
f 15/4/1 11/4/1 14/4/1
f 16/3/1 12/3/1 15/3/1
f 19/2/1 18/2/1 17/2/1
f 21/2/1 19/2/1 17/2/1
f 21/2/1 20/2/1 19/2/1
f 22/2/1 20/2/1 21/2/1
f 23/2/1 20/2/1 22/2/1
f 24/2/1 20/2/1 23/2/1
f 25/2/2 26/2/2 27/2/2
f 25/2/2 27/2/2 29/2/2
f 27/2/2 28/2/2 29/2/2
f 29/2/2 28/2/2 30/2/2
f 30/2/2 28/2/2 33/2/2
f 33/2/2 28/2/2 34/2/2
f 31/2/2 32/2/2 37/2/2
f 37/2/2 32/2/2 38/2/2
f 35/2/2 36/2/2 39/2/2
f 39/2/2 36/2/2 40/2/2
f 41/2/2 42/2/2 43/2/2
f 43/2/2 42/2/2 44/2/2
f 49/2/3 48/2/3 47/2/3
f 50/2/3 48/2/3 49/2/3
f 51/2/3 46/2/3 45/2/3
f 52/2/3 46/2/3 51/2/3
f 55/2/3 54/2/3 53/2/3
f 56/2/3 54/2/3 55/2/3
f 59/2/3 58/2/3 57/2/3
f 60/2/3 58/2/3 59/2/3
f 63/2/3 62/2/3 61/2/3
f 64/2/3 62/2/3 63/2/3
f 65/2/4 66/2/4 67/2/4
f 67/2/4 66/2/4 68/2/4
f 69/2/4 70/2/4 71/2/4
f 71/2/4 70/2/4 72/2/4
f 73/2/4 74/2/4 75/2/4
f 75/2/4 74/2/4 76/2/4
f 77/2/4 78/2/4 79/2/4
f 79/2/4 78/2/4 80/2/4
f 81/2/4 82/2/4 83/2/4
f 83/2/4 82/2/4 84/2/4
f 81/2/4 83/2/4 85/2/4
f 83/1/4 84/1/4 86/1/4
f 85/2/4 83/2/4 86/2/4
f 81/2/4 85/2/4 87/2/4
f 85/1/4 86/1/4 87/1/4
f 86/1/4 84/1/4 88/1/4
f 87/1/4 86/1/4 88/1/4
f 87/2/4 88/2/4 89/2/4
f 88/1/4 84/1/4 89/1/4
f 84/2/4 82/2/4 90/2/4
f 89/1/4 84/1/4 90/1/4
f 87/2/4 89/2/4 91/2/4
f 81/2/4 87/2/4 91/2/4
f 89/2/4 90/2/4 91/2/4
f 90/2/4 82/2/4 92/2/4
f 91/2/4 90/2/4 92/2/4
f 95/2/5 94/2/5 93/2/5
f 96/2/5 94/2/5 95/2/5
f 99/2/5 98/2/5 97/2/5
f 100/2/5 98/2/5 99/2/5
f 103/2/5 102/2/5 101/2/5
f 104/2/5 102/2/5 103/2/5
f 105/2/5 102/2/5 104/2/5
f 107/3/5 105/3/5 104/3/5
f 108/2/5 106/2/5 105/2/5
f 108/3/5 105/3/5 107/3/5
f 109/3/5 107/3/5 104/3/5
f 110/3/5 107/3/5 109/3/5
f 111/2/5 106/2/5 108/2/5
f 112/4/5 110/4/5 109/4/5
f 112/4/5 111/4/5 110/4/5
f 113/2/5 106/2/5 111/2/5
f 113/4/5 111/4/5 112/4/5
f 115/3/5 113/3/5 112/3/5
f 116/2/5 106/2/5 113/2/5
f 116/3/5 113/3/5 115/3/5
f 117/2/5 106/2/5 116/2/5
f 118/2/5 115/2/5 114/2/5
f 118/2/5 116/2/5 115/2/5
f 119/2/5 116/2/5 118/2/5
f 120/2/6 121/2/6 122/2/6
f 122/2/6 121/2/6 123/2/6
f 124/2/6 125/2/6 126/2/6
f 126/2/6 125/2/6 127/2/6
f 127/2/6 125/2/6 128/2/6
f 127/3/6 128/3/6 130/3/6
f 128/2/6 129/2/6 131/2/6
f 130/3/6 128/3/6 131/3/6
f 130/4/6 131/4/6 132/4/6
f 131/2/6 129/2/6 133/2/6
f 132/4/6 131/4/6 133/4/6
f 132/3/6 133/3/6 135/3/6
f 133/2/6 129/2/6 136/2/6
f 135/3/6 133/3/6 136/3/6
f 136/2/6 129/2/6 137/2/6
f 134/2/6 135/2/6 138/2/6
f 135/2/6 136/2/6 138/2/6
f 138/2/6 136/2/6 139/2/6
