# MagicaVoxel @ Ephtracy

# group
o 

# material
mtllib Long_table_but_vox.mtl
usemtl palette

# normals
vn -1 0 0
vn 1 0 0
vn 0 0 1
vn 0 0 -1
vn 0 -1 0
vn 0 1 0

# texcoords
vt 0.208984 0.5
vt 0.263672 0.5
vt 0.267578 0.5

# verts
v -3.2 0 9.7
v -3.2 0 9.4
v -3.2 0 -9.5
v -3.2 0 -9.8
v -3.2 0.2 9.7
v -3.2 0.2 9.4
v -3.2 0.2 -9.5
v -3.2 0.2 -9.8
v -3.2 2.6 9.4
v -3.2 2.6 -9.5
v -3.2 2.9 9.7
v -3.2 2.9 -9.8
v 2.9 0 9.7
v 2.9 0 9.4
v 2.9 0 -9.5
v 2.9 0 -9.8
v 2.9 0.2 9.7
v 2.9 0.2 9.4
v 2.9 0.2 -9.5
v 2.9 0.2 -9.8
v 2.9 2.6 9.7
v 2.9 2.6 9.4
v 2.9 2.6 -9.5
v 2.9 2.6 -9.8
v -2.9 0 9.7
v -2.9 0 9.4
v -2.9 0 -9.5
v -2.9 0 -9.8
v -2.9 0.2 9.7
v -2.9 0.2 9.4
v -2.9 0.2 -9.5
v -2.9 0.2 -9.8
v -2.9 2.6 9.7
v -2.9 2.6 9.4
v -2.9 2.6 -9.5
v -2.9 2.6 -9.8
v 3.2 0 9.7
v 3.2 0 9.4
v 3.2 0 -9.5
v 3.2 0 -9.8
v 3.2 0.2 9.7
v 3.2 0.2 9.4
v 3.2 0.2 -9.5
v 3.2 0.2 -9.8
v 3.2 2.6 9.4
v 3.2 2.6 -9.5
v 3.2 2.9 9.7
v 3.2 2.9 -9.8
v -3.2 0 9.7
v -3.2 0.2 9.7
v -3.2 2.9 9.7
v -2.9 0 9.7
v -2.9 0.2 9.7
v -2.9 2.6 9.7
v 2.9 0 9.7
v 2.9 0.2 9.7
v 2.9 2.6 9.7
v 3.2 0 9.7
v 3.2 0.2 9.7
v 3.2 2.9 9.7
v -3.2 0 -9.5
v -3.2 0.2 -9.5
v -3.2 2.6 -9.5
v -2.9 0 -9.5
v -2.9 0.2 -9.5
v -2.9 2.6 -9.5
v 2.9 0 -9.5
v 2.9 0.2 -9.5
v 2.9 2.6 -9.5
v 3.2 0 -9.5
v 3.2 0.2 -9.5
v 3.2 2.6 -9.5
v -3.2 0 9.4
v -3.2 0.2 9.4
v -3.2 2.6 9.4
v -2.9 0 9.4
v -2.9 0.2 9.4
v -2.9 2.6 9.4
v 2.9 0 9.4
v 2.9 0.2 9.4
v 2.9 2.6 9.4
v 3.2 0 9.4
v 3.2 0.2 9.4
v 3.2 2.6 9.4
v -3.2 0 -9.8
v -3.2 0.2 -9.8
v -3.2 2.9 -9.8
v -2.9 0 -9.8
v -2.9 0.2 -9.8
v -2.9 2.6 -9.8
v 2.9 0 -9.8
v 2.9 0.2 -9.8
v 2.9 2.6 -9.8
v 3.2 0 -9.8
v 3.2 0.2 -9.8
v 3.2 2.9 -9.8
v -3.2 0 9.7
v -2.9 0 9.7
v 2.9 0 9.7
v 3.2 0 9.7
v -3.2 0 9.4
v -2.9 0 9.4
v 2.9 0 9.4
v 3.2 0 9.4
v -3.2 0 -9.5
v -2.9 0 -9.5
v 2.9 0 -9.5
v 3.2 0 -9.5
v -3.2 0 -9.8
v -2.9 0 -9.8
v 2.9 0 -9.8
v 3.2 0 -9.8
v -2.9 2.6 9.7
v 2.9 2.6 9.7
v -3.2 2.6 9.4
v -2.9 2.6 9.4
v 2.9 2.6 9.4
v 3.2 2.6 9.4
v -3.2 2.6 -9.5
v -2.9 2.6 -9.5
v 2.9 2.6 -9.5
v 3.2 2.6 -9.5
v -2.9 2.6 -9.8
v 2.9 2.6 -9.8
v -3.2 2.9 9.7
v 3.2 2.9 9.7
v -3.2 2.9 -9.8
v 3.2 2.9 -9.8

# faces
f 5/2/1 2/2/1 1/2/1
f 6/2/1 2/2/1 5/2/1
f 7/2/1 4/2/1 3/2/1
f 8/2/1 4/2/1 7/2/1
f 9/3/1 6/3/1 5/3/1
f 10/3/1 8/3/1 7/3/1
f 11/3/1 9/3/1 5/3/1
f 11/3/1 10/3/1 9/3/1
f 12/3/1 8/3/1 10/3/1
f 12/3/1 10/3/1 11/3/1
f 17/2/1 14/2/1 13/2/1
f 18/2/1 14/2/1 17/2/1
f 19/2/1 16/2/1 15/2/1
f 20/2/1 16/2/1 19/2/1
f 21/3/1 18/3/1 17/3/1
f 22/3/1 18/3/1 21/3/1
f 23/3/1 20/3/1 19/3/1
f 24/3/1 20/3/1 23/3/1
f 25/2/2 26/2/2 29/2/2
f 29/2/2 26/2/2 30/2/2
f 27/2/2 28/2/2 31/2/2
f 31/2/2 28/2/2 32/2/2
f 29/3/2 30/3/2 33/3/2
f 33/3/2 30/3/2 34/3/2
f 31/3/2 32/3/2 35/3/2
f 35/3/2 32/3/2 36/3/2
f 37/2/2 38/2/2 41/2/2
f 41/2/2 38/2/2 42/2/2
f 39/2/2 40/2/2 43/2/2
f 43/2/2 40/2/2 44/2/2
f 41/3/2 42/3/2 45/3/2
f 43/3/2 44/3/2 46/3/2
f 41/3/2 45/3/2 47/3/2
f 45/3/2 46/3/2 47/3/2
f 46/3/2 44/3/2 48/3/2
f 47/3/2 46/3/2 48/3/2
f 52/2/3 50/2/3 49/2/3
f 53/3/3 51/3/3 50/3/3
f 53/2/3 50/2/3 52/2/3
f 54/3/3 51/3/3 53/3/3
f 57/3/3 51/3/3 54/3/3
f 58/2/3 56/2/3 55/2/3
f 59/3/3 57/3/3 56/3/3
f 59/2/3 56/2/3 58/2/3
f 60/3/3 51/3/3 57/3/3
f 60/3/3 57/3/3 59/3/3
f 64/2/3 62/2/3 61/2/3
f 65/3/3 63/3/3 62/3/3
f 65/2/3 62/2/3 64/2/3
f 66/3/3 63/3/3 65/3/3
f 70/2/3 68/2/3 67/2/3
f 71/3/3 69/3/3 68/3/3
f 71/2/3 68/2/3 70/2/3
f 72/3/3 69/3/3 71/3/3
f 73/2/4 74/2/4 76/2/4
f 74/3/4 75/3/4 77/3/4
f 76/2/4 74/2/4 77/2/4
f 77/3/4 75/3/4 78/3/4
f 79/2/4 80/2/4 82/2/4
f 80/3/4 81/3/4 83/3/4
f 82/2/4 80/2/4 83/2/4
f 83/3/4 81/3/4 84/3/4
f 85/2/4 86/2/4 88/2/4
f 86/3/4 87/3/4 89/3/4
f 88/2/4 86/2/4 89/2/4
f 89/3/4 87/3/4 90/3/4
f 90/3/4 87/3/4 93/3/4
f 91/2/4 92/2/4 94/2/4
f 92/3/4 93/3/4 95/3/4
f 94/2/4 92/2/4 95/2/4
f 93/3/4 87/3/4 96/3/4
f 95/3/4 93/3/4 96/3/4
f 101/2/5 98/2/5 97/2/5
f 102/2/5 98/2/5 101/2/5
f 103/2/5 100/2/5 99/2/5
f 104/2/5 100/2/5 103/2/5
f 109/2/5 106/2/5 105/2/5
f 110/2/5 106/2/5 109/2/5
f 111/2/5 108/2/5 107/2/5
f 112/2/5 108/2/5 111/2/5
f 116/3/5 114/3/5 113/3/5
f 117/3/5 114/3/5 116/3/5
f 119/3/5 116/3/5 115/3/5
f 119/3/5 118/3/5 117/3/5
f 119/3/5 117/3/5 116/3/5
f 120/3/5 118/3/5 119/3/5
f 121/3/5 118/3/5 120/3/5
f 122/3/5 118/3/5 121/3/5
f 123/3/5 121/3/5 120/3/5
f 124/3/5 121/3/5 123/3/5
f 125/3/6 126/3/6 127/3/6
f 127/3/6 126/3/6 128/3/6
