# MagicaVoxel @ Ephtracy

# group
o 

# material
mtllib Com_but_vox.mtl
usemtl palette

# normals
vn -1 0 0
vn 1 0 0
vn 0 0 1
vn 0 0 -1
vn 0 -1 0
vn 0 1 0

# texcoords
vt 0.00195313 0.5
vt 0.0644531 0.5
vt 0.0957031 0.5
vt 0.103516 0.5
vt 0.107422 0.5
vt 0.111328 0.5
vt 0.259766 0.5
vt 0.357422 0.5
vt 0.373047 0.5

# verts
v -0.1 0 0.2
v -0.1 0 -0.2
v -0.1 0.1 0.2
v -0.1 0.1 -0.2
v -0.1 0.3 0.5
v -0.1 0.3 -0.5
v -0.1 0.4 0.6
v -0.1 0.4 0.5
v -0.1 0.4 -0.4
v -0.1 0.4 -0.5
v -0.1 0.4 -0.6
v -0.1 0.5 0.5
v -0.1 0.5 -0.4
v -0.1 0.5 -0.5
v -0.1 0.6 0.2
v -0.1 0.6 -0.2
v -0.1 0.7 0.2
v -0.1 0.7 -0.2
v -0.1 0.8 0.1
v -0.1 0.8 5.96046e-08
v -0.1 0.8 -0.1
v -0.1 0.9 0.1
v -0.1 0.9 5.96046e-08
v -0.1 0.9 -0.1
v -0.1 1 0.1
v -0.1 1 5.96046e-08
v -0.1 1 -0.1
v -0.1 1.2 0.6
v -0.1 1.2 0.5
v -0.1 1.2 -0.5
v -0.1 1.2 -0.6
v -0.1 1.3 0.5
v -0.1 1.3 -0.5
v 0 0 0.3
v 0 0 0.2
v 0 0 -0.2
v 0 0 -0.3
v 0 0.1 0.3
v 0 0.1 0.2
v 0 0.1 -0.2
v 0 0.1 -0.3
v 0 0.3 0.6
v 0 0.3 0.5
v 0 0.3 0.2
v 0 0.3 -0.2
v 0 0.3 -0.5
v 0 0.3 -0.6
v 0 0.4 0.6
v 0 0.4 0.5
v 0 0.4 -0.5
v 0 0.4 -0.6
v 0 1.2 0.6
v 0 1.2 0.5
v 0 1.2 -0.5
v 0 1.2 -0.6
v 0 1.3 0.6
v 0 1.3 0.5
v 0 1.3 -0.5
v 0 1.3 -0.6
v 0.1 0 0.3
v 0.1 0 0.2
v 0.1 0 -0.2
v 0.1 0 -0.3
v 0.1 0.1 0.3
v 0.1 0.1 0.2
v 0.1 0.1 -0.2
v 0.1 0.1 -0.3
v 0.1 0.3 0.6
v 0.1 0.3 0.5
v 0.1 0.3 0.2
v 0.1 0.3 0.1
v 0.1 0.3 -0.2
v 0.1 0.3 -0.5
v 0.1 0.3 -0.6
v 0.1 0.4 0.6
v 0.1 0.4 0.5
v 0.1 0.4 -0.5
v 0.1 0.4 -0.6
v 0.1 1.2 0.6
v 0.1 1.2 0.5
v 0.1 1.2 -0.5
v 0.1 1.2 -0.6
v 0.1 1.3 0.6
v 0.1 1.3 0.5
v 0.1 1.3 -0.5
v 0.1 1.3 -0.6
v 0.2 0 0.2
v 0.2 0 -0.2
v 0.2 0.1 0.2
v 0.2 0.1 -0.2
v 0.2 0.3 0.5
v 0.2 0.3 0.2
v 0.2 0.3 0.1
v 0.2 0.3 -0.5
v 0.2 0.4 0.6
v 0.2 0.4 0.5
v 0.2 0.4 0.2
v 0.2 0.4 0.1
v 0.2 0.4 -0.5
v 0.2 0.4 -0.6
v 0.2 1.2 0.6
v 0.2 1.2 0.5
v 0.2 1.2 -0.5
v 0.2 1.2 -0.6
v 0.2 1.3 0.5
v 0.2 1.3 -0.5
v -0.1 0.4 0.6
v -0.1 1.2 0.6
v 0 0.3 0.6
v 0 0.4 0.6
v 0 1.2 0.6
v 0 1.3 0.6
v 0.1 0.3 0.6
v 0.1 0.4 0.6
v 0.1 1.2 0.6
v 0.1 1.3 0.6
v 0.2 0.4 0.6
v 0.2 1.2 0.6
v -0.1 0.3 0.5
v -0.1 0.4 0.5
v -0.1 1.2 0.5
v -0.1 1.3 0.5
v 0 0.3 0.5
v 0 0.4 0.5
v 0 1.2 0.5
v 0 1.3 0.5
v 0.1 0.3 0.5
v 0.1 0.4 0.5
v 0.1 1.2 0.5
v 0.1 1.3 0.5
v 0.2 0.3 0.5
v 0.2 0.4 0.5
v 0.2 1.2 0.5
v 0.2 1.3 0.5
v 0 0 0.3
v 0 0.1 0.3
v 0.1 0 0.3
v 0.1 0.1 0.3
v -0.1 0 0.2
v -0.1 0.1 0.2
v 0 0 0.2
v 0 0.1 0.2
v 0 0.3 0.2
v 0.1 0 0.2
v 0.1 0.1 0.2
v 0.1 0.3 0.2
v 0.2 0 0.2
v 0.2 0.1 0.2
v -0.1 0 -0.2
v -0.1 0.1 -0.2
v 0 0 -0.2
v 0 0.1 -0.2
v 0 0.3 -0.2
v 0.1 0 -0.2
v 0.1 0.1 -0.2
v 0.1 0.3 -0.2
v 0.2 0 -0.2
v 0.2 0.1 -0.2
v 0 0 -0.3
v 0 0.1 -0.3
v 0.1 0 -0.3
v 0.1 0.1 -0.3
v -0.1 0.3 -0.5
v -0.1 0.4 -0.5
v -0.1 1.2 -0.5
v -0.1 1.3 -0.5
v 0 0.3 -0.5
v 0 0.4 -0.5
v 0 1.2 -0.5
v 0 1.3 -0.5
v 0.1 0.3 -0.5
v 0.1 0.4 -0.5
v 0.1 1.2 -0.5
v 0.1 1.3 -0.5
v 0.2 0.3 -0.5
v 0.2 0.4 -0.5
v 0.2 1.2 -0.5
v 0.2 1.3 -0.5
v -0.1 0.4 -0.6
v -0.1 1.2 -0.6
v 0 0.3 -0.6
v 0 0.4 -0.6
v 0 1.2 -0.6
v 0 1.3 -0.6
v 0.1 0.3 -0.6
v 0.1 0.4 -0.6
v 0.1 1.2 -0.6
v 0.1 1.3 -0.6
v 0.2 0.4 -0.6
v 0.2 1.2 -0.6
v 0 0 0.3
v 0.1 0 0.3
v -0.1 0 0.2
v 0 0 0.2
v 0.1 0 0.2
v 0.2 0 0.2
v -0.1 0 -0.2
v 0 0 -0.2
v 0.1 0 -0.2
v 0.2 0 -0.2
v 0 0 -0.3
v 0.1 0 -0.3
v 0 0.3 0.6
v 0.1 0.3 0.6
v -0.1 0.3 0.5
v 0 0.3 0.5
v 0.1 0.3 0.5
v 0.2 0.3 0.5
v 0 0.3 0.2
v 0.1 0.3 0.2
v 0.2 0.3 0.2
v 0.1 0.3 0.1
v 0.2 0.3 0.1
v 0 0.3 -0.2
v 0.1 0.3 -0.2
v -0.1 0.3 -0.5
v 0 0.3 -0.5
v 0.1 0.3 -0.5
v 0.2 0.3 -0.5
v 0 0.3 -0.6
v 0.1 0.3 -0.6
v -0.1 0.4 0.6
v 0 0.4 0.6
v 0.1 0.4 0.6
v 0.2 0.4 0.6
v -0.1 0.4 0.5
v 0 0.4 0.5
v 0.1 0.4 0.5
v 0.2 0.4 0.5
v -0.1 0.4 -0.5
v 0 0.4 -0.5
v 0.1 0.4 -0.5
v 0.2 0.4 -0.5
v -0.1 0.4 -0.6
v 0 0.4 -0.6
v 0.1 0.4 -0.6
v 0.2 0.4 -0.6
v 0 0.1 0.3
v 0.1 0.1 0.3
v -0.1 0.1 0.2
v 0 0.1 0.2
v 0.1 0.1 0.2
v 0.2 0.1 0.2
v -0.1 0.1 -0.2
v 0 0.1 -0.2
v 0.1 0.1 -0.2
v 0.2 0.1 -0.2
v 0 0.1 -0.3
v 0.1 0.1 -0.3
v -0.1 1.2 0.6
v 0 1.2 0.6
v 0.1 1.2 0.6
v 0.2 1.2 0.6
v -0.1 1.2 0.5
v 0 1.2 0.5
v 0.1 1.2 0.5
v 0.2 1.2 0.5
v -0.1 1.2 -0.5
v 0 1.2 -0.5
v 0.1 1.2 -0.5
v 0.2 1.2 -0.5
v -0.1 1.2 -0.6
v 0 1.2 -0.6
v 0.1 1.2 -0.6
v 0.2 1.2 -0.6
v 0 1.3 0.6
v 0.1 1.3 0.6
v -0.1 1.3 0.5
v 0 1.3 0.5
v 0.1 1.3 0.5
v 0.2 1.3 0.5
v -0.1 1.3 -0.5
v 0 1.3 -0.5
v 0.1 1.3 -0.5
v 0.2 1.3 -0.5
v 0 1.3 -0.6
v 0.1 1.3 -0.6

# faces
f 3/2/1 2/2/1 1/2/1
f 4/2/1 2/2/1 3/2/1
f 8/1/1 6/1/1 5/1/1
f 9/1/1 6/1/1 8/1/1
f 10/1/1 6/1/1 9/1/1
f 12/1/1 8/1/1 7/1/1
f 12/8/1 9/8/1 8/8/1
f 13/6/1 10/6/1 9/6/1
f 13/8/1 9/8/1 12/8/1
f 14/1/1 11/1/1 10/1/1
f 14/6/1 10/6/1 13/6/1
f 15/9/1 13/9/1 12/9/1
f 15/9/1 14/9/1 13/9/1
f 16/9/1 14/9/1 15/9/1
f 17/9/1 15/9/1 12/9/1
f 17/7/1 16/7/1 15/7/1
f 18/9/1 14/9/1 16/9/1
f 18/7/1 16/7/1 17/7/1
f 19/9/1 18/9/1 17/9/1
f 20/9/1 18/9/1 19/9/1
f 21/9/1 18/9/1 20/9/1
f 22/9/1 19/9/1 17/9/1
f 22/4/1 20/4/1 19/4/1
f 23/6/1 21/6/1 20/6/1
f 23/4/1 20/4/1 22/4/1
f 24/9/1 18/9/1 21/9/1
f 24/6/1 21/6/1 23/6/1
f 25/5/1 23/5/1 22/5/1
f 25/9/1 22/9/1 17/9/1
f 26/3/1 24/3/1 23/3/1
f 26/5/1 23/5/1 25/5/1
f 27/9/1 18/9/1 24/9/1
f 27/3/1 24/3/1 26/3/1
f 28/1/1 12/1/1 7/1/1
f 29/9/1 17/9/1 12/9/1
f 29/1/1 12/1/1 28/1/1
f 29/9/1 26/9/1 25/9/1
f 29/9/1 27/9/1 26/9/1
f 29/9/1 25/9/1 17/9/1
f 30/1/1 11/1/1 14/1/1
f 30/9/1 27/9/1 29/9/1
f 30/9/1 18/9/1 27/9/1
f 30/9/1 14/9/1 18/9/1
f 31/1/1 11/1/1 30/1/1
f 32/1/1 30/1/1 29/1/1
f 33/1/1 30/1/1 32/1/1
f 38/2/1 35/2/1 34/2/1
f 39/2/1 35/2/1 38/2/1
f 40/2/1 37/2/1 36/2/1
f 41/2/1 37/2/1 40/2/1
f 44/2/1 40/2/1 39/2/1
f 45/2/1 40/2/1 44/2/1
f 48/1/1 43/1/1 42/1/1
f 49/1/1 43/1/1 48/1/1
f 50/1/1 47/1/1 46/1/1
f 51/1/1 47/1/1 50/1/1
f 56/1/1 53/1/1 52/1/1
f 57/1/1 53/1/1 56/1/1
f 58/1/1 55/1/1 54/1/1
f 59/1/1 55/1/1 58/1/1
f 60/2/2 61/2/2 64/2/2
f 64/2/2 61/2/2 65/2/2
f 62/2/2 63/2/2 66/2/2
f 66/2/2 63/2/2 67/2/2
f 65/2/2 66/2/2 70/2/2
f 70/2/2 66/2/2 71/2/2
f 71/2/2 66/2/2 72/2/2
f 68/1/2 69/1/2 75/1/2
f 75/1/2 69/1/2 76/1/2
f 73/1/2 74/1/2 77/1/2
f 77/1/2 74/1/2 78/1/2
f 79/1/2 80/1/2 83/1/2
f 83/1/2 80/1/2 84/1/2
f 81/1/2 82/1/2 85/1/2
f 85/1/2 82/1/2 86/1/2
f 87/2/2 88/2/2 89/2/2
f 89/2/2 88/2/2 90/2/2
f 91/1/2 92/1/2 96/1/2
f 92/2/2 93/2/2 97/2/2
f 96/1/2 92/1/2 97/1/2
f 93/1/2 94/1/2 98/1/2
f 97/2/2 93/2/2 98/2/2
f 98/1/2 94/1/2 99/1/2
f 95/1/2 96/1/2 101/1/2
f 99/1/2 100/1/2 101/1/2
f 98/1/2 99/1/2 101/1/2
f 97/1/2 98/1/2 101/1/2
f 96/1/2 97/1/2 101/1/2
f 101/1/2 100/1/2 102/1/2
f 102/1/2 100/1/2 103/1/2
f 103/1/2 100/1/2 104/1/2
f 102/1/2 103/1/2 105/1/2
f 105/1/2 103/1/2 106/1/2
f 110/1/3 108/1/3 107/1/3
f 111/1/3 108/1/3 110/1/3
f 113/1/3 110/1/3 109/1/3
f 113/1/3 112/1/3 111/1/3
f 113/1/3 111/1/3 110/1/3
f 114/1/3 112/1/3 113/1/3
f 115/1/3 112/1/3 114/1/3
f 116/1/3 112/1/3 115/1/3
f 117/1/3 115/1/3 114/1/3
f 118/1/3 115/1/3 117/1/3
f 123/1/3 120/1/3 119/1/3
f 124/1/3 120/1/3 123/1/3
f 125/1/3 122/1/3 121/1/3
f 126/1/3 122/1/3 125/1/3
f 131/1/3 128/1/3 127/1/3
f 132/1/3 128/1/3 131/1/3
f 133/1/3 130/1/3 129/1/3
f 134/1/3 130/1/3 133/1/3
f 137/2/3 136/2/3 135/2/3
f 138/2/3 136/2/3 137/2/3
f 141/2/3 140/2/3 139/2/3
f 142/2/3 140/2/3 141/2/3
f 145/2/3 143/2/3 142/2/3
f 146/2/3 143/2/3 145/2/3
f 147/2/3 145/2/3 144/2/3
f 148/2/3 145/2/3 147/2/3
f 149/2/4 150/2/4 151/2/4
f 151/2/4 150/2/4 152/2/4
f 152/2/4 153/2/4 155/2/4
f 155/2/4 153/2/4 156/2/4
f 154/2/4 155/2/4 157/2/4
f 157/2/4 155/2/4 158/2/4
f 159/2/4 160/2/4 161/2/4
f 161/2/4 160/2/4 162/2/4
f 163/1/4 164/1/4 167/1/4
f 167/1/4 164/1/4 168/1/4
f 165/1/4 166/1/4 169/1/4
f 169/1/4 166/1/4 170/1/4
f 171/1/4 172/1/4 175/1/4
f 175/1/4 172/1/4 176/1/4
f 173/1/4 174/1/4 177/1/4
f 177/1/4 174/1/4 178/1/4
f 179/1/4 180/1/4 182/1/4
f 182/1/4 180/1/4 183/1/4
f 181/1/4 182/1/4 185/1/4
f 183/1/4 184/1/4 185/1/4
f 182/1/4 183/1/4 185/1/4
f 185/1/4 184/1/4 186/1/4
f 186/1/4 184/1/4 187/1/4
f 187/1/4 184/1/4 188/1/4
f 186/1/4 187/1/4 189/1/4
f 189/1/4 187/1/4 190/1/4
f 194/2/5 192/2/5 191/2/5
f 195/2/5 192/2/5 194/2/5
f 197/2/5 194/2/5 193/2/5
f 197/2/5 196/2/5 195/2/5
f 197/2/5 195/2/5 194/2/5
f 198/2/5 196/2/5 197/2/5
f 199/2/5 196/2/5 198/2/5
f 200/2/5 196/2/5 199/2/5
f 201/2/5 199/2/5 198/2/5
f 202/2/5 199/2/5 201/2/5
f 206/1/5 204/1/5 203/1/5
f 207/1/5 204/1/5 206/1/5
f 209/1/5 206/1/5 205/1/5
f 209/1/5 208/1/5 207/1/5
f 209/1/5 207/1/5 206/1/5
f 210/1/5 208/1/5 209/1/5
f 211/1/5 208/1/5 210/1/5
f 212/2/5 211/2/5 210/2/5
f 213/2/5 211/2/5 212/2/5
f 214/1/5 209/1/5 205/1/5
f 215/1/5 213/1/5 212/1/5
f 216/1/5 214/1/5 205/1/5
f 216/1/5 215/1/5 214/1/5
f 217/1/5 215/1/5 216/1/5
f 218/1/5 213/1/5 215/1/5
f 218/1/5 215/1/5 217/1/5
f 219/1/5 213/1/5 218/1/5
f 220/1/5 218/1/5 217/1/5
f 221/1/5 218/1/5 220/1/5
f 226/1/5 223/1/5 222/1/5
f 227/1/5 223/1/5 226/1/5
f 228/1/5 225/1/5 224/1/5
f 229/1/5 225/1/5 228/1/5
f 234/1/5 231/1/5 230/1/5
f 235/1/5 231/1/5 234/1/5
f 236/1/5 233/1/5 232/1/5
f 237/1/5 233/1/5 236/1/5
f 238/2/6 239/2/6 241/2/6
f 241/2/6 239/2/6 242/2/6
f 240/2/6 241/2/6 244/2/6
f 244/2/6 241/2/6 245/2/6
f 242/2/6 243/2/6 246/2/6
f 246/2/6 243/2/6 247/2/6
f 245/2/6 246/2/6 248/2/6
f 248/2/6 246/2/6 249/2/6
f 250/1/6 251/1/6 254/1/6
f 254/1/6 251/1/6 255/1/6
f 252/1/6 253/1/6 256/1/6
f 256/1/6 253/1/6 257/1/6
f 258/1/6 259/1/6 262/1/6
f 262/1/6 259/1/6 263/1/6
f 260/1/6 261/1/6 264/1/6
f 264/1/6 261/1/6 265/1/6
f 266/1/6 267/1/6 269/1/6
f 269/1/6 267/1/6 270/1/6
f 268/1/6 269/1/6 272/1/6
f 270/1/6 271/1/6 272/1/6
f 269/1/6 270/1/6 272/1/6
f 272/1/6 271/1/6 273/1/6
f 273/1/6 271/1/6 274/1/6
f 274/1/6 271/1/6 275/1/6
f 273/1/6 274/1/6 276/1/6
f 276/1/6 274/1/6 277/1/6
