# MagicaVoxel @ Ephtracy

# group
o 

# material
mtllib G2.mtl
usemtl palette

# normals
vn -1 0 0
vn 1 0 0
vn 0 0 1
vn 0 0 -1
vn 0 -1 0
vn 0 1 0

# texcoords
vt 0.376953 0.5
vt 0.392578 0.5
vt 0.412109 0.5
vt 0.478516 0.5
vt 0.568359 0.5
vt 0.576172 0.5
vt 0.673828 0.5
vt 0.705078 0.5
vt 0.833984 0.5
vt 0.853516 0.5
vt 0.880859 0.5

# verts
v -0.8 0 1.4
v -0.8 0 -1.4
v -0.8 0.1 1.4
v -0.8 0.1 -1.4
v -0.7 0.1 -0.9
v -0.7 0.1 -1.1
v -0.7 0.1 -1.2
v -0.7 0.1 -1.3
v -0.7 0.2 -0.9
v -0.7 0.2 -1
v -0.7 0.2 -1.1
v -0.7 0.2 -1.2
v -0.7 0.9 -1
v -0.7 0.9 -1.1
v -0.7 1 -1
v -0.7 1 -1.1
v -0.7 1.2 -1
v -0.7 1.2 -1.3
v -0.6 0.1 1.2
v -0.6 0.1 -0.8
v -0.6 0.1 -1.1
v -0.6 0.1 -1.2
v -0.6 0.2 1.2
v -0.6 0.2 -0.8
v -0.6 0.2 -1.1
v -0.6 0.2 -1.2
v -0.5 1.2 -1
v -0.5 1.2 -1.3
v -0.5 1.5 -1
v -0.5 1.5 -1.3
v -0.4 1.5 -1
v -0.4 1.5 -1.3
v -0.4 1.6 -1
v -0.4 1.6 -1.1
v -0.4 1.7 -1
v -0.4 1.7 -1.1
v -0.4 1.7 -1.3
v -0.3 1.7 -1
v -0.3 1.7 -1.1
v -0.3 1.7 -1.3
v -0.3 1.8 -1
v -0.3 1.8 -1.3
v 0.1 1.6 -1
v 0.1 1.6 -1.1
v 0.1 1.7 -1
v 0.1 1.7 -1.1
v 0.2 1.5 -1
v 0.2 1.5 -1.1
v 0.2 1.6 -1
v 0.2 1.6 -1.1
v 0.3 1.2 -1
v 0.3 1.2 -1.1
v 0.3 1.5 -1
v 0.3 1.5 -1.1
v 0.4 1.1 -1
v 0.4 1.1 -1.1
v 0.4 1.2 -1
v 0.4 1.2 -1.1
v 0.5 0.1 -0.9
v 0.5 0.1 -1
v 0.5 0.2 -0.9
v 0.5 0.2 -1
v 0.5 0.2 -1.1
v 0.5 0.3 -1
v 0.5 0.3 -1.1
v 0.5 1.1 -1
v 0.5 1.1 -1.1
v -0.6 0.1 -0.9
v -0.6 0.1 -1
v -0.6 0.2 -0.9
v -0.6 0.2 -1
v -0.6 0.2 -1.1
v -0.6 0.5 -1.1
v -0.6 0.6 -1.1
v -0.6 0.9 -1
v -0.6 0.9 -1.1
v -0.6 1 -1
v -0.6 1 -1.1
v -0.6 1.1 -1
v -0.6 1.1 -1.1
v -0.5 1.1 -1
v -0.5 1.1 -1.1
v -0.5 1.2 -1
v -0.5 1.2 -1.1
v -0.4 1.2 -1
v -0.4 1.2 -1.1
v -0.4 1.5 -1
v -0.4 1.5 -1.1
v -0.3 1.5 -1
v -0.3 1.5 -1.1
v -0.3 1.6 -1
v -0.3 1.6 -1.1
v -0.2 1.6 -1
v -0.2 1.6 -1.1
v -0.2 1.7 -1
v -0.2 1.7 -1.1
v 0.2 1.7 -1
v 0.2 1.7 -1.3
v 0.2 1.8 -1
v 0.2 1.8 -1.3
v 0.3 1.5 -1
v 0.3 1.5 -1.3
v 0.3 1.7 -1
v 0.3 1.7 -1.3
v 0.4 1.2 -1
v 0.4 1.2 -1.1
v 0.4 1.2 -1.3
v 0.4 1.5 -1
v 0.4 1.5 -1.3
v 0.5 0.1 1.2
v 0.5 0.1 -0.8
v 0.5 0.1 -1.1
v 0.5 0.1 -1.2
v 0.5 0.2 1.2
v 0.5 0.2 -0.8
v 0.5 0.2 -1.1
v 0.5 0.2 -1.2
v 0.6 0.1 -0.9
v 0.6 0.1 -1.1
v 0.6 0.1 -1.2
v 0.6 0.1 -1.3
v 0.6 0.2 -0.9
v 0.6 0.2 -1
v 0.6 0.2 -1.1
v 0.6 0.2 -1.2
v 0.6 0.3 -1
v 0.6 0.3 -1.1
v 0.6 1.2 -1
v 0.6 1.2 -1.3
v 0.7 0 1.4
v 0.7 0 -1.4
v 0.7 0.1 1.4
v 0.7 0.1 -1.4
v -0.8 0 1.4
v -0.8 0.1 1.4
v 0.7 0 1.4
v 0.7 0.1 1.4
v -0.6 0.1 1.2
v -0.6 0.2 1.2
v 0.5 0.1 1.2
v 0.5 0.2 1.2
v -0.7 0.1 -0.9
v -0.7 0.2 -0.9
v -0.6 0.1 -0.9
v -0.6 0.2 -0.9
v 0.5 0.1 -0.9
v 0.5 0.2 -0.9
v 0.6 0.1 -0.9
v 0.6 0.2 -0.9
v -0.7 0.2 -1
v -0.7 0.9 -1
v -0.7 1 -1
v -0.7 1.2 -1
v -0.6 0.1 -1
v -0.6 0.2 -1
v -0.6 0.9 -1
v -0.6 1 -1
v -0.6 1.1 -1
v -0.5 0.1 -1
v -0.5 0.2 -1
v -0.5 1.1 -1
v -0.5 1.2 -1
v -0.5 1.5 -1
v -0.4 1.2 -1
v -0.4 1.5 -1
v -0.4 1.6 -1
v -0.4 1.7 -1
v -0.3 1.5 -1
v -0.3 1.6 -1
v -0.3 1.7 -1
v -0.3 1.8 -1
v -0.2 1.6 -1
v -0.2 1.7 -1
v 5.96046e-08 0.1 -1
v 5.96046e-08 0.2 -1
v 5.96046e-08 1.7 -1
v 5.96046e-08 1.8 -1
v 0.1 0.1 -1
v 0.1 0.2 -1
v 0.1 1.6 -1
v 0.1 1.7 -1
v 0.1 1.8 -1
v 0.2 1.5 -1
v 0.2 1.6 -1
v 0.2 1.7 -1
v 0.2 1.8 -1
v 0.3 1.2 -1
v 0.3 1.5 -1
v 0.3 1.7 -1
v 0.4 0.1 -1
v 0.4 0.2 -1
v 0.4 1.1 -1
v 0.4 1.2 -1
v 0.4 1.5 -1
v 0.5 0.1 -1
v 0.5 0.2 -1
v 0.5 0.3 -1
v 0.5 1.1 -1
v 0.5 1.2 -1
v 0.6 0.2 -1
v 0.6 0.3 -1
v 0.6 1.2 -1
v -0.6 0.2 -1.1
v -0.6 0.5 -1.1
v -0.6 0.6 -1.1
v -0.6 0.9 -1.1
v -0.6 1 -1.1
v -0.6 1.1 -1.1
v -0.5 0.2 -1.1
v -0.5 0.5 -1.1
v -0.5 0.6 -1.1
v -0.5 0.7 -1.1
v -0.5 1.1 -1.1
v -0.5 1.2 -1.1
v -0.4 0.7 -1.1
v -0.4 0.8 -1.1
v -0.4 0.9 -1.1
v -0.4 1 -1.1
v -0.4 1.1 -1.1
v -0.4 1.2 -1.1
v -0.4 1.5 -1.1
v -0.3 0.5 -1.1
v -0.3 0.6 -1.1
v -0.3 0.7 -1.1
v -0.3 0.8 -1.1
v -0.3 0.9 -1.1
v -0.3 1 -1.1
v -0.3 1.1 -1.1
v -0.3 1.2 -1.1
v -0.3 1.3 -1.1
v -0.3 1.4 -1.1
v -0.3 1.5 -1.1
v -0.3 1.6 -1.1
v -0.2 0.3 -1.1
v -0.2 0.4 -1.1
v -0.2 0.7 -1.1
v -0.2 0.8 -1.1
v -0.2 0.9 -1.1
v -0.2 1 -1.1
v -0.2 1.3 -1.1
v -0.2 1.4 -1.1
v -0.2 1.5 -1.1
v -0.2 1.6 -1.1
v -0.2 1.7 -1.1
v -0.1 0.7 -1.1
v -0.1 1.1 -1.1
v -0.1 1.2 -1.1
v -0.1 1.4 -1.1
v -0.1 1.5 -1.1
v -0.1 1.6 -1.1
v 5.96046e-08 0.2 -1.1
v 5.96046e-08 0.7 -1.1
v 5.96046e-08 1.1 -1.1
v 5.96046e-08 1.2 -1.1
v 5.96046e-08 1.4 -1.1
v 5.96046e-08 1.5 -1.1
v 5.96046e-08 1.6 -1.1
v 5.96046e-08 1.7 -1.1
v 0.1 0.2 -1.1
v 0.1 0.3 -1.1
v 0.1 0.4 -1.1
v 0.1 0.7 -1.1
v 0.1 1.1 -1.1
v 0.1 1.4 -1.1
v 0.1 1.5 -1.1
v 0.1 1.6 -1.1
v 0.1 1.7 -1.1
v 0.2 0.5 -1.1
v 0.2 0.6 -1.1
v 0.2 0.7 -1.1
v 0.2 0.8 -1.1
v 0.2 0.9 -1.1
v 0.2 1 -1.1
v 0.2 1.5 -1.1
v 0.2 1.6 -1.1
v 0.3 0.8 -1.1
v 0.3 0.9 -1.1
v 0.3 1 -1.1
v 0.3 1.1 -1.1
v 0.3 1.2 -1.1
v 0.3 1.5 -1.1
v 0.4 0.2 -1.1
v 0.4 0.9 -1.1
v 0.4 1 -1.1
v 0.4 1.1 -1.1
v 0.4 1.2 -1.1
v 0.5 0.2 -1.1
v 0.5 0.3 -1.1
v 0.5 1.1 -1.1
v -0.7 0.1 -1.2
v -0.7 0.2 -1.2
v -0.6 0.1 -1.2
v -0.6 0.2 -1.2
v 0.5 0.1 -1.2
v 0.5 0.2 -1.2
v 0.6 0.1 -1.2
v 0.6 0.2 -1.2
v -0.6 0.1 -0.8
v -0.6 0.2 -0.8
v 0.5 0.1 -0.8
v 0.5 0.2 -0.8
v -0.7 0.1 -1.1
v -0.7 0.2 -1.1
v -0.6 0.1 -1.1
v -0.6 0.2 -1.1
v 0.5 0.1 -1.1
v 0.5 0.2 -1.1
v 0.6 0.1 -1.1
v 0.6 0.2 -1.1
v -0.7 0.1 -1.3
v -0.7 1.2 -1.3
v -0.5 1.2 -1.3
v -0.5 1.5 -1.3
v -0.4 1.5 -1.3
v -0.4 1.7 -1.3
v -0.3 1.7 -1.3
v -0.3 1.8 -1.3
v 5.96046e-08 1.7 -1.3
v 5.96046e-08 1.8 -1.3
v 0.1 1.7 -1.3
v 0.1 1.8 -1.3
v 0.2 1.7 -1.3
v 0.2 1.8 -1.3
v 0.3 1.5 -1.3
v 0.3 1.7 -1.3
v 0.4 1.2 -1.3
v 0.4 1.5 -1.3
v 0.6 0.1 -1.3
v 0.6 1.2 -1.3
v -0.8 0 -1.4
v -0.8 0.1 -1.4
v 0.7 0 -1.4
v 0.7 0.1 -1.4
v -0.8 0 1.4
v 0.7 0 1.4
v -0.8 0 -1.4
v 0.7 0 -1.4
v -0.7 0.2 -1.1
v -0.6 0.2 -1.1
v 0.5 0.2 -1.1
v 0.6 0.2 -1.1
v -0.7 0.2 -1.2
v -0.6 0.2 -1.2
v 0.5 0.2 -1.2
v 0.6 0.2 -1.2
v -0.6 1.1 -1
v -0.5 1.1 -1
v 0.4 1.1 -1
v 0.5 1.1 -1
v -0.6 1.1 -1.1
v -0.5 1.1 -1.1
v 0.4 1.1 -1.1
v 0.5 1.1 -1.1
v -0.5 1.2 -1
v -0.4 1.2 -1
v 0.3 1.2 -1
v 0.4 1.2 -1
v -0.5 1.2 -1.1
v -0.4 1.2 -1.1
v 0.3 1.2 -1.1
v 0.4 1.2 -1.1
v -0.4 1.5 -1
v -0.3 1.5 -1
v 0.2 1.5 -1
v 0.3 1.5 -1
v -0.4 1.5 -1.1
v -0.3 1.5 -1.1
v 0.2 1.5 -1.1
v 0.3 1.5 -1.1
v -0.3 1.6 -1
v -0.2 1.6 -1
v 0.1 1.6 -1
v 0.2 1.6 -1
v -0.3 1.6 -1.1
v -0.2 1.6 -1.1
v 0.1 1.6 -1.1
v 0.2 1.6 -1.1
v -0.2 1.7 -1
v 5.96046e-08 1.7 -1
v 0.1 1.7 -1
v -0.2 1.7 -1.1
v 5.96046e-08 1.7 -1.1
v 0.1 1.7 -1.1
v -0.8 0.1 1.4
v 0.7 0.1 1.4
v -0.6 0.1 1.2
v 0.5 0.1 1.2
v -0.6 0.1 -0.8
v 0.5 0.1 -0.8
v -0.7 0.1 -0.9
v -0.6 0.1 -0.9
v 0.5 0.1 -0.9
v 0.6 0.1 -0.9
v -0.6 0.1 -1
v -0.5 0.1 -1
v 5.96046e-08 0.1 -1
v 0.1 0.1 -1
v 0.4 0.1 -1
v 0.5 0.1 -1
v -0.7 0.1 -1.1
v -0.6 0.1 -1.1
v 0.5 0.1 -1.1
v 0.6 0.1 -1.1
v -0.7 0.1 -1.2
v -0.6 0.1 -1.2
v 0.5 0.1 -1.2
v 0.6 0.1 -1.2
v -0.7 0.1 -1.3
v 0.6 0.1 -1.3
v -0.8 0.1 -1.4
v 0.7 0.1 -1.4
v -0.6 0.2 1.2
v 0.5 0.2 1.2
v -0.6 0.2 -0.8
v 0.5 0.2 -0.8
v -0.7 0.2 -0.9
v -0.6 0.2 -0.9
v 0.5 0.2 -0.9
v 0.6 0.2 -0.9
v -0.7 0.2 -1
v -0.6 0.2 -1
v -0.5 0.2 -1
v 5.96046e-08 0.2 -1
v 0.1 0.2 -1
v 0.4 0.2 -1
v 0.5 0.2 -1
v 0.6 0.2 -1
v -0.6 0.2 -1.1
v -0.5 0.2 -1.1
v 5.96046e-08 0.2 -1.1
v 0.1 0.2 -1.1
v 0.4 0.2 -1.1
v 0.5 0.2 -1.1
v -0.7 1.2 -1
v -0.5 1.2 -1
v 0.4 1.2 -1
v 0.5 1.2 -1
v 0.6 1.2 -1
v 0.4 1.2 -1.1
v 0.5 1.2 -1.1
v -0.7 1.2 -1.3
v -0.5 1.2 -1.3
v 0.4 1.2 -1.3
v 0.6 1.2 -1.3
v -0.5 1.5 -1
v -0.4 1.5 -1
v 0.3 1.5 -1
v 0.4 1.5 -1
v -0.5 1.5 -1.3
v -0.4 1.5 -1.3
v 0.3 1.5 -1.3
v 0.4 1.5 -1.3
v -0.4 1.7 -1
v -0.3 1.7 -1
v 0.2 1.7 -1
v 0.3 1.7 -1
v -0.4 1.7 -1.1
v -0.3 1.7 -1.1
v -0.4 1.7 -1.3
v -0.3 1.7 -1.3
v 0.2 1.7 -1.3
v 0.3 1.7 -1.3
v -0.3 1.8 -1
v 5.96046e-08 1.8 -1
v 0.1 1.8 -1
v 0.2 1.8 -1
v -0.3 1.8 -1.3
v 5.96046e-08 1.8 -1.3
v 0.1 1.8 -1.3
v 0.2 1.8 -1.3

# faces
f 3/5/1 2/5/1 1/5/1
f 4/5/1 2/5/1 3/5/1
f 9/5/1 6/5/1 5/5/1
f 10/5/1 6/5/1 9/5/1
f 11/5/1 6/5/1 10/5/1
f 12/5/1 8/5/1 7/5/1
f 13/5/1 11/5/1 10/5/1
f 13/5/1 12/5/1 11/5/1
f 14/5/1 12/5/1 13/5/1
f 15/9/1 14/9/1 13/9/1
f 16/5/1 12/5/1 14/5/1
f 16/9/1 14/9/1 15/9/1
f 17/5/1 16/5/1 15/5/1
f 18/5/1 8/5/1 12/5/1
f 18/5/1 16/5/1 17/5/1
f 18/5/1 12/5/1 16/5/1
f 23/6/1 20/6/1 19/6/1
f 24/6/1 20/6/1 23/6/1
f 25/5/1 22/5/1 21/5/1
f 26/5/1 22/5/1 25/5/1
f 29/5/1 28/5/1 27/5/1
f 30/5/1 28/5/1 29/5/1
f 33/5/1 32/5/1 31/5/1
f 34/5/1 32/5/1 33/5/1
f 35/3/1 34/3/1 33/3/1
f 36/5/1 32/5/1 34/5/1
f 36/3/1 34/3/1 35/3/1
f 37/5/1 32/5/1 36/5/1
f 41/5/1 39/5/1 38/5/1
f 41/5/1 40/5/1 39/5/1
f 42/5/1 40/5/1 41/5/1
f 45/5/1 44/5/1 43/5/1
f 46/5/1 44/5/1 45/5/1
f 49/5/1 48/5/1 47/5/1
f 50/5/1 48/5/1 49/5/1
f 53/5/1 52/5/1 51/5/1
f 54/5/1 52/5/1 53/5/1
f 57/3/1 56/3/1 55/3/1
f 58/3/1 56/3/1 57/3/1
f 61/5/1 60/5/1 59/5/1
f 62/5/1 60/5/1 61/5/1
f 64/9/1 63/9/1 62/9/1
f 65/9/1 63/9/1 64/9/1
f 66/5/1 65/5/1 64/5/1
f 67/5/1 65/5/1 66/5/1
f 68/5/2 69/5/2 70/5/2
f 70/5/2 69/5/2 71/5/2
f 71/5/2 72/5/2 73/5/2
f 71/5/2 73/5/2 74/5/2
f 71/5/2 74/5/2 75/5/2
f 75/5/2 74/5/2 76/5/2
f 75/9/2 76/9/2 77/9/2
f 77/9/2 76/9/2 78/9/2
f 77/5/2 78/5/2 79/5/2
f 79/5/2 78/5/2 80/5/2
f 81/5/2 82/5/2 83/5/2
f 83/5/2 82/5/2 84/5/2
f 85/5/2 86/5/2 87/5/2
f 87/5/2 86/5/2 88/5/2
f 89/5/2 90/5/2 91/5/2
f 91/5/2 90/5/2 92/5/2
f 93/5/2 94/5/2 95/5/2
f 95/5/2 94/5/2 96/5/2
f 97/5/2 98/5/2 99/5/2
f 99/5/2 98/5/2 100/5/2
f 101/5/2 102/5/2 103/5/2
f 103/5/2 102/5/2 104/5/2
f 105/5/2 106/5/2 108/5/2
f 106/5/2 107/5/2 108/5/2
f 108/5/2 107/5/2 109/5/2
f 110/6/2 111/6/2 114/6/2
f 114/6/2 111/6/2 115/6/2
f 112/5/2 113/5/2 116/5/2
f 116/5/2 113/5/2 117/5/2
f 118/5/2 119/5/2 122/5/2
f 122/5/2 119/5/2 123/5/2
f 123/5/2 119/5/2 124/5/2
f 120/5/2 121/5/2 125/5/2
f 123/9/2 124/9/2 126/9/2
f 124/5/2 125/5/2 127/5/2
f 126/9/2 124/9/2 127/9/2
f 126/5/2 127/5/2 128/5/2
f 125/5/2 121/5/2 129/5/2
f 128/5/2 127/5/2 129/5/2
f 127/5/2 125/5/2 129/5/2
f 130/5/2 131/5/2 132/5/2
f 132/5/2 131/5/2 133/5/2
f 136/5/3 135/5/3 134/5/3
f 137/5/3 135/5/3 136/5/3
f 140/6/3 139/6/3 138/6/3
f 141/6/3 139/6/3 140/6/3
f 144/5/3 143/5/3 142/5/3
f 145/5/3 143/5/3 144/5/3
f 148/5/3 147/5/3 146/5/3
f 149/5/3 147/5/3 148/5/3
f 155/5/3 151/5/3 150/5/3
f 156/9/3 152/9/3 151/9/3
f 156/5/3 151/5/3 155/5/3
f 157/5/3 153/5/3 152/5/3
f 157/9/3 152/9/3 156/9/3
f 158/5/3 153/5/3 157/5/3
f 159/11/3 155/11/3 154/11/3
f 160/11/3 155/11/3 159/11/3
f 161/5/3 153/5/3 158/5/3
f 162/5/3 153/5/3 161/5/3
f 164/5/3 163/5/3 162/5/3
f 165/5/3 163/5/3 164/5/3
f 168/5/3 166/5/3 165/5/3
f 169/3/3 167/3/3 166/3/3
f 169/5/3 166/5/3 168/5/3
f 170/3/3 167/3/3 169/3/3
f 172/5/3 171/5/3 170/5/3
f 172/5/3 170/5/3 169/5/3
f 173/5/3 171/5/3 172/5/3
f 174/5/3 160/5/3 159/5/3
f 175/5/3 160/5/3 174/5/3
f 176/5/3 171/5/3 173/5/3
f 177/5/3 171/5/3 176/5/3
f 178/8/3 175/8/3 174/8/3
f 179/8/3 175/8/3 178/8/3
f 181/7/3 177/7/3 176/7/3
f 182/7/3 177/7/3 181/7/3
f 184/5/3 181/5/3 180/5/3
f 184/5/3 182/5/3 181/5/3
f 185/5/3 182/5/3 184/5/3
f 186/5/3 182/5/3 185/5/3
f 188/5/3 184/5/3 183/5/3
f 188/5/3 185/5/3 184/5/3
f 189/5/3 185/5/3 188/5/3
f 190/5/3 179/5/3 178/5/3
f 191/5/3 179/5/3 190/5/3
f 193/5/3 188/5/3 187/5/3
f 194/5/3 188/5/3 193/5/3
f 195/1/3 191/1/3 190/1/3
f 196/1/3 191/1/3 195/1/3
f 198/3/3 193/3/3 192/3/3
f 199/3/3 193/3/3 198/3/3
f 200/9/3 197/9/3 196/9/3
f 201/5/3 199/5/3 198/5/3
f 201/9/3 197/9/3 200/9/3
f 201/5/3 198/5/3 197/5/3
f 202/5/3 199/5/3 201/5/3
f 209/5/3 204/5/3 203/5/3
f 210/1/3 205/1/3 204/1/3
f 210/5/3 204/5/3 209/5/3
f 211/5/3 208/5/3 207/5/3
f 211/1/3 205/1/3 210/1/3
f 211/5/3 206/5/3 205/5/3
f 211/5/3 207/5/3 206/5/3
f 212/5/3 208/5/3 211/5/3
f 213/5/3 208/5/3 212/5/3
f 215/5/3 210/5/3 209/5/3
f 215/5/3 211/5/3 210/5/3
f 215/10/3 213/10/3 212/10/3
f 215/5/3 212/5/3 211/5/3
f 216/10/3 213/10/3 215/10/3
f 217/10/3 213/10/3 216/10/3
f 218/10/3 213/10/3 217/10/3
f 219/5/3 214/5/3 213/5/3
f 219/10/3 213/10/3 218/10/3
f 220/5/3 214/5/3 219/5/3
f 222/5/3 215/5/3 209/5/3
f 222/5/3 216/5/3 215/5/3
f 223/5/3 216/5/3 222/5/3
f 224/5/3 216/5/3 223/5/3
f 225/10/3 217/10/3 216/10/3
f 225/5/3 216/5/3 224/5/3
f 226/5/3 218/5/3 217/5/3
f 226/10/3 217/10/3 225/10/3
f 227/10/3 219/10/3 218/10/3
f 227/5/3 218/5/3 226/5/3
f 228/4/3 220/4/3 219/4/3
f 228/10/3 219/10/3 227/10/3
f 229/5/3 221/5/3 220/5/3
f 229/4/3 220/4/3 228/4/3
f 230/5/3 221/5/3 229/5/3
f 231/5/3 221/5/3 230/5/3
f 232/5/3 221/5/3 231/5/3
f 234/5/3 222/5/3 209/5/3
f 235/5/3 222/5/3 234/5/3
f 236/10/3 225/10/3 224/10/3
f 236/5/3 224/5/3 223/5/3
f 237/5/3 226/5/3 225/5/3
f 237/10/3 225/10/3 236/10/3
f 238/10/3 227/10/3 226/10/3
f 238/5/3 226/5/3 237/5/3
f 239/5/3 228/5/3 227/5/3
f 239/10/3 227/10/3 238/10/3
f 239/5/3 229/5/3 228/5/3
f 239/5/3 230/5/3 229/5/3
f 240/4/3 231/4/3 230/4/3
f 240/5/3 230/5/3 239/5/3
f 241/5/3 233/5/3 232/5/3
f 241/4/3 231/4/3 240/4/3
f 241/5/3 232/5/3 231/5/3
f 242/5/3 233/5/3 241/5/3
f 243/5/3 233/5/3 242/5/3
f 245/5/3 238/5/3 237/5/3
f 245/5/3 237/5/3 236/5/3
f 245/5/3 236/5/3 223/5/3
f 245/5/3 240/5/3 239/5/3
f 245/5/3 241/5/3 240/5/3
f 245/5/3 239/5/3 238/5/3
f 246/5/3 241/5/3 245/5/3
f 247/5/3 241/5/3 246/5/3
f 248/10/3 242/10/3 241/10/3
f 248/5/3 241/5/3 247/5/3
f 249/5/3 244/5/3 243/5/3
f 249/10/3 242/10/3 248/10/3
f 249/5/3 243/5/3 242/5/3
f 250/5/3 244/5/3 249/5/3
f 251/5/3 234/5/3 209/5/3
f 252/10/3 246/10/3 245/10/3
f 252/5/3 245/5/3 223/5/3
f 253/5/3 247/5/3 246/5/3
f 253/10/3 246/10/3 252/10/3
f 254/10/3 248/10/3 247/10/3
f 254/5/3 247/5/3 253/5/3
f 254/10/3 249/10/3 248/10/3
f 254/10/3 250/10/3 249/10/3
f 255/10/3 250/10/3 254/10/3
f 256/10/3 250/10/3 255/10/3
f 257/5/3 244/5/3 250/5/3
f 257/10/3 250/10/3 256/10/3
f 258/5/3 244/5/3 257/5/3
f 259/5/3 234/5/3 251/5/3
f 260/2/3 235/2/3 234/2/3
f 260/5/3 234/5/3 259/5/3
f 261/5/3 222/5/3 235/5/3
f 261/2/3 235/2/3 260/2/3
f 262/5/3 253/5/3 252/5/3
f 262/5/3 252/5/3 223/5/3
f 262/5/3 254/5/3 253/5/3
f 262/5/3 255/5/3 254/5/3
f 263/5/3 255/5/3 262/5/3
f 264/10/3 256/10/3 255/10/3
f 264/5/3 255/5/3 263/5/3
f 265/5/3 258/5/3 257/5/3
f 265/10/3 256/10/3 264/10/3
f 265/5/3 257/5/3 256/5/3
f 266/5/3 258/5/3 265/5/3
f 267/5/3 258/5/3 266/5/3
f 268/5/3 260/5/3 259/5/3
f 268/5/3 222/5/3 261/5/3
f 268/5/3 261/5/3 260/5/3
f 268/2/3 223/2/3 222/2/3
f 269/5/3 262/5/3 223/5/3
f 269/2/3 223/2/3 268/2/3
f 270/10/3 263/10/3 262/10/3
f 270/5/3 262/5/3 269/5/3
f 271/10/3 263/10/3 270/10/3
f 272/10/3 263/10/3 271/10/3
f 273/10/3 263/10/3 272/10/3
f 274/5/3 266/5/3 265/5/3
f 274/5/3 265/5/3 264/5/3
f 274/5/3 264/5/3 263/5/3
f 275/5/3 266/5/3 274/5/3
f 276/5/3 269/5/3 268/5/3
f 276/10/3 272/10/3 271/10/3
f 276/5/3 270/5/3 269/5/3
f 276/5/3 271/5/3 270/5/3
f 277/5/3 273/5/3 272/5/3
f 277/10/3 272/10/3 276/10/3
f 278/10/3 263/10/3 273/10/3
f 278/5/3 273/5/3 277/5/3
f 279/5/3 274/5/3 263/5/3
f 279/10/3 263/10/3 278/10/3
f 280/5/3 274/5/3 279/5/3
f 281/5/3 274/5/3 280/5/3
f 282/5/3 277/5/3 276/5/3
f 282/5/3 276/5/3 268/5/3
f 282/5/3 268/5/3 259/5/3
f 283/10/3 278/10/3 277/10/3
f 283/5/3 277/5/3 282/5/3
f 284/5/3 280/5/3 279/5/3
f 284/10/3 278/10/3 283/10/3
f 284/5/3 279/5/3 278/5/3
f 285/5/3 280/5/3 284/5/3
f 286/5/3 280/5/3 285/5/3
f 287/5/3 283/5/3 282/5/3
f 287/5/3 284/5/3 283/5/3
f 287/5/3 285/5/3 284/5/3
f 288/5/3 285/5/3 287/5/3
f 289/5/3 285/5/3 288/5/3
f 292/5/3 291/5/3 290/5/3
f 293/5/3 291/5/3 292/5/3
f 296/5/3 295/5/3 294/5/3
f 297/5/3 295/5/3 296/5/3
f 298/6/4 299/6/4 300/6/4
f 300/6/4 299/6/4 301/6/4
f 302/5/4 303/5/4 304/5/4
f 304/5/4 303/5/4 305/5/4
f 306/5/4 307/5/4 308/5/4
f 308/5/4 307/5/4 309/5/4
f 310/5/4 311/5/4 312/5/4
f 312/5/4 313/5/4 314/5/4
f 314/5/4 315/5/4 316/5/4
f 314/5/4 316/5/4 318/5/4
f 316/5/4 317/5/4 318/5/4
f 318/5/4 317/5/4 319/5/4
f 314/5/4 318/5/4 320/5/4
f 318/7/4 319/7/4 320/7/4
f 320/7/4 319/7/4 321/7/4
f 314/5/4 320/5/4 322/5/4
f 320/5/4 321/5/4 322/5/4
f 322/5/4 321/5/4 323/5/4
f 312/5/4 314/5/4 324/5/4
f 314/5/4 322/5/4 324/5/4
f 324/5/4 322/5/4 325/5/4
f 310/5/4 312/5/4 326/5/4
f 312/5/4 324/5/4 326/5/4
f 326/5/4 324/5/4 327/5/4
f 310/5/4 326/5/4 328/5/4
f 328/5/4 326/5/4 329/5/4
f 330/5/4 331/5/4 332/5/4
f 332/5/4 331/5/4 333/5/4
f 336/5/5 335/5/5 334/5/5
f 337/5/5 335/5/5 336/5/5
f 342/5/5 339/5/5 338/5/5
f 343/5/5 339/5/5 342/5/5
f 344/5/5 341/5/5 340/5/5
f 345/5/5 341/5/5 344/5/5
f 350/5/5 347/5/5 346/5/5
f 351/5/5 347/5/5 350/5/5
f 352/3/5 349/3/5 348/3/5
f 353/3/5 349/3/5 352/3/5
f 358/5/5 355/5/5 354/5/5
f 359/5/5 355/5/5 358/5/5
f 360/5/5 357/5/5 356/5/5
f 361/5/5 357/5/5 360/5/5
f 366/5/5 363/5/5 362/5/5
f 367/5/5 363/5/5 366/5/5
f 368/5/5 365/5/5 364/5/5
f 369/5/5 365/5/5 368/5/5
f 374/5/5 371/5/5 370/5/5
f 375/5/5 371/5/5 374/5/5
f 376/5/5 373/5/5 372/5/5
f 377/5/5 373/5/5 376/5/5
f 381/5/5 379/5/5 378/5/5
f 382/7/5 380/7/5 379/7/5
f 382/5/5 379/5/5 381/5/5
f 383/7/5 380/7/5 382/7/5
f 384/5/6 385/5/6 386/5/6
f 386/5/6 385/5/6 387/5/6
f 384/5/6 386/5/6 388/5/6
f 387/5/6 385/5/6 389/5/6
f 384/5/6 388/5/6 390/5/6
f 388/5/6 389/5/6 390/5/6
f 390/5/6 389/5/6 391/5/6
f 389/5/6 385/5/6 392/5/6
f 391/5/6 389/5/6 392/5/6
f 392/5/6 385/5/6 393/5/6
f 391/5/6 392/5/6 394/5/6
f 394/5/6 392/5/6 395/5/6
f 395/5/6 392/5/6 396/5/6
f 396/5/6 392/5/6 397/5/6
f 397/5/6 392/5/6 398/5/6
f 398/5/6 392/5/6 399/5/6
f 384/5/6 390/5/6 400/5/6
f 393/5/6 385/5/6 403/5/6
f 400/5/6 401/5/6 404/5/6
f 384/5/6 400/5/6 404/5/6
f 404/5/6 401/5/6 405/5/6
f 402/5/6 403/5/6 406/5/6
f 403/5/6 385/5/6 407/5/6
f 406/5/6 403/5/6 407/5/6
f 384/5/6 404/5/6 408/5/6
f 407/5/6 385/5/6 409/5/6
f 384/5/6 408/5/6 410/5/6
f 408/5/6 409/5/6 410/5/6
f 409/5/6 385/5/6 411/5/6
f 410/5/6 409/5/6 411/5/6
f 412/6/6 413/6/6 414/6/6
f 414/6/6 413/6/6 415/6/6
f 416/5/6 417/5/6 420/5/6
f 420/5/6 417/5/6 421/5/6
f 418/5/6 419/5/6 426/5/6
f 426/5/6 419/5/6 427/5/6
f 421/11/6 422/11/6 428/11/6
f 422/5/6 423/5/6 429/5/6
f 428/11/6 422/11/6 429/11/6
f 423/8/6 424/8/6 430/8/6
f 429/5/6 423/5/6 430/5/6
f 424/5/6 425/5/6 431/5/6
f 430/8/6 424/8/6 431/8/6
f 425/1/6 426/1/6 432/1/6
f 431/5/6 425/5/6 432/5/6
f 432/1/6 426/1/6 433/1/6
f 436/3/6 437/3/6 439/3/6
f 437/5/6 438/5/6 440/5/6
f 439/3/6 437/3/6 440/3/6
f 434/5/6 435/5/6 441/5/6
f 441/5/6 435/5/6 442/5/6
f 439/5/6 440/5/6 443/5/6
f 440/5/6 438/5/6 444/5/6
f 443/5/6 440/5/6 444/5/6
f 445/5/6 446/5/6 449/5/6
f 449/5/6 446/5/6 450/5/6
f 447/5/6 448/5/6 451/5/6
f 451/5/6 448/5/6 452/5/6
f 453/3/6 454/3/6 457/3/6
f 457/3/6 454/3/6 458/3/6
f 457/5/6 458/5/6 459/5/6
f 459/5/6 458/5/6 460/5/6
f 455/5/6 456/5/6 461/5/6
f 461/5/6 456/5/6 462/5/6
f 463/5/6 464/5/6 467/5/6
f 464/7/6 465/7/6 468/7/6
f 467/5/6 464/5/6 468/5/6
f 465/5/6 466/5/6 469/5/6
f 468/7/6 465/7/6 469/7/6
f 469/5/6 466/5/6 470/5/6
