# MagicaVoxel @ Ephtracy

# group
o 

# material
mtllib Present3.mtl
usemtl palette

# normals
vn -1 0 0
vn 1 0 0
vn 0 0 1
vn 0 0 -1
vn 0 -1 0
vn 0 1 0

# texcoords
vt 0.0644531 0.5
vt 0.208984 0.5
vt 0.373047 0.5
vt 0.591797 0.5
vt 0.748047 0.5
vt 0.904297 0.5

# verts
v -1 0.5 0.4
v -1 0.5 -0.4
v -1 3 0.4
v -1 3 -0.4
v -0.9 0.4 0.4
v -0.9 0.4 -0.4
v -0.9 0.5 0.9
v -0.9 0.5 0.4
v -0.9 0.5 -0.4
v -0.9 0.5 -0.9
v -0.9 3 0.9
v -0.9 3 0.4
v -0.9 3 -0.4
v -0.9 3 -0.9
v -0.9 3.1 0.4
v -0.9 3.1 -0.4
v -0.5 3.4 0.2
v -0.5 3.4 -0.4
v -0.5 3.6 0.2
v -0.5 3.6 -0.4
v -0.4 3.3 0.2
v -0.4 3.3 -0.4
v -0.4 3.4 0.2
v -0.4 3.4 -0.4
v -0.3 0.4 0.9
v -0.3 0.4 0.4
v -0.3 0.5 1
v -0.3 0.5 0.9
v -0.3 0.5 0.4
v -0.3 3 1
v -0.3 3 0.9
v -0.3 3 0.4
v -0.3 3 -0.4
v -0.3 3 -0.9
v -0.3 3.1 0.9
v -0.3 3.1 0.4
v -0.3 3.1 -0.4
v -0.3 3.1 -0.9
v -0.3 3.2 0.2
v -0.3 3.2 -0.3
v -0.3 3.3 0.2
v -0.3 3.3 -0.3
v -0.2 0.4 -0.4
v -0.2 0.4 -0.9
v -0.2 0.5 -0.4
v -0.2 0.5 -0.9
v -0.2 0.5 -1
v -0.2 3 -0.9
v -0.2 3 -1
v -0.2 3.1 0.2
v -0.2 3.1 -0.3
v -0.2 3.2 0.2
v -0.2 3.2 -0.3
v -0.2 3.4 0.2
v -0.2 3.4 -0.4
v -0.2 3.5 0.2
v -0.2 3.5 -0.4
v -0.0999999 3.3 0.2
v -0.0999999 3.3 -0.3
v -0.0999999 3.4 0.2
v -0.0999999 3.4 -0.3
v 1.19209e-07 3.1 0.2
v 1.19209e-07 3.1 -0.3
v 1.19209e-07 3.3 0.2
v 1.19209e-07 3.3 -0.3
v 0.2 3.1 0.2
v 0.2 3.1 -0.3
v 0.2 3.2 0.2
v 0.2 3.2 -0.3
v 0.3 3.2 0.2
v 0.3 3.2 -0.3
v 0.3 3.3 0.2
v 0.3 3.3 -0.3
v 0.4 3.1 0.2
v 0.4 3.1 -0.3
v 0.4 3.2 0.2
v 0.4 3.2 -0.3
v 0.4 3.3 0.2
v 0.4 3.3 -0.3
v 0.4 3.4 0.2
v 0.4 3.4 -0.3
v 0.5 3.2 0.2
v 0.5 3.2 -0.3
v 0.5 3.3 0.2
v 0.5 3.3 -0.3
v 0.5 3.4 0.2
v 0.5 3.4 -0.3
v 0.5 3.5 0.2
v 0.5 3.5 -0.3
v 0.6 3.3 0.2
v 0.6 3.3 -0.3
v 0.6 3.4 0.2
v 0.6 3.4 -0.3
v 0.6 3.5 0.2
v 0.6 3.5 -0.3
v 0.6 3.6 0.2
v 0.6 3.6 -0.3
v 0.7 3.4 0.2
v 0.7 3.4 -0.3
v 0.7 3.5 0.2
v 0.7 3.5 -0.3
v -0.4 3.4 0.2
v -0.4 3.4 -0.4
v -0.4 3.5 0.2
v -0.4 3.5 -0.2
v -0.4 3.5 -0.3
v -0.4 3.5 -0.4
v -0.3 3.3 0.2
v -0.3 3.3 -0.3
v -0.3 3.3 -0.4
v -0.3 3.4 0.2
v -0.3 3.4 -0.4
v -0.2 3.2 0.2
v -0.2 3.2 -0.3
v -0.2 3.3 0.2
v -0.2 3.3 -0.3
v -0.2 3.5 0.2
v -0.2 3.5 -0.4
v -0.2 3.6 0.2
v -0.2 3.6 -0.4
v -0.0999999 3.1 0.2
v -0.0999999 3.1 -0.3
v -0.0999999 3.2 0.2
v -0.0999999 3.2 -0.3
v -0.0999999 3.4 0.2
v -0.0999999 3.4 -0.3
v -0.0999999 3.4 -0.4
v -0.0999999 3.5 0.2
v -0.0999999 3.5 -0.4
v 1.19209e-07 3.3 0.2
v 1.19209e-07 3.3 -0.3
v 1.19209e-07 3.4 0.2
v 1.19209e-07 3.4 -0.3
v 0.1 3.1 0.2
v 0.1 3.1 -0.3
v 0.1 3.3 0.2
v 0.1 3.3 -0.3
v 0.3 3.1 0.2
v 0.3 3.1 -0.3
v 0.3 3.2 0.2
v 0.3 3.2 -0.3
v 0.4 0.4 0.9
v 0.4 0.4 0.4
v 0.4 0.4 -0.4
v 0.4 0.4 -0.9
v 0.4 0.5 1
v 0.4 0.5 0.9
v 0.4 0.5 0.4
v 0.4 0.5 -0.4
v 0.4 0.5 -0.9
v 0.4 0.5 -1
v 0.4 3 1
v 0.4 3 0.9
v 0.4 3 0.4
v 0.4 3 -0.4
v 0.4 3 -0.9
v 0.4 3 -1
v 0.4 3.1 0.9
v 0.4 3.1 0.4
v 0.4 3.1 -0.4
v 0.4 3.1 -0.9
v 0.4 3.2 0.2
v 0.4 3.2 -0.3
v 0.4 3.3 0.2
v 0.4 3.3 -0.3
v 0.5 3.1 0.2
v 0.5 3.1 -0.3
v 0.5 3.2 0.2
v 0.5 3.2 -0.3
v 0.5 3.3 0.2
v 0.5 3.3 -0.3
v 0.5 3.4 0.2
v 0.5 3.4 -0.3
v 0.6 3.2 0.2
v 0.6 3.2 -0.3
v 0.6 3.3 0.2
v 0.6 3.3 -0.3
v 0.6 3.4 0.2
v 0.6 3.4 -0.3
v 0.6 3.5 0.2
v 0.6 3.5 -0.3
v 0.7 3.3 0.2
v 0.7 3.3 -0.3
v 0.7 3.4 0.2
v 0.7 3.4 -0.3
v 0.8 3.4 0.2
v 0.8 3.4 -0.3
v 0.8 3.6 0.2
v 0.8 3.6 -0.3
v 1 0.4 0.4
v 1 0.4 -0.4
v 1 0.5 0.9
v 1 0.5 0.4
v 1 0.5 -0.4
v 1 0.5 -0.9
v 1 3 0.9
v 1 3 0.4
v 1 3 -0.4
v 1 3 -0.9
v 1 3.1 0.4
v 1 3.1 -0.4
v 1.1 0.5 0.4
v 1.1 0.5 -0.4
v 1.1 3 0.4
v 1.1 3 -0.4
v -0.3 0.5 1
v -0.3 3 1
v 0.4 0.5 1
v 0.4 3 1
v -0.9 0.5 0.9
v -0.9 3 0.9
v -0.3 0.4 0.9
v -0.3 0.5 0.9
v -0.3 3 0.9
v -0.3 3.1 0.9
v 0.4 0.4 0.9
v 0.4 0.5 0.9
v 0.4 3 0.9
v 0.4 3.1 0.9
v 1 0.5 0.9
v 1 3 0.9
v -1 0.5 0.4
v -1 3 0.4
v -0.9 0.4 0.4
v -0.9 0.5 0.4
v -0.9 3 0.4
v -0.9 3.1 0.4
v -0.3 0.4 0.4
v -0.3 0.5 0.4
v -0.3 3 0.4
v -0.3 3.1 0.4
v 0.4 0.4 0.4
v 0.4 0.5 0.4
v 0.4 3 0.4
v 0.4 3.1 0.4
v 1 0.4 0.4
v 1 0.5 0.4
v 1 3 0.4
v 1 3.1 0.4
v 1.1 0.5 0.4
v 1.1 3 0.4
v -0.5 3.4 0.2
v -0.5 3.6 0.2
v -0.4 3.3 0.2
v -0.4 3.4 0.2
v -0.4 3.5 0.2
v -0.3 3.2 0.2
v -0.3 3.3 0.2
v -0.3 3.4 0.2
v -0.2 3.1 0.2
v -0.2 3.2 0.2
v -0.2 3.3 0.2
v -0.2 3.4 0.2
v -0.2 3.5 0.2
v -0.2 3.6 0.2
v -0.0999999 3.1 0.2
v -0.0999999 3.2 0.2
v -0.0999999 3.3 0.2
v -0.0999999 3.4 0.2
v -0.0999999 3.5 0.2
v 1.19209e-07 3.1 0.2
v 1.19209e-07 3.3 0.2
v 1.19209e-07 3.4 0.2
v 0.1 3.1 0.2
v 0.1 3.3 0.2
v 0.2 3.1 0.2
v 0.2 3.2 0.2
v 0.3 3.1 0.2
v 0.3 3.2 0.2
v 0.3 3.3 0.2
v 0.4 3.1 0.2
v 0.4 3.2 0.2
v 0.4 3.3 0.2
v 0.4 3.4 0.2
v 0.5 3.1 0.2
v 0.5 3.2 0.2
v 0.5 3.3 0.2
v 0.5 3.4 0.2
v 0.5 3.5 0.2
v 0.6 3.2 0.2
v 0.6 3.3 0.2
v 0.6 3.4 0.2
v 0.6 3.5 0.2
v 0.6 3.6 0.2
v 0.7 3.3 0.2
v 0.7 3.4 0.2
v 0.7 3.5 0.2
v 0.8 3.4 0.2
v 0.8 3.6 0.2
v -0.3 3.2 -0.3
v -0.3 3.3 -0.3
v -0.2 3.1 -0.3
v -0.2 3.2 -0.3
v -0.2 3.3 -0.3
v -0.0999999 3.1 -0.3
v -0.0999999 3.2 -0.3
v -0.0999999 3.3 -0.3
v -0.0999999 3.4 -0.3
v 1.19209e-07 3.1 -0.3
v 1.19209e-07 3.3 -0.3
v 1.19209e-07 3.4 -0.3
v 0.1 3.1 -0.3
v 0.1 3.3 -0.3
v 0.2 3.1 -0.3
v 0.2 3.2 -0.3
v 0.3 3.1 -0.3
v 0.3 3.2 -0.3
v 0.3 3.3 -0.3
v 0.4 3.1 -0.3
v 0.4 3.2 -0.3
v 0.4 3.3 -0.3
v 0.4 3.4 -0.3
v 0.5 3.1 -0.3
v 0.5 3.2 -0.3
v 0.5 3.3 -0.3
v 0.5 3.4 -0.3
v 0.5 3.5 -0.3
v 0.6 3.2 -0.3
v 0.6 3.3 -0.3
v 0.6 3.4 -0.3
v 0.6 3.5 -0.3
v 0.6 3.6 -0.3
v 0.7 3.3 -0.3
v 0.7 3.4 -0.3
v 0.7 3.5 -0.3
v 0.8 3.4 -0.3
v 0.8 3.6 -0.3
v -1 0.5 -0.4
v -1 3 -0.4
v -0.9 0.4 -0.4
v -0.9 0.5 -0.4
v -0.9 3 -0.4
v -0.9 3.1 -0.4
v -0.5 3.4 -0.4
v -0.5 3.6 -0.4
v -0.4 3.3 -0.4
v -0.4 3.4 -0.4
v -0.4 3.5 -0.4
v -0.3 3 -0.4
v -0.3 3.1 -0.4
v -0.3 3.3 -0.4
v -0.3 3.4 -0.4
v -0.2 0.4 -0.4
v -0.2 0.5 -0.4
v -0.2 3.4 -0.4
v -0.2 3.5 -0.4
v -0.2 3.6 -0.4
v -0.0999999 3.4 -0.4
v -0.0999999 3.5 -0.4
v 0.4 0.4 -0.4
v 0.4 0.5 -0.4
v 0.4 3 -0.4
v 0.4 3.1 -0.4
v 1 0.4 -0.4
v 1 0.5 -0.4
v 1 3 -0.4
v 1 3.1 -0.4
v 1.1 0.5 -0.4
v 1.1 3 -0.4
v -0.9 0.5 -0.9
v -0.9 3 -0.9
v -0.3 3 -0.9
v -0.3 3.1 -0.9
v -0.2 0.4 -0.9
v -0.2 0.5 -0.9
v -0.2 3 -0.9
v 0.4 0.4 -0.9
v 0.4 0.5 -0.9
v 0.4 3 -0.9
v 0.4 3.1 -0.9
v 1 0.5 -0.9
v 1 3 -0.9
v -0.2 0.5 -1
v -0.2 3 -1
v 0.4 0.5 -1
v 0.4 3 -1
v -0.3 0.4 0.9
v 0.4 0.4 0.9
v -0.9 0.4 0.4
v -0.3 0.4 0.4
v 0.4 0.4 0.4
v 1 0.4 0.4
v -0.9 0.4 -0.4
v -0.2 0.4 -0.4
v 0.4 0.4 -0.4
v 1 0.4 -0.4
v -0.2 0.4 -0.9
v 0.4 0.4 -0.9
v -0.3 0.5 1
v 0.4 0.5 1
v -0.9 0.5 0.9
v -0.3 0.5 0.9
v 0.4 0.5 0.9
v 1 0.5 0.9
v -1 0.5 0.4
v -0.9 0.5 0.4
v -0.3 0.5 0.4
v 0.4 0.5 0.4
v 1 0.5 0.4
v 1.1 0.5 0.4
v -1 0.5 -0.4
v -0.9 0.5 -0.4
v -0.2 0.5 -0.4
v 0.4 0.5 -0.4
v 1 0.5 -0.4
v 1.1 0.5 -0.4
v -0.9 0.5 -0.9
v -0.2 0.5 -0.9
v 0.4 0.5 -0.9
v 1 0.5 -0.9
v -0.2 0.5 -1
v 0.4 0.5 -1
v -0.3 3.2 0.2
v -0.2 3.2 0.2
v 0.3 3.2 0.2
v 0.4 3.2 0.2
v 0.5 3.2 0.2
v 0.6 3.2 0.2
v -0.3 3.2 -0.3
v -0.2 3.2 -0.3
v 0.3 3.2 -0.3
v 0.4 3.2 -0.3
v 0.5 3.2 -0.3
v 0.6 3.2 -0.3
v -0.4 3.3 0.2
v -0.3 3.3 0.2
v -0.0999999 3.3 0.2
v 1.19209e-07 3.3 0.2
v 0.4 3.3 0.2
v 0.5 3.3 0.2
v 0.6 3.3 0.2
v 0.7 3.3 0.2
v -0.3 3.3 -0.3
v -0.0999999 3.3 -0.3
v 1.19209e-07 3.3 -0.3
v 0.4 3.3 -0.3
v 0.5 3.3 -0.3
v 0.6 3.3 -0.3
v 0.7 3.3 -0.3
v -0.4 3.3 -0.4
v -0.3 3.3 -0.4
v -0.5 3.4 0.2
v -0.4 3.4 0.2
v -0.2 3.4 0.2
v -0.0999999 3.4 0.2
v 0.5 3.4 0.2
v 0.6 3.4 0.2
v 0.7 3.4 0.2
v 0.8 3.4 0.2
v -0.0999999 3.4 -0.3
v 0.5 3.4 -0.3
v 0.6 3.4 -0.3
v 0.7 3.4 -0.3
v 0.8 3.4 -0.3
v -0.5 3.4 -0.4
v -0.4 3.4 -0.4
v -0.2 3.4 -0.4
v -0.0999999 3.4 -0.4
v -0.4 3.5 0.2
v -0.2 3.5 0.2
v 0.6 3.5 0.2
v 0.7 3.5 0.2
v -0.4 3.5 -0.2
v -0.3 3.5 -0.2
v -0.4 3.5 -0.3
v -0.3 3.5 -0.3
v 0.6 3.5 -0.3
v 0.7 3.5 -0.3
v -0.4 3.5 -0.4
v -0.2 3.5 -0.4
v -0.3 3 1
v 0.4 3 1
v -0.9 3 0.9
v -0.3 3 0.9
v 0.4 3 0.9
v 1 3 0.9
v -1 3 0.4
v -0.9 3 0.4
v -0.3 3 0.4
v 0.4 3 0.4
v 1 3 0.4
v 1.1 3 0.4
v -1 3 -0.4
v -0.9 3 -0.4
v -0.3 3 -0.4
v 0.4 3 -0.4
v 1 3 -0.4
v 1.1 3 -0.4
v -0.9 3 -0.9
v -0.3 3 -0.9
v -0.2 3 -0.9
v 0.4 3 -0.9
v 1 3 -0.9
v -0.2 3 -1
v 0.4 3 -1
v -0.3 3.1 0.9
v 0.4 3.1 0.9
v -0.9 3.1 0.4
v -0.3 3.1 0.4
v 0.4 3.1 0.4
v 1 3.1 0.4
v -0.2 3.1 0.2
v -0.0999999 3.1 0.2
v 1.19209e-07 3.1 0.2
v 0.1 3.1 0.2
v 0.2 3.1 0.2
v 0.3 3.1 0.2
v 0.4 3.1 0.2
v 0.5 3.1 0.2
v -0.2 3.1 -0.3
v -0.0999999 3.1 -0.3
v 1.19209e-07 3.1 -0.3
v 0.1 3.1 -0.3
v 0.2 3.1 -0.3
v 0.3 3.1 -0.3
v 0.4 3.1 -0.3
v 0.5 3.1 -0.3
v -0.9 3.1 -0.4
v -0.3 3.1 -0.4
v 0.4 3.1 -0.4
v 1 3.1 -0.4
v -0.3 3.1 -0.9
v 0.4 3.1 -0.9
v -0.2 3.2 0.2
v -0.0999999 3.2 0.2
v 0.2 3.2 0.2
v 0.3 3.2 0.2
v 0.4 3.2 0.2
v 0.5 3.2 0.2
v -0.2 3.2 -0.3
v -0.0999999 3.2 -0.3
v 0.2 3.2 -0.3
v 0.3 3.2 -0.3
v 0.4 3.2 -0.3
v 0.5 3.2 -0.3
v -0.3 3.3 0.2
v -0.2 3.3 0.2
v 1.19209e-07 3.3 0.2
v 0.1 3.3 0.2
v 0.3 3.3 0.2
v 0.4 3.3 0.2
v 0.5 3.3 0.2
v 0.6 3.3 0.2
v -0.3 3.3 -0.3
v -0.2 3.3 -0.3
v 1.19209e-07 3.3 -0.3
v 0.1 3.3 -0.3
v 0.3 3.3 -0.3
v 0.4 3.3 -0.3
v 0.5 3.3 -0.3
v 0.6 3.3 -0.3
v -0.4 3.4 0.2
v -0.3 3.4 0.2
v -0.0999999 3.4 0.2
v 1.19209e-07 3.4 0.2
v 0.4 3.4 0.2
v 0.5 3.4 0.2
v 0.6 3.4 0.2
v 0.7 3.4 0.2
v -0.0999999 3.4 -0.3
v 1.19209e-07 3.4 -0.3
v 0.4 3.4 -0.3
v 0.5 3.4 -0.3
v 0.6 3.4 -0.3
v 0.7 3.4 -0.3
v -0.4 3.4 -0.4
v -0.3 3.4 -0.4
v -0.2 3.5 0.2
v -0.0999999 3.5 0.2
v 0.5 3.5 0.2
v 0.6 3.5 0.2
v 0.5 3.5 -0.3
v 0.6 3.5 -0.3
v -0.2 3.5 -0.4
v -0.0999999 3.5 -0.4
v -0.5 3.6 0.2
v -0.2 3.6 0.2
v 0.6 3.6 0.2
v 0.8 3.6 0.2
v -0.4 3.6 -0.2
v -0.3 3.6 -0.2
v -0.4 3.6 -0.3
v -0.3 3.6 -0.3
v 0.6 3.6 -0.3
v 0.8 3.6 -0.3
v -0.5 3.6 -0.4
v -0.2 3.6 -0.4

# faces
f 3/6/1 2/6/1 1/6/1
f 4/6/1 2/6/1 3/6/1
f 8/6/1 6/6/1 5/6/1
f 9/6/1 6/6/1 8/6/1
f 11/3/1 8/3/1 7/3/1
f 12/3/1 8/3/1 11/3/1
f 13/3/1 10/3/1 9/3/1
f 14/3/1 10/3/1 13/3/1
f 15/6/1 13/6/1 12/6/1
f 16/6/1 13/6/1 15/6/1
f 19/6/1 18/6/1 17/6/1
f 20/6/1 18/6/1 19/6/1
f 23/6/1 22/6/1 21/6/1
f 24/6/1 22/6/1 23/6/1
f 28/6/1 26/6/1 25/6/1
f 29/6/1 26/6/1 28/6/1
f 30/6/1 28/6/1 27/6/1
f 31/6/1 28/6/1 30/6/1
f 35/6/1 32/6/1 31/6/1
f 36/6/1 32/6/1 35/6/1
f 37/6/1 34/6/1 33/6/1
f 38/6/1 34/6/1 37/6/1
f 41/6/1 40/6/1 39/6/1
f 42/6/1 40/6/1 41/6/1
f 45/6/1 44/6/1 43/6/1
f 46/6/1 44/6/1 45/6/1
f 48/6/1 47/6/1 46/6/1
f 49/6/1 47/6/1 48/6/1
f 52/6/1 51/6/1 50/6/1
f 53/6/1 51/6/1 52/6/1
f 56/6/1 55/6/1 54/6/1
f 57/6/1 55/6/1 56/6/1
f 60/6/1 59/6/1 58/6/1
f 61/6/1 59/6/1 60/6/1
f 64/6/1 63/6/1 62/6/1
f 65/6/1 63/6/1 64/6/1
f 68/6/1 67/6/1 66/6/1
f 69/6/1 67/6/1 68/6/1
f 72/6/1 71/6/1 70/6/1
f 73/6/1 71/6/1 72/6/1
f 76/6/1 75/6/1 74/6/1
f 77/6/1 75/6/1 76/6/1
f 80/6/1 79/6/1 78/6/1
f 81/6/1 79/6/1 80/6/1
f 84/6/1 83/6/1 82/6/1
f 85/6/1 83/6/1 84/6/1
f 88/6/1 87/6/1 86/6/1
f 89/6/1 87/6/1 88/6/1
f 92/6/1 91/6/1 90/6/1
f 93/6/1 91/6/1 92/6/1
f 96/6/1 95/6/1 94/6/1
f 97/6/1 95/6/1 96/6/1
f 100/6/1 99/6/1 98/6/1
f 101/6/1 99/6/1 100/6/1
f 102/6/2 103/6/2 104/6/2
f 104/6/2 103/6/2 105/6/2
f 105/6/2 103/6/2 106/6/2
f 106/6/2 103/6/2 107/6/2
f 108/6/2 109/6/2 111/6/2
f 109/6/2 110/6/2 111/6/2
f 111/6/2 110/6/2 112/6/2
f 113/6/2 114/6/2 115/6/2
f 115/6/2 114/6/2 116/6/2
f 117/6/2 118/6/2 119/6/2
f 119/6/2 118/6/2 120/6/2
f 121/6/2 122/6/2 123/6/2
f 123/6/2 122/6/2 124/6/2
f 125/6/2 126/6/2 128/6/2
f 126/6/2 127/6/2 128/6/2
f 128/6/2 127/6/2 129/6/2
f 130/6/2 131/6/2 132/6/2
f 132/6/2 131/6/2 133/6/2
f 134/6/2 135/6/2 136/6/2
f 136/6/2 135/6/2 137/6/2
f 138/6/2 139/6/2 140/6/2
f 140/6/2 139/6/2 141/6/2
f 142/6/2 143/6/2 147/6/2
f 147/6/2 143/6/2 148/6/2
f 144/6/2 145/6/2 149/6/2
f 149/6/2 145/6/2 150/6/2
f 146/6/2 147/6/2 152/6/2
f 152/6/2 147/6/2 153/6/2
f 150/6/2 151/6/2 156/6/2
f 156/6/2 151/6/2 157/6/2
f 153/6/2 154/6/2 158/6/2
f 158/6/2 154/6/2 159/6/2
f 155/6/2 156/6/2 160/6/2
f 160/6/2 156/6/2 161/6/2
f 162/6/2 163/6/2 164/6/2
f 164/6/2 163/6/2 165/6/2
f 166/6/2 167/6/2 168/6/2
f 168/6/2 167/6/2 169/6/2
f 170/6/2 171/6/2 172/6/2
f 172/6/2 171/6/2 173/6/2
f 174/6/2 175/6/2 176/6/2
f 176/6/2 175/6/2 177/6/2
f 178/6/2 179/6/2 180/6/2
f 180/6/2 179/6/2 181/6/2
f 182/6/2 183/6/2 184/6/2
f 184/6/2 183/6/2 185/6/2
f 186/6/2 187/6/2 188/6/2
f 188/6/2 187/6/2 189/6/2
f 190/6/2 191/6/2 193/6/2
f 193/6/2 191/6/2 194/6/2
f 192/3/2 193/3/2 196/3/2
f 196/3/2 193/3/2 197/3/2
f 194/3/2 195/3/2 198/3/2
f 198/3/2 195/3/2 199/3/2
f 197/6/2 198/6/2 200/6/2
f 200/6/2 198/6/2 201/6/2
f 202/6/2 203/6/2 204/6/2
f 204/6/2 203/6/2 205/6/2
f 208/6/3 207/6/3 206/6/3
f 209/6/3 207/6/3 208/6/3
f 213/3/3 211/3/3 210/3/3
f 214/3/3 211/3/3 213/3/3
f 216/6/3 213/6/3 212/6/3
f 217/6/3 213/6/3 216/6/3
f 218/6/3 215/6/3 214/6/3
f 219/6/3 215/6/3 218/6/3
f 220/3/3 218/3/3 217/3/3
f 221/3/3 218/3/3 220/3/3
f 225/6/3 223/6/3 222/6/3
f 226/6/3 223/6/3 225/6/3
f 228/6/3 225/6/3 224/6/3
f 229/6/3 225/6/3 228/6/3
f 230/6/3 227/6/3 226/6/3
f 231/6/3 227/6/3 230/6/3
f 236/6/3 233/6/3 232/6/3
f 237/6/3 233/6/3 236/6/3
f 238/6/3 235/6/3 234/6/3
f 239/6/3 235/6/3 238/6/3
f 240/6/3 238/6/3 237/6/3
f 241/6/3 238/6/3 240/6/3
f 245/6/3 243/6/3 242/6/3
f 246/6/3 243/6/3 245/6/3
f 248/6/3 245/6/3 244/6/3
f 249/6/3 245/6/3 248/6/3
f 251/6/3 248/6/3 247/6/3
f 252/6/3 248/6/3 251/6/3
f 254/6/3 243/6/3 246/6/3
f 255/6/3 243/6/3 254/6/3
f 256/6/3 251/6/3 250/6/3
f 257/6/3 251/6/3 256/6/3
f 259/6/3 254/6/3 253/6/3
f 260/6/3 254/6/3 259/6/3
f 262/6/3 259/6/3 258/6/3
f 263/6/3 259/6/3 262/6/3
f 264/6/3 262/6/3 261/6/3
f 265/6/3 262/6/3 264/6/3
f 268/6/3 267/6/3 266/6/3
f 269/6/3 267/6/3 268/6/3
f 272/6/3 270/6/3 269/6/3
f 273/6/3 270/6/3 272/6/3
f 275/6/3 272/6/3 271/6/3
f 276/6/3 272/6/3 275/6/3
f 277/6/3 274/6/3 273/6/3
f 278/6/3 274/6/3 277/6/3
f 280/6/3 277/6/3 276/6/3
f 281/6/3 277/6/3 280/6/3
f 282/6/3 279/6/3 278/6/3
f 283/6/3 279/6/3 282/6/3
f 285/6/3 282/6/3 281/6/3
f 286/6/3 282/6/3 285/6/3
f 287/6/3 284/6/3 283/6/3
f 288/6/3 287/6/3 286/6/3
f 289/6/3 284/6/3 287/6/3
f 289/6/3 287/6/3 288/6/3
f 290/6/4 291/6/4 293/6/4
f 293/6/4 291/6/4 294/6/4
f 292/6/4 293/6/4 295/6/4
f 295/6/4 293/6/4 296/6/4
f 297/6/4 298/6/4 300/6/4
f 300/6/4 298/6/4 301/6/4
f 299/6/4 300/6/4 302/6/4
f 302/6/4 300/6/4 303/6/4
f 304/6/4 305/6/4 306/6/4
f 306/6/4 305/6/4 307/6/4
f 307/6/4 308/6/4 310/6/4
f 310/6/4 308/6/4 311/6/4
f 309/6/4 310/6/4 313/6/4
f 313/6/4 310/6/4 314/6/4
f 311/6/4 312/6/4 315/6/4
f 315/6/4 312/6/4 316/6/4
f 314/6/4 315/6/4 318/6/4
f 318/6/4 315/6/4 319/6/4
f 316/6/4 317/6/4 320/6/4
f 320/6/4 317/6/4 321/6/4
f 319/6/4 320/6/4 323/6/4
f 323/6/4 320/6/4 324/6/4
f 321/6/4 322/6/4 325/6/4
f 324/6/4 325/6/4 326/6/4
f 325/6/4 322/6/4 327/6/4
f 326/6/4 325/6/4 327/6/4
f 328/6/4 329/6/4 331/6/4
f 331/6/4 329/6/4 332/6/4
f 334/6/4 335/6/4 337/6/4
f 337/6/4 335/6/4 338/6/4
f 332/6/4 333/6/4 339/6/4
f 339/6/4 333/6/4 340/6/4
f 336/6/4 337/6/4 341/6/4
f 341/6/4 337/6/4 342/6/4
f 330/6/4 331/6/4 343/6/4
f 343/6/4 331/6/4 344/6/4
f 338/6/4 335/6/4 346/6/4
f 346/6/4 335/6/4 347/6/4
f 345/6/4 346/6/4 348/6/4
f 348/6/4 346/6/4 349/6/4
f 350/6/4 351/6/4 354/6/4
f 354/6/4 351/6/4 355/6/4
f 352/6/4 353/6/4 356/6/4
f 356/6/4 353/6/4 357/6/4
f 355/6/4 356/6/4 358/6/4
f 358/6/4 356/6/4 359/6/4
f 360/3/4 361/3/4 362/3/4
f 360/3/4 362/3/4 365/3/4
f 362/6/4 363/6/4 366/6/4
f 365/3/4 362/3/4 366/3/4
f 364/6/4 365/6/4 367/6/4
f 367/6/4 365/6/4 368/6/4
f 366/6/4 363/6/4 369/6/4
f 369/6/4 363/6/4 370/6/4
f 368/3/4 369/3/4 371/3/4
f 371/3/4 369/3/4 372/3/4
f 373/6/4 374/6/4 375/6/4
f 375/6/4 374/6/4 376/6/4
f 380/6/5 378/6/5 377/6/5
f 381/6/5 378/6/5 380/6/5
f 383/6/5 380/6/5 379/6/5
f 383/6/5 382/6/5 381/6/5
f 383/6/5 381/6/5 380/6/5
f 384/6/5 382/6/5 383/6/5
f 385/6/5 382/6/5 384/6/5
f 386/6/5 382/6/5 385/6/5
f 387/6/5 385/6/5 384/6/5
f 388/6/5 385/6/5 387/6/5
f 392/6/5 390/6/5 389/6/5
f 393/6/5 390/6/5 392/6/5
f 396/3/5 392/3/5 391/3/5
f 397/3/5 392/3/5 396/3/5
f 398/3/5 394/3/5 393/3/5
f 399/3/5 394/3/5 398/3/5
f 401/6/5 396/6/5 395/6/5
f 402/6/5 396/6/5 401/6/5
f 405/6/5 400/6/5 399/6/5
f 406/6/5 400/6/5 405/6/5
f 407/3/5 403/3/5 402/3/5
f 408/3/5 403/3/5 407/3/5
f 409/3/5 405/3/5 404/3/5
f 410/3/5 405/3/5 409/3/5
f 411/6/5 409/6/5 408/6/5
f 412/6/5 409/6/5 411/6/5
f 419/6/5 414/6/5 413/6/5
f 420/6/5 414/6/5 419/6/5
f 421/6/5 416/6/5 415/6/5
f 422/6/5 416/6/5 421/6/5
f 423/6/5 418/6/5 417/6/5
f 424/6/5 418/6/5 423/6/5
f 433/6/5 426/6/5 425/6/5
f 434/6/5 428/6/5 427/6/5
f 435/6/5 428/6/5 434/6/5
f 436/6/5 430/6/5 429/6/5
f 437/6/5 430/6/5 436/6/5
f 438/6/5 432/6/5 431/6/5
f 439/6/5 432/6/5 438/6/5
f 440/6/5 433/6/5 425/6/5
f 441/6/5 433/6/5 440/6/5
f 450/6/5 445/6/5 444/6/5
f 451/6/5 447/6/5 446/6/5
f 452/6/5 447/6/5 451/6/5
f 453/6/5 449/6/5 448/6/5
f 454/6/5 449/6/5 453/6/5
f 455/6/5 443/6/5 442/6/5
f 456/6/5 443/6/5 455/6/5
f 457/6/5 450/6/5 444/6/5
f 458/6/5 450/6/5 457/6/5
f 463/6/5 460/6/5 459/6/5
f 464/6/5 460/6/5 463/6/5
f 465/2/5 464/2/5 463/2/5
f 466/6/5 460/6/5 464/6/5
f 466/2/5 464/2/5 465/2/5
f 467/6/5 462/6/5 461/6/5
f 468/6/5 462/6/5 467/6/5
f 469/6/5 466/6/5 465/6/5
f 470/6/5 460/6/5 466/6/5
f 470/6/5 466/6/5 469/6/5
f 471/6/6 472/6/6 474/6/6
f 474/6/6 472/6/6 475/6/6
f 473/3/6 474/3/6 478/3/6
f 478/3/6 474/3/6 479/3/6
f 475/3/6 476/3/6 480/3/6
f 480/3/6 476/3/6 481/3/6
f 477/6/6 478/6/6 483/6/6
f 483/6/6 478/6/6 484/6/6
f 481/6/6 482/6/6 487/6/6
f 487/6/6 482/6/6 488/6/6
f 484/3/6 485/3/6 489/3/6
f 489/3/6 485/3/6 490/3/6
f 486/3/6 487/3/6 492/3/6
f 492/3/6 487/3/6 493/3/6
f 491/6/6 492/6/6 494/6/6
f 494/6/6 492/6/6 495/6/6
f 496/6/6 497/6/6 499/6/6
f 499/6/6 497/6/6 500/6/6
f 498/6/6 499/6/6 502/6/6
f 500/6/6 501/6/6 502/6/6
f 499/6/6 500/6/6 502/6/6
f 502/6/6 501/6/6 503/6/6
f 503/6/6 501/6/6 504/6/6
f 504/6/6 501/6/6 505/6/6
f 505/6/6 501/6/6 506/6/6
f 506/6/6 501/6/6 507/6/6
f 507/6/6 501/6/6 508/6/6
f 508/6/6 501/6/6 509/6/6
f 498/6/6 502/6/6 510/6/6
f 503/6/6 504/6/6 511/6/6
f 511/6/6 504/6/6 512/6/6
f 505/6/6 506/6/6 513/6/6
f 513/6/6 506/6/6 514/6/6
f 507/6/6 508/6/6 515/6/6
f 515/6/6 508/6/6 516/6/6
f 509/6/6 501/6/6 517/6/6
f 515/6/6 516/6/6 518/6/6
f 516/6/6 517/6/6 518/6/6
f 513/6/6 514/6/6 518/6/6
f 498/6/6 510/6/6 518/6/6
f 514/6/6 515/6/6 518/6/6
f 511/6/6 512/6/6 518/6/6
f 512/6/6 513/6/6 518/6/6
f 510/6/6 511/6/6 518/6/6
f 518/6/6 517/6/6 519/6/6
f 519/6/6 517/6/6 520/6/6
f 517/6/6 501/6/6 521/6/6
f 520/6/6 517/6/6 521/6/6
f 519/6/6 520/6/6 522/6/6
f 522/6/6 520/6/6 523/6/6
f 524/6/6 525/6/6 530/6/6
f 530/6/6 525/6/6 531/6/6
f 526/6/6 527/6/6 532/6/6
f 532/6/6 527/6/6 533/6/6
f 528/6/6 529/6/6 534/6/6
f 534/6/6 529/6/6 535/6/6
f 536/6/6 537/6/6 544/6/6
f 544/6/6 537/6/6 545/6/6
f 538/6/6 539/6/6 546/6/6
f 546/6/6 539/6/6 547/6/6
f 540/6/6 541/6/6 548/6/6
f 548/6/6 541/6/6 549/6/6
f 542/6/6 543/6/6 550/6/6
f 550/6/6 543/6/6 551/6/6
f 554/6/6 555/6/6 560/6/6
f 560/6/6 555/6/6 561/6/6
f 556/6/6 557/6/6 562/6/6
f 562/6/6 557/6/6 563/6/6
f 558/6/6 559/6/6 564/6/6
f 564/6/6 559/6/6 565/6/6
f 552/6/6 553/6/6 566/6/6
f 566/6/6 553/6/6 567/6/6
f 570/6/6 571/6/6 572/6/6
f 572/6/6 571/6/6 573/6/6
f 568/6/6 569/6/6 574/6/6
f 574/6/6 569/6/6 575/6/6
f 576/6/6 577/6/6 580/6/6
f 580/6/6 577/6/6 581/6/6
f 576/6/6 580/6/6 582/6/6
f 580/2/6 581/2/6 582/2/6
f 581/6/6 577/6/6 583/6/6
f 582/2/6 581/2/6 583/2/6
f 578/6/6 579/6/6 584/6/6
f 584/6/6 579/6/6 585/6/6
f 576/6/6 582/6/6 586/6/6
f 582/6/6 583/6/6 586/6/6
f 583/6/6 577/6/6 587/6/6
f 586/6/6 583/6/6 587/6/6
