# MagicaVoxel @ Ephtracy

# group
o 

# material
mtllib Keyboard_but_vox.mtl
usemtl palette

# normals
vn -1 0 0
vn 1 0 0
vn 0 0 1
vn 0 0 -1
vn 0 -1 0
vn 0 1 0

# texcoords
vt 0.251953 0.5
vt 0.255859 0.5
vt 0.259766 0.5

# verts
v -0.3 0 0.9
v -0.3 0 -0.9
v -0.3 0.1 0.9
v -0.3 0.1 -0.9
v 0.4 0 0.9
v 0.4 0 -0.9
v 0.4 0.1 0.9
v 0.4 0.1 -0.9
v -0.3 0 0.9
v -0.3 0.1 0.9
v 0.4 0 0.9
v 0.4 0.1 0.9
v -0.3 0 -0.9
v -0.3 0.1 -0.9
v 0.4 0 -0.9
v 0.4 0.1 -0.9
v -0.3 0 0.9
v 0.4 0 0.9
v -0.2 0 0.8
v -0.1 0 0.8
v 0.3 0 0.8
v -0.2 0 0.7
v -0.1 0 0.7
v 0.2 0 0.5
v 0.3 0 0.5
v 0.2 0 0
v 0.3 0 0
v 0.2 0 -0.2
v 0.3 0 -0.2
v 0.1 0 -0.3
v 0.2 0 -0.3
v 0.1 0 -0.4
v 0.2 0 -0.4
v 0.2 0 -0.5
v 0.3 0 -0.5
v -0.2 0 -0.8
v 0.3 0 -0.8
v -0.3 0 -0.9
v 0.4 0 -0.9
v -0.3 0.1 0.9
v 0.4 0.1 0.9
v -0.2 0.1 0.8
v -0.1 0.1 0.8
v 0.3 0.1 0.8
v -0.2 0.1 0.7
v -0.1 0.1 0.7
v 0.2 0.1 0.5
v 0.3 0.1 0.5
v 0.2 0.1 0
v 0.3 0.1 0
v 0.2 0.1 -0.2
v 0.3 0.1 -0.2
v 0.1 0.1 -0.3
v 0.2 0.1 -0.3
v 0.1 0.1 -0.4
v 0.2 0.1 -0.4
v 0.2 0.1 -0.5
v 0.3 0.1 -0.5
v -0.2 0.1 -0.8
v 0.3 0.1 -0.8
v -0.3 0.1 -0.9
v 0.4 0.1 -0.9

# faces
f 3/1/1 2/1/1 1/1/1
f 4/1/1 2/1/1 3/1/1
f 5/1/2 6/1/2 7/1/2
f 7/1/2 6/1/2 8/1/2
f 11/1/3 10/1/3 9/1/3
f 12/1/3 10/1/3 11/1/3
f 13/1/4 14/1/4 15/1/4
f 15/1/4 14/1/4 16/1/4
f 19/1/5 18/1/5 17/1/5
f 20/1/5 18/1/5 19/1/5
f 21/1/5 18/1/5 20/1/5
f 22/1/5 19/1/5 17/1/5
f 22/2/5 20/2/5 19/2/5
f 23/3/5 21/3/5 20/3/5
f 23/2/5 20/2/5 22/2/5
f 24/3/5 23/3/5 22/3/5
f 24/3/5 21/3/5 23/3/5
f 25/1/5 18/1/5 21/1/5
f 25/3/5 21/3/5 24/3/5
f 26/3/5 24/3/5 22/3/5
f 26/2/5 25/2/5 24/2/5
f 27/1/5 18/1/5 25/1/5
f 27/2/5 25/2/5 26/2/5
f 28/3/5 26/3/5 22/3/5
f 28/3/5 27/3/5 26/3/5
f 29/1/5 18/1/5 27/1/5
f 29/3/5 27/3/5 28/3/5
f 30/3/5 28/3/5 22/3/5
f 31/2/5 29/2/5 28/2/5
f 31/3/5 28/3/5 30/3/5
f 32/3/5 30/3/5 22/3/5
f 32/2/5 31/2/5 30/2/5
f 33/2/5 29/2/5 31/2/5
f 33/2/5 31/2/5 32/2/5
f 34/3/5 33/3/5 32/3/5
f 34/2/5 29/2/5 33/2/5
f 35/1/5 18/1/5 29/1/5
f 35/2/5 29/2/5 34/2/5
f 36/3/5 34/3/5 32/3/5
f 36/1/5 22/1/5 17/1/5
f 36/3/5 35/3/5 34/3/5
f 36/3/5 32/3/5 22/3/5
f 37/1/5 18/1/5 35/1/5
f 37/3/5 35/3/5 36/3/5
f 38/1/5 36/1/5 17/1/5
f 38/1/5 37/1/5 36/1/5
f 39/1/5 18/1/5 37/1/5
f 39/1/5 37/1/5 38/1/5
f 40/1/6 41/1/6 42/1/6
f 42/1/6 41/1/6 43/1/6
f 43/1/6 41/1/6 44/1/6
f 40/1/6 42/1/6 45/1/6
f 42/2/6 43/2/6 45/2/6
f 43/3/6 44/3/6 46/3/6
f 45/2/6 43/2/6 46/2/6
f 45/3/6 46/3/6 47/3/6
f 46/3/6 44/3/6 47/3/6
f 44/1/6 41/1/6 48/1/6
f 47/3/6 44/3/6 48/3/6
f 45/3/6 47/3/6 49/3/6
f 47/2/6 48/2/6 49/2/6
f 48/1/6 41/1/6 50/1/6
f 49/2/6 48/2/6 50/2/6
f 45/3/6 49/3/6 51/3/6
f 49/3/6 50/3/6 51/3/6
f 50/1/6 41/1/6 52/1/6
f 51/3/6 50/3/6 52/3/6
f 45/3/6 51/3/6 53/3/6
f 51/2/6 52/2/6 54/2/6
f 53/3/6 51/3/6 54/3/6
f 45/3/6 53/3/6 55/3/6
f 53/2/6 54/2/6 55/2/6
f 54/2/6 52/2/6 56/2/6
f 55/2/6 54/2/6 56/2/6
f 55/3/6 56/3/6 57/3/6
f 56/2/6 52/2/6 57/2/6
f 52/1/6 41/1/6 58/1/6
f 57/2/6 52/2/6 58/2/6
f 55/3/6 57/3/6 59/3/6
f 40/1/6 45/1/6 59/1/6
f 57/3/6 58/3/6 59/3/6
f 45/3/6 55/3/6 59/3/6
f 58/1/6 41/1/6 60/1/6
f 59/3/6 58/3/6 60/3/6
f 40/1/6 59/1/6 61/1/6
f 59/1/6 60/1/6 61/1/6
f 60/1/6 41/1/6 62/1/6
f 61/1/6 60/1/6 62/1/6
