# MagicaVoxel @ Ephtracy

# group
o 

# material
mtllib F2_Rose.mtl
usemtl palette

# normals
vn -1 0 0
vn 1 0 0
vn 0 0 1
vn 0 0 -1
vn 0 -1 0
vn 0 1 0

# texcoords
vt 0.00195313 0.5
vt 0.00976563 0.5
vt 0.0136719 0.5
vt 0.0175781 0.5

# verts
v -2.7 0 2.7
v -2.7 0 -2.7
v -2.7 0.4 2.7
v -2.7 0.4 -2.7
v 2.6 0.3 2.6
v 2.6 0.3 -2.6
v 2.6 0.4 2.6
v 2.6 0.4 -2.6
v -2.6 0.3 2.6
v -2.6 0.3 -2.6
v -2.6 0.4 2.6
v -2.6 0.4 -2.6
v 2.7 0 2.7
v 2.7 0 -2.7
v 2.7 0.4 2.7
v 2.7 0.4 -2.7
v -2.7 0 2.7
v -2.7 0.4 2.7
v 2.7 0 2.7
v 2.7 0.4 2.7
v -2.6 0.3 -2.6
v -2.6 0.4 -2.6
v 2.6 0.3 -2.6
v 2.6 0.4 -2.6
v -2.6 0.3 2.6
v -2.6 0.4 2.6
v 2.6 0.3 2.6
v 2.6 0.4 2.6
v -2.7 0 -2.7
v -2.7 0.4 -2.7
v 2.7 0 -2.7
v 2.7 0.4 -2.7
v -2.7 0 2.7
v 2.7 0 2.7
v -2.7 0 -2.7
v 2.7 0 -2.7
v -2.6 0.3 2.6
v 2.6 0.3 2.6
v -2.3 0.3 2.3
v -1.3 0.3 2.3
v -1.1 0.3 2.3
v -0.0999999 0.3 2.3
v 0.1 0.3 2.3
v 1.1 0.3 2.3
v 1.3 0.3 2.3
v 2.3 0.3 2.3
v 0.5 0.3 2
v 0.6 0.3 2
v -1.8 0.3 1.9
v -1.7 0.3 1.9
v -0.9 0.3 1.9
v -0.8 0.3 1.9
v 0.5 0.3 1.9
v 0.6 0.3 1.9
v 1.4 0.3 1.9
v 1.5 0.3 1.9
v 1.8 0.3 1.9
v 1.9 0.3 1.9
v -2 0.3 1.8
v -1.9 0.3 1.8
v -1.8 0.3 1.8
v -1.7 0.3 1.8
v -0.9 0.3 1.8
v -0.8 0.3 1.8
v -0.4 0.3 1.8
v -0.3 0.3 1.8
v 0.7 0.3 1.8
v 0.8 0.3 1.8
v 1.4 0.3 1.8
v 1.5 0.3 1.8
v 1.8 0.3 1.8
v 1.9 0.3 1.8
v -2 0.3 1.7
v -1.9 0.3 1.7
v -0.4 0.3 1.7
v -0.3 0.3 1.7
v 0.4 0.3 1.7
v 0.5 0.3 1.7
v 0.7 0.3 1.7
v 0.8 0.3 1.7
v -1.8 0.3 1.6
v -1.7 0.3 1.6
v -0.9 0.3 1.6
v -0.8 0.3 1.6
v 0.4 0.3 1.6
v 0.5 0.3 1.6
v 1.5 0.3 1.6
v 1.6 0.3 1.6
v -1.8 0.3 1.5
v -1.7 0.3 1.5
v -0.9 0.3 1.5
v -0.8 0.3 1.5
v 1.5 0.3 1.5
v 1.6 0.3 1.5
v -2.3 0.3 1.3
v -1.3 0.3 1.3
v -1.1 0.3 1.3
v -0.0999999 0.3 1.3
v 0.1 0.3 1.3
v 1.1 0.3 1.3
v 1.3 0.3 1.3
v 2.3 0.3 1.3
v -2.3 0.3 1.1
v -1.3 0.3 1.1
v -1.1 0.3 1.1
v -0.0999999 0.3 1.1
v 0.1 0.3 1.1
v 1.1 0.3 1.1
v 1.3 0.3 1.1
v 2.3 0.3 1.1
v 0.4 0.3 0.9
v 0.5 0.3 0.9
v -2 0.3 0.8
v -1.9 0.3 0.8
v -0.5 0.3 0.8
v -0.4 0.3 0.8
v 0.4 0.3 0.8
v 0.5 0.3 0.8
v 1.9 0.3 0.8
v 2 0.3 0.8
v -2 0.3 0.7
v -1.9 0.3 0.7
v -0.8 0.3 0.7
v -0.7 0.3 0.7
v -0.5 0.3 0.7
v -0.4 0.3 0.7
v 0.4 0.3 0.7
v 0.5 0.3 0.7
v 1.9 0.3 0.7
v 2 0.3 0.7
v -0.8 0.3 0.6
v -0.7 0.3 0.6
v 0.4 0.3 0.6
v 0.5 0.3 0.6
v 1.5 0.3 0.6
v 1.6 0.3 0.6
v -1.7 0.3 0.5
v -1.6 0.3 0.5
v -0.6 0.3 0.5
v -0.5 0.3 0.5
v 0.6 0.3 0.5
v 0.7 0.3 0.5
v 1.5 0.3 0.5
v 1.6 0.3 0.5
v -2 0.3 0.4
v -1.9 0.3 0.4
v -1.7 0.3 0.4
v -1.6 0.3 0.4
v -0.6 0.3 0.4
v -0.5 0.3 0.4
v 0.6 0.3 0.4
v 0.7 0.3 0.4
v 1.7 0.3 0.4
v 1.8 0.3 0.4
v -2 0.3 0.3
v -1.9 0.3 0.3
v 1.7 0.3 0.3
v 1.8 0.3 0.3
v -2.3 0.3 0.0999999
v -1.3 0.3 0.0999999
v -1.1 0.3 0.0999999
v -0.0999999 0.3 0.0999999
v 0.1 0.3 0.0999999
v 1.1 0.3 0.0999999
v 1.3 0.3 0.0999999
v 2.3 0.3 0.0999999
v -2.3 0.3 -0.1
v -1.3 0.3 -0.1
v -1.1 0.3 -0.1
v -0.0999999 0.3 -0.1
v 0.1 0.3 -0.1
v 1.1 0.3 -0.1
v 1.3 0.3 -0.1
v 2.3 0.3 -0.1
v -1.7 0.3 -0.3
v -1.6 0.3 -0.3
v 2.1 0.3 -0.3
v 2.2 0.3 -0.3
v -2 0.3 -0.4
v -1.9 0.3 -0.4
v -1.7 0.3 -0.4
v -1.6 0.3 -0.4
v -0.6 0.3 -0.4
v -0.5 0.3 -0.4
v 0.8 0.3 -0.4
v 0.9 0.3 -0.4
v 2.1 0.3 -0.4
v 2.2 0.3 -0.4
v -2 0.3 -0.5
v -1.9 0.3 -0.5
v -0.6 0.3 -0.5
v -0.5 0.3 -0.5
v 0.4 0.3 -0.5
v 0.5 0.3 -0.5
v 0.8 0.3 -0.5
v 0.9 0.3 -0.5
v -0.9 0.3 -0.6
v -0.8 0.3 -0.6
v 0.4 0.3 -0.6
v 0.5 0.3 -0.6
v 1.5 0.3 -0.6
v 1.6 0.3 -0.6
v -2 0.3 -0.7
v -1.9 0.3 -0.7
v -0.9 0.3 -0.7
v -0.8 0.3 -0.7
v 0.6 0.3 -0.7
v 0.7 0.3 -0.7
v 1.5 0.3 -0.7
v 1.6 0.3 -0.7
v -2 0.3 -0.8
v -1.9 0.3 -0.8
v -0.6 0.3 -0.8
v -0.5 0.3 -0.8
v 0.6 0.3 -0.8
v 0.7 0.3 -0.8
v 1.7 0.3 -0.8
v 1.8 0.3 -0.8
v -0.6 0.3 -0.9
v -0.5 0.3 -0.9
v 1.7 0.3 -0.9
v 1.8 0.3 -0.9
v -2.3 0.3 -1.1
v -1.3 0.3 -1.1
v -1.1 0.3 -1.1
v -0.0999999 0.3 -1.1
v 0.1 0.3 -1.1
v 1.1 0.3 -1.1
v 1.3 0.3 -1.1
v 2.3 0.3 -1.1
v -2.3 0.3 -1.3
v -1.3 0.3 -1.3
v -1.1 0.3 -1.3
v -0.0999999 0.3 -1.3
v 0.1 0.3 -1.3
v 1.1 0.3 -1.3
v 1.3 0.3 -1.3
v 2.3 0.3 -1.3
v -1.6 0.3 -1.5
v -1.5 0.3 -1.5
v 0.7 0.3 -1.5
v 0.8 0.3 -1.5
v -1.6 0.3 -1.6
v -1.5 0.3 -1.6
v -0.5 0.3 -1.6
v -0.4 0.3 -1.6
v 0.4 0.3 -1.6
v 0.5 0.3 -1.6
v 0.7 0.3 -1.6
v 0.8 0.3 -1.6
v -2.1 0.3 -1.7
v -2 0.3 -1.7
v -0.5 0.3 -1.7
v -0.4 0.3 -1.7
v 0.4 0.3 -1.7
v 0.5 0.3 -1.7
v 1.9 0.3 -1.7
v 2 0.3 -1.7
v -2.1 0.3 -1.8
v -2 0.3 -1.8
v -1 0.3 -1.8
v -0.9 0.3 -1.8
v 1.4 0.3 -1.8
v 1.5 0.3 -1.8
v 1.9 0.3 -1.8
v 2 0.3 -1.8
v -1 0.3 -1.9
v -0.9 0.3 -1.9
v 0.4 0.3 -1.9
v 0.5 0.3 -1.9
v 1.4 0.3 -1.9
v 1.5 0.3 -1.9
v -1.9 0.3 -2
v -1.8 0.3 -2
v -0.6 0.3 -2
v -0.5 0.3 -2
v 0.4 0.3 -2
v 0.5 0.3 -2
v 1.7 0.3 -2
v 1.8 0.3 -2
v -1.9 0.3 -2.1
v -1.8 0.3 -2.1
v -0.6 0.3 -2.1
v -0.5 0.3 -2.1
v 1.7 0.3 -2.1
v 1.8 0.3 -2.1
v -2.3 0.3 -2.3
v -1.3 0.3 -2.3
v -1.1 0.3 -2.3
v -0.0999999 0.3 -2.3
v 0.1 0.3 -2.3
v 1.1 0.3 -2.3
v 1.3 0.3 -2.3
v 2.3 0.3 -2.3
v -2.6 0.3 -2.6
v 2.6 0.3 -2.6
v -2.7 0.4 2.7
v 2.7 0.4 2.7
v -2.6 0.4 2.6
v 2.6 0.4 2.6
v -2.6 0.4 -2.6
v 2.6 0.4 -2.6
v -2.7 0.4 -2.7
v 2.7 0.4 -2.7

# faces
f 3/1/1 2/1/1 1/1/1
f 4/1/1 2/1/1 3/1/1
f 7/1/1 6/1/1 5/1/1
f 8/1/1 6/1/1 7/1/1
f 9/1/2 10/1/2 11/1/2
f 11/1/2 10/1/2 12/1/2
f 13/1/2 14/1/2 15/1/2
f 15/1/2 14/1/2 16/1/2
f 19/1/3 18/1/3 17/1/3
f 20/1/3 18/1/3 19/1/3
f 23/1/3 22/1/3 21/1/3
f 24/1/3 22/1/3 23/1/3
f 25/1/4 26/1/4 27/1/4
f 27/1/4 26/1/4 28/1/4
f 29/1/4 30/1/4 31/1/4
f 31/1/4 30/1/4 32/1/4
f 35/1/5 34/1/5 33/1/5
f 36/1/5 34/1/5 35/1/5
f 37/4/6 38/4/6 39/4/6
f 39/4/6 38/4/6 40/4/6
f 40/4/6 38/4/6 41/4/6
f 41/4/6 38/4/6 42/4/6
f 42/4/6 38/4/6 43/4/6
f 43/4/6 38/4/6 44/4/6
f 44/4/6 38/4/6 45/4/6
f 45/4/6 38/4/6 46/4/6
f 43/2/6 44/2/6 47/2/6
f 47/2/6 44/2/6 48/2/6
f 39/2/6 40/2/6 49/2/6
f 49/2/6 40/2/6 50/2/6
f 41/2/6 42/2/6 51/2/6
f 51/2/6 42/2/6 52/2/6
f 43/2/6 47/2/6 53/2/6
f 47/3/6 48/3/6 53/3/6
f 48/2/6 44/2/6 54/2/6
f 53/3/6 48/3/6 54/3/6
f 45/2/6 46/2/6 55/2/6
f 55/2/6 46/2/6 56/2/6
f 56/2/6 46/2/6 57/2/6
f 57/2/6 46/2/6 58/2/6
f 39/2/6 49/2/6 59/2/6
f 59/2/6 49/2/6 60/2/6
f 49/3/6 50/3/6 61/3/6
f 60/2/6 49/2/6 61/2/6
f 50/2/6 40/2/6 62/2/6
f 61/3/6 50/3/6 62/3/6
f 51/3/6 52/3/6 63/3/6
f 41/2/6 51/2/6 63/2/6
f 52/2/6 42/2/6 64/2/6
f 63/3/6 52/3/6 64/3/6
f 64/2/6 42/2/6 65/2/6
f 65/2/6 42/2/6 66/2/6
f 54/2/6 44/2/6 67/2/6
f 53/2/6 54/2/6 67/2/6
f 67/2/6 44/2/6 68/2/6
f 45/2/6 55/2/6 69/2/6
f 55/3/6 56/3/6 69/3/6
f 56/2/6 57/2/6 70/2/6
f 69/3/6 56/3/6 70/3/6
f 57/3/6 58/3/6 71/3/6
f 70/2/6 57/2/6 71/2/6
f 58/2/6 46/2/6 72/2/6
f 71/3/6 58/3/6 72/3/6
f 59/3/6 60/3/6 73/3/6
f 39/2/6 59/2/6 73/2/6
f 60/2/6 61/2/6 74/2/6
f 73/3/6 60/3/6 74/3/6
f 61/2/6 62/2/6 74/2/6
f 65/3/6 66/3/6 75/3/6
f 63/2/6 64/2/6 75/2/6
f 64/2/6 65/2/6 75/2/6
f 66/2/6 42/2/6 76/2/6
f 75/3/6 66/3/6 76/3/6
f 43/2/6 53/2/6 77/2/6
f 53/2/6 67/2/6 77/2/6
f 77/2/6 67/2/6 78/2/6
f 67/3/6 68/3/6 79/3/6
f 78/2/6 67/2/6 79/2/6
f 68/2/6 44/2/6 80/2/6
f 79/3/6 68/3/6 80/3/6
f 74/2/6 62/2/6 81/2/6
f 73/2/6 74/2/6 81/2/6
f 62/2/6 40/2/6 82/2/6
f 81/2/6 62/2/6 82/2/6
f 63/2/6 75/2/6 83/2/6
f 41/2/6 63/2/6 83/2/6
f 75/2/6 76/2/6 83/2/6
f 83/2/6 76/2/6 84/2/6
f 43/2/6 77/2/6 85/2/6
f 77/3/6 78/3/6 85/3/6
f 78/2/6 79/2/6 86/2/6
f 85/3/6 78/3/6 86/3/6
f 79/2/6 80/2/6 86/2/6
f 70/2/6 71/2/6 87/2/6
f 69/2/6 70/2/6 87/2/6
f 71/2/6 72/2/6 87/2/6
f 87/2/6 72/2/6 88/2/6
f 81/3/6 82/3/6 89/3/6
f 73/2/6 81/2/6 89/2/6
f 82/2/6 40/2/6 90/2/6
f 89/3/6 82/3/6 90/3/6
f 83/3/6 84/3/6 91/3/6
f 41/2/6 83/2/6 91/2/6
f 84/2/6 76/2/6 92/2/6
f 91/3/6 84/3/6 92/3/6
f 87/3/6 88/3/6 93/3/6
f 69/2/6 87/2/6 93/2/6
f 88/2/6 72/2/6 94/2/6
f 93/3/6 88/3/6 94/3/6
f 37/4/6 39/4/6 95/4/6
f 39/2/6 73/2/6 95/2/6
f 73/2/6 89/2/6 95/2/6
f 89/2/6 90/2/6 95/2/6
f 40/4/6 41/4/6 96/4/6
f 95/2/6 90/2/6 96/2/6
f 90/2/6 40/2/6 96/2/6
f 91/2/6 92/2/6 97/2/6
f 96/4/6 41/4/6 97/4/6
f 41/2/6 91/2/6 97/2/6
f 76/2/6 42/2/6 98/2/6
f 97/2/6 92/2/6 98/2/6
f 42/4/6 43/4/6 98/4/6
f 92/2/6 76/2/6 98/2/6
f 85/2/6 86/2/6 99/2/6
f 98/4/6 43/4/6 99/4/6
f 43/2/6 85/2/6 99/2/6
f 44/4/6 45/4/6 100/4/6
f 99/2/6 86/2/6 100/2/6
f 80/2/6 44/2/6 100/2/6
f 86/2/6 80/2/6 100/2/6
f 93/2/6 94/2/6 101/2/6
f 100/4/6 45/4/6 101/4/6
f 69/2/6 93/2/6 101/2/6
f 45/2/6 69/2/6 101/2/6
f 94/2/6 72/2/6 102/2/6
f 101/2/6 94/2/6 102/2/6
f 46/4/6 38/4/6 102/4/6
f 72/2/6 46/2/6 102/2/6
f 100/4/6 101/4/6 103/4/6
f 96/4/6 97/4/6 103/4/6
f 101/4/6 102/4/6 103/4/6
f 98/4/6 99/4/6 103/4/6
f 95/4/6 96/4/6 103/4/6
f 97/4/6 98/4/6 103/4/6
f 99/4/6 100/4/6 103/4/6
f 37/4/6 95/4/6 103/4/6
f 103/4/6 102/4/6 104/4/6
f 104/4/6 102/4/6 105/4/6
f 105/4/6 102/4/6 106/4/6
f 106/4/6 102/4/6 107/4/6
f 107/4/6 102/4/6 108/4/6
f 108/4/6 102/4/6 109/4/6
f 102/4/6 38/4/6 110/4/6
f 109/4/6 102/4/6 110/4/6
f 107/2/6 108/2/6 111/2/6
f 111/2/6 108/2/6 112/2/6
f 103/2/6 104/2/6 113/2/6
f 113/2/6 104/2/6 114/2/6
f 105/2/6 106/2/6 115/2/6
f 115/2/6 106/2/6 116/2/6
f 107/2/6 111/2/6 117/2/6
f 111/3/6 112/3/6 117/3/6
f 112/2/6 108/2/6 118/2/6
f 117/3/6 112/3/6 118/3/6
f 109/2/6 110/2/6 119/2/6
f 119/2/6 110/2/6 120/2/6
f 103/2/6 113/2/6 121/2/6
f 113/3/6 114/3/6 121/3/6
f 114/2/6 104/2/6 122/2/6
f 121/3/6 114/3/6 122/3/6
f 105/2/6 115/2/6 123/2/6
f 123/2/6 115/2/6 124/2/6
f 115/3/6 116/3/6 125/3/6
f 124/2/6 115/2/6 125/2/6
f 116/2/6 106/2/6 126/2/6
f 125/3/6 116/3/6 126/3/6
f 107/2/6 117/2/6 127/2/6
f 117/2/6 118/2/6 127/2/6
f 118/2/6 108/2/6 128/2/6
f 127/2/6 118/2/6 128/2/6
f 119/3/6 120/3/6 129/3/6
f 109/2/6 119/2/6 129/2/6
f 120/2/6 110/2/6 130/2/6
f 129/3/6 120/3/6 130/3/6
f 123/3/6 124/3/6 131/3/6
f 105/2/6 123/2/6 131/2/6
f 124/2/6 125/2/6 132/2/6
f 131/3/6 124/3/6 132/3/6
f 125/2/6 126/2/6 132/2/6
f 107/2/6 127/2/6 133/2/6
f 127/3/6 128/3/6 133/3/6
f 128/2/6 108/2/6 134/2/6
f 133/3/6 128/3/6 134/3/6
f 109/2/6 129/2/6 135/2/6
f 129/2/6 130/2/6 135/2/6
f 135/2/6 130/2/6 136/2/6
f 122/2/6 104/2/6 137/2/6
f 121/2/6 122/2/6 137/2/6
f 137/2/6 104/2/6 138/2/6
f 132/2/6 126/2/6 139/2/6
f 131/2/6 132/2/6 139/2/6
f 139/2/6 126/2/6 140/2/6
f 134/2/6 108/2/6 141/2/6
f 133/2/6 134/2/6 141/2/6
f 141/2/6 108/2/6 142/2/6
f 135/3/6 136/3/6 143/3/6
f 109/2/6 135/2/6 143/2/6
f 136/2/6 130/2/6 144/2/6
f 143/3/6 136/3/6 144/3/6
f 103/2/6 121/2/6 145/2/6
f 121/2/6 137/2/6 145/2/6
f 145/2/6 137/2/6 146/2/6
f 137/3/6 138/3/6 147/3/6
f 146/2/6 137/2/6 147/2/6
f 138/2/6 104/2/6 148/2/6
f 147/3/6 138/3/6 148/3/6
f 139/3/6 140/3/6 149/3/6
f 131/2/6 139/2/6 149/2/6
f 140/2/6 126/2/6 150/2/6
f 149/3/6 140/3/6 150/3/6
f 141/3/6 142/3/6 151/3/6
f 133/2/6 141/2/6 151/2/6
f 142/2/6 108/2/6 152/2/6
f 151/3/6 142/3/6 152/3/6
f 144/2/6 130/2/6 153/2/6
f 143/2/6 144/2/6 153/2/6
f 153/2/6 130/2/6 154/2/6
f 145/3/6 146/3/6 155/3/6
f 103/2/6 145/2/6 155/2/6
f 146/2/6 147/2/6 156/2/6
f 155/3/6 146/3/6 156/3/6
f 147/2/6 148/2/6 156/2/6
f 143/2/6 153/2/6 157/2/6
f 153/3/6 154/3/6 157/3/6
f 154/2/6 130/2/6 158/2/6
f 157/3/6 154/3/6 158/3/6
f 37/4/6 103/4/6 159/4/6
f 103/2/6 155/2/6 159/2/6
f 155/2/6 156/2/6 159/2/6
f 104/4/6 105/4/6 160/4/6
f 159/2/6 156/2/6 160/2/6
f 148/2/6 104/2/6 160/2/6
f 156/2/6 148/2/6 160/2/6
f 105/2/6 131/2/6 161/2/6
f 160/4/6 105/4/6 161/4/6
f 131/2/6 149/2/6 161/2/6
f 149/2/6 150/2/6 161/2/6
f 126/2/6 106/2/6 162/2/6
f 161/2/6 150/2/6 162/2/6
f 106/4/6 107/4/6 162/4/6
f 150/2/6 126/2/6 162/2/6
f 133/2/6 151/2/6 163/2/6
f 162/4/6 107/4/6 163/4/6
f 151/2/6 152/2/6 163/2/6
f 107/2/6 133/2/6 163/2/6
f 108/4/6 109/4/6 164/4/6
f 163/2/6 152/2/6 164/2/6
f 152/2/6 108/2/6 164/2/6
f 109/2/6 143/2/6 165/2/6
f 164/4/6 109/4/6 165/4/6
f 157/2/6 158/2/6 165/2/6
f 143/2/6 157/2/6 165/2/6
f 158/2/6 130/2/6 166/2/6
f 165/2/6 158/2/6 166/2/6
f 110/4/6 38/4/6 166/4/6
f 130/2/6 110/2/6 166/2/6
f 162/4/6 163/4/6 167/4/6
f 164/4/6 165/4/6 167/4/6
f 165/4/6 166/4/6 167/4/6
f 159/4/6 160/4/6 167/4/6
f 161/4/6 162/4/6 167/4/6
f 163/4/6 164/4/6 167/4/6
f 37/4/6 159/4/6 167/4/6
f 160/4/6 161/4/6 167/4/6
f 167/4/6 166/4/6 168/4/6
f 168/4/6 166/4/6 169/4/6
f 169/4/6 166/4/6 170/4/6
f 170/4/6 166/4/6 171/4/6
f 171/4/6 166/4/6 172/4/6
f 172/4/6 166/4/6 173/4/6
f 166/4/6 38/4/6 174/4/6
f 173/4/6 166/4/6 174/4/6
f 167/2/6 168/2/6 175/2/6
f 175/2/6 168/2/6 176/2/6
f 173/2/6 174/2/6 177/2/6
f 177/2/6 174/2/6 178/2/6
f 167/2/6 175/2/6 179/2/6
f 179/2/6 175/2/6 180/2/6
f 175/3/6 176/3/6 181/3/6
f 180/2/6 175/2/6 181/2/6
f 176/2/6 168/2/6 182/2/6
f 181/3/6 176/3/6 182/3/6
f 169/2/6 170/2/6 183/2/6
f 183/2/6 170/2/6 184/2/6
f 171/2/6 172/2/6 185/2/6
f 185/2/6 172/2/6 186/2/6
f 173/2/6 177/2/6 187/2/6
f 177/3/6 178/3/6 187/3/6
f 178/2/6 174/2/6 188/2/6
f 187/3/6 178/3/6 188/3/6
f 179/3/6 180/3/6 189/3/6
f 167/2/6 179/2/6 189/2/6
f 180/2/6 181/2/6 190/2/6
f 189/3/6 180/3/6 190/3/6
f 181/2/6 182/2/6 190/2/6
f 169/2/6 183/2/6 191/2/6
f 183/3/6 184/3/6 191/3/6
f 184/2/6 170/2/6 192/2/6
f 191/3/6 184/3/6 192/3/6
f 171/2/6 185/2/6 193/2/6
f 193/2/6 185/2/6 194/2/6
f 185/3/6 186/3/6 195/3/6
f 194/2/6 185/2/6 195/2/6
f 186/2/6 172/2/6 196/2/6
f 195/3/6 186/3/6 196/3/6
f 169/2/6 191/2/6 197/2/6
f 191/2/6 192/2/6 197/2/6
f 197/2/6 192/2/6 198/2/6
f 193/3/6 194/3/6 199/3/6
f 171/2/6 193/2/6 199/2/6
f 194/2/6 195/2/6 200/2/6
f 199/3/6 194/3/6 200/3/6
f 195/2/6 196/2/6 200/2/6
f 173/2/6 187/2/6 201/2/6
f 187/2/6 188/2/6 201/2/6
f 201/2/6 188/2/6 202/2/6
f 167/2/6 189/2/6 203/2/6
f 189/2/6 190/2/6 203/2/6
f 190/2/6 182/2/6 204/2/6
f 203/2/6 190/2/6 204/2/6
f 169/2/6 197/2/6 205/2/6
f 197/3/6 198/3/6 205/3/6
f 198/2/6 192/2/6 206/2/6
f 205/3/6 198/3/6 206/3/6
f 200/2/6 196/2/6 207/2/6
f 199/2/6 200/2/6 207/2/6
f 207/2/6 196/2/6 208/2/6
f 201/3/6 202/3/6 209/3/6
f 173/2/6 201/2/6 209/2/6
f 202/2/6 188/2/6 210/2/6
f 209/3/6 202/3/6 210/3/6
f 167/2/6 203/2/6 211/2/6
f 203/3/6 204/3/6 211/3/6
f 204/2/6 182/2/6 212/2/6
f 211/3/6 204/3/6 212/3/6
f 206/2/6 192/2/6 213/2/6
f 205/2/6 206/2/6 213/2/6
f 192/2/6 170/2/6 214/2/6
f 213/2/6 192/2/6 214/2/6
f 207/3/6 208/3/6 215/3/6
f 199/2/6 207/2/6 215/2/6
f 208/2/6 196/2/6 216/2/6
f 215/3/6 208/3/6 216/3/6
f 210/2/6 188/2/6 217/2/6
f 209/2/6 210/2/6 217/2/6
f 217/2/6 188/2/6 218/2/6
f 205/2/6 213/2/6 219/2/6
f 213/3/6 214/3/6 219/3/6
f 214/2/6 170/2/6 220/2/6
f 219/3/6 214/3/6 220/3/6
f 217/3/6 218/3/6 221/3/6
f 209/2/6 217/2/6 221/2/6
f 218/2/6 188/2/6 222/2/6
f 221/3/6 218/3/6 222/3/6
f 37/4/6 167/4/6 223/4/6
f 211/2/6 212/2/6 223/2/6
f 167/2/6 211/2/6 223/2/6
f 168/4/6 169/4/6 224/4/6
f 223/2/6 212/2/6 224/2/6
f 182/2/6 168/2/6 224/2/6
f 212/2/6 182/2/6 224/2/6
f 205/2/6 219/2/6 225/2/6
f 224/4/6 169/4/6 225/4/6
f 169/2/6 205/2/6 225/2/6
f 219/2/6 220/2/6 225/2/6
f 220/2/6 170/2/6 226/2/6
f 225/2/6 220/2/6 226/2/6
f 170/4/6 171/4/6 226/4/6
f 199/2/6 215/2/6 227/2/6
f 226/4/6 171/4/6 227/4/6
f 171/2/6 199/2/6 227/2/6
f 215/2/6 216/2/6 227/2/6
f 172/4/6 173/4/6 228/4/6
f 227/2/6 216/2/6 228/2/6
f 196/2/6 172/2/6 228/2/6
f 216/2/6 196/2/6 228/2/6
f 221/2/6 222/2/6 229/2/6
f 228/4/6 173/4/6 229/4/6
f 173/2/6 209/2/6 229/2/6
f 209/2/6 221/2/6 229/2/6
f 222/2/6 188/2/6 230/2/6
f 229/2/6 222/2/6 230/2/6
f 174/4/6 38/4/6 230/4/6
f 188/2/6 174/2/6 230/2/6
f 226/4/6 227/4/6 231/4/6
f 228/4/6 229/4/6 231/4/6
f 229/4/6 230/4/6 231/4/6
f 227/4/6 228/4/6 231/4/6
f 225/4/6 226/4/6 231/4/6
f 224/4/6 225/4/6 231/4/6
f 37/4/6 223/4/6 231/4/6
f 223/4/6 224/4/6 231/4/6
f 231/4/6 230/4/6 232/4/6
f 232/4/6 230/4/6 233/4/6
f 233/4/6 230/4/6 234/4/6
f 234/4/6 230/4/6 235/4/6
f 235/4/6 230/4/6 236/4/6
f 236/4/6 230/4/6 237/4/6
f 230/4/6 38/4/6 238/4/6
f 237/4/6 230/4/6 238/4/6
f 231/2/6 232/2/6 239/2/6
f 239/2/6 232/2/6 240/2/6
f 235/2/6 236/2/6 241/2/6
f 241/2/6 236/2/6 242/2/6
f 231/2/6 239/2/6 243/2/6
f 239/3/6 240/3/6 243/3/6
f 240/2/6 232/2/6 244/2/6
f 243/3/6 240/3/6 244/3/6
f 233/2/6 234/2/6 245/2/6
f 245/2/6 234/2/6 246/2/6
f 235/2/6 241/2/6 247/2/6
f 247/2/6 241/2/6 248/2/6
f 241/3/6 242/3/6 249/3/6
f 248/2/6 241/2/6 249/2/6
f 242/2/6 236/2/6 250/2/6
f 249/3/6 242/3/6 250/3/6
f 231/2/6 243/2/6 251/2/6
f 243/2/6 244/2/6 251/2/6
f 251/2/6 244/2/6 252/2/6
f 233/2/6 245/2/6 253/2/6
f 245/3/6 246/3/6 253/3/6
f 246/2/6 234/2/6 254/2/6
f 253/3/6 246/3/6 254/3/6
f 247/3/6 248/3/6 255/3/6
f 235/2/6 247/2/6 255/2/6
f 248/2/6 249/2/6 256/2/6
f 255/3/6 248/3/6 256/3/6
f 249/2/6 250/2/6 256/2/6
f 237/2/6 238/2/6 257/2/6
f 257/2/6 238/2/6 258/2/6
f 231/2/6 251/2/6 259/2/6
f 251/3/6 252/3/6 259/3/6
f 252/2/6 244/2/6 260/2/6
f 259/3/6 252/3/6 260/3/6
f 233/2/6 253/2/6 261/2/6
f 253/2/6 254/2/6 261/2/6
f 261/2/6 254/2/6 262/2/6
f 237/2/6 257/2/6 263/2/6
f 263/2/6 257/2/6 264/2/6
f 257/3/6 258/3/6 265/3/6
f 264/2/6 257/2/6 265/2/6
f 258/2/6 238/2/6 266/2/6
f 265/3/6 258/3/6 266/3/6
f 233/2/6 261/2/6 267/2/6
f 261/3/6 262/3/6 267/3/6
f 262/2/6 254/2/6 268/2/6
f 267/3/6 262/3/6 268/3/6
f 235/2/6 255/2/6 269/2/6
f 255/2/6 256/2/6 269/2/6
f 256/2/6 250/2/6 270/2/6
f 269/2/6 256/2/6 270/2/6
f 263/3/6 264/3/6 271/3/6
f 237/2/6 263/2/6 271/2/6
f 264/2/6 265/2/6 272/2/6
f 271/3/6 264/3/6 272/3/6
f 265/2/6 266/2/6 272/2/6
f 260/2/6 244/2/6 273/2/6
f 259/2/6 260/2/6 273/2/6
f 273/2/6 244/2/6 274/2/6
f 268/2/6 254/2/6 275/2/6
f 267/2/6 268/2/6 275/2/6
f 275/2/6 254/2/6 276/2/6
f 235/2/6 269/2/6 277/2/6
f 269/3/6 270/3/6 277/3/6
f 270/2/6 250/2/6 278/2/6
f 277/3/6 270/3/6 278/3/6
f 272/2/6 266/2/6 279/2/6
f 271/2/6 272/2/6 279/2/6
f 279/2/6 266/2/6 280/2/6
f 273/3/6 274/3/6 281/3/6
f 259/2/6 273/2/6 281/2/6
f 274/2/6 244/2/6 282/2/6
f 281/3/6 274/3/6 282/3/6
f 275/3/6 276/3/6 283/3/6
f 267/2/6 275/2/6 283/2/6
f 276/2/6 254/2/6 284/2/6
f 283/3/6 276/3/6 284/3/6
f 279/3/6 280/3/6 285/3/6
f 271/2/6 279/2/6 285/2/6
f 280/2/6 266/2/6 286/2/6
f 285/3/6 280/3/6 286/3/6
f 37/4/6 231/4/6 287/4/6
f 259/2/6 281/2/6 287/2/6
f 231/2/6 259/2/6 287/2/6
f 281/2/6 282/2/6 287/2/6
f 232/4/6 233/4/6 288/4/6
f 287/2/6 282/2/6 288/2/6
f 244/2/6 232/2/6 288/2/6
f 282/2/6 244/2/6 288/2/6
f 267/2/6 283/2/6 289/2/6
f 288/4/6 233/4/6 289/4/6
f 283/2/6 284/2/6 289/2/6
f 233/2/6 267/2/6 289/2/6
f 284/2/6 254/2/6 290/2/6
f 289/2/6 284/2/6 290/2/6
f 234/4/6 235/4/6 290/4/6
f 254/2/6 234/2/6 290/2/6
f 277/2/6 278/2/6 291/2/6
f 290/4/6 235/4/6 291/4/6
f 235/2/6 277/2/6 291/2/6
f 236/4/6 237/4/6 292/4/6
f 291/2/6 278/2/6 292/2/6
f 250/2/6 236/2/6 292/2/6
f 278/2/6 250/2/6 292/2/6
f 271/2/6 285/2/6 293/2/6
f 292/4/6 237/4/6 293/4/6
f 285/2/6 286/2/6 293/2/6
f 237/2/6 271/2/6 293/2/6
f 286/2/6 266/2/6 294/2/6
f 293/2/6 286/2/6 294/2/6
f 238/4/6 38/4/6 294/4/6
f 266/2/6 238/2/6 294/2/6
f 290/4/6 291/4/6 295/4/6
f 292/4/6 293/4/6 295/4/6
f 293/4/6 294/4/6 295/4/6
f 287/4/6 288/4/6 295/4/6
f 291/4/6 292/4/6 295/4/6
f 288/4/6 289/4/6 295/4/6
f 37/4/6 287/4/6 295/4/6
f 289/4/6 290/4/6 295/4/6
f 294/4/6 38/4/6 296/4/6
f 295/4/6 294/4/6 296/4/6
f 297/1/6 298/1/6 299/1/6
f 299/1/6 298/1/6 300/1/6
f 297/1/6 299/1/6 301/1/6
f 300/1/6 298/1/6 302/1/6
f 297/1/6 301/1/6 303/1/6
f 301/1/6 302/1/6 303/1/6
f 302/1/6 298/1/6 304/1/6
f 303/1/6 302/1/6 304/1/6
